<?xml version="1.0" standalone="no"?>
<!DOCTYPE svg PUBLIC "-//W3C//DTD SVG 1.1//EN" "http://www.w3.org/Graphics/SVG/1.1/DTD/svg11.dtd" >
<svg xmlns="http://www.w3.org/2000/svg">
<metadata></metadata>
<defs>
<font id="ChaloopsBold" horiz-adv-x="1327" >
<font-face units-per-em="2048" ascent="1638" descent="-410" />
<missing-glyph horiz-adv-x="548" />
<glyph horiz-adv-x="0" />
<glyph horiz-adv-x="0" />
<glyph horiz-adv-x="2048" />
<glyph unicode=" "  horiz-adv-x="548" />
<glyph unicode="&#x09;" horiz-adv-x="548" />
<glyph unicode="&#xa0;" horiz-adv-x="548" />
<glyph unicode="!" horiz-adv-x="618" d="M27 -29q0 73 51 127t131 54q69 0 121.5 -50t52.5 -122q0 -74 -49 -131.5t-131 -57.5q-83 0 -129.5 51.5t-46.5 128.5zM106 383q1 11 3 30.5t7.5 75.5t10.5 107.5t11 116.5t10 113.5t6.5 86.5t1.5 48q-1 24 7 180t17 300l8 144l383 -39q-11 -95 -47 -508q-14 -82 -90 -686 q-102 -14 -180 0q-34 3 -71 10.5t-57 13.5z" />
<glyph unicode="&#x22;" horiz-adv-x="999" d="M70 1427q227 16 342 -4l-4 -69q-23 -181 -25 -236q-2 -40 -0.5 -165t6.5 -173q-29 -18 -137 -19t-154 9q-8 274 -14 358q-14 231 -14 299zM541 1491q227 18 342 -2l-4 -72q-21 -178 -23 -233q-14 -207 -31 -326q-31 -20 -124.5 -29.5t-139.5 0.5q-1 35 -2.5 82t-4 162.5 t0.5 118.5q4 23 2 74t-5.5 98t-7 86.5t-3.5 40.5z" />
<glyph unicode="#" horiz-adv-x="1267" d="M20 469l78 213q54 4 199 12l25 115l12 68l-211 4l84 225q6 1 19 1.5t58 1.5t97 -1l49 233l244 -8q-22 -122 -47 -239q23 -3 71.5 -3.5t79.5 1.5l56 247l247 -34q-35 -140 -43 -234q29 -2 107.5 -3t97.5 -3l-49 -234l-76 13q-26 4 -137 10q-6 -22 -39 -162q-9 -30 -10 -35 l192 -20l-39 -211q-119 -4 -211 6l-75 -342l-250 4q36 195 65 324l9 33q-13 -1 -57 2t-58 2q-12 -75 -29 -162.5t-28 -138.5l-11 -50l-247 15q34 176 63 342zM549 688q26 -3 60.5 -3.5t70.5 -4.5q2 25 20.5 100.5t20.5 87.5l-137 4q-32 -161 -35 -184z" />
<glyph unicode="$" horiz-adv-x="972" d="M41 379l141 153q56 -49 189 -139q7 88 22 225l-49 13q-135 36 -219 130.5t-59 207.5q25 108 138.5 200.5t239.5 102.5q11 176 11 375q40 9 109 -0.5t106 -32.5q17 -117 -8 -344q99 -32 133 -53q84 -56 129 -132l-160 -137q-32 92 -121 117q-4 -36 -16.5 -137.5 t-18.5 -165.5q179 -51 256 -157.5t49 -258.5q-12 -60 -54.5 -105.5t-98.5 -68.5t-113 -32.5t-106 -4.5q-5 -44 -11.5 -88.5t-17.5 -96.5t-18 -83t-22.5 -95.5t-20.5 -86.5l-195 28q9 28 21.5 75.5t33.5 166.5t21 205q-132 69 -291 219zM319 920q-14 -58 93 -95q5 43 22 217 q-100 -60 -115 -122zM567 324q44 -6 87 16.5t46 50.5q6 51 -24 93.5t-92 52.5q-1 -11 -6.5 -90.5t-10.5 -122.5z" />
<glyph unicode="%" horiz-adv-x="1216" d="M27 920q0 105 70.5 171t172.5 66q54 0 86 -12h-2q121 -49 121 -172q0 -65 -37.5 -127t-99.5 -92q-66 -23 -117 -23q-131 0 -170 90q-24 46 -24 99zM145 168q236 355 320 500q40 67 135.5 205t170.5 243l75 105l182 -125l-35 -41q-250 -349 -336 -490 q-40 -67 -122.5 -197.5t-145.5 -227.5l-63 -97zM721 385q0 51 58.5 124t142.5 87q45 3 82.5 -9.5t60.5 -33t40 -45.5t24 -44t8 -32q0 -35 -8 -67.5t-20 -54.5t-24 -38.5t-20 -23.5l-8 -8q-62 -27 -129 -27q-41 0 -76 14v-2q-41 18 -86 62.5t-45 97.5z" />
<glyph unicode="&#x26;" horiz-adv-x="1280" d="M51 389q0 115 71.5 230.5t170.5 154.5q-11 16 -38 50t-30 38l2 -2q-25 43 -44 119.5t-19 128.5q0 44 9 117t26 112q31 73 129.5 118.5t210.5 45.5q83 0 161 -26t117 -76q37 -50 49.5 -109.5t12.5 -150.5q0 -54 -20 -122.5t-46 -121.5q-46 -82 -131 -154q32 -45 143 -184 q33 68 152 252q47 -13 101.5 -68.5t97.5 -124.5l-16.5 -16.5t-38.5 -41.5t-51.5 -60t-47 -66.5t-33.5 -66.5q26 -26 69 -61.5t109 -87t82 -64.5l-215 -240q-40 22 -80 57t-79 77t-50 52q-54 -68 -151 -121t-191 -53q-107 0 -174.5 24.5t-124.5 74.5q-66 66 -99.5 167 t-33.5 199zM371 377q0 -72 35 -125t106 -53q67 0 145 98q-124 152 -215 274q-71 -57 -71 -194zM463 1143q0 -39 17 -97t28 -75q46 24 76.5 72t27.5 96q-3 29 -6 42.5t-12.5 31t-30 24.5t-53.5 6q-20 -9 -33.5 -38.5t-13.5 -61.5z" />
<glyph unicode="'" horiz-adv-x="450" d="M51 1427q227 16 342 -4l-6 -69q-20 -181 -22 -236q-2 -40 -0.5 -165t6.5 -173q-29 -18 -138 -19t-153 9q-1 32 -9 179.5t-14 284t-6 193.5z" />
<glyph unicode="(" horiz-adv-x="606" d="M20 721q0 72 9 146.5t18 130t36 140t40 125t55 140t55 129t65 144.5q11 25 17 38l293 -131l-82 -176v2q-54 -98 -73 -166l-15 -51q-86 -282 -86 -440q0 -207 82.5 -417.5t231.5 -395.5l-242 -195q-192 240 -298 488.5t-106 488.5z" />
<glyph unicode=")" horiz-adv-x="645" d="M-10 -104q145 189 224.5 401t76.5 418q-2 71 -17 153t-30 137t-43 144q-3 11 -11.5 31t-11.5 28l2 -2q-20 71 -83.5 183t-80.5 153l297 133q1 -2 58 -131v2q64 -137 96.5 -212.5t73.5 -191t59.5 -224.5t20.5 -230q8 -469 -388 -985z" />
<glyph unicode="*" horiz-adv-x="1069" d="M51 1151l19 111l272 61q64 195 125 332l121 -35l51 -234q116 27 297 82l61 -96l-272 -231q17 -47 60.5 -170.5t66.5 -184.5l-78 -79l-280 200q-23 -26 -89.5 -112.5t-97.5 -122.5l-131 53q31 146 82 322q-152 83 -207 104z" />
<glyph unicode="+" horiz-adv-x="1069" d="M88 745q216 13 277 21l-3 367l293 -41q2 -21 4.5 -55t6 -117.5t2.5 -139.5q36 -2 83 -3.5t88 -2t76.5 -0.5h56.5h21l-14 -278q-22 -1 -58 -3.5t-120 -5t-137 -0.5q-2 -64 2.5 -152t9.5 -144l6 -56l-291 51q-3 19 -8 51.5t-12.5 114.5t-5.5 142q-56 -1 -124 0t-109 2 l-40 2q-11 22 -12 83.5t4 112.5z" />
<glyph unicode="," horiz-adv-x="512" d="M33 -141q48 26 94.5 73t46.5 78v4q-58 10 -89.5 52t-31.5 104q0 69 57 120.5t140 51.5q97 0 141.5 -74.5t44.5 -191.5q0 -98 -87.5 -206t-219.5 -194z" />
<glyph unicode="-" horiz-adv-x="888" d="M8 705q94 9 408.5 24t421.5 27l22 -221l-96 -84q-79 -9 -315 -17q-259 -9 -416 -22z" />
<glyph unicode="." horiz-adv-x="542" d="M74 166q0 79 56 137.5t144 58.5q77 0 135 -54t58 -134t-55.5 -142.5t-145.5 -62.5t-141 56.5t-51 140.5z" />
<glyph unicode="/" horiz-adv-x="1069" d="M-8 -113q344 704 473 971q24 51 82.5 176t98 209t86.5 186.5t76 171t38 99.5q58 9 141 -17.5t131 -64.5l-74 -109q-283 -516 -387 -729q-28 -55 -119 -231t-151.5 -295.5t-124.5 -252.5t-84 -189q-24 6 -70.5 25t-81.5 35z" />
<glyph unicode="0" horiz-adv-x="1255" d="M39 545q0 180 55 354t156 268q78 73 148 97t214 24q92 0 199 -45t158 -96q90 -86 160.5 -273.5t70.5 -318.5q0 -167 -68.5 -302.5t-196 -214.5t-290.5 -79q-159 0 -277 42t-189.5 120.5t-105.5 184t-34 239.5zM383 580q0 -87 9.5 -140.5t38.5 -97t85 -62t146 -18.5 q66 0 110.5 47t62 110.5t17.5 135.5q0 83 -37.5 206t-87.5 173q-18 16 -63 38.5t-52 22.5q-57 0 -77.5 -7.5t-49.5 -33.5q-29 -25 -65.5 -152t-36.5 -222z" />
<glyph unicode="1" horiz-adv-x="935" d="M66 961q96 143 137 192l47 57q100 125 139 168q38 13 93.5 13.5t98.5 -5.5t81 -16q4 -146 4 -246q0 -118 -9.5 -338t-9.5 -340q0 -160 2 -206q44 2 117.5 4.5t85.5 3.5l4 -293l-754 -29l-4 295l203 4q-10 275 4 543q0 6 1 20t1 21q-62 -78 -84 -100z" />
<glyph unicode="2" horiz-adv-x="1132" d="M16 1024q72 121 101 164q10 15 22.5 30t20.5 24t25.5 24.5t23 20.5t28 23.5t27.5 22.5q41 32 111.5 49t148.5 17q99 0 201 -59t166.5 -155.5t56.5 -195.5q-8 -173 -125 -385h2q-23 -43 -65 -95t-99.5 -115.5t-85.5 -98.5q106 37 244 60.5t264 23.5l-14 -336 q-123 10 -131 10q-91 8 -261.5 -12.5t-309.5 -60.5l-170 -48l-144 187q201 217 254 280q87 107 211 324q34 64 58 148t24 135q0 32 -41 67t-72 35q-17 0 -53.5 -22.5t-50.5 -41.5q-38 -54 -129 -206z" />
<glyph unicode="3" horiz-adv-x="1191" d="M29 -72l133 312q92 -103 92 -105q60 -60 115.5 -81t130.5 -21q44 0 85.5 6.5t83 22t72.5 44t45 68.5q25 73 25 125q0 91 -51 135q-56 12 -172 12q-19 0 -83 -1t-69 -1l-78 162q3 3 88.5 117t112.5 151q-188 5 -450 5l16 305q342 -13 420 -15l413 -20l78 -143 q-60 -59 -131.5 -144t-116.5 -147q169 -19 218 -68q23 -25 38 -43t39 -54.5t38.5 -70t26 -82t11.5 -98.5q0 -108 -45 -225h-2q-41 -109 -133 -186.5t-207.5 -113.5t-243.5 -36q-129 0 -245 35.5t-195 103.5q-14 12 -24.5 20.5t-17 14t-17.5 16.5z" />
<glyph unicode="4" horiz-adv-x="1263" d="M47 569q52 127 111.5 245.5t135 241.5t166.5 221t183 150q0 19 2 27q182 -17 342 -57q-33 -201 -39 -322q-18 -128 -22 -413q21 4 83 8.5t113 7.5l52 2l-15 -334l-225 19q-5 -72 -12 -269.5t-7 -245.5l-350 5q9 150 13 254q2 33 4 129.5t4 130.5q-121 10 -234 10 q-43 0 -132.5 -8.5t-90.5 -8.5q-7 16 -20.5 53.5t-16.5 43.5q-36 80 -45 110zM379 653q13 -2 112.5 2.5t110.5 3.5l27 351q-67 -62 -144 -174.5t-106 -182.5z" />
<glyph unicode="5" horiz-adv-x="1069" d="M53 1225q45 -4 110.5 0.5t144.5 15t108 12.5l36 4.5t39.5 5.5t39 6.5t50 9t55.5 11.5t72 17t85 22l55 -317q-16 -12 -80 -14t-145.5 3t-148 11t-112.5 12q12 -172 13 -180q8 1 32 3t44 3.5t32 1.5q214 0 320 -61q205 -121 205 -414q0 -48 -7 -109q-16 -161 -77.5 -300 t-161.5 -214q-117 -92 -313 -92q-118 0 -197.5 38t-192.5 140l109 271q101 -85 119 -95q74 -51 162 -51q55 0 100 31h-2q41 30 83 141.5t42 224.5q0 132 -35 177v-2q-46 49 -270 49q-67 0 -269 -21l-6 277q2 60 -4.5 127t-19 151t-15.5 105z" />
<glyph unicode="6" horiz-adv-x="989" d="M82 514q0 120 43.5 273.5t126.5 299.5q110 196 235 318l195 -275q-86 -82 -154 -198q-69 -123 -108 -250q87 61 194 61q142 0 219.5 -80t77.5 -206q0 -101 -48.5 -201t-142.5 -170t-208 -70q-101 0 -185 44.5t-136 116.5t-80.5 159.5t-28.5 177.5zM414 414 q-6 -51 14.5 -75t69.5 -44q48 -12 93.5 18t51.5 70q7 34 -11.5 68t-66.5 41q-61 0 -103.5 -23.5t-47.5 -54.5z" />
<glyph unicode="7" horiz-adv-x="1046" d="M8 1112l49 297l238 -2l614 -51l39 -150l-8 -55q-31 -60 -70 -193q-15 -44 -27 -87t-28 -109.5t-20 -81.5q-1 -4 -9.5 -33.5t-13.5 -44.5q8 0 22 -1t21 -1q11 0 73 -1t66 -1l-2 -297q-16 1 -111.5 3.5t-144.5 4.5l-188 -688l-287 82q51 339 133 621l-118 6l14 288 q136 0 182 -4h2q17 64 65 231t68 249h-2z" />
<glyph unicode="8" horiz-adv-x="1083" d="M41 1055q0 104 74 252h-2q44 92 132.5 153.5t188.5 61.5q96 0 188 -59t148.5 -151t56.5 -184q0 -70 -23 -122.5t-79 -108.5q64 16 132 -19.5t112 -92.5t53 -109q10 -58 10 -111q0 -55 -8.5 -111.5t-27.5 -122.5t-59 -127.5t-95 -105.5q-79 -59 -188.5 -100t-211.5 -41 q-133 0 -211 72q-49 44 -82.5 91.5t-51 101t-24.5 89t-14 92.5q-4 111 31 183q37 69 133 162q-58 38 -84 67q-98 112 -98 240zM352 1032q0 -47 18 -60.5t76 -19.5q3 0 20 9.5t37 28.5t23 38q5 25 6.5 64t-6.5 88q-7 23 -38.5 42t-65.5 9q-32 -16 -51 -75t-19 -124zM410 438 q0 -24 2.5 -49.5t9.5 -60t25.5 -56.5t44.5 -22q96 0 165 72h-2q26 22 40.5 91.5t9.5 133.5q-6 67 -34 98.5t-93 30.5q-26 0 -86 -49q-40 -33 -62 -89.5t-20 -99.5z" />
<glyph unicode="9" horiz-adv-x="1007" d="M31 762q0 80 25.5 165t74.5 144q67 81 173 130t218 48q234 -3 350 -198v2q93 -147 93 -348q0 -156 -63 -342.5t-164.5 -356t-227.5 -318.5t-252 -243l-182 256q372 272 473 649q-64 -26 -129 -31q-55 -4 -114.5 10.5t-123.5 59t-102 113.5q-19 34 -34 123.5t-15 136.5z M371 791q-7 -84 17.5 -131t62.5 -50q149 -8 165 148q4 37 -8 81.5t-39.5 78.5t-62.5 34q-43 0 -92 -49q-39 -42 -43 -112z" />
<glyph unicode=":" horiz-adv-x="585" d="M43 227q0 95 73 151t177 56q90 0 158.5 -59.5t68.5 -141.5q0 -98 -129 -202l-61 -2q-60 1 -124.5 24.5t-113.5 70t-49 103.5zM80 831q0 76 58 131.5t149 55.5q80 0 139 -51.5t59 -126.5q0 -74 -56 -133.5t-148 -59.5q-94 0 -147.5 53t-53.5 131z" />
<glyph unicode=";" horiz-adv-x="585" d="M-14 -213q67 34 142 105.5t75 113.5v12q-84 5 -133.5 51.5t-49.5 137.5q0 86 53 144.5t156 58.5q81 0 141.5 -25.5t95.5 -71t52 -102t17 -123.5q0 -164 -78 -281.5t-275 -220.5zM80 854q0 76 58 131t149 55q80 0 139 -51.5t59 -126.5t-56.5 -134.5t-147.5 -59.5 q-94 0 -147.5 54.5t-53.5 131.5z" />
<glyph unicode="&#x3c;" horiz-adv-x="944" d="M-23 483q162 156 211 203h-2q98 96 289 303l234 252l174 -174l2 -109q-251 -265 -312 -335q-19 -22 -114 -117q258 -190 456 -279l-77 -319q-115 53 -212.5 107.5t-191 120t-136 98t-136.5 106.5z" />
<glyph unicode="=" horiz-adv-x="989" d="M6 504q122 10 420 17t502 32q0 -53 1 -89t2 -48t3.5 -28.5t3.5 -22.5l-2 4l4 -29l-94 -94q-81 -7 -403.5 -17t-407.5 -18zM47 610l2 297h223q131 0 164 2l502 17l2 -219l-102 -80q-125 -8 -396 -14t-395 -3z" />
<glyph unicode="&#x3e;" horiz-adv-x="944" d="M-27 999l207 240l264 -231q221 -194 310 -265v2l157 -124l9 -119l-111 -109q-99 -98 -160.5 -155t-187.5 -153.5t-268 -180.5l-113 311q199 119 422 330q-87 69 -123 102q-29 28 -130.5 116t-188.5 162z" />
<glyph unicode="?" horiz-adv-x="968" d="M14 1376q76 97 209 161.5t252 64.5q129 0 231.5 -62t158 -164t55.5 -223q0 -54 -18 -102.5t-59 -99t-71 -80.5t-90 -85q-39 -38 -54.5 -53.5t-39.5 -49t-33 -65.5q-8 -24 -8 -57q0 -11 20 -129l-334 -31q-34 121 -34 177q0 52 20 127q24 68 77.5 133t149.5 157 q53 53 81 96.5t28 94.5q0 56 -31 94.5t-78 38.5q-19 0 -38 -5t-40.5 -16.5t-33.5 -19t-36 -24.5t-30 -21q-41 -35 -84 -80zM223 72q0 79 56.5 137.5t144.5 58.5q78 0 135 -54t57 -134q0 -81 -55 -143t-145 -62q-89 0 -141 57t-52 140z" />
<glyph unicode="@" horiz-adv-x="1462" d="M41 434q0 99 11 193t37.5 193t67.5 184.5t105 161.5t144.5 130t191.5 85.5t242 31.5q98 0 185.5 -39.5t150.5 -106t109.5 -152t69.5 -180t23 -187.5q0 -80 -25 -168.5t-70.5 -168.5t-119.5 -132t-162 -52q-99 0 -170 74q-48 -43 -109 -68.5t-120 -25.5q-82 0 -143 47 t-89 116t-28 148q0 73 28.5 151t76.5 142t118 105.5t146 41.5q91 0 180.5 -41t159.5 -120q-86 -128 -86 -281q0 -19 11 -30t28 -11q32 0 58.5 33t41.5 82t23 96.5t8 83.5q0 93 -29.5 185.5t-94 160.5t-149.5 68q-128 0 -227.5 -37.5t-165.5 -103.5t-108 -162t-59.5 -206 t-16.5 -243q1 -90 32 -174.5t77.5 -143t101 -93.5t102.5 -35q64 0 141.5 34t128.5 74l97 -225q-62 -54 -179.5 -89.5t-205.5 -35.5q-74 0 -149 27t-145.5 84t-124.5 137t-87 194.5t-33 247.5zM610 549q0 -35 14.5 -60.5t39.5 -25.5q16 0 30.5 11.5t28 37.5t23 48t21.5 62 t17 58.5t15 58.5q-37 11 -60 11q-46 0 -87.5 -72.5t-41.5 -128.5z" />
<glyph unicode="A" horiz-adv-x="1275" d="M-23 375q0 5 -1 38t-0.5 60.5t4.5 52.5q10 58 49 138h180q31 94 112 382.5t136 442.5l321 22q21 -73 221.5 -699.5t262.5 -831.5q-32 -20 -87.5 -37.5t-93.5 -14.5q-31 0 -153 15l-28 99q-28 98 -38 138q-9 35 -20 68t-25.5 70.5t-17.5 46.5q-123 -7 -330 -7 q-8 -52 -38.5 -198.5t-39.5 -212.5q-196 -9 -325 49q8 59 37 199t34 178q-1 0 -4.5 0.5t-12.5 1.5t-24 1.5t-46 0t-73 -1.5zM535 666q121 0 182 6q-6 20 -27.5 84t-39.5 119.5t-25 82.5q-9 -45 -44.5 -140.5t-45.5 -151.5z" />
<glyph unicode="B" horiz-adv-x="1064" d="M-6 1282l223 98q144 64 268 64q160 0 252 -86q97 -97 97 -219q0 -134 -97 -281q118 -43 189 -123q116 -128 116 -278q0 -202 -194 -375q-198 -176 -641 -191q-21 299 -70 756q0 2 -1 8t-1 9q-8 82 -16 140.5t-40.5 196t-84.5 281.5zM324 1149q9 -37 31 -150t38 -186 q24 18 52.5 45t44.5 44l16 18q48 58 33 155q-8 40 -34 67t-65 34q-14 2 -52 -6.5t-64 -20.5zM455 573q17 -174 43 -340q7 5 52.5 34t53.5 36q64 67 64 156q2 44 -20.5 80t-63.5 49q-5 6 -49.5 2.5t-79.5 -17.5z" />
<glyph unicode="C" horiz-adv-x="1189" d="M35 723q0 98 21 199t68.5 201.5t115.5 178.5t170.5 126.5t224.5 48.5q104 0 193.5 -36.5t153 -98.5t102.5 -146t46 -178l11 -152q-66 -26 -132 -37.5t-122 -10.5t-123 3q17 129 14 172q0 7 -1 21t-1 18q0 65 -40 104.5t-101 39.5q-59 0 -106.5 -42.5t-74.5 -108.5 t-41 -137t-14 -136q0 -148 11 -254q4 -60 17.5 -119t37.5 -116t65 -92.5t93 -35.5q75 0 120 41q45 71 45 258l357 -16l-4 -74q-13 -94 -30 -154.5t-52 -126.5v3q-101 -230 -445 -230q-115 0 -215.5 43t-162.5 117q-201 239 -201 727z" />
<glyph unicode="D" horiz-adv-x="1204" d="M-20 1262q261 53 274 55q176 32 336 20t262 -71q91 -55 171.5 -179t102.5 -270q23 -159 8 -299.5t-65 -234.5q-72 -129 -270 -228t-471 -164l-185 1092q-16 -5 -106 -22q-32 74 -47 163q-12 55 -10 138zM469 1026q77 -436 131 -715q7 3 40 15.5t54 22.5t44.5 33t31.5 52 q50 135 8 363q-11 66 -46.5 115.5t-67.5 70.5q-69 39 -195 43z" />
<glyph unicode="E" horiz-adv-x="1083" d="M29 836q9 0 34.5 3t53.5 6.5t33 4.5q-1 95 -5.5 293.5t-5.5 277.5q23 -1 122 1.5t110 2.5q44 0 585 33q7 -19 12.5 -37.5t8 -31.5t3.5 -29t1.5 -23.5t0 -21.5t-0.5 -17q0 -43 -16 -131q-72 -6 -121 -9.5t-66.5 -4.5t-23.5 -2q-210 -14 -260 -16q0 -166 2 -246 q347 46 428 63q40 -142 20 -290q-62 -11 -134 -24.5t-100 -18.5t-67 -11.5t-69 -10.5t-72 -9l6 -230q222 61 473 101q18 -64 21.5 -166t-3.5 -141q-191 -39 -428 -103t-401 -137l-14 643q-19 -1 -50.5 -5t-53.5 -8l-21 -3z" />
<glyph unicode="F" horiz-adv-x="1011" d="M0 729l125 23l-86 604q231 72 342 94q61 15 461 82l96 22q27 -84 38 -142t17 -152l-172 -29q-232 -47 -409 -78q30 -204 49 -317q44 4 83.5 10t86 15.5t63.5 12.5q14 2 79 19.5t73 19.5q9 -15 16.5 -30.5t12 -26.5t8.5 -24.5t6 -20.5t4.5 -18t3.5 -13q7 -47 -2 -164 l-172 -34q-150 -27 -215 -35h-2q67 -437 94 -588q-112 -49 -154 -57q-58 -13 -192 -2l-86 575l-105 -20z" />
<glyph unicode="G" horiz-adv-x="1310" d="M49 473q0 208 17.5 336t87.5 283q89 185 247.5 301t296.5 116q119 0 213.5 -35t155 -107.5t72.5 -174.5l10 -139q-26 -7 -64 -19t-64 -20.5t-64.5 -18.5t-64.5 -14t-64 -7t-64 3q22 104 -4 190q-9 25 -64 25q-51 0 -121 -59.5t-110 -176.5q-40 -114 -53 -215t-13 -231 q2 -87 31 -163t72.5 -126t96 -77.5t103.5 -24.5h5v41q0 148 6 338q-3 0 -7 -1t-10 -1l-172 -15l4 305q109 15 308 23t381 33q15 -181 14 -205v-115h-174q-6 -212 -6 -364q0 -61 6 -244q-101 -62 -185.5 -93.5t-195.5 -31.5q-309 0 -510 277q-48 67 -82.5 183t-34.5 224z" />
<glyph unicode="H" horiz-adv-x="1253" d="M-18 369v290h133l-15 838q124 29 187 29q45 0 162 -23l14 -841h203q1 162 5 499t5 494q114 35 168 35q38 0 180 -29l-10 -999q40 0 108.5 1t85.5 1v-287l-196 -4q0 -91 -2 -280t-2 -271q-120 -29 -166 -29q-48 0 -183 29v125l5 422h-199q1 -71 5 -212.5t5 -199.5 q-142 -29 -182 -29q-37 0 -164 15l-12 426h-135z" />
<glyph unicode="I" horiz-adv-x="587" d="M68 1384q83 24 205.5 27.5t162.5 -6.5q8 -54 9.5 -159t5.5 -154q5 -63 11.5 -238.5t11.5 -267.5q2 -40 15 -278.5t19 -315.5l-356 -8l-9 290q-2 43 -6.5 159.5t-7.5 166.5q0 8 -1 27t-1 28q-11 207 -59 729z" />
<glyph unicode="J" horiz-adv-x="962" d="M-35 1165q173 40 509 110.5t382 80.5q73 -139 64 -285l-277 -47q42 -127 182 -508q48 -132 54 -197q9 -73 10.5 -145t-13 -139.5t-37.5 -127t-63.5 -108.5t-92 -83.5t-122.5 -52t-155 -13.5q-147 9 -234 71q-25 13 -71 130t-46 202q47 15 118 28t118 19l47 6 q3 -44 16.5 -81t25.5 -53l13 -15q20 -10 53.5 -13.5t51.5 3.5q43 20 48 105.5t-16 205.5q-4 39 -15.5 86t-30.5 106.5t-31.5 95t-38.5 104.5t-31 83q-30 74 -76 211l-272 -65q-55 127 -70 286z" />
<glyph unicode="K" horiz-adv-x="1136" d="M57 -143l9 114q1 113 5 342t5 344q0 91 12 291q8 180 8 520q183 44 348 7l-28 -469q9 6 57.5 40.5t73 52.5t68 51t81.5 65t74 65l111 100q155 -108 217 -235q-102 -82 -209 -176h2l-240 -197h2q-30 -23 -129 -84l2 2l-30 -20q39 -41 82.5 -88.5t67 -73t36.5 -37.5 q145 -151 260 -244l162 -135q-24 -107 -53 -160q-38 -72 -109 -129l-227 203q-58 53 -153.5 163t-149.5 189q-2 -50 -2.5 -197t-3.5 -192q-1 -14 0 -74t0 -69q-189 -50 -349 31z" />
<glyph unicode="L" horiz-adv-x="989" d="M57 -92l13 141q51 414 65 647l33 711q106 29 164 29q70 0 186 -39q-5 -142 -17 -408.5t-14 -306.5q-1 -26 -2.5 -47.5t-4 -51.5t-4.5 -48.5t-6.5 -63t-7.5 -67.5t-10.5 -90t-11.5 -105q59 -4 183 -15t221 -16l102 -4q7 -52 -1.5 -161.5t-29.5 -178.5q-21 2 -109.5 10 t-127 11t-107 6.5t-125.5 3.5q-199 7 -266 20z" />
<glyph unicode="M" horiz-adv-x="1697" d="M25 18l2 121l98 1264l215 156l455 -807q37 133 165.5 396.5t213.5 399.5l296 -100l13 -111q8 -60 33 -204l22 -140q28 -189 62 -480.5t47 -438.5l6 -121q-123 -43 -203 -43q-70 0 -188 41v125q2 19 -4.5 58t-6.5 56q0 164 -16.5 383.5t-34.5 337.5q-29 -56 -62 -136 t-66.5 -177.5t-56 -165.5t-53.5 -166.5t-36 -113.5h-166l-324 538q-6 -138 -10.5 -361.5t-9.5 -334.5q-152 -19 -193 -19q-82 0 -198 43z" />
<glyph unicode="N" horiz-adv-x="1165" d="M66 1333l251 174q297 -637 396 -821q-2 96 -2 289q0 280 10 567q101 35 158 35q46 0 190 -39q-8 -328 -8 -537q0 -647 43 -1198l-197 -49q-236 353 -391 606q26 -251 68 -565q-160 -56 -348 -41l-17 129l2 -2q-52 389 -155 1452z" />
<glyph unicode="O" horiz-adv-x="1501" d="M37 668q0 587 536 790h-2q93 37 211 37q281 0 480 -215q95 -111 148.5 -252.5t53.5 -292.5q0 -58 -12 -133q-52 -386 -274 -608q-194 -197 -471 -197q-209 0 -373 119q-80 61 -140 153.5t-93 196t-48.5 204.5t-15.5 198zM406 664q0 -83 7 -150.5t24.5 -135.5t51.5 -123.5 t84 -94.5q72 -58 162 -58q99 0 191 109q104 124 149 407q8 90 8 121q0 211 -86 332q-78 117 -176 117q-39 0 -86 -19l2 2q-158 -61 -244.5 -191t-86.5 -316z" />
<glyph unicode="P" horiz-adv-x="1183" d="M2 1407q378 102 561 102q395 0 514 -233q47 -84 47 -189q0 -88 -36 -198.5t-95 -202.5q-54 -81 -124.5 -133t-176.5 -102q-98 -45 -239 -48q5 -77 22 -278t23 -309q-241 -57 -369 -17q4 68 4 277q0 23 -35 1061l-75 -21zM420 1198q3 -86 22 -518q125 0 201 70 q44 35 86 126t43 173q0 96 -57 133q-13 7 -28.5 12t-27 7.5t-33 4.5t-30.5 2.5t-37 1t-35 0.5q-34 0 -104 -12z" />
<glyph unicode="Q" horiz-adv-x="1429" d="M20 614q-4 285 89 467q62 123 169.5 208t229.5 85q31 0 76 -10l37 96q307 -54 505 -231q141 -128 195 -266t59 -332q0 -184 -73.5 -337t-202.5 -239q29 -46 77.5 -102t117 -130t106.5 -118q-83 -104 -248 -211q-26 31 -67 78.5t-60.5 71t-44 53t-39.5 49t-26 35.5 q-88 116 -134 194q-33 -4 -92 -4q-167 0 -298.5 52.5t-212 143t-122 204t-41.5 243.5zM371 610q0 -32 4 -94q21 -112 112.5 -185.5t198.5 -86.5q34 43 84.5 88.5t91.5 70.5l68 -88q110 68 110 316q0 94 -33 190t-101 175.5t-156 109.5q-1 -11 -5 -26t-8 -25.5t-9.5 -24 t-6.5 -16.5q-6 6 -18 14.5t-47 22.5t-70 14q-53 0 -90.5 -41.5t-73.5 -124.5l2 2q-53 -133 -53 -291z" />
<glyph unicode="R" horiz-adv-x="1112" d="M-2 -88q102 476 178 919q5 33 33.5 176t34.5 187l-156 -37q-2 35 -2 109l6 211q106 23 203 28l16 117l353 16l-33 -122q197 -17 306.5 -129t109.5 -281q0 -125 -52 -238.5t-143 -199.5v2q-104 -101 -256 -135q86 -242 203 -402q127 -173 366 -313l-166 -281 q-233 86 -395 285q-70 84 -133 221t-88 231q-49 -245 -59 -444zM500 823q65 29 104 66v-2q26 27 41.5 47.5t32 66t16.5 99.5q0 59 -30 90.5t-84 34.5h-5q-42 -239 -75 -398v-4z" />
<glyph unicode="S" horiz-adv-x="1110" d="M55 207q0 11 2 60t2 61q189 61 344 12l-4 -121q-2 -46 -1 -91.5t3 -53.5q13 -41 101 -54q32 -3 102 70q34 34 72 111q24 60 24 145q0 26 -4.5 57t-9.5 37q-20 26 -58.5 39t-109.5 25q-250 34 -346 155q-60 76 -74 170q-4 39 -4 136v32q0 289 111 420q129 142 362 129 q246 -21 328 -119q83 -103 92 -223v-217l-342 4v201q-4 33 -6 35q-32 24 -86 24q-43 0 -86 -49q-33 -38 -33 -188q0 -62 19 -127q20 -71 110 -84q321 -48 418 -168q86 -110 86 -289q0 -166 -72 -313l2 2q-38 -82 -102.5 -151.5t-163 -118t-207.5 -48.5q-168 0 -303 97h2 q-49 32 -111 152t-57 241z" />
<glyph unicode="T" horiz-adv-x="1314" d="M39 1135q0 11 11 70t20 91l129 -16q50 -1 192.5 0.5t267.5 -0.5q73 -1 181.5 3t181.5 9l72 4l180 11q10 -42 9.5 -169t-9.5 -192l-195 23l-272 4q-4 -42 -5.5 -103.5t-0.5 -121t0 -136.5q-1 -35 1 -80t4 -90.5t7.5 -140.5t9.5 -188l8 -107q-48 -31 -139.5 -40t-242.5 -1 l-9 141q27 621 39 871q-128 9 -268 -2l-160 -29q-18 93 -12 189z" />
<glyph unicode="U" horiz-adv-x="1040" d="M53 1251q181 43 367 23l12 -129q4 -16 5 -60.5t0.5 -117.5t0.5 -109q5 -254 6 -280q13 -232 21 -254q16 -21 22 -25q35 -14 37 -14q6 0 41 16t41 27v-2q49 77 49 172q0 16 -2 81t-5 165.5t-5 181.5q-2 56 -5 160.5t-3 109.5l-2 125q129 31 184 31q47 0 164 -25l2 -123 q8 -253 8 -676q0 -169 -88 -323q-42 -67 -149 -133l2 2q-107 -71 -191 -82l4 2q-102 -21 -241 45q-142 73 -189 172v-2q-7 15 -13 46t-12 85.5t-10.5 102t-10 131t-8.5 134.5t-8.5 150t-8.5 143z" />
<glyph unicode="V" horiz-adv-x="1187" d="M-27 1280q112 88 332 98l35 -125q31 -104 75.5 -290.5t71.5 -280.5q10 -45 58 -186l28 -84q19 49 39.5 110t48.5 147t48 144q73 219 137 477q3 15 41 109q203 -15 272 -74l55 -29l-45 -106q-16 -38 -53.5 -151.5t-52.5 -155.5q-20 -54 -78 -212.5t-100 -267.5 q-5 -14 -47 -125t-83.5 -213.5t-78.5 -183.5q-13 0 -124.5 12t-131.5 7l-221 594q-8 26 -39.5 137t-86 300t-100.5 349z" />
<glyph unicode="W" horiz-adv-x="1548" d="M-16 1391q150 91 387 112l12 -141q0 -8 1 -33t1 -37q1 -28 4 -120t5 -129t6.5 -109.5t11.5 -135t18 -130.5q31 86 129 302.5t113 258.5h149l266 -635q6 38 23 289q12 87 31.5 180.5t47 209.5t36.5 157q56 0 94 -9.5t84.5 -32.5t52.5 -26l86 -39q-3 -15 -58.5 -259 t-76.5 -396q-78 -555 -94 -656l-248 -114l-330 684l-313 -678l-201 33q-7 37 -24.5 118.5t-20.5 100.5q-1 7 -18 92q-47 227 -87.5 549t-72.5 491z" />
<glyph unicode="X" horiz-adv-x="1044" d="M-86 -160l51 107q17 38 149 304t201 433q-19 40 -50.5 88.5t-93.5 140t-122 185.5q-44 73 -67 104q59 71 120 127q21 15 213 107l91 -187q21 -37 58 -128.5t52 -116.5q8 22 33 87.5t35 94.5q15 45 61 156.5t57 152.5q196 -21 355 -117l-72 -143q-11 -29 -49.5 -118 t-58.5 -142q-18 -48 -71.5 -165t-86.5 -212q10 -26 38.5 -82.5t39.5 -81.5q10 -25 90.5 -192.5t132.5 -292.5q-93 -115 -318 -127l-47 115q-15 38 -77.5 174t-81.5 161q-33 -83 -124.5 -291.5t-123.5 -289.5q-221 24 -334 149z" />
<glyph unicode="Y" horiz-adv-x="1128" d="M74 1149q0 80 14 209q76 8 188 -2.5t164 -36.5l-14 -115q-8 -40 -8 -94q0 -106 21.5 -240.5t58.5 -167.5q31 -33 57.5 -40t79.5 -7h14h13l9 4h3v58q0 275 -31 676q207 65 354 18l15 -192q18 -197 18 -533q0 -115 -2.5 -193t-13.5 -174.5t-30.5 -165t-55 -136.5 t-86.5 -117q-70 -67 -171 -106.5t-204 -39.5q-153 0 -305 90l-72 56l168 262l90 -70q50 -31 127 -31q45 0 78.5 17t53 42.5t33.5 71.5t20 85.5t12 103.5q-12 -2 -20 -5t-15.5 -4t-26.5 -1q-9 0 -54 -0.5t-58.5 0t-51.5 3t-57.5 9t-50.5 17t-56.5 27.5t-50.5 40 q-47 45 -80 127.5t-48.5 183.5t-22 190t-6.5 181z" />
<glyph unicode="Z" horiz-adv-x="1136" d="M-25 -8q85 152 263 479l67 129q150 272 219 381q52 86 67 119q17 36 21 45q-312 10 -364 10q-55 1 -122.5 -11t-94.5 -24q-11 60 -11 178q0 52 48 201l921 -76q33 -156 55 -186l-88 -162q-38 -60 -168 -295.5t-178 -314.5q-45 -92 -84 -166l-24 -45q276 50 430 45 q50 -2 92 -8t47 -6v-154q0 -32 -10.5 -84.5t-32.5 -97.5q-114 45 -215 45q-95 0 -170 -10q-136 -11 -534 -154z" />
<glyph unicode="[" horiz-adv-x="735" d="M39 1696q162 6 246 16q166 19 360 10l-10 -311q-205 10 -250 10h-8q0 -2 1 -8t1 -8q3 -77 12 -258.5t13 -281.5t8 -251.5t4 -281.5q0 -176 2 -226q209 13 282 15l5 -305l-109 4q-47 4 -164 4q-177 0 -336 -12q-3 89 -7 225t-11 389t-6 309q2 37 -13 283q-4 142 -8 213 q-4 94 -7 210t-4 185z" />
<glyph unicode="\" horiz-adv-x="993" d="M-59 1587q30 53 83.5 83.5t176.5 62.5q276 -566 362 -777q42 -104 157.5 -350t210.5 -440l95 -195l-260 -80q-426 750 -512 961q-39 97 -117.5 281t-136.5 319z" />
<glyph unicode="]" horiz-adv-x="788" d="M61 -281l5 310l286 -15v244q0 182 2 264q5 134 12 485.5t15 505.5h-29q-120 0 -225 -6l-12 314q188 5 363 -10.5t245 -18.5v-231q0 -174 -10 -369q-2 -40 -4 -141.5t-4 -139.5q-2 -47 -4.5 -101.5t-4.5 -90t-2 -51.5q1 -56 -4 -299.5t-10 -458.5l-6 -215q-141 9 -246 20 q-189 21 -367 4z" />
<glyph unicode="^" horiz-adv-x="1060" d="M53 952l336 500l264 14l359 -497l-248 -183l-234 326l-225 -334z" />
<glyph unicode="_" horiz-adv-x="1150" d="M-86 -180q58 -3 146.5 -7t254 -10t201.5 -4l688 17l2 -222l-104 -77q-478 -13 -576 -17q-44 -1 -197 4.5t-284 11.5l-131 5v299z" />
<glyph unicode="`" horiz-adv-x="884" d="M109 1489q178 129 237 145q34 -41 141 -137.5t197 -172.5l90 -77l-123 -100q-456 272 -542 342z" />
<glyph unicode="a" horiz-adv-x="1052" d="M45 283q0 60 14 112q42 151 154 244q103 84 260 84q55 0 125 -16v53q-1 23 -2 44.5t-1.5 32t-0.5 11.5q-7 43 -16 60t-22.5 17t-33.5 -5q-17 -4 -77 -22.5t-74 -25.5q-5 -3 -40 -23t-59 -36.5t-47 -38.5q-26 18 -42 55.5t-33 102.5q-9 32 -10 83.5t7 74.5 q174 122 379 122q97 0 170 -28q87 -26 146 -81t82 -132q28 -85 28 -248q0 -23 -2 -82t-2 -88q-2 -90 -2 -178q0 -310 76 -369q-43 -67 -84 -92q-135 -84 -256 -74q-16 18 -30 62.5t-20 79.5l-5 36q-10 -3 -54 -21.5t-79 -30t-58 -11.5q-109 0 -195.5 34t-141 110t-54.5 184z M403 322q0 -127 62 -127q43 0 85 22t54 64l-2 157l-16 17q-45 45 -107 45q-29 0 -52.5 -64t-23.5 -114z" />
<glyph unicode="b" horiz-adv-x="1189" d="M41 -121q7 253 14 354l27 261q5 101 10 311q2 141 6 256.5t11 248t10 218.5q0 40 8 102q7 85 25 185q178 33 360 -17l-14 -119q-9 -45 -21 -176q-22 -230 -37 -563q45 5 109 -2q256 -22 436 -180q169 -159 154 -379q-11 -102 -58 -206.5t-110 -162.5 q-61 -55 -159.5 -81.5t-209.5 -16.5q-41 4 -86.5 23t-85.5 41t-51 26q0 -4 0.5 -38.5t0.5 -63.5t-1 -37q-154 -22 -221 -17q-36 5 -117 33zM410 260q78 -55 116 -55q92 -11 160 57q32 31 44.5 59.5t17.5 79.5q4 16 0.5 37t-5 32t-9 28t-11.5 24.5t-12.5 22.5t-12.5 22 q-13 29 -64 70.5t-87 44.5q-61 3 -107 -18q0 -2 -1 -17t1 -16l-6 -172z" />
<glyph unicode="c" horiz-adv-x="974" d="M39 467q0 28 4 106q22 188 160 318q134 125 323 125q188 0 314 -109q5 -4 24 -23.5t38.5 -40t21.5 -22.5l-193 -219q-28 32 -56 56t-47 36.5t-34 20.5t-22 10.5t-7 3.5q-68 -15 -106.5 -70.5t-46.5 -142.5q-5 -85 -4 -92q5 -107 69 -123q38 -8 80 -3.5t68 17.5 q7 4 12.5 7t10.5 5.5t11 6.5t10 6.5t12 8.5t12.5 9.5t16 12.5t18 14.5t23 18.5t27.5 22l146 -223q-96 -104 -152 -131q-56 -28 -149 -58t-164 -30q-120 0 -230 71l4 -2q-194 123 -194 414z" />
<glyph unicode="d" horiz-adv-x="1122" d="M20 442q-9 174 91 351q66 112 167 164.5t248 58.5q55 3 117 -27q-6 196 -31 340q-26 192 -28 240q-6 96 22 256q230 40 367 -47l-19 -111q-5 -30 -6.5 -59t-1.5 -50t2 -54t4 -50.5t7 -61.5t8 -67q9 -88 22.5 -401t20.5 -414q30 -380 90 -551l-62 -31 q-40 -24 -100.5 -36.5t-179.5 -16.5q-21 27 -39.5 110.5t-20.5 143.5q-59 -45 -133.5 -77.5t-134.5 -33.5q-98 1 -170 35.5t-131 98.5q-106 118 -109 290zM373 426q6 -113 86 -113q82 0 219 93q-1 21 -4.5 52.5t-3.5 41.5q-2 17 -4.5 50t-5.5 74t-5 70q-56 32 -75 27 q-44 -7 -78 -25t-66 -63q-66 -90 -63 -207z" />
<glyph unicode="e" horiz-adv-x="1054" d="M43 608q0 131 45 246q71 171 187.5 258.5t267.5 77.5q470 -27 458 -674l-579 -104q38 -96 116.5 -140.5t202.5 -44.5q13 0 232 29q-24 -209 -135 -391l-146 26q-169 28 -276 84h2q-201 98 -277 238q-98 178 -98 395zM391 670q41 8 117.5 20.5t109.5 18.5q0 5 -1 15 q-2 30 -3.5 45.5t-5 41t-10 39.5t-16 29.5t-25 22.5t-35.5 7q-24 2 -56 -27t-50 -77q-25 -77 -25 -135z" />
<glyph unicode="f" horiz-adv-x="921" d="M8 762l168 2l-16 246q-17 226 -17 252q0 454 320 454q67 0 141 -22q138 -48 213 -191q9 -19 23 -61t35.5 -109t33.5 -102l-43 -31q-70 -53 -274 -59l-8 127q-16 81 -36.5 112t-49.5 31q-29 -41 -29 -170q0 -37 5.5 -99.5t15.5 -163.5t16 -169q15 4 59 8t62 8l139 27 q78 -123 59 -268q-101 -21 -175.5 -32.5t-119.5 -21.5l5 -59q20 -428 51 -612q20 -113 20 -117q-138 -69 -362 -49l-17 256l-14 176q-2 4 -5 54.5t-9 149.5t-9 154q-113 -7 -145 -12q-33 62 -33 152q0 6 -2 32t-3 49t1 58z" />
<glyph unicode="g" horiz-adv-x="1191" d="M41 705q0 70 14.5 128t55.5 121q166 248 495 248h58q45 116 140 178t234 62l109 -2q31 -90 31 -162q0 -31 -23 -121l-53 23q-2 0 -48 3.5t-88.5 -6.5t-70.5 -42q88 -78 158.5 -179t70.5 -180q0 -217 -139 -346t-371 -129q-28 0 -85 5.5t-85 15.5q-13 -13 -16 -36t0 -40 l4 -17q0 -7 14.5 -25t36.5 -34q20 10 71 16.5t83 6.5q122 0 221 -52.5t160 -157.5t61 -245q0 -122 -29 -206t-114 -157q-53 -45 -150.5 -76.5t-189.5 -31.5q-57 0 -123.5 19t-136 60.5t-125.5 99.5t-91.5 144t-35.5 185q0 177 115 286q-101 115 -101 201q0 59 25 99t84 73 q-74 65 -120 138.5t-46 132.5zM410 709q0 -26 32 -62q24 -30 38.5 -42t45.5 -19.5t86 -7.5q146 0 162 188v4q2 6 2 18q0 51 -36.5 95.5t-96.5 44.5q-64 0 -123 -25q-30 -14 -70 -77.5t-40 -116.5zM432 -223q0 -140 31 -178q24 -28 61.5 -44t61.5 -14q45 2 86 32.5t41 88.5 q0 109 -22 163q-39 93 -144 93q-51 0 -83 -34.5t-32 -106.5z" />
<glyph unicode="h" horiz-adv-x="1128" d="M-33 1839q143 41 213 41q60 0 164 -25l12 -114q4 -34 7 -80t5 -93.5t4.5 -98.5t7.5 -108.5t11 -109.5q8 -61 14.5 -187t10.5 -167q14 35 46.5 69t70 58t74.5 39.5t63 17.5q79 3 163.5 -58.5t131.5 -172.5q38 -91 66 -269.5t28 -428.5q0 -93 -2 -140q-2 -15 -3.5 -71.5 t1.5 -73.5q-15 -3 -39 -6.5t-72.5 -9t-66.5 -3.5q-30 -3 -81.5 3t-84.5 16l4 151q1 32 6.5 105t6.5 117t-5 131q-1 77 -9.5 140.5t-16.5 94t-25 84.5q-7 23 -13 36.5t-17 24.5t-26 11q-26 0 -51.5 -21.5t-45 -56.5t-32 -63t-22.5 -56q16 -168 59 -563l13 -125 q-168 -53 -334 -39q-9 80 -41 381q-20 174 -51 490q-47 590 -144 1130z" />
<glyph unicode="i" horiz-adv-x="604" d="M59 1292q0 74 63.5 126t141.5 52q82 0 140.5 -51t64.5 -127q-4 -78 -64 -129t-141 -51q-76 0 -140.5 53t-64.5 127zM104 920q175 55 347 32l14 -129l-2 4q1 -9 33 -372q27 -299 36 -523q-117 -24 -176 -28q-53 0 -170 20q-20 429 -82 996z" />
<glyph unicode="j" horiz-adv-x="681" d="M-176 -451q1 16 7 62.5t7 52.5q202 52 348 -41l-12 -108q-2 -6 -2 -33q-3 -75 33 -111h-2q42 -45 69 -45q33 0 33 158v24q0 224 -53 615q-22 138 -70 434.5t-67 417.5q183 76 344 37q29 -164 77 -476t58 -376q59 -370 59 -703q0 -186 -100.5 -304t-280.5 -118 q-179 0 -307 119q-141 138 -141 330v65zM20 1372q0 78 72 144l-4 -3q60 60 164 60q98 0 158 -57q71 -68 71 -144q0 -73 -69 -139q-59 -59 -160 -59q-105 0 -164 59l4 -2q-72 66 -72 141z" />
<glyph unicode="k" horiz-adv-x="1126" d="M2 1735q117 53 205 53q3 0 23 1t37 1t48 -3t64 -9q-10 -109 -10 -205q11 -146 35.5 -386.5t33.5 -338.5q1 -30 11 -129q58 61 147 174l227 291q77 -61 137.5 -120t139.5 -159q-164 -123 -209 -172q-22 -22 -59 -55t-60.5 -58t-44.5 -57q7 -15 21.5 -44t28.5 -58.5 t26 -57.5q18 -31 78.5 -149.5t111.5 -190.5q65 -94 122.5 -122t123.5 -7l25 -264q-34 -9 -71.5 -14.5t-70.5 -6.5t-65 0t-57 3.5t-44.5 5t-30.5 4.5l-10 2q-31 26 -57 52.5t-42 43.5t-41.5 54.5t-34.5 52.5t-44 70q-100 191 -184 436l-35 -43q6 -72 12 -129t8.5 -80.5 t4.5 -83t6 -170.5q-97 -16 -180 -17t-156 7q-1 45 -2 79.5t-1 48.5t-0.5 26.5t-0.5 13t-0.5 7.5t-1 12l-2.5 25t-4 46q-15 189 -78 784t-80 836z" />
<glyph unicode="l" horiz-adv-x="587" d="M78 1817q128 49 223 43q14 0 86.5 -7t93.5 -10q-14 -169 -18.5 -301.5t-4.5 -280.5t-3 -239q-1 -45 -2 -334.5t-4 -427.5q-1 -50 1 -108.5t4 -96t5 -91t4 -64.5q-35 -18 -162 -28t-197 9q7 212 9 318q6 98 7.5 192t0 244t-1.5 211q0 44 0.5 195.5t0 222.5t-2.5 187.5 t-6 209.5q4 53 -33 156z" />
<glyph unicode="m" horiz-adv-x="1683" d="M35 950q245 123 325 146q50 -82 64 -166q44 53 104 96.5t123 54.5q99 16 178 -32q101 -62 144 -144q26 59 100 110t135 54q99 5 167 -22.5t124 -98.5q17 -23 29.5 -48t20.5 -59.5t13 -55.5t8 -67t4 -61.5t2 -70.5t1 -64q0 -228 12 -424q1 -21 5 -51.5t11 -73t11 -67.5 l-356 -31q-19 136 -19 342q0 105 -5.5 256.5t-10.5 200.5q-4 25 -12 45t-14 29t-5 10q-44 8 -82 -49t-58 -132.5t-22 -138.5q-13 -271 -8 -463l-369 15l19 133q31 212 31 440q0 56 -14 115t-36 67q-32 12 -104.5 -26t-106.5 -117q-6 -135 -0.5 -220t5.5 -161l6 -178l-379 18 q2 2 8.5 63t15.5 153t13 131q14 120 -5 289.5t-73 252.5zM76 61z" />
<glyph unicode="n" horiz-adv-x="1099" d="M66 1061q188 44 335 29q9 -164 9 -189q26 40 67.5 81t96 76t102.5 46q34 7 82 2t78 -16q51 -22 89.5 -54.5t61.5 -69t37.5 -81.5t19.5 -87.5t5 -92.5q0 -31 -4.5 -71t-11 -90t-9.5 -77q-9 -56 -16 -171.5t-7 -211.5q0 -29 15 -176l-402 74q11 73 23.5 205t34.5 247 q26 152 26 248q0 92 -30 113q-27 -1 -108.5 -72.5t-127.5 -130.5q4 -127 0 -244q-3 -71 -5 -197.5t3 -185.5l-356 -31q22 451 24 584q1 54 -7 189.5t-17 244.5z" />
<glyph unicode="o" horiz-adv-x="1056" d="M47 555q0 90 31.5 175t89 152.5t148 108.5t198.5 41q66 0 133 -19.5t130.5 -61t113.5 -99.5t81.5 -141.5t33.5 -180.5q-2 -116 -19.5 -201t-71.5 -159q-138 -180 -360 -180q-240 0 -387 188q-68 84 -94.5 174.5t-26.5 202.5zM375 594q0 -59 24 -125t67.5 -113t90.5 -47 q65 0 101 47t36 97q0 34 -14 102q-18 66 -75.5 123t-115.5 57q-54 0 -84 -48t-30 -93z" />
<glyph unicode="p" horiz-adv-x="1095" d="M-104 -604q65 303 88 440q34 187 36 281q10 72 37 321t37 320q25 210 -4 387q190 73 283 59q96 -14 133 -33l-21 -149q39 36 102.5 69.5t100.5 28.5q174 -28 258 -151q134 -201 105 -416q-12 -87 -44 -185t-77 -161q-33 -48 -78 -83.5t-90 -54t-91.5 -27t-85.5 -7 t-69 11.5q-30 8 -76.5 54t-77.5 89q-3 -42 -53 -428q-28 -216 -51 -333l-8 -111q-200 10 -354 78zM406 455q86 -95 122 -95q52 -4 113 68q72 93 72 268q-3 36 -8.5 62.5t-11.5 39t-12.5 20t-9.5 8.5t-5 1q-61 6 -131 -32q-47 -19 -86 -88l-4 -8q-8 -17 -11 -23z" />
<glyph unicode="q" horiz-adv-x="1243" d="M49 424q0 96 43 258q54 186 169 271t306 85q59 0 125.5 -34t126.5 -91q6 24 8.5 62t3 71t0.5 37q205 15 347 -45l-15 -120q-42 -315 -45 -500l-18 -559q0 -20 1 -70t1.5 -76t3 -58.5t6.5 -49.5q6 -29 15 -49t23 -32t20.5 -16t23.5 -12q18 -6 27 -6q25 0 75.5 45.5 t63.5 81.5q24 -8 46.5 -21t42.5 -30.5t35 -31.5t32.5 -37t25.5 -34t23 -34t18 -27l-31 -37q-93 -89 -176 -126.5t-182 -37.5q-96 0 -166.5 25.5t-126.5 91.5q-54 67 -88.5 148.5t-42.5 150.5q-4 24 -1.5 144t1.5 135q0 12 2.5 44.5t6.5 76.5t5 63q-130 -100 -231 -100 q-61 0 -111.5 9.5t-85.5 22.5t-72 39.5t-59.5 47.5t-60.5 59q-115 112 -115 266zM383 440q0 -80 54.5 -123t125.5 -43q44 0 60 13q36 25 77.5 84.5t51.5 109.5q2 10 2 41q0 100 -25 131q-32 44 -80 64q-56 27 -90 24q-55 -9 -81.5 -41t-61.5 -120q-33 -84 -33 -140z" />
<glyph unicode="r" horiz-adv-x="1028" d="M57 -35l2 164q1 23 4.5 93.5t4.5 91t3.5 77t3 87t1 82t0 101.5t-1.5 109q-2 104 -17 281q36 16 121.5 32t153.5 25l67 8l13 -192q6 6 42.5 41t61 57t58 44.5t55.5 25.5q78 10 134.5 -10.5t104.5 -73.5q43 -43 73 -133.5t28 -159.5q2 -82 4 -133q-214 -39 -314 -39l7 151 q0 31 -9 52.5t-28 17.5q-40 -9 -69.5 -30.5t-88.5 -88.5l-49 -74q-6 -225 -4 -262q3 -160 16 -350z" />
<glyph unicode="s" horiz-adv-x="995" d="M51 397l346 -24q-8 -24 -11.5 -46.5t-2.5 -42.5t2 -31t5 -27l3 -17q3 -23 25.5 -41t58.5 -18q54 0 90.5 43t36.5 104q0 18 -3.5 34t-14 30l-18 24t-26.5 21t-28 16.5t-34 15.5t-33.5 13.5t-36.5 13.5q-48 17 -76 27.5t-70.5 29t-68 35.5t-55.5 42.5t-46.5 53t-28.5 64.5 t-12 80q-1 78 27.5 141.5t75 104t109.5 67.5t127.5 38t131.5 11q38 0 64.5 -1t61 -5.5t58.5 -12t51.5 -22t46.5 -34.5t38 -49.5t31 -67.5t20 -89t10 -112l-250 -18q-4 75 -38.5 117t-73.5 44q-56 1 -97 -33t-38 -79q5 -32 54 -54q19 -8 69 -24l10 -4q39 -13 62 -21.5t62 -24 t63 -29t57 -35t54 -42.5t44.5 -51.5t36.5 -63t21.5 -74.5t8.5 -89q0 -176 -130.5 -288t-332.5 -112q-112 0 -193 25t-128.5 67.5t-74.5 110t-35 139.5t-5 170z" />
<glyph unicode="t" horiz-adv-x="1083" d="M68 614v314q24 0 83.5 -2.5t71.5 -1.5q0 124 4 163q2 56 7 135.5t13.5 187.5t12.5 175q208 21 354 -37l-4 -125l-6 -82q-1 -38 -7 -120.5t-9 -149.5q-4 -47 -4 -113q58 6 207 15l165 10q29 -59 29 -172q0 -85 -12 -147l-203 -2q-102 0 -176 -3q0 -24 -2 -153t-2 -230 q0 -137 61 -137q23 3 81 78.5t67 99.5q88 -13 152.5 -44.5t113.5 -92.5q-32 -96 -94 -173t-136 -123t-151.5 -70.5t-148.5 -24.5q-39 0 -74 8q-237 50 -234 383q0 130 2 269v178q-86 -8 -161 -13z" />
<glyph unicode="u" horiz-adv-x="1052" d="M29 440q0 73 7 173t19.5 231t16.5 178q200 0 342 -37q-27 -415 -27 -477q0 -138 53 -160q21 0 62 29t53 53q34 78 49 156q9 16 5.5 135t-3.5 127q144 24 168 24q59 0 178 -43q-6 -81 -6 -129q0 -152 12 -266q31 -285 56 -418l-58 -26q-61 -30 -270 -39q-2 21 -7.5 55.5 t-11 63.5t-11 54.5t-5.5 27.5q-50 -54 -133.5 -86.5t-155.5 -32.5q-333 0 -333 407z" />
<glyph unicode="v" horiz-adv-x="1116" d="M-12 969q133 124 336 151q81 -253 161 -467q45 -123 66 -166q115 293 180 428l-2 -2l90 205l281 -168l-82 -180q-105 -224 -146 -328l-196 -485q-121 -33 -187 -41l-139 260q-23 45 -96 199q-71 155 -82 180q-11 24 -29 65t-33 74.5t-28 63.5z" />
<glyph unicode="w" horiz-adv-x="1517" d="M10 889q12 9 129 84q11 5 25.5 10.5t36 12t40 12t52 15.5t57.5 17q6 -27 26.5 -123t40.5 -184t56 -241q48 90 136.5 255.5t111.5 208.5q105 13 139 9l219 -490q14 45 28.5 109t35.5 162.5t35 160.5q14 69 14 148q81 10 171 -11t155 -53l-19 -94q-47 -208 -114 -420 t-179 -526l-184 -53l-121 252q-37 79 -143 243l-4 4q-47 -68 -159.5 -265.5t-125.5 -219.5l-166 10l-123 527q-20 78 -49.5 157.5t-49.5 125t-71 157.5z" />
<glyph unicode="x" horiz-adv-x="1099" d="M12 850q68 92 101 121q21 21 163 86l109 -150h2q32 -40 121 -137q160 212 305 408q191 -117 270 -203l-75 -107q-17 -24 -109 -141q-22 -30 -70 -90.5t-90 -118.5l72 -82v2q21 -22 123 -154.5t125 -158.5l82 -98q-63 -145 -273 -201l-82 102q-33 35 -266 305 q-50 -52 -110.5 -138t-108.5 -169q-168 72 -281 180q64 110 289 388q-32 35 -137 165t-160 191z" />
<glyph unicode="y" horiz-adv-x="1175" d="M25 979q35 20 78.5 29t97 5.5t88.5 -8t92 -14.5q30 -249 102 -393q45 -92 86 -147q117 270 291 636q208 -25 301 -137l-51 -100h2q-209 -448 -481 -1126q-19 -50 -41.5 -103.5t-42.5 -103.5q-14 -40 -63.5 -166.5t-73.5 -192.5q-225 15 -310 131q7 15 24.5 56t18.5 43v-2 q58 133 136 360q89 227 159 395q-170 121 -282 322q-60 108 -94.5 250.5t-36.5 265.5z" />
<glyph unicode="z" horiz-adv-x="1144" d="M33 915q94 13 200 52q54 16 109.5 31.5t130 35t131.5 35.5q29 8 106 27t142 36.5t102 32.5q9 -17 23 -39.5t25.5 -38.5t25.5 -35t16 -22q-27 -79 -69 -137l4 4q-13 -20 -59 -93.5t-72 -109.5q-141 -194 -180 -264q-12 -21 -15.5 -32.5t-8 -30.5t-15.5 -48q138 29 231 29 q4 0 33.5 1l59 2t70.5 -0.5t73 -4.5l8 -139q0 -90 -31 -182l-155 4q-34 3 -74 0h-84t-118 -4t-126 -15t-168 -39t-184 -71l-47 131l53 153q44 92 136.5 259.5t166.5 279.5q-19 -8 -64 -21.5t-98.5 -28t-66.5 -18.5q-30 -11 -62 -26t-48 -24l-17 -9z" />
<glyph unicode="{" horiz-adv-x="727" d="M20 1208q0 60 43 142q73 123 162.5 231.5t223.5 204.5l178 -221q-52 -46 -174 -182t-125 -169q9 -7 49 -32q76 -45 122 -88.5t54 -102.5q11 -117 -82 -239q57 -35 106.5 -83t49.5 -87q0 -54 -31 -162q-7 -15 -40 -83.5t-49.5 -104.5t-42.5 -95.5t-42 -107t-25 -88.5 q3 -60 31 -88q42 -7 125 29t115 89l100 -231l-35 -25q-122 -98 -276 -98q-50 0 -113 15t-102 36q-141 75 -146 277q0 66 25.5 142t51.5 123.5t71 119.5q28 45 41.5 97.5t-0.5 86.5q-33 11 -117 13t-111 -5l-30 248q71 13 98 31q94 67 94 160q-10 14 -51 45q-41 30 -57.5 44 t-43 41.5t-37 55t-10.5 61.5z" />
<glyph unicode="|" horiz-adv-x="563" d="M88 942q3 100 5 299.5t3 348.5v149q32 23 72 36.5t70 18.5t75.5 3.5t64.5 -3.5t62 -8l4 -39q-18 -586 -26 -813q0 -129 6.5 -396.5t14 -482t10.5 -219.5l-332 -12q-5 9 -17 463t-12 655z" />
<glyph unicode="}" horiz-adv-x="708" d="M20 -229l246 178q21 -24 35 -45q7 3 12.5 8t8 9.5t5 13t3 11.5t1.5 12l1 9q3 29 -1.5 83t-4.5 71q0 57 -8.5 117t-17 96.5t-26.5 103.5q-28 90 -45 178q-12 67 4 113t64 88q-43 49 -43 113q0 57 55 186q2 6 10 26.5t12.5 33.5t8.5 35t4 44q0 55 -9.5 109.5t-25.5 77.5 q-12 12 -30 12q-14 0 -173 -18l-34 278q172 18 313 -16.5t207 -126.5q84 -130 84 -289q0 -113 -51 -221q-15 -23 -15 -27q-44 -80 -43 -84q0 -4 65.5 -25.5t78.5 -23.5l-35 -199q-103 -23 -121 -45q12 -77 39 -153q22 -72 39 -146q22 -113 22 -249q0 -252 -102 -385 q-76 -105 -238 -105q-73 0 -150.5 39.5t-144.5 112.5z" />
<glyph unicode="~" horiz-adv-x="1261" d="M35 727q21 119 37 162q55 151 133 215.5t203 64.5q144 0 290 -116q60 -48 72 -54q22 3 42 60t32 155q248 0 360 -90l-12 -67q-48 -163 -156.5 -257.5t-253.5 -94.5q-137 0 -256 88q-84 59 -94 59l-4 -1q-3 -1 -10.5 -3t-15.5 -6t-16.5 -10.5t-14.5 -14.5 q-26 -26 -57.5 -78.5t-39.5 -89.5z" />
<glyph unicode="&#xa1;" horiz-adv-x="618" d="M27 -170q11 95 47 508q14 82 90 686q102 14 180 0q34 -3 71 -10.5t57 -13.5l20 -7q-1 -11 -3 -30t-7.5 -75t-10.5 -108t-11 -116.5t-10 -113.5t-6.5 -86.5t-1.5 -47.5q1 -24 -7 -180t-17 -300l-8 -145zM215 1397q0 74 49 131t131 57q83 0 129.5 -51.5t46.5 -128.5 q0 -73 -50.5 -126.5t-131.5 -53.5q-69 0 -121.5 50t-52.5 122z" />
<glyph unicode="&#xa2;" horiz-adv-x="974" d="M68 852q19 174 147 297q120 117 295 117q29 0 43 -2q66 305 70 358q44 14 108 4.5t105 -33.5l-37 -102q-37 -123 -76 -268q122 -55 192 -113l-127 -205q-20 21 -62 46t-67 34q-7 -27 -38 -160l-58 -229q42 7 62 18q87 42 147 82l105 -221q-94 -89 -178 -129.5t-212 -46.5 q-63 -247 -77 -354q-18 2 -56 11.5t-67 18.5l-29 9q35 149 78 329q-150 45 -221 195t-47 344zM352 799q-9 -48 6 -94t52 -78l55 235l24 115q-50 -28 -88 -74.5t-49 -103.5z" />
<glyph unicode="&#xa3;" horiz-adv-x="1335" d="M45 104q0 78 57 154t131 88q3 21 3 39q0 23 2 72.5t2 87t-4 61.5q-25 -3 -96.5 -6.5t-80.5 -5.5l31 197l131 14v31q0 99 4 165q5 105 64 213t158.5 182t207.5 74q102 0 196 -64.5t126 -127.5l-141 -252q-22 50 -72 91.5t-100 41.5q-38 -7 -63 -41t-34.5 -88t-12.5 -92.5 t-3 -89.5v-19l248 13l-27 -199l-205 -12v-47q0 -117 -4 -150l29 -2q51 -3 98 -22t83.5 -48.5t62 -55t50.5 -55t32 -36.5q3 0 28 21t56.5 57t44.5 67l227 -110l-17 -80q-38 -103 -134.5 -182.5t-207.5 -79.5q-56 0 -105 25.5t-82 62t-61.5 73t-57 62t-54.5 25.5h-10 q-12 -40 -34.5 -80t-56 -77.5t-81.5 -61t-101 -23.5q-80 0 -153.5 52.5t-73.5 137.5z" />
<glyph unicode="&#xa4;" horiz-adv-x="1632" d="M4 342l51 197q142 13 209 14q-4 25 0 63.5t10 64.5l5 26l-220 4l84 219q12 -2 30.5 -4.5t67 -6.5t64.5 3q55 159 193 291.5t336 209.5q87 35 219 45q149 8 281.5 -41t275.5 -167l-226 -228q-151 145 -272 135q-65 -4 -131 -26q-83 -31 -151.5 -86t-100.5 -117 q88 4 204.5 16t189.5 22l73 9l-55 -246q-300 -16 -488 -22q-2 -9 -5 -23.5t-7.5 -57t0.5 -69.5q345 11 524 31q-48 -141 -63 -203q-40 -4 -198.5 -10.5t-211.5 -9.5q14 -39 51.5 -80.5t73.5 -63.5q74 -44 225 -34q119 9 301 200l254 -229q-98 -115 -254 -193.5t-301 -89.5 q-108 -6 -232.5 19.5t-211.5 70.5q-112 60 -194 163t-113 222q-195 -10 -287 -18z" />
<glyph unicode="&#xa5;" horiz-adv-x="1288" d="M-29 1432q98 195 258 258l105 -111q170 -268 340 -469q61 144 244 528q204 -56 288 -153l-55 -111q-20 -38 -37.5 -74.5t-40.5 -89.5t-33.5 -77.5t-42.5 -101.5t-41 -99l252 14l-43 -225q-163 -49 -282 -53v-174q160 9 311 26q0 -27 15 -99t14 -102l-101 -14 q-72 -8 -221 -14q15 -287 23 -395l14 -156l-338 -16l-4 151q-2 84 -18 406q-173 -5 -377 -21l-27 203q193 17 387 20l2 172l-346 -2l-33 209q172 -2 260 0q-77 88 -240 289.5t-233 280.5z" />
<glyph unicode="&#xa6;" horiz-adv-x="493" d="M70 1788l301 2q16 -501 16 -514q0 -51 -2.5 -119t-4.5 -111l-3 -42l-299 -3q-4 255 0 347q2 18 2 71zM72 401q-1 33 1.5 125.5t2.5 124.5v150l313 6q-26 -683 -22 -832l-285 7q-6 315 -10 419z" />
<glyph unicode="&#xa7;" horiz-adv-x="968" d="M66 715q0 197 151 295q-104 70 -104 194q-1 82 23 144t61.5 97.5t92 58t105 29.5t109.5 7q33 0 53.5 -1t49.5 -5t47 -11.5t41 -21.5t37.5 -34.5t30 -50.5t25 -69.5t16.5 -92.5t9 -117l-225 -15q129 -43 185 -80q138 -99 140 -303q0 -110 -39 -182t-118 -119 q71 -78 71 -198q1 -83 -19 -143.5t-52 -95t-80.5 -54.5t-94.5 -26.5t-106 -6.5q-63 0 -115 16t-99 54t-81.5 106t-54.5 166l244 94q-61 16 -92 26.5t-78.5 38t-71.5 62t-42.5 95.5t-18.5 143zM350 700q0 -12 1 -19.5t4.5 -13t5 -7.5t9 -6.5t9.5 -6.5q55 -10 131 -10 q54 0 86.5 30.5t32.5 86.5q0 16 -4 28t-13.5 19t-18.5 11t-26.5 5t-29.5 1t-34.5 -0.5t-35.5 -0.5q-52 0 -84.5 -31.5t-32.5 -85.5zM397 342q11 -55 36.5 -105.5t43.5 -50.5q14 0 22.5 1t19.5 6t16 16.5t4 30.5q-2 32 -47 62t-95 40zM418 1229q3 -27 31 -46t79 -40 q-4 43 -12.5 83t-13.5 40h-15q-16 0 -24.5 -0.5t-21 -4t-18 -11.5t-5.5 -21z" />
<glyph unicode="&#xa8;" horiz-adv-x="952" d="M119 1292q0 64 44.5 108t115.5 44q65 0 103 -35.5t38 -93.5q-4 -70 -40 -119t-114 -49q-66 0 -106.5 46t-40.5 99zM559 1309q0 147 148 159q41 0 69.5 -9.5t48.5 -39.5v-2q27 -42 27 -90q0 -156 -139 -166q-78 0 -116 44.5t-38 103.5z" />
<glyph unicode="&#xa9;" horiz-adv-x="1208" d="M63 698q0 102 38 209t104 196.5t166.5 146.5t214.5 57q152 0 285 -78t210.5 -208.5t77.5 -279.5q0 -123 -40 -244.5t-112 -222.5t-186 -164t-250 -63q-98 0 -182.5 41t-143 108t-100.5 152.5t-62 174.5t-20 175zM242 664q0 -100 44.5 -196.5t129 -162t186.5 -65.5 q85 0 159 42t122 108.5t75 147t27 160.5q0 105 -48.5 201.5t-139 158.5t-199.5 62q-71 0 -130.5 -27t-100.5 -72.5t-69.5 -105t-42 -123t-13.5 -128.5zM352 649q0 57 14.5 120t43.5 123.5t80.5 100t115.5 39.5q115 0 254 -143l-129 -129q-83 88 -117 88q-21 0 -38 -26.5 t-26.5 -64t-14.5 -72.5t-5 -58q0 -45 15 -77t51 -32q64 0 192 98l89 -118q-60 -60 -142 -113t-145 -53q-64 0 -112 29t-74.5 77t-39 101.5t-12.5 109.5z" />
<glyph unicode="&#xaa;" horiz-adv-x="864" d="M29 950q0 117 49.5 217.5t145 163t216.5 62.5h23v45l340 71v-424q0 -113 15 -258t38 -209l-59 -8q-77 -43 -303 -43v35q-74 -24 -158 -24q-70 0 -124 20.5t-88 54.5t-56 83t-30.5 101t-8.5 113zM352 928q0 -39 27 -39q50 0 110 37v45q-2 37 -2 123l-20 10 q-44 0 -79.5 -57.5t-35.5 -118.5z" />
<glyph unicode="&#xab;" horiz-adv-x="1404" d="M63 586l523 506l149 -240l-321 -330q53 -45 177.5 -147.5t176.5 -147.5l-143 -241l-551 438zM647 612l522 506l150 -237l-324 -330q35 -29 114 -94.5t138 -115t103 -87.5l-142 -240l-551 439z" />
<glyph unicode="&#xac;" horiz-adv-x="1185" d="M18 238q1 67 24.5 134t66.5 124t111 95t149 42q71 3 130 -18.5t98.5 -58t69 -88.5t45.5 -103.5t25 -108.5l-250 -113q0 35 -22 81t-43.5 74.5t-24.5 27.5q-28 -16 -28 -136q0 -97 59.5 -178.5t134.5 -81.5q86 0 144 52t82 133t24 186q0 55 -8.5 100.5t-21.5 78t-35.5 59 t-43 43t-52.5 31t-55.5 22.5t-59.5 18q-170 45 -242 80q-164 80 -206 240q-15 60 -15 133q0 88 32.5 189t89.5 190.5t146 149t190 59.5q61 0 108 -6t104.5 -28t103 -60.5t91 -107t79.5 -163.5l-356 -164q-24 129 -56.5 176.5t-73.5 47.5q-37 0 -60 -98t-23 -177 q0 -32 9.5 -56t22 -38t37 -25.5t41.5 -16.5t49 -13q51 -13 97 -29q61 -21 93.5 -33t89 -39.5t88.5 -54.5t72.5 -74t62 -101.5t37 -133t15.5 -172.5q0 -115 -21.5 -217.5t-68.5 -192.5t-116 -155t-170.5 -102.5t-225.5 -37.5q-115 0 -218.5 54.5t-174 142t-111 198 t-39.5 220.5z" />
<glyph unicode="&#xad;" horiz-adv-x="888" d="M8 705q94 9 408.5 24t421.5 27l22 -221l-96 -84q-79 -9 -315 -17q-259 -9 -416 -22z" />
<glyph unicode="&#xae;" horiz-adv-x="1216" d="M53 733q0 115 50 224.5t132.5 191t195.5 131t233 49.5q84 0 160 -37t130.5 -98t95 -138t60.5 -158t20 -157q0 -90 -23 -183.5t-71 -181.5t-113 -157t-156 -111t-194 -42q-108 0 -197 39.5t-147.5 105.5t-99 153.5t-58.5 179.5t-18 189zM209 705q0 -77 21 -153.5 t60.5 -142t105 -106.5t145.5 -41q161 0 280 119l-235 127l28 -125l-176 -39l-133 576q135 79 221 102q67 18 117 18q82 0 138.5 -43.5t56.5 -130.5q0 -113 -144 -215l226 -114q28 73 28 141q0 65 -9 127t-32.5 124t-58 108t-90 75t-125.5 29q-88 0 -167.5 -36.5 t-135.5 -96.5t-88.5 -139.5t-32.5 -163.5zM492 860q25 -85 30 -106q49 13 93 40.5t40 65.5h2q-7 19 -28 24.5t-54 -1t-83 -23.5z" />
<glyph unicode="&#xaf;" horiz-adv-x="864" d="M49 1397l733 18l2 -198l-731 -19z" />
<glyph unicode="&#xb0;" horiz-adv-x="870" d="M86 1020q0 47 5 90.5t18 92.5t38 89t61 73.5t92 52t126 18.5q185 0 275 -107t90 -293q0 -57 -22 -113t-62 -102.5t-102.5 -75t-137.5 -28.5q-50 0 -96 6t-100 25t-93 50.5t-65.5 88.5t-26.5 133zM356 1016q0 -31 30.5 -54t68.5 -20q23 1 40 34.5t17 57.5q0 82 -20.5 122 t-71.5 40q-64 0 -64 -180z" />
<glyph unicode="&#xb1;" horiz-adv-x="1081" d="M63 897q197 47 295 51l11 373l278 -45q5 -22 12 -59t18.5 -124.5t10.5 -144.5l293 -20l-12 -258q-19 -3 -50 -8.5t-107 -13t-128 -5.5q-12 -296 -12 -299q138 4 299 25q0 -54 1 -91t2 -49.5t3.5 -30.5t3.5 -24l-2 6l16 -117l-98 -12q-65 -6 -379 -14q-282 -8 -420 -21 l-28 303q114 9 319 19q-38 192 -35 305h-278z" />
<glyph unicode="&#xb2;" horiz-adv-x="954" d="M20 1241q19 53 87.5 113.5t142.5 101.5q47 24 100 30.5t144 4.5q127 -11 221 -97.5t90 -195.5q-4 -60 -40 -136.5t-79 -127.5q-90 -113 -115 -143q9 0 29 4q19 4 59.5 12.5t58.5 12t51 9t67.5 8.5t78.5 5l-32 -295q-119 0 -133 2q-117 -3 -424 -80q-28 -7 -150 -33 l-117 195q183 164 222 207q84 81 155 196q22 35 38 89.5t13 93.5q-1 10 -9 15.5t-20 6.5t-23 1t-21 -2l-11 -1q-21 0 -59 -24t-53 -46l-96 -116q-25 23 -69 70.5t-75 83.5z" />
<glyph unicode="&#xb3;" horiz-adv-x="872" d="M57 651l109 203l43 -37q29 -29 75 -47t85 -18q50 0 95.5 19t57.5 56q13 50 13 60q0 20 -7.5 33t-16 20t-27 10t-28.5 3.5t-32 0.5q-64 0 -109 -14l-71 135q133 93 174 144q-49 1 -173.5 -8t-148.5 -9v244h303l275 -16l76 -152q-23 -21 -101 -65.5t-96 -65.5 q38 0 95 -18.5t71 -32.5q29 -28 45.5 -48.5t31.5 -63.5t15 -99q0 -60 -33 -150v-2q-41 -105 -149 -163t-242 -58q-79 0 -157.5 24t-131.5 66h4l-14 10q-3 2 -3 3t-1 3t-8 10.5t-19 22.5z" />
<glyph unicode="&#xb4;" horiz-adv-x="1019" d="M166 1253q358 289 436 379q28 -6 88.5 -41.5t107.5 -67.5l46 -32q-36 -29 -174.5 -113t-258.5 -154l-120 -69z" />
<glyph unicode="&#xb5;" horiz-adv-x="1171" d="M86 -516q25 128 25 190q0 13 -1 39t-1 43q-3 46 -3 115q0 65 3 154q0 52 6 219v129q0 279 8 377l4 30q8 70 8 103q0 42 -24 147q88 51 128.5 63t82.5 9q6 -2 14 -2q24 0 158 -17q-27 -138 -29 -235q0 -2 -1 -16t-1 -19q-19 -215 -19 -305q0 -108 11 -135l12 -29 q18 0 68 31q131 106 127 698q116 31 159 31q65 0 170 -41q-17 -493 -14 -639q3 -66 36 -90.5t140 -30.5l-59 -276q-81 -20 -177 14.5t-167 103.5q-5 -6 -50 -41q-113 -79 -237 -79q-17 0 -41 4q-2 -53 -2 -154q0 -72 3 -213.5t3 -214.5q-185 -16 -340 37z" />
<glyph unicode="&#xb6;" horiz-adv-x="1204" d="M41 1032q-4 93 31 164q41 91 146.5 155t258.5 95q61 14 115 14q99 6 326 6q37 0 133 -1t98 -1q-16 -472 -16 -843q0 -393 18 -748q-38 -4 -87.5 -0.5t-91.5 9.5l-42 7q16 245 22.5 579t5.5 546l-2 211q-120 15 -143 12q-1 -43 -3 -115.5t-6.5 -266t-6 -354t1 -321.5 t10.5 -225q-172 -6 -205 6q9 128 9.5 290t-3.5 259l-4 98q-23 -2 -65 -2q-54 0 -90 8q-78 18 -151 57t-124 93q-126 133 -135 268zM352 1040q1 -99 57 -160t140 -61q17 0 53 4l-12 385q-9 0 -21.5 -2t-15.5 -2q-64 -3 -132.5 -55.5t-68.5 -108.5z" />
<glyph unicode="&#xb7;" horiz-adv-x="542" d="M80 657q0 79 56.5 138t144.5 59q77 0 134.5 -54t57.5 -134t-55.5 -142.5t-145.5 -62.5t-141 56t-51 140z" />
<glyph unicode="&#xb8;" horiz-adv-x="692" d="M145 -547q7 45 11.5 90t6.5 65.5t5 26.5l70 -18q20 -4 42 -5.5t50.5 0t46.5 15.5t18 39q0 20 -5.5 32.5t-16 16.5t-16 5t-15.5 1q-29 4 -119 -10q-1 3 -5.5 23t-13.5 53t-20 63l162 259l189 -5l-144 -210q115 4 184.5 -65t69.5 -165q0 -76 -44.5 -131.5t-108.5 -80.5 t-136 -25q-93 0 -211 26z" />
<glyph unicode="&#xb9;" horiz-adv-x="544" d="M98 532q3 21 5 54.5t3.5 68.5t2.5 43q0 14 2.5 181.5t1.5 210.5q3 53 -6 192.5t-5 167.5q14 0 69.5 2.5t93.5 3.5t82 0t65 -4q4 -123 4 -186q0 -67 -4 -133q-2 -96 -2 -525l6 -59z" />
<glyph unicode="&#xba;" horiz-adv-x="921" d="M33 1016q0 167 135 299q136 123 315 106q129 -12 242 -108q85 -72 122.5 -146.5t37.5 -175.5q0 -157 -103 -301q-112 -155 -303 -155q-196 0 -325 157q-121 149 -121 324zM383 1044q0 -54 9 -88.5t36 -60.5q44 -41 68 -41q6 0 26 10q33 28 33 129q0 21 -6 39l2 -2 q-10 37 -48 63.5t-75 26.5q-16 0 -30.5 -29.5t-14.5 -46.5z" />
<glyph unicode="&#xbb;" horiz-adv-x="1404" d="M61 848l144 239l551 -438l8 -160l-520 -505l-150 237l322 330q-52 44 -177 147.5t-178 149.5zM643 874l145 242l551 -438l9 -162l-521 -506l-149 240l319 330q-61 52 -185 154t-169 140z" />
<glyph unicode="&#xbc;" horiz-adv-x="1800" d="M98 532q3 21 5 54.5t3.5 68.5t2.5 43q0 14 2.5 181.5t1.5 210.5q3 53 -6 192.5t-5 167.5q14 0 69.5 2.5t93.5 3.5t82 0t65 -4q4 -123 4 -186q0 -67 -4 -133q-2 -96 -2 -525l6 -59zM154 8q421 655 583 854q64 81 179 235.5t198 268.5l84 115q11 -8 37.5 -26.5t35 -24.5 t27 -20t26 -20.5t19.5 -17t20 -20t15 -19.5l-41 -55q-279 -363 -424 -545q-59 -73 -205 -289.5t-262 -396.5l-116 -180zM864 186l45 156q2 3 11.5 46.5t20 94t13.5 62.5q25 140 31 209l8 1q8 1 20 1.5t28.5 1.5t37 0t42.5 -2.5t47.5 -6t48.5 -10.5q-9 -69 -35.5 -228 t-42.5 -216l2 2q-1 -5 -3 -16.5t-3.5 -19.5t-4.5 -11h52q119 0 168 2q0 12 -8.5 150.5t-8.5 213.5q0 80 10 156q114 -2 228 -24q-6 -120 -6 -181q0 -116 6 -293q16 3 65.5 5t91.5 3l41 1l-20 -179q-127 4 -168 0l14 -243l-231 -8q1 0 -1 19.5t-4.5 53.5t-2.5 60v30 q0 13 -4 25.5t-4 44.5q-70 -2 -220 -2q-11 0 -78.5 1t-119.5 1q-10 26 -17 36.5t-20 25t-29 38.5z" />
<glyph unicode="&#xbd;" horiz-adv-x="1841" d="M98 532q3 21 5 54.5t3.5 68.5t2.5 43q0 14 2.5 181.5t1.5 210.5q3 53 -6 192.5t-5 167.5q14 0 69.5 2.5t93.5 3.5t82 0t65 -4q4 -123 4 -186q0 -67 -4 -133q-2 -96 -2 -525l6 -59zM154 8q421 655 583 854q64 81 179 235.5t198 268.5l84 115q11 -8 37.5 -26.5t35 -24.5 t27 -20t26 -20.5t19.5 -17t20 -20t15 -19.5l-41 -55q-279 -363 -424 -545q-59 -73 -205 -289.5t-262 -396.5l-116 -180zM954 604q16 50 80.5 105.5t134.5 93.5q44 23 95 29t137 4q120 -9 209.5 -90t85.5 -181q-3 -55 -37.5 -126t-75.5 -117l-108 -134q9 0 24 5q21 4 70 13.5 t70.5 13t65.5 8.5t95 8l-28 -273q-116 0 -130 2q-114 -3 -401 -74l-47 -12q-11 -1 -94 -18l-111 180q172 151 209 190q77 73 148 183q22 32 36.5 82t10.5 86q0 9 -7.5 14.5t-18.5 6.5t-21.5 0.5t-20.5 -1.5l-10 -2q-20 0 -57 -21.5t-50 -41.5l-92 -109q-24 21 -64.5 65 t-69.5 77z" />
<glyph unicode="&#xbe;" horiz-adv-x="2035" d="M57 651l109 203l43 -37q29 -29 75 -47t85 -18q50 0 95.5 19t57.5 56q13 50 13 60q0 20 -7.5 33t-16 20t-27 10t-28.5 3.5t-32 0.5q-64 0 -109 -14l-71 135q133 93 174 144q-49 1 -173.5 -8t-148.5 -9v244h303l275 -16l76 -152q-23 -21 -101 -65.5t-96 -65.5 q38 0 95 -18.5t71 -32.5q29 -28 45.5 -48.5t31.5 -63.5t15 -99q0 -60 -33 -150v-2q-41 -105 -149 -163t-242 -58q-79 0 -157.5 24t-131.5 66h4l-14 10q-3 2 -3 3t-1 3t-8 10.5t-19 22.5zM387 -12q422 655 584 854q64 81 179 235.5t198 268.5l84 114q14 -10 43.5 -30.5 t39.5 -27.5t29 -22t28 -23t20 -20t20 -24l-41 -56q-279 -362 -424 -544q-59 -73 -205 -289.5t-262 -397.5l-117 -180zM1098 166l45 156q2 3 11.5 46t20 93.5t13.5 62.5q25 140 31 209l8 1q8 1 20 2t28.5 1.5t37 0t42 -2t47 -6t48.5 -10.5q-9 -69 -35.5 -228.5t-42.5 -216.5 l2 2q-2 -5 -3 -16t-2.5 -19.5t-4.5 -11.5h51q119 0 168 2q0 12 -8 151t-8 214q0 80 10 156q107 -2 227 -25q-6 -119 -6 -180q0 -116 6 -293q16 3 58 5t76 3h34l10 -178q-126 4 -167 0l14 -244l-232 -8q1 0 -1 19.5t-4.5 53.5t-2.5 60v31q0 14 -4 26t-4 44q-105 -3 -219 -3 q-11 0 -79 1.5t-120 1.5q-8 21 -14.5 32t-11 16t-15.5 18.5t-24 33.5z" />
<glyph unicode="&#xbf;" horiz-adv-x="940" d="M33 348q0 33 8 65.5t16.5 56t31.5 56t34 48t45.5 49t44 43t49.5 45.5q36 32 57 53.5t45 55t35 67.5q7 21 7 53q0 23 -27 131l342 33q33 -139 33 -180q0 -58 -19 -123q-6 -18 -14 -36t-20 -37t-21 -33t-26.5 -34t-26 -30.5t-30.5 -32.5t-28.5 -29t-31 -30.5t-29.5 -28.5 q-54 -54 -82.5 -97.5t-28.5 -93.5q0 -57 22 -90.5t60 -33.5q92 0 148 41q9 6 66.5 58t66.5 58l153 -276l-55 -51q-95 -61 -183 -92t-196 -31q-129 0 -232.5 62t-158.5 163.5t-55 220.5zM262 1391q0 79 60.5 147t156.5 68q75 0 148 -57t73 -126q0 -59 -87.5 -127.5 t-153.5 -68.5q-88 0 -142.5 44.5t-54.5 119.5z" />
<glyph unicode="&#xc0;" d="M4 375q0 7 -1.5 38.5t-1 59.5t4.5 53q10 58 49 138q57 -1 90.5 -1h42.5t20.5 0.5t27.5 0.5q31 95 111.5 383t135.5 442l322 22q21 -74 221 -700.5t262 -830.5q-32 -20 -87 -37.5t-93 -14.5q-32 0 -154 15q-3 10 -17 59.5t-27.5 99t-20.5 78.5q-9 35 -20.5 69t-25.5 69.5 t-18 46.5q-123 -7 -329 -7q-8 -52 -38.5 -198.5t-39.5 -212.5q-197 -9 -326 49q8 59 37.5 199t34.5 178q-1 0 -4.5 0.5t-12.5 1.5t-24 1.5t-46 0t-73 -1.5zM260 1931q179 130 238 146q34 -41 141 -137.5t197 -173.5l90 -76l-123 -101q-457 272 -543 342zM561 666 q121 0 182 6q-6 20 -27.5 84t-39.5 119.5t-25 82.5q-9 -45 -44.5 -140.5t-45.5 -151.5z" />
<glyph unicode="&#xc1;" d="M4 375q0 7 -1.5 38.5t-1 59.5t4.5 53q10 58 49 138q57 -1 90.5 -1h42.5t20.5 0.5t27.5 0.5q31 95 111.5 383t135.5 442l322 22q21 -74 221 -700.5t262 -830.5q-32 -20 -87 -37.5t-93 -14.5q-32 0 -154 15q-3 10 -17 59.5t-27.5 99t-20.5 78.5q-9 35 -20.5 69t-25.5 69.5 t-18 46.5q-123 -7 -329 -7q-8 -52 -38.5 -198.5t-39.5 -212.5q-197 -9 -326 49q8 59 37.5 199t34.5 178q-1 0 -4.5 0.5t-12.5 1.5t-24 1.5t-46 0t-73 -1.5zM369 1679q358 289 436 379q28 -6 88.5 -41.5t106.5 -67.5l47 -32q-36 -29 -174.5 -113t-258.5 -154l-120 -69z M561 666q121 0 182 6q-6 20 -27.5 84t-39.5 119.5t-25 82.5q-9 -45 -44.5 -140.5t-45.5 -151.5z" />
<glyph unicode="&#xc2;" d="M4 375q0 7 -1.5 38.5t-1 59.5t4.5 53q10 58 49 138q57 -1 90.5 -1h42.5t20.5 0.5t27.5 0.5q31 95 111.5 383t135.5 442l322 22q21 -74 221 -700.5t262 -830.5q-32 -20 -87 -37.5t-93 -14.5q-32 0 -154 15q-3 10 -17 59.5t-27.5 99t-20.5 78.5q-9 35 -20.5 69t-25.5 69.5 t-18 46.5q-123 -7 -329 -7q-8 -52 -38.5 -198.5t-39.5 -212.5q-197 -9 -326 49q8 59 37.5 199t34.5 178q-1 0 -4.5 0.5t-12.5 1.5t-24 1.5t-46 0t-73 -1.5zM266 1722l293 334h148l305 -338l-154 -139l-217 240q-34 -45 -104 -133.5t-74 -94.5zM561 666q121 0 182 6 q-6 20 -27.5 84t-39.5 119.5t-25 82.5q-9 -45 -44.5 -140.5t-45.5 -151.5z" />
<glyph unicode="&#xc3;" d="M4 375q0 7 -1.5 38.5t-1 59.5t4.5 53q10 58 49 138q57 -1 90.5 -1h42.5t20.5 0.5t27.5 0.5q31 95 111.5 383t135.5 442l322 22q21 -74 221 -700.5t262 -830.5q-32 -20 -87 -37.5t-93 -14.5q-32 0 -154 15q-3 10 -17 59.5t-27.5 99t-20.5 78.5q-9 35 -20.5 69t-25.5 69.5 t-18 46.5q-123 -7 -329 -7q-8 -52 -38.5 -198.5t-39.5 -212.5q-197 -9 -326 49q8 59 37.5 199t34.5 178q-1 0 -4.5 0.5t-12.5 1.5t-24 1.5t-46 0t-73 -1.5zM246 1651q14 54 25 89t31 75t43.5 63t59.5 38t82 15q62 0 134 -76q31 -33 59 -38q38 -5 61 24l15 15 q14 16 20.5 25.5t17.5 27t15 37t2 41.5l154 -33l-15 -72q-6 -43 -31.5 -86t-74.5 -104q-59 -68 -156 -68q-51 0 -110 27q-34 21 -64 59q-36 49 -49 49q-17 -3 -31 -15.5t-25.5 -39t-17 -43.5t-16.5 -53zM561 666q121 0 182 6q-6 20 -27.5 84t-39.5 119.5t-25 82.5 q-9 -45 -44.5 -140.5t-45.5 -151.5z" />
<glyph unicode="&#xc4;" d="M4 375q0 7 -1.5 38.5t-1 59.5t4.5 53q10 58 49 138q57 -1 90.5 -1h42.5t20.5 0.5t27.5 0.5q31 95 111.5 383t135.5 442l322 22q21 -74 221 -700.5t262 -830.5q-32 -20 -87 -37.5t-93 -14.5q-32 0 -154 15q-3 10 -17 59.5t-27.5 99t-20.5 78.5q-9 35 -20.5 69t-25.5 69.5 t-18 46.5q-123 -7 -329 -7q-8 -52 -38.5 -198.5t-39.5 -212.5q-197 -9 -326 49q8 59 37.5 199t34.5 178q-1 0 -4.5 0.5t-12.5 1.5t-24 1.5t-46 0t-73 -1.5zM301 1806q0 64 44.5 108t115.5 44q65 0 103 -35.5t38 -93.5q-2 -32 -10 -60t-25 -53.5t-47.5 -40t-70.5 -14.5 q-66 0 -107 46t-41 99zM561 666q121 0 182 6q-6 20 -27.5 84t-39.5 119.5t-25 82.5q-9 -45 -44.5 -140.5t-45.5 -151.5zM741 1823q0 147 148 159q86 0 119 -49v-2q26 -40 26 -90q0 -156 -139 -166q-78 0 -116 44.5t-38 103.5z" />
<glyph unicode="&#xc5;" horiz-adv-x="1335" d="M4 375q0 7 -1.5 38.5t-1 59.5t4.5 53q10 58 49 138q57 -1 90.5 -1h42.5t20.5 0.5t27.5 0.5q31 95 111.5 383t135.5 442l322 22q21 -74 221 -700.5t262 -830.5q-32 -20 -87 -37.5t-93 -14.5q-32 0 -154 15q-3 10 -17 59.5t-27.5 99t-20.5 78.5q-9 35 -20.5 69t-25.5 69.5 t-18 46.5q-123 -7 -329 -7q-8 -52 -38.5 -198.5t-39.5 -212.5q-197 -9 -326 49q8 59 37.5 199t34.5 178q-1 0 -4.5 0.5t-12.5 1.5t-24 1.5t-46 0t-73 -1.5zM336 1851q0 46 5.5 86.5t23 87.5t45.5 80t79 55.5t119 22.5q149 0 223 -86t74 -231q0 -94 -72 -171t-190 -77 q-40 0 -77 4.5t-80.5 20t-75 39.5t-53 68t-21.5 101zM532 1851q0 -38 27.5 -52.5t83.5 -14.5q33 0 48.5 26.5t15.5 55.5q0 76 -22 113.5t-77 37.5q-76 0 -76 -166zM561 666q121 0 182 6q-6 20 -27.5 84t-39.5 119.5t-25 82.5q-9 -45 -44.5 -140.5t-45.5 -151.5z" />
<glyph unicode="&#xc6;" horiz-adv-x="1675" d="M23 457q7 175 79 280q69 -13 158 -39q53 131 211 436t211 418l328 45l14 -196q245 11 494 29q32 -92 32 -158q0 -41 -14 -135l-147 -4q-264 -18 -338 -21l6 -98q1 -15 7 -115.5t9 -128.5q97 13 210.5 40.5t191.5 59.5q83 -111 67 -286q-75 -34 -206 -64t-238 -41 q3 -38 7.5 -80.5t7 -74t5.5 -88.5q165 45 453 94q28 -64 44.5 -143.5t14.5 -127.5l-84 -26q-298 -53 -497 -133q-30 -25 -106 -36t-142 -9q-9 70 -16 234.5t-9 193.5q-1 22 -3 35t-3 36q-124 -23 -299 8q-66 -169 -133 -399q-202 40 -303 105l39 114q22 74 82 248 q-93 16 -133 27zM557 645q39 -6 105 -6t96 12q-3 46 -4 162t-9 227q-3 -6 -85.5 -174.5t-102.5 -220.5z" />
<glyph unicode="&#xc7;" horiz-adv-x="1179" d="M29 762q0 92 20.5 185.5t68 187t115.5 165.5t172 117t228 45q219 0 352.5 -120.5t138.5 -307.5l11 -127l-353 -14q9 72 9 160q0 64 -44 102.5t-112 38.5q-67 0 -122.5 -41.5t-87 -105t-48.5 -131.5t-17 -130q0 -88 3.5 -153t24.5 -164.5t61 -165.5q30 -48 75.5 -75 t98.5 -27q107 0 141 39q41 49 45 243l307 -16q0 -6 -1 -34.5t-1 -35.5q-2 -121 -7 -156q-23 -161 -160 -235q-34 -18 -73 -31q13 -25 18.5 -55.5t6 -45.5t0.5 -54q0 -56 -22 -127q-32 -106 -105 -175t-184 -69q-117 0 -188.5 65.5t-43.5 159.5v-2q22 73 98.5 121.5 t159.5 26.5h4q63 73 5 137q-294 -20 -439 125q-32 35 -57.5 78t-42 80.5t-28 90.5t-17 87.5t-8.5 93.5t-3 85.5t0.5 87.5t0.5 77z" />
<glyph unicode="&#xc8;" horiz-adv-x="1028" d="M0 836q9 0 34.5 3t53.5 6.5t33 4.5q-1 95 -5 294t-5 277q23 -1 121.5 1.5t109.5 2.5q45 0 586 33q9 -23 14.5 -43.5t7.5 -39t2.5 -29t0 -28t-0.5 -20.5q0 -43 -16 -131q-72 -6 -121 -9.5t-66.5 -4.5t-23.5 -2q-210 -14 -260 -16q0 -166 2 -246q347 46 428 63 q40 -142 20 -290q-62 -11 -134 -24.5t-100 -18.5t-67 -11.5t-69 -10.5t-72 -9l6 -230q222 61 473 101q18 -64 22 -165.5t-3 -141.5q-192 -40 -429 -103.5t-401 -136.5l-14 643q-19 -1 -50.5 -5t-52.5 -8l-22 -3zM147 1812q179 130 238 146q34 -41 141 -137.5t197 -172.5 l90 -77l-123 -101q-457 272 -543 342z" />
<glyph unicode="&#xc9;" horiz-adv-x="1046" d="M0 836q9 0 34.5 3t53.5 6.5t33 4.5q-1 95 -5 294t-5 277q23 -1 121.5 1.5t109.5 2.5q45 0 586 33q9 -23 14.5 -43.5t7.5 -39t2.5 -29t0 -28t-0.5 -20.5q0 -43 -16 -131q-72 -6 -121 -9.5t-66.5 -4.5t-23.5 -2q-210 -14 -260 -16q0 -166 2 -246q347 46 428 63 q40 -142 20 -290q-62 -11 -134 -24.5t-100 -18.5t-67 -11.5t-69 -10.5t-72 -9l6 -230q222 61 473 101q18 -64 22 -165.5t-3 -141.5q-192 -40 -429 -103.5t-401 -136.5l-14 643q-19 -1 -50.5 -5t-52.5 -8l-22 -3zM219 1569q358 289 436 379q28 -6 88.5 -41.5t106.5 -68.5 l47 -32q-36 -29 -174.5 -113t-258.5 -153l-120 -70z" />
<glyph unicode="&#xca;" horiz-adv-x="1019" d="M0 836q9 0 34.5 3t53.5 6.5t33 4.5q-1 95 -5 294t-5 277q23 -1 121.5 1.5t109.5 2.5q45 0 586 33q9 -23 14.5 -43.5t7.5 -39t2.5 -29t0 -28t-0.5 -20.5q0 -43 -16 -131q-72 -6 -121 -9.5t-66.5 -4.5t-23.5 -2q-210 -14 -260 -16q0 -166 2 -246q347 46 428 63 q40 -142 20 -290q-62 -11 -134 -24.5t-100 -18.5t-67 -11.5t-69 -10.5t-72 -9l6 -230q222 61 473 101q18 -64 22 -165.5t-3 -141.5q-192 -40 -429 -103.5t-401 -136.5l-14 643q-19 -1 -50.5 -5t-52.5 -8l-22 -3zM145 1645l293 333h148l305 -338l-154 -139l-217 240 q-34 -45 -104 -133.5t-74 -94.5z" />
<glyph unicode="&#xcb;" horiz-adv-x="1032" d="M0 836q9 0 34.5 3t53.5 6.5t33 4.5q-1 95 -5 294t-5 277q23 -1 121.5 1.5t109.5 2.5q45 0 586 33q9 -23 14.5 -43.5t7.5 -39t2.5 -29t0 -28t-0.5 -20.5q0 -43 -16 -131q-72 -6 -121 -9.5t-66.5 -4.5t-23.5 -2q-210 -14 -260 -16q0 -166 2 -246q347 46 428 63 q40 -142 20 -290q-62 -11 -134 -24.5t-100 -18.5t-67 -11.5t-69 -10.5t-72 -9l6 -230q222 61 473 101q18 -64 22 -165.5t-3 -141.5q-192 -40 -429 -103.5t-401 -136.5l-14 643q-19 -1 -50.5 -5t-52.5 -8l-22 -3zM145 1642q0 64 44.5 108t115.5 44q65 0 103 -35.5t38 -93.5 q-2 -32 -10 -60t-25 -53.5t-47.5 -40t-70.5 -14.5q-66 0 -107 46t-41 99zM586 1659q0 148 147 160q85 0 119 -50v-2q27 -42 27 -90q0 -155 -140 -166q-78 0 -115.5 44.5t-37.5 103.5z" />
<glyph unicode="&#xcc;" horiz-adv-x="595" d="M-227 1855q178 130 237 146q34 -41 141 -137.5t197 -173.5l90 -76l-123 -101q-456 272 -542 342zM84 1384q83 24 206 27.5t163 -6.5q8 -54 9 -158.5t5 -154.5q5 -63 12 -239t13 -267q3 -44 14.5 -281t17.5 -313l-356 -8l-8 290q-15 323 -15 326q0 8 -1 27t-1 28 q-11 207 -59 729z" />
<glyph unicode="&#xcd;" horiz-adv-x="569" d="M29 1647q358 288 436 378q28 -6 88.5 -41.5t106.5 -67.5l47 -32q-36 -29 -174.5 -113t-258.5 -153l-120 -70zM49 1384q83 24 206 27.5t163 -6.5q8 -54 9 -158.5t5 -154.5q5 -63 12 -239t13 -267q3 -44 14.5 -281t17.5 -313l-356 -8l-8 290q-2 43 -6.5 159.5t-7.5 166.5 q0 8 -1 27t-1 28q-10 181 -60 729z" />
<glyph unicode="&#xce;" horiz-adv-x="577" d="M-119 1638l293 334h148l305 -338l-154 -139l-217 240q-34 -45 -104 -133.5t-74 -94.5zM84 1384q83 24 206 27.5t163 -6.5q8 -54 9 -158.5t5 -154.5q5 -63 12 -239t13 -267q3 -44 14.5 -281t17.5 -313l-356 -8l-8 290q-15 323 -15 326q0 8 -1 27t-1 28q-11 207 -59 729z " />
<glyph unicode="&#xcf;" horiz-adv-x="622" d="M-125 1667q0 63 44.5 107.5t115.5 44.5q65 0 103 -35.5t38 -93.5q-2 -32 -10 -60t-25 -53.5t-47.5 -40t-70.5 -14.5q-66 0 -107 46t-41 99zM92 1384q83 24 206 27.5t163 -6.5q8 -54 9 -158.5t5 -154.5q5 -63 12 -239t13 -267q3 -44 14.5 -281t17.5 -313l-356 -8l-8 290 q-2 43 -6.5 159.5t-7.5 166.5q0 8 -1 27t-1 28q-10 181 -60 729zM315 1683q0 148 148 160q86 0 119 -49v-2q26 -40 26 -90q0 -156 -139 -166q-78 0 -116 44t-38 103z" />
<glyph unicode="&#xd0;" horiz-adv-x="1228" d="M41 760q82 10 152 10l-3 291l-108 -6q-21 82 -21 172q0 69 11 137q255 6 282 4q188 0 358.5 -40t262.5 -114q80 -72 140 -208t59 -281q-3 -158 -41.5 -296t-102.5 -220q-60 -78 -197 -134t-293 -84t-343 -40l-4 604q-67 -3 -138 -12zM518 1047l6 -271q112 7 135 10 l13 -223h-54q-24 -4 -92 -4q0 -66 4 -242q6 2 67 10.5t104.5 27t60.5 53.5q70 129 65 354q0 69 -27.5 124.5t-56.5 82.5q-55 43 -225 78z" />
<glyph unicode="&#xd1;" horiz-adv-x="1110" d="M0 1333l252 174q303 -650 395 -821q-2 96 -2 289q0 280 10 567q101 35 158 35q47 0 191 -39q-9 -369 -9 -537q0 -647 43 -1198l-196 -49q-236 353 -391 606q30 -285 67 -565q-160 -56 -348 -41l-16 129l2 -2q-56 416 -156 1452zM201 1669q14 54 25 89.5t31 75t43.5 62.5 t59.5 38.5t82 15.5q61 0 133 -76q32 -34 60 -39q38 -5 61 25q1 1 15 16t20.5 24t17.5 26.5t15 37t2 41.5l154 -33l-15 -71q-6 -44 -31.5 -87.5t-74.5 -103.5q-59 -68 -156 -68q-52 0 -111 27q-31 18 -63 60q-36 49 -49 49q-17 -3 -31 -15.5t-25.5 -39.5t-17 -43.5 t-16.5 -53.5z" />
<glyph unicode="&#xd2;" horiz-adv-x="1531" d="M37 674q0 587 536 790h-2q93 37 211 37q281 0 480 -215q95 -111 148.5 -252.5t53.5 -292.5q0 -58 -12 -133q-52 -386 -274 -608q-194 -197 -471 -197q-209 0 -373 119q-80 61 -140 153.5t-93 196t-48.5 204.5t-15.5 198zM406 670q0 -174 36 -301t131 -203q71 -57 162 -57 q99 0 191 108q104 124 149 408q8 90 8 120q0 211 -86 332q-78 117 -176 117q-41 0 -86 -18l2 2q-158 -61 -244.5 -191.5t-86.5 -316.5zM414 1882q178 130 237 146q34 -41 141 -138t197 -174l90 -76l-123 -100q-456 272 -542 342z" />
<glyph unicode="&#xd3;" horiz-adv-x="1531" d="M37 668q0 587 536 790h-2q93 37 211 37q281 0 480 -215q95 -111 148.5 -252.5t53.5 -292.5q0 -58 -12 -133q-52 -386 -274 -608q-194 -197 -471 -197q-209 0 -373 119q-80 61 -140 153.5t-93 196t-48.5 204.5t-15.5 198zM406 664q0 -174 36 -301t131 -203q72 -58 162 -58 q99 0 191 109q104 124 149 410q8 86 8 118q0 211 -86 332q-78 117 -176 117q-39 0 -86 -19l2 2q-158 -61 -244.5 -191t-86.5 -316zM584 1645q358 288 436 378q28 -6 88.5 -41.5t107.5 -67.5l46 -32q-36 -29 -174.5 -113t-258.5 -153l-120 -70z" />
<glyph unicode="&#xd4;" horiz-adv-x="1527" d="M33 668q0 587 536 790h-2q93 37 211 37q280 0 479 -215q96 -111 149.5 -252.5t53.5 -292.5q0 -58 -12 -133q-52 -386 -274 -608q-194 -197 -472 -197q-208 0 -372 119q-80 61 -140 153.5t-93 196t-48.5 204.5t-15.5 198zM387 1681l293 334h147l306 -338l-154 -139 l-217 240q-34 -45 -104 -133.5t-74 -94.5zM401 664q0 -82 7.5 -150t25 -136t51.5 -123.5t84 -94.5q72 -58 162 -58q99 0 191 109q104 124 149 407q8 90 8 121q0 211 -86 332q-78 117 -176 117q-39 0 -86 -19l2 2q-158 -61 -245 -191t-87 -316z" />
<glyph unicode="&#xd5;" horiz-adv-x="1515" d="M33 668q0 587 536 790h-2q93 37 211 37q280 0 479 -215q96 -111 149.5 -252.5t53.5 -292.5q0 -58 -12 -133q-52 -386 -274 -608q-194 -197 -472 -197q-208 0 -372 119q-80 61 -140 153.5t-93 196t-48.5 204.5t-15.5 198zM377 1628q14 54 25 89.5t31 75t43.5 62.5 t59.5 38.5t82 15.5q62 0 134 -76q32 -34 59 -39q38 -5 61 25q1 1 15 16t20.5 24t17.5 26.5t15 37t2 41.5l154 -33l-15 -71q-6 -44 -31.5 -87.5t-74.5 -103.5q-58 -67 -156 -67q-53 0 -110 26q-16 9 -28 20t-18 18t-18 22q-36 49 -49 49q-17 -3 -31 -15.5t-25.5 -39.5 t-17 -43.5t-16.5 -53.5zM401 664q0 -82 7.5 -150t25 -136t51.5 -123.5t84 -94.5q72 -58 162 -58q99 0 191 109q104 124 149 407q8 90 8 121q0 211 -86 332q-78 117 -176 117q-39 0 -86 -19l2 2q-158 -61 -245 -191t-87 -316z" />
<glyph unicode="&#xd6;" horiz-adv-x="1499" d="M4 668q0 586 537 790h-2q93 37 211 37q280 0 479 -215q96 -111 149.5 -252.5t53.5 -292.5q0 -53 -13 -133q-52 -386 -274 -608q-194 -197 -471 -197q-209 0 -373 119q-80 61 -140 153.5t-93 196t-48.5 204.5t-15.5 198zM373 664q0 -82 7.5 -150t25 -136t51.5 -123.5 t84 -94.5q72 -58 161 -58q99 0 191 109q104 124 149 407q9 101 9 121q0 211 -86 332q-78 117 -177 117q-38 0 -86 -19l3 2q-158 -61 -245 -191t-87 -316zM391 1757q0 63 44.5 107.5t115.5 44.5q65 0 103 -35.5t38 -93.5q-2 -32 -10 -60t-25 -53.5t-47.5 -40t-70.5 -14.5 q-44 0 -79 23.5t-52 56t-17 65.5zM831 1774q0 147 148 159q42 0 70.5 -10t48.5 -39v-2q26 -40 26 -90q0 -156 -139 -166q-33 0 -59.5 9t-43.5 23.5t-29 34t-17 40t-5 41.5z" />
<glyph unicode="&#xd7;" horiz-adv-x="1003" d="M27 877l204 153q187 -115 263 -178l245 258l170 -207q-106 -164 -190 -256l274 -264l-215 -143q-180 106 -266 188l-238 -252l-215 215l234 242q-46 41 -112.5 102t-110.5 101z" />
<glyph unicode="&#xd8;" horiz-adv-x="1419" d="M23 715q0 526 503 704q88 31 187 31q71 0 135 -12l129 291q157 -47 260 -127q-49 -150 -121 -302q23 -23 41 -38q189 -204 189 -488q0 -52 -9 -119q-52 -341 -260 -540q-182 -170 -436 -170q-89 0 -152 16l-110 -225l-236 129q59 127 90 233q-77 75 -126.5 187.5 t-66.5 216t-17 213.5zM334 713q0 -183 51 -307q149 310 176 378q2 5 174 398l2 4q-25 -2 -75 -19h2q-157 -55 -243.5 -171t-86.5 -283zM612 211q20 -4 60 -4q110 0 194 100q110 113 148 367q10 62 10 104q0 135 -45 230q-106 -225 -141 -322q-115 -250 -226 -475z" />
<glyph unicode="&#xd9;" horiz-adv-x="1056" d="M47 1255q181 43 367 23l12 -129q4 -16 5 -60.5t0.5 -117.5t0.5 -109q5 -254 6 -280q13 -232 21 -254q16 -21 22 -25q35 -14 37 -14t20 7t38 17.5t24 18.5v-2q49 77 49 172q0 16 -2 81t-5 165.5t-5 181.5q-2 56 -5 160.5t-3 109.5l-2 125q129 31 184 31q47 0 164 -25 l2 -123q8 -253 8 -676q0 -169 -88 -323q-42 -67 -149 -133l2 2q-107 -71 -191 -82l4 2q-102 -21 -241 45q-142 73 -189 172v-2q-5 11 -10 33.5t-10 57.5t-9 70t-8 89.5t-7.5 96.5t-7.5 109t-6.5 109.5t-7 116t-6.5 111.5zM164 1776q178 129 237 145q34 -41 141 -137.5 t197 -173.5l90 -76l-122 -100q-457 272 -543 342z" />
<glyph unicode="&#xda;" horiz-adv-x="1048" d="M39 1255q181 43 367 23l12 -129q4 -16 5 -60.5t0.5 -117.5t0.5 -109q5 -254 6 -280q13 -232 21 -254q15 -21 22 -25q35 -14 37 -14t20 7t38 17.5t24 18.5v-2q49 77 49 172q0 16 -2 81t-5 165.5t-5 181.5q-2 56 -5 160.5t-3 109.5l-3 125q129 31 185 31q47 0 164 -25 l2 -123q8 -253 8 -676q0 -169 -88 -323q-41 -66 -150 -133l2 2q-108 -71 -190 -82l4 2q-103 -21 -242 45q-141 72 -188 172v-2q-5 11 -10 33.5t-10 57.5t-9 70t-8 89.5t-7.5 96.5t-7.5 109t-6.5 109.5t-7 116t-6.5 111.5zM201 1493q358 289 436 379q28 -6 88.5 -41.5 t106.5 -67.5l47 -32q-36 -29 -174.5 -113t-258.5 -154l-120 -69z" />
<glyph unicode="&#xdb;" horiz-adv-x="1048" d="M39 1247q181 43 367 23l12 -129q4 -16 5 -60.5t0.5 -117.5t0.5 -109q5 -255 6 -281q13 -232 21 -254q14 -19 22 -24q35 -14 37 -14t20 7t38 17.5t24 18.5v-2q49 77 49 172q0 16 -2 81t-5 165.5t-5 181.5q-2 56 -5 160.5t-3 109.5l-3 125q129 31 185 31q47 0 164 -25 l2 -123q8 -253 8 -676q0 -169 -88 -323q-41 -66 -150 -133l2 2q-108 -71 -190 -82l4 2q-103 -21 -242 45q-141 72 -188 172v-2q-5 11 -10 33t-10 57.5t-9 70.5t-8 89.5t-7.5 96t-7.5 108.5t-6.5 109t-7 116t-6.5 112zM133 1554l293 334h147l306 -338l-154 -139l-217 240 q-34 -45 -104 -133.5t-74 -94.5z" />
<glyph unicode="&#xdc;" horiz-adv-x="1009" d="M27 1214q181 42 366 23l13 -129q4 -16 5 -60.5t0.5 -117.5t0.5 -109q5 -254 6 -280q13 -235 20 -254q15 -19 23 -25q35 -14 37 -14t20 7t38 17.5t24 18.5v-2q49 77 49 172q0 15 -2.5 80.5t-5.5 166t-5 181.5q-2 56 -5 160.5t-3 109.5l-2 125q129 31 185 31q46 0 163 -25 l2 -123q9 -285 9 -675q0 -170 -88 -324q-41 -66 -150 -133l2 2q-108 -71 -190 -82l4 2q-103 -21 -242 45q-141 72 -188 172v-2q-5 11 -10 33.5t-10 57.5t-9 70t-8 89.5t-7.5 96.5t-7.5 109t-6.5 109.5t-7 116t-6.5 111.5zM166 1550q0 64 44 108t116 44q65 0 103 -35.5 t38 -93.5q-4 -70 -40 -119t-114 -49q-66 0 -106.5 46t-40.5 99zM606 1567q0 147 148 159q41 0 69.5 -9.5t48.5 -39.5v-2q27 -42 27 -90q0 -156 -139 -166q-78 0 -116 44.5t-38 103.5z" />
<glyph unicode="&#xdd;" horiz-adv-x="1052" d="M35 1141q0 80 14 209q76 8 188 -2.5t164 -36.5l-14 -115q-8 -40 -8 -94q0 -106 21.5 -240.5t58.5 -167.5q31 -33 57.5 -40t79.5 -7h14h13l9 4h3v58q0 274 -31 675q208 65 354 19l15 -193q18 -197 18 -532q0 -145 -5.5 -241.5t-23 -207t-57 -194t-102.5 -144.5 q-69 -66 -170 -105.5t-205 -39.5q-153 0 -305 90l-72 55l168 263l90 -70q50 -31 127 -31q33 0 59.5 9t45 22.5t33.5 38t24 48t16 60.5t11 67t8 75q-12 -2 -20 -5t-15.5 -4.5t-26.5 -1.5q-11 0 -48 -0.5t-50.5 0t-46 2t-49 5t-45 11t-48.5 17.5t-44.5 26t-46.5 36 q-62 59 -99.5 188.5t-48 247.5t-10.5 246zM283 1561q358 288 436 378q28 -6 88.5 -41.5t106.5 -67.5l47 -32q-36 -29 -174.5 -113t-258.5 -153l-120 -70z" />
<glyph unicode="&#xde;" horiz-adv-x="1247" d="M61 1501q39 13 123.5 23.5t149.5 15.5l65 4q0 -123 2 -215q15 0 21 2q59 8 158 8q432 0 557 -213q53 -80 53 -176q0 -167 -139 -344q-130 -165 -328 -241l2 2q-110 -45 -272 -48q5 -52 19.5 -182t19.5 -190q-248 -49 -390 -19l-4 117q8 27 8 139q0 110 -45 1317z M418 1075q5 -133 22 -502q142 0 238 68q86 64 135 205q10 31 10 78q0 90 -67 123q-77 38 -224 38q-38 4 -114 -10z" />
<glyph unicode="&#xdf;" horiz-adv-x="1171" d="M-180 -432l157 248q34 -32 72.5 -49.5t58.5 -20t29 -0.5q42 9 47 162q9 167 0 291q-6 69 -21.5 199.5t-21.5 201.5q-19 240 -10 459q6 110 41.5 194.5t91.5 135.5t116 80t130 42q93 18 193.5 -9t177 -93.5t98.5 -153.5q15 -80 -25 -193.5t-106 -176.5q262 -141 260 -430 q-6 -194 -126 -337t-296 -179q-97 -19 -176 10l-18 -133q-25 -120 -132 -236q-84 -89 -217 -121q-172 -27 -323 109zM453 1083q2 -15 2.5 -38t0.5 -57t1 -58q11 4 46.5 6.5t55.5 11.5q46 19 75.5 89.5t24.5 119.5q-9 51 -51.5 82t-87.5 23q-59 -16 -67 -179zM467 631l8 -99 q2 -38 14 -141q-1 -16 5.5 -67.5t11.5 -65.5q16 -14 33 -23t30.5 -12.5t29 -4.5t24 0t20 3t12.5 2q52 10 93.5 80t33.5 135q-19 225 -315 193z" />
<glyph unicode="&#xe0;" horiz-adv-x="1009" d="M29 287q0 60 14 112q42 151 154 244q103 84 260 84q55 0 125 -16v53q-1 23 -2 44.5t-1.5 32t-0.5 11.5q-7 43 -16 60t-22.5 17t-33.5 -5q-18 -4 -78.5 -22t-73.5 -25q-8 -5 -31.5 -18.5t-38 -22.5t-36 -25t-39.5 -33q-26 18 -42.5 56.5t-33.5 101.5q-9 32 -9.5 83.5 t7.5 74.5q176 123 379 123q94 0 170 -29q87 -26 145.5 -81t81.5 -132q29 -88 29 -248q0 -23 -2 -82t-2 -88q-2 -90 -2 -178q0 -310 76 -369q-43 -67 -84 -92q-135 -84 -256 -74q-16 18 -30 63t-20 81l-6 35q-11 -4 -54 -22.5t-78 -30t-58 -11.5q-109 0 -195.5 34t-141 110 t-54.5 184zM100 1642q179 130 238 146q34 -41 141 -137.5t197 -172.5l90 -77l-123 -101q-457 272 -543 342zM387 326q0 -127 62 -127q43 0 85 22t54 64l-2 157l-17 17q-45 45 -106 45q-29 0 -52.5 -64t-23.5 -114z" />
<glyph unicode="&#xe1;" horiz-adv-x="1005" d="M0 283q0 60 14 112q42 151 154 244q103 84 260 84q55 0 125 -16v53q-1 23 -2 44.5t-1.5 32t-0.5 11.5q-7 43 -16 60t-22.5 17t-33.5 -5q-17 -4 -77 -22.5t-74 -25.5q-5 -3 -40 -23t-59 -36.5t-47 -38.5q-26 18 -42.5 56.5t-33.5 101.5q-9 32 -9.5 83.5t7.5 74.5 q174 122 379 122q97 0 170 -28q87 -26 146 -81t82 -132q28 -85 28 -248q0 -23 -2 -82t-2 -88q-2 -90 -2 -178q0 -310 76 -369q-43 -67 -84 -92q-135 -84 -256 -74q-16 18 -30 62.5t-19 79.5l-6 36q-10 -3 -54 -21.5t-79 -30t-58 -11.5q-109 0 -195.5 34t-141 110t-54.5 184z M168 1405q358 289 436 379q28 -6 88.5 -41.5t107.5 -68.5l46 -32q-36 -29 -174.5 -113t-258.5 -153l-120 -69zM358 322q0 -127 62 -127q43 0 85 22t54 64l-2 157l-16 17q-45 45 -107 45q-29 0 -52.5 -64t-23.5 -114z" />
<glyph unicode="&#xe2;" horiz-adv-x="1064" d="M47 283q0 60 14 112q42 151 154 244q103 84 260 84q55 0 125 -16v53q-1 23 -2 44.5t-1.5 32t-0.5 11.5q-7 43 -16 60t-22.5 17t-33.5 -5q-17 -4 -77 -22.5t-74 -25.5q-5 -3 -40 -23t-59 -36.5t-47 -38.5q-26 18 -42 55.5t-33 102.5q-9 32 -9.5 83.5t7.5 74.5 q174 122 378 122q97 0 170 -28q87 -26 146 -81t82 -132q28 -85 28 -248q0 -23 -2 -82t-2 -88q-2 -90 -2 -178q0 -310 76 -369q-43 -67 -84 -92q-135 -84 -256 -74q-16 18 -30 62.5t-20 79.5l-5 36q-10 -3 -54 -21.5t-79 -30t-58 -11.5q-109 0 -195.5 34t-141 110t-54.5 184z M154 1434l292 333h148l305 -337l-154 -140l-217 240q-33 -45 -100.5 -129.5t-77.5 -97.5zM406 322q0 -127 61 -127q43 0 85 22t54 64l-2 157l-16 17q-45 45 -107 45q-29 0 -52 -63.5t-23 -114.5z" />
<glyph unicode="&#xe3;" horiz-adv-x="1024" d="M20 279q0 57 15 112q42 152 153 244q103 84 261 84q50 0 124 -17v54q-1 23 -2 44.5t-1.5 32t-0.5 11.5q-7 43 -15.5 60t-22 16.5t-33.5 -5.5q-18 -4 -78.5 -22t-73.5 -25q-9 -6 -32 -18.5t-37.5 -21.5t-36 -25t-39.5 -33q-26 18 -42.5 56.5t-33.5 101.5q-9 32 -9.5 83 t7.5 74q175 123 379 123q97 0 170 -28q87 -26 145.5 -81t81.5 -132q29 -88 29 -248q0 -23 -2 -82t-2 -88q-2 -90 -2 -178q0 -159 17.5 -248t57.5 -121q-43 -67 -84 -92q-135 -84 -256 -74q-16 18 -30 62.5t-19 79.5l-6 36q-10 -4 -53.5 -22t-78.5 -29.5t-58 -11.5 q-169 0 -280.5 84t-111.5 244zM100 1395q14 54 25.5 89.5t31 75t43.5 62.5t60 38t82 15q61 0 133 -76q30 -33 60 -38q38 -5 61 24l14 15q15 16 21.5 25.5t17.5 27t15 37t2 41.5l153 -33l-14 -72q-5 -43 -31 -85.5t-76 -104.5q-59 -68 -155 -68q-52 0 -111 27q-32 19 -63 59 q-36 49 -50 49q-17 -3 -31 -15.5t-25.5 -39t-17 -43.5t-16.5 -53zM379 317q0 -127 61 -127q43 0 85.5 22t54.5 64l-2 158l-17 17q-45 45 -106 45q-29 0 -52.5 -64.5t-23.5 -114.5z" />
<glyph unicode="&#xe4;" horiz-adv-x="997" d="M20 283q0 57 15 112q42 152 153 244q103 84 261 84q54 0 124 -16v53q-1 23 -2 44.5t-1.5 32t-0.5 11.5q-7 43 -15.5 60t-22 17t-33.5 -5q-17 -4 -77.5 -22.5t-74.5 -25.5q-9 -6 -32 -18.5t-37.5 -21.5t-36 -25t-39.5 -33q-26 18 -42.5 56.5t-33.5 101.5q-9 32 -9.5 83.5 t7.5 74.5q174 122 379 122q97 0 170 -28q87 -26 145.5 -81t81.5 -132q29 -88 29 -248q0 -23 -2 -82t-2 -88q-2 -90 -2 -178q0 -159 17.5 -248t57.5 -121q-43 -67 -84 -92q-135 -84 -256 -74q-16 18 -30 62.5t-19 79.5l-6 36q-10 -4 -53.5 -22t-78.5 -29.5t-58 -11.5 q-169 0 -280.5 84t-111.5 244zM117 1499q0 64 44 108t115 44q65 0 103.5 -35.5t38.5 -93.5q-4 -70 -40 -119t-114 -49q-66 0 -106.5 46t-40.5 99zM379 322q0 -127 61 -127q43 0 85.5 22t54.5 64l-2 157l-17 17q-45 45 -106 45q-29 0 -52.5 -64t-23.5 -114zM557 1516 q0 147 148 159q41 0 69.5 -9.5t48.5 -39.5v-2q27 -42 27 -90q0 -156 -139 -166q-78 0 -116 44.5t-38 103.5z" />
<glyph unicode="&#xe5;" horiz-adv-x="1019" d="M25 287q0 60 14 112q42 151 154 244q103 84 260 84q55 0 125 -16v53q-1 23 -2 44.5t-2 32t-1 11.5q-7 43 -15.5 60t-22 17t-33.5 -5q-18 -4 -78.5 -22t-73.5 -25q-8 -5 -31.5 -18.5t-38 -22.5t-36 -25t-39.5 -33q-26 18 -42.5 56.5t-33.5 101.5q-9 32 -9.5 83.5t7.5 74.5 q175 123 379 123q94 0 170 -29q87 -26 145.5 -81t81.5 -132q29 -88 29 -248q0 -23 -2 -82t-2 -88q-2 -90 -2 -178q0 -159 17.5 -248t57.5 -121q-42 -67 -83 -92q-135 -84 -256 -74q-16 18 -30 63t-20 81l-6 35q-11 -4 -54 -22.5t-78 -30t-58 -11.5q-109 0 -195.5 34 t-141 110t-54.5 184zM231 1526q0 45 5.5 86t23 88t46 80t79.5 55.5t119 22.5q149 0 223 -86.5t74 -231.5q0 -94 -72 -171t-190 -77q-40 0 -77 5t-80.5 20t-75.5 39.5t-53.5 68.5t-21.5 101zM383 326q0 -127 61 -127q43 0 85.5 22t54.5 64l-2 157l-17 17q-45 45 -106 45 q-29 0 -52.5 -64t-23.5 -114zM428 1526q0 -38 27.5 -53t83.5 -15q33 0 48 26.5t15 55.5q0 76 -22 114t-76 38q-76 0 -76 -166z" />
<glyph unicode="&#xe6;" horiz-adv-x="1619" d="M27 322q0 61 14 116q41 158 154 256q99 86 256 86q67 0 129 -18v22q0 94 -2 125q0 10 -1.5 24.5t-1.5 18.5q0 46 -7 53q-5 5 -17 5q-44 0 -129 -43l2 2q-34 -16 -133 -119q-126 107 -144 182q-16 72 -16 135q175 131 375 131q108 0 194.5 -36t137.5 -97q103 57 233 49 q237 -14 357 -194t114 -516l-573 -111q44 -92 132.5 -140t211.5 -48q20 0 235 28q-26 -211 -141 -409l-143 26q-166 33 -279 89q-125 67 -215 167q-67 -67 -154.5 -113t-173.5 -46q-174 0 -284 98q-131 122 -131 277zM362 360q0 -73 22 -110t58 -37q41 0 90 62t66 120l-2 -2 q2 10 12 35l-24 18q0 4 -11 11l7 -2q-85 63 -123 63q-39 0 -67 -52t-28 -106zM879 674l299 47q-9 105 -25 149q-35 71 -102 74q-26 2 -54.5 -27.5t-60.5 -91.5q-35 -63 -57 -151z" />
<glyph unicode="&#xe7;" horiz-adv-x="935" d="M31 496q0 32 4 114q21 200 166 342q139 133 334 133q186 0 323 -116q6 -5 16 -20t15 -19l-162 -297q-17 31 -34.5 55.5t-32 39t-28 25.5t-23.5 16t-17.5 7.5t-11.5 3.5h-5q-77 -17 -120.5 -77t-51.5 -154q-7 -41 4 -124.5t25 -92.5l7 -6q7 -5 17 -11.5t21.5 -13t25.5 -11 t25 -3.5q69 5 145.5 34.5t133.5 86.5l88 -261l-39 -16q-24 -18 -46.5 -30t-90.5 -44q98 -122 98 -176q0 -111 -14 -168q-29 -92 -98 -148.5t-168 -56.5q-37 0 -74 13q-78 23 -117.5 80.5t-17.5 140.5q20 70 87 118.5t140 28.5q-21 93 -86 111q-73 2 -141.5 16t-100.5 37 l2 -2q-198 127 -198 445z" />
<glyph unicode="&#xe8;" horiz-adv-x="1032" d="M39 604q0 131 45 246q71 171 187.5 258.5t267.5 77.5q470 -27 458 -674l-579 -104q38 -96 116.5 -140.5t202.5 -44.5q13 0 232 29q-24 -209 -135 -391l-146 26q-169 28 -276 84h2q-201 98 -277 238q-98 178 -98 395zM98 1610q179 129 238 145q34 -41 141 -137.5 t197 -173.5l90 -76l-123 -100q-457 272 -543 342zM387 666q41 8 117.5 20.5t109.5 18.5q0 5 -1 15q-2 30 -3.5 45.5t-5 41t-10 39.5t-16 29.5t-25 22.5t-35.5 7q-24 2 -56 -27t-50 -77q-25 -77 -25 -135z" />
<glyph unicode="&#xe9;" horiz-adv-x="1032" d="M43 608q0 131 45 246q71 171 187.5 258.5t267.5 77.5q470 -27 458 -674l-579 -104q38 -96 116.5 -140.5t202.5 -44.5q13 0 232 29q-24 -209 -135 -391l-146 26q-169 28 -276 84h2q-201 98 -277 238q-98 178 -98 395zM276 1378q359 289 437 379q28 -6 88.5 -41.5 t106.5 -67.5l46 -32q-36 -29 -174.5 -113t-258.5 -153l-120 -70zM391 670q41 8 117.5 20.5t109.5 18.5q0 5 -1 15q-2 30 -3.5 45.5t-5 41t-10 39.5t-16 29.5t-25 22.5t-35.5 7q-24 2 -56 -27t-50 -77q-25 -77 -25 -135z" />
<glyph unicode="&#xea;" horiz-adv-x="1046" d="M33 590q0 131 45 246q71 171 187 257.5t267 77.5q471 -27 459 -673l-579 -105q38 -96 116 -140t203 -44q13 0 232 29q-24 -208 -136 -392l-145 27q-169 28 -276 84h2q-201 98 -277 238q-98 178 -98 395zM96 1368l293 334h148l305 -338l-154 -139l-217 239 q-33 -45 -100.5 -129.5t-77.5 -97.5zM381 651q41 8 117.5 20.5t109.5 18.5q0 5 -1 15q-2 29 -3.5 44.5t-5 41.5t-10 40.5t-16 30t-25 22.5t-35.5 7q-24 2 -56 -27.5t-50 -77.5q-25 -77 -25 -135z" />
<glyph unicode="&#xeb;" horiz-adv-x="1032" d="M37 616q0 131 45 246q71 171 187.5 258.5t267.5 77.5q470 -27 458 -674l-579 -104q38 -96 116 -140t203 -44q20 0 232 28q-23 -207 -136 -391l-145 27q-169 28 -276 84h2q-202 99 -277 237q-98 178 -98 395zM113 1409q0 64 44 108t115 44q65 0 103.5 -35.5t38.5 -93.5 q-4 -70 -40 -119t-114 -49q-66 0 -106.5 46t-40.5 99zM385 678q41 8 117.5 20.5t109.5 18.5q0 5 -1 15q-2 29 -3.5 44.5t-5 41.5t-10 40.5t-16 30t-25 22.5t-35.5 7q-24 2 -56 -27.5t-50 -77.5q-25 -77 -25 -135zM553 1425q0 148 147 160q86 0 119 -49v-2q27 -42 27 -90 q0 -156 -139 -166q-78 0 -116 44t-38 103z" />
<glyph unicode="&#xec;" horiz-adv-x="595" d="M-160 1540q179 130 238 146q34 -41 141 -138t197 -174l90 -76l-123 -100q-457 272 -543 342zM121 971q175 45 348 16q5 -90 13 -256t12 -244q12 -270 12 -524q-117 -18 -178 -20q-62 5 -168 28q0 453 -39 1000z" />
<glyph unicode="&#xed;" horiz-adv-x="542" d="M43 1276q358 289 436 379q28 -6 88.5 -41.5t106.5 -67.5l47 -33q-36 -29 -174.5 -113t-258.5 -153l-120 -69zM70 971q175 45 348 16q5 -88 12.5 -252.5t11.5 -247.5q13 -292 13 -524q-118 -18 -179 -20q-61 5 -167 28q0 453 -39 1000z" />
<glyph unicode="&#xee;" horiz-adv-x="569" d="M-139 1311l293 334h147l305 -338l-153 -140l-217 240q-33 -44 -99 -126.5t-80 -100.5zM86 971q175 45 348 16q5 -90 13 -256t12 -244q12 -270 12 -524q-117 -18 -178 -20q-62 5 -168 28q0 453 -39 1000z" />
<glyph unicode="&#xef;" horiz-adv-x="583" d="M-145 1382q0 64 44 108t115 44q65 0 103.5 -35.5t38.5 -93.5q-4 -70 -40 -119t-114 -49q-66 0 -106.5 46t-40.5 99zM94 971q175 45 348 16q5 -90 13 -256t12 -244q12 -270 12 -524q-117 -18 -178 -20q-62 5 -168 28q0 453 -39 1000zM295 1399q0 148 147 160q85 0 119 -50 v-2q27 -42 27 -90q0 -156 -139 -166q-78 0 -116 44.5t-38 103.5z" />
<glyph unicode="&#xf0;" horiz-adv-x="1060" d="M27 596q0 204 155 356h-2q47 47 125 72t151.5 23t139.5 -17h16q-42 98 -202 225q-96 -119 -131 -172l-162 138q64 89 119 151q-89 51 -164 72l176 264q106 -47 182 -92q17 25 102 153l164 -141l-37 -41q-3 -4 -23.5 -36t-37.5 -56q179 -151 294 -343.5t134 -377.5v-2 q6 -74 6 -154q0 -250 -123 -428q-65 -93 -158.5 -140.5t-203.5 -47.5q-224 0 -379 197q-141 179 -141 397zM373 555q4 -40 28 -83.5t54 -72.5q54 -57 100 -63q30 -3 60 14t47 47q28 46 28 168q0 32 -8 60q-10 58 -76.5 106.5t-120.5 48.5q-34 0 -59 -24.5t-36 -62t-15 -72.5 t-2 -66z" />
<glyph unicode="&#xf1;" horiz-adv-x="1097" d="M43 1061q188 44 336 29q8 -164 8 -189q41 63 117.5 125t148.5 78q34 7 82 2t78 -16q63 -27 107 -69.5t66 -95t31 -105t9 -115.5q0 -31 -4.5 -71t-11 -90t-9.5 -77q-9 -55 -15.5 -170t-6.5 -213q0 -39 14 -176l-401 74q11 75 23 206.5t34 245.5q27 158 27 248 q0 91 -31 113q-27 -1 -108 -72.5t-127 -130.5q4 -127 0 -244q-3 -71 -5 -197.5t3 -185.5l-357 -31q23 451 25 584q1 54 -7.5 189.5t-16.5 244.5zM145 1280q14 54 25.5 89.5t31 75t43.5 62.5t60 38.5t82 15.5q37 0 68.5 -20.5t64.5 -55.5q32 -34 60 -39q38 -5 61 24 l14.5 15.5t21 25t17.5 27t15 37t2 41.5l153 -33l-14 -72q-5 -43 -31 -85.5t-76 -104.5q-59 -68 -155 -68q-52 0 -111 27q-16 9 -28 19.5t-17.5 17.5t-17.5 22q-37 50 -49 50q-14 -2 -26.5 -13t-20.5 -23.5t-17.5 -36t-14 -37.5t-12.5 -42z" />
<glyph unicode="&#xf2;" horiz-adv-x="1069" d="M39 555q0 90 31.5 175t89 152.5t148 108.5t198.5 41q83 0 166.5 -32t156 -92t119 -158.5t49.5 -219.5q-2 -117 -19 -201.5t-71 -158.5q-138 -180 -360 -180q-240 0 -387 188q-68 84 -94.5 174.5t-26.5 202.5zM131 1444q179 129 238 145q34 -41 141 -137.5t197 -173.5 l90 -76l-123 -100q-457 272 -543 342zM367 594q0 -59 24 -125t67.5 -113t90.5 -47q65 0 101 47t36 97q0 34 -14 102q-18 66 -75.5 123t-115.5 57q-54 0 -84 -48t-30 -93z" />
<glyph unicode="&#xf3;" horiz-adv-x="1062" d="M33 555q0 90 31.5 175t89 152.5t148 108.5t198.5 41q83 0 166.5 -32t156 -92t119 -158.5t49.5 -219.5q-2 -117 -19 -201.5t-71 -158.5q-138 -180 -360 -180q-240 0 -387 188q-68 84 -94.5 174.5t-26.5 202.5zM236 1290q358 289 436 379q28 -6 88 -41.5t106 -67.5l47 -32 q-28 -32 -163.5 -116t-259 -152.5t-130.5 -67.5zM360 594q0 -94 56 -189.5t127 -95.5q65 0 101 47t36 97q0 34 -14 102q-18 66 -75.5 123t-115.5 57q-54 0 -84.5 -48t-30.5 -93z" />
<glyph unicode="&#xf4;" horiz-adv-x="1103" d="M74 555q0 90 31.5 175t89 152.5t148 108.5t198.5 41q83 0 166.5 -32t156 -92t119 -158.5t49.5 -219.5q-2 -117 -19 -201.5t-71 -158.5q-138 -180 -360 -180q-240 0 -387 188q-68 84 -94.5 174.5t-26.5 202.5zM145 1249l293 334h148l305 -338l-154 -139l-217 240 q-34 -45 -104 -133.5t-74 -94.5zM401 594q0 -94 56 -189.5t127 -95.5q65 0 101 47t36 97q0 34 -14 102q-18 66 -75.5 123t-115.5 57q-54 0 -84.5 -48t-30.5 -93z" />
<glyph unicode="&#xf5;" horiz-adv-x="1081" d="M51 555q0 90 31.5 175t89 152.5t148 108.5t198.5 41q66 0 133 -19.5t130.5 -61t113.5 -99.5t81.5 -141.5t33.5 -180.5q-2 -117 -19 -201.5t-71 -158.5q-138 -180 -361 -180q-240 0 -387 188q-68 84 -94.5 174.5t-26.5 202.5zM123 1176q14 54 25.5 89.5t31 75t43.5 62.5 t60 38t82 15q61 0 133 -76q32 -34 59 -39q38 -5 61 25q1 1 15 16t20.5 24t17.5 26.5t15 37t2 41.5l154 -32l-15 -72q-6 -43 -31.5 -86t-74.5 -104q-59 -68 -156 -68q-51 0 -110 27q-34 21 -64 59q-36 49 -49 49q-17 -3 -31 -15.5t-25.5 -39t-17 -43.5t-16.5 -53zM379 594 q0 -59 24 -125t67.5 -113t90.5 -47q65 0 101 47t36 97q0 34 -14 102q-18 66 -75 123t-115 57q-54 0 -84.5 -48t-30.5 -93z" />
<glyph unicode="&#xf6;" horiz-adv-x="1081" d="M51 555q0 90 31.5 175t89 152.5t148 108.5t198.5 41q66 0 133 -19.5t130.5 -61t113.5 -99.5t81.5 -141.5t33.5 -180.5q-2 -117 -19 -201.5t-71 -158.5q-138 -180 -361 -180q-240 0 -387 188q-68 84 -94.5 174.5t-26.5 202.5zM119 1292q0 64 44.5 108t115.5 44 q65 0 103 -35.5t38 -93.5q-4 -70 -40 -119t-114 -49q-66 0 -106.5 46t-40.5 99zM379 594q0 -59 24 -125t67.5 -113t90.5 -47q65 0 101 47t36 97q0 34 -14 102q-18 66 -75 123t-115 57q-54 0 -84.5 -48t-30.5 -93zM559 1309q0 147 148 159q41 0 69.5 -9.5t48.5 -39.5v-2 q27 -42 27 -90q0 -156 -139 -166q-78 0 -116 44.5t-38 103.5z" />
<glyph unicode="&#xf7;" horiz-adv-x="1044" d="M39 776q115 10 433 21.5t480 27.5l31 -303h-106q-69 -8 -379 -16q-259 -8 -430 -23zM231 1063q0 83 66.5 144t171.5 61q88 0 155.5 -57.5t67.5 -137.5q0 -82 -64 -146.5t-169 -64.5q-103 0 -165.5 59.5t-62.5 141.5zM293 264q0 83 66 144t171 61q88 0 157 -58.5 t69 -136.5q0 -82 -64.5 -147.5t-169.5 -65.5q-104 0 -166.5 59.5t-62.5 143.5z" />
<glyph unicode="&#xf8;" horiz-adv-x="1056" d="M47 555q0 90 31.5 175t89 152.5t148 108.5t198.5 41q43 0 104 -14q141 372 160 452q46 12 128 1.5t118 -44.5l-61 -110q-90 -199 -166 -377q92 -65 148.5 -169.5t60.5 -240.5q-2 -116 -19.5 -201t-71.5 -159q-138 -180 -360 -180q-72 0 -147 20q-150 -369 -179 -467 q-20 6 -58.5 25.5t-66.5 35.5l-28 17q88 221 182 465q-51 39 -90 92q-68 84 -94.5 174.5t-26.5 202.5zM330 602q0 -104 53 -207q17 46 45.5 119t34.5 88l63 170q-32 8 -49 8q-49 0 -84.5 -33.5t-49 -72t-13.5 -72.5zM520 252q18 -6 41 -6q44 0 79 18t55.5 46t31 58t10.5 58 q0 41 -18 129q-15 43 -39 84q-32 -71 -49 -119q-81 -193 -111 -268z" />
<glyph unicode="&#xf9;" horiz-adv-x="1099" d="M43 440q0 73 7 173t19.5 231t16.5 178q200 0 342 -37q-27 -415 -27 -477q0 -137 54 -160q21 0 61.5 29t52.5 53q34 78 49 156q6 34 6.5 83t-2 103t-1.5 76q144 24 167 24q60 0 179 -43q-6 -81 -6 -129q0 -152 12 -266q33 -298 55 -418l-57 -26q-61 -30 -271 -39 q-2 21 -7.5 55.5t-11 63t-10.5 54.5t-5 28q-50 -54 -133.5 -86.5t-155.5 -32.5q-334 0 -334 407zM152 1405q178 129 237 145q34 -41 141 -137.5t197 -172.5l90 -77l-123 -100q-456 272 -542 342z" />
<glyph unicode="&#xfa;" horiz-adv-x="1107" d="M51 440q0 72 7 172t19.5 231.5t16.5 178.5q200 0 342 -37q-26 -399 -26 -477q0 -138 53 -160q21 0 62 29t53 53q34 78 49 156q9 16 5.5 135t-3.5 127q144 24 168 24q59 0 178 -43q-6 -81 -6 -129q0 -152 12 -266q33 -298 55 -418l-57 -26q-61 -30 -270 -39 q-2 21 -7.5 55.5t-11 63.5t-11 54.5t-5.5 27.5q-50 -54 -133.5 -86.5t-155.5 -32.5q-334 0 -334 407zM365 1198q40 32 101.5 82.5t180.5 153.5t154 143q18 -4 49 -20t63 -36t62 -39.5t48 -32.5l19 -13q-23 -18 -88.5 -59.5t-142.5 -87.5t-150.5 -89.5t-122.5 -71.5l-49 -28z " />
<glyph unicode="&#xfb;" horiz-adv-x="1101" d="M45 440q0 73 7 173t19.5 231t16.5 178q200 0 342 -37q-27 -415 -27 -477q0 -137 54 -160q21 0 61.5 29t52.5 53q36 82 50 156q9 16 5.5 135t-3.5 127q144 24 168 24q59 0 178 -43q-6 -81 -6 -129q0 -152 12 -266q33 -298 55 -418l-57 -26q-61 -30 -271 -39 q-2 21 -7.5 55.5t-11 63t-10.5 54.5t-5 28q-50 -54 -133.5 -86.5t-155.5 -32.5q-334 0 -334 407zM162 1235l293 334h147l305 -338l-153 -139l-217 239q-33 -44 -99 -126.5t-80 -100.5z" />
<glyph unicode="&#xfc;" horiz-adv-x="1107" d="M51 440q0 72 7 172t19.5 231.5t16.5 178.5q200 0 342 -37q-26 -399 -26 -477q0 -138 53 -160q21 0 62 29t53 53q34 78 49 156q9 16 5.5 135t-3.5 127q144 24 168 24q59 0 178 -43q-6 -81 -6 -129q0 -152 12 -266q33 -298 55 -418l-57 -26q-61 -30 -270 -39 q-2 21 -7.5 55.5t-11 63.5t-11 54.5t-5.5 27.5q-50 -54 -133.5 -86.5t-155.5 -32.5q-334 0 -334 407zM158 1280q0 64 44 108t115 44q65 0 103.5 -35.5t38.5 -93.5q-1 -25 -6.5 -48t-17 -45.5t-28.5 -38.5t-43 -26t-59 -10q-66 0 -106.5 46t-40.5 99zM598 1296q0 148 147 160 q27 0 46 -3t39 -14.5t34 -31.5v-2q27 -42 27 -90q0 -156 -139 -166q-24 0 -44.5 4.5t-35.5 12.5t-28 19.5t-21 24t-14 27.5t-8.5 29.5t-2.5 29.5z" />
<glyph unicode="&#xfd;" horiz-adv-x="1183" d="M0 979q35 20 78.5 29t97 5.5t88.5 -8t92 -14.5q30 -246 103 -393q45 -92 86 -147q117 270 291 636q208 -25 301 -137l-52 -100h2q-209 -448 -481 -1126q-19 -50 -41.5 -103.5t-42.5 -103.5q-14 -40 -63.5 -166.5t-73.5 -192.5q-224 15 -309 131q7 15 24.5 56t18.5 43v-2 q53 122 135 360q71 181 160 395q-172 122 -283 322q-60 108 -94.5 250.5t-36.5 265.5zM375 1186q358 289 436 379q28 -6 88.5 -41.5t106.5 -67.5l47 -33q-36 -29 -174.5 -113t-258.5 -154l-120 -69z" />
<glyph unicode="&#xfe;" horiz-adv-x="1165" d="M43 1411l344 33q-2 -12 25 -232q4 -25 9.5 -98.5t4.5 -93.5q51 45 114 83t111 38q178 0 289 -105q172 -159 172 -377q0 -142 -86 -280q-77 -128 -173 -193t-230 -59q-32 1 -62.5 12t-45 20.5t-41.5 30.5t-32 25q4 -1 2.5 -190.5t-0.5 -237.5q0 -90 -22 -356l-12 -117 q-176 -15 -344 27q26 316 32 452q3 91 -8 221q3 98 2 177t-5 256t-5 274q-8 99 -4.5 215.5t-4 259.5t-30.5 215zM430 479q111 -74 160 -71t106 84q63 92 60 186q-2 55 -29.5 108.5t-69.5 67.5q-14 5 -29 4.5t-24.5 -2.5t-27 -11t-23.5 -13t-27 -17q-66 -39 -96 -125v-211z " />
<glyph unicode="&#xff;" horiz-adv-x="1153" d="M0 979q35 20 78.5 29t97 5.5t88.5 -8t92 -14.5q30 -246 103 -393q45 -92 86 -147q117 270 291 636q208 -25 301 -137l-52 -100h2q-209 -448 -481 -1126q-19 -50 -41.5 -103.5t-42.5 -103.5q-14 -40 -63.5 -166.5t-73.5 -192.5q-224 15 -309 131q7 15 24.5 56t18.5 43v-2 q53 122 135 360q71 181 160 395q-172 122 -283 322q-60 108 -94.5 250.5t-36.5 265.5zM199 1335q0 64 44 108t115 44q65 0 103.5 -35.5t38.5 -93.5q-4 -70 -40 -119t-114 -49q-66 0 -106.5 46t-40.5 99zM639 1352q0 147 147 159q86 0 119 -49v-2q27 -42 27 -90 q0 -156 -139 -166q-78 0 -116 44.5t-38 103.5z" />
<glyph unicode="&#x152;" horiz-adv-x="2117" d="M37 668q0 587 536 790h-2q93 37 211 37q155 0 297 -74q34 0 106 2t85 2q73 0 745 41q7 -19 12.5 -37.5t8 -31.5t3.5 -28.5t1.5 -23t0 -21t-0.5 -17.5q0 -37 -17 -131q-73 -6 -131 -10t-86 -5t-34 -2q-332 -22 -379 -24q0 -166 2 -246q11 1 266.5 29.5t320.5 42.5 q40 -145 21 -291q-201 -37 -602 -82l6 -230q44 12 133 28.5t162.5 28.5t189 29.5l148.5 22.5q18 -64 21.5 -166t-3.5 -141q-46 -10 -226.5 -35t-355 -60t-288.5 -81q-94 -70 -235 -128.5t-246 -58.5q-209 0 -373 119q-80 61 -140 153.5t-93 196t-48.5 204.5t-15.5 198z M406 664q0 -174 36 -301t131 -203q72 -58 162 -58q99 0 191 109q104 124 149 410q8 86 8 118q0 211 -86 332q-78 117 -176 117q-39 0 -86 -19l2 2q-158 -61 -244.5 -191t-86.5 -316z" />
<glyph unicode="&#x153;" horiz-adv-x="1540" d="M31 528q0 180 143 320h-2q117 117 328 117q104 0 213 -74q124 217 354 203q430 -27 418 -662l-527 -100q35 -94 105.5 -137t185.5 -43q5 0 211 26q-24 -202 -125 -381l-133 25q-147 30 -248 82l2 -2q-138 75 -213 176q-105 -82 -237 -82q-210 0 -348 178 q-127 165 -127 354zM369 561q0 -4 4 -86q9 -78 57 -123q20 -21 33.5 -32.5t30.5 -20t35 -5.5t38 17q16 7 37 41q25 52 25 148q0 27 -8 55v-2q-19 60 -64 94q-57 45 -106 45q-33 0 -57.5 -44.5t-24.5 -86.5zM930 604q53 11 207 37q-6 86 -17 121q-24 56 -71 59q-36 0 -82 -98 q-26 -64 -37 -119z" />
<glyph unicode="&#x178;" horiz-adv-x="1075" d="M47 1149q0 80 14 209q76 8 188.5 -2.5t164.5 -36.5l-15 -115q-8 -40 -8 -94q0 -106 21.5 -240.5t58.5 -167.5q31 -33 57.5 -40t80.5 -7h14h12q-1 1 1 2q3 1 11 2v58q0 108 -9.5 314t-21.5 362q207 65 355 18l14 -192q19 -207 19 -533q0 -79 -1.5 -138t-6 -130 t-12.5 -125.5t-22 -114t-33.5 -106.5t-48.5 -92t-65 -80q-70 -67 -171 -106.5t-204 -39.5q-153 0 -305 90l-72 56l168 262l91 -70q50 -31 127 -31q38 0 67 10.5t49 33.5t33.5 48t22.5 66t14 75.5t10 86.5q-12 -2 -19.5 -5t-15 -4t-26.5 -1q-9 0 -54 -0.5t-58.5 0t-51.5 3 t-57.5 9t-50.5 17t-56.5 27.5t-50.5 40q-62 59 -99.5 188.5t-48 247.5t-10.5 246zM178 1681q0 64 44 108t116 44q65 0 103 -35.5t38 -93.5q-2 -32 -10 -60t-25 -53.5t-47.5 -40t-70.5 -14.5q-66 0 -107 46t-41 99zM618 1698q0 148 148 160q41 0 70 -10t49 -40v-2 q26 -40 26 -90q0 -156 -139 -166q-40 0 -71 13.5t-48.5 35.5t-26 47t-8.5 52z" />
<glyph unicode="&#x2c6;" horiz-adv-x="954" d="M90 1278l293 334h147l306 -338l-154 -139l-217 239q-33 -45 -100.5 -129.5t-77.5 -97.5z" />
<glyph unicode="&#x2dc;" horiz-adv-x="1034" d="M178 1151q14 54 25.5 89.5t31 75t43.5 62.5t60 38.5t82 15.5q61 0 133 -76q32 -34 59 -39q39 -5 62 24q2 2 12.5 13t16 18t15 21.5t15 27t8.5 30.5t2 36l154 -33l-14 -72q-5 -43 -31 -85.5t-76 -104.5q-59 -68 -155 -68q-52 0 -111 27q-34 21 -64 59q-37 50 -49 50 q-17 -3 -31 -15.5t-25.5 -39.5t-17 -43.5t-16.5 -53.5z" />
<glyph unicode="&#x2000;" horiz-adv-x="1091" />
<glyph unicode="&#x2001;" horiz-adv-x="2183" />
<glyph unicode="&#x2002;" horiz-adv-x="1091" />
<glyph unicode="&#x2003;" horiz-adv-x="2183" />
<glyph unicode="&#x2004;" horiz-adv-x="727" />
<glyph unicode="&#x2005;" horiz-adv-x="545" />
<glyph unicode="&#x2006;" horiz-adv-x="363" />
<glyph unicode="&#x2007;" horiz-adv-x="363" />
<glyph unicode="&#x2008;" horiz-adv-x="272" />
<glyph unicode="&#x2009;" horiz-adv-x="436" />
<glyph unicode="&#x200a;" horiz-adv-x="121" />
<glyph unicode="&#x2010;" horiz-adv-x="888" d="M8 705q94 9 408.5 24t421.5 27l22 -221l-96 -84q-79 -9 -315 -17q-259 -9 -416 -22z" />
<glyph unicode="&#x2011;" horiz-adv-x="888" d="M8 705q94 9 408.5 24t421.5 27l22 -221l-96 -84q-79 -9 -315 -17q-259 -9 -416 -22z" />
<glyph unicode="&#x2012;" horiz-adv-x="888" d="M8 705q94 9 408.5 24t421.5 27l22 -221l-96 -84q-79 -9 -315 -17q-259 -9 -416 -22z" />
<glyph unicode="&#x2013;" horiz-adv-x="1333" d="M51 469l2 293h279q166 0 934 20l10 -290l-113 -5q-645 -18 -829 -18h-283z" />
<glyph unicode="&#x2014;" horiz-adv-x="1800" d="M57 459q-6 45 -5.5 111t4.5 126l3 60h493.5t339.5 2t222 3t268 5.5t351 7.5v-301l-107 2q-105 -2 -274.5 -6t-220.5 -4.5t-164 -2.5t-221 -2t-268 -0.5t-421 -0.5z" />
<glyph unicode="&#x2018;" horiz-adv-x="516" d="M43 1116q4 116 124.5 286.5t256.5 254.5l137 -172q-47 -23 -133.5 -132.5t-89.5 -146.5v-4q60 -16 91 -79t26 -136q-3 -77 -59.5 -126.5t-145.5 -45.5q-223 7 -207 301z" />
<glyph unicode="&#x2019;" horiz-adv-x="512" d="M14 1032q43 29 115.5 149.5t69.5 157.5v4q-61 7 -100 66t-42 131q-6 77 44 134.5t139 64.5q102 10 166 -52t75 -219q9 -117 -89 -302t-222 -285z" />
<glyph unicode="&#x201a;" horiz-adv-x="512" d="M14 35q43 29 115.5 149.5t69.5 157.5v4q-61 7 -100 66t-42 131q-6 77 44 134t139 64q103 10 166.5 -51.5t74.5 -218.5q9 -117 -89 -303t-222 -285z" />
<glyph unicode="&#x201c;" horiz-adv-x="1099" d="M43 1116q4 116 124.5 286.5t256.5 254.5l137 -172q-47 -23 -133.5 -132.5t-89.5 -146.5v-4q60 -16 91 -79t26 -136q-3 -77 -59.5 -126.5t-145.5 -45.5q-223 7 -207 301zM543 1169q4 116 124.5 286.5t256.5 254.5l137 -172q-47 -23 -133.5 -132t-89.5 -146v-5 q40 -11 68 -46t39.5 -79t8.5 -90q-2 -77 -58.5 -126.5t-145.5 -45.5q-223 7 -207 301z" />
<glyph unicode="&#x201d;" horiz-adv-x="980" d="M35 1257q-18 75 22.5 140t126.5 88q216 58 283 -228q26 -114 -43 -313t-176 -319l-178 125q39 36 91 165t46 166v4q-62 -1 -109 50t-63 122zM489 1417q-18 75 24.5 140t129.5 88q215 60 277 -228q28 -114 -41 -313t-177 -318l-176 123q38 36 91 166.5t45 167.5v4 q-62 -3 -109.5 48t-63.5 122z" />
<glyph unicode="&#x201e;" horiz-adv-x="1044" d="M29 420q0 77 62.5 135.5t162.5 58.5q158 0 213 -237q6 -27 6 -66q0 -125 -66.5 -294.5t-158.5 -272.5l-178 125q37 34 87 155t50 169v12q-72 0 -125 67.5t-53 147.5zM541 528q0 70 75.5 132.5t151.5 62.5q78 0 129.5 -55t79.5 -183q8 -27 8 -67q0 -125 -66.5 -293 t-158.5 -270l-178 122q37 34 87 155.5t50 170.5v12q-73 0 -125.5 66.5t-52.5 146.5z" />
<glyph unicode="&#x2022;" horiz-adv-x="661" d="M86 618q0 35 15.5 82.5t43.5 94.5t75 79.5t102 32.5q51 0 111 -32t91 -76q19 -26 28 -59.5t10 -50.5t1 -54q-6 -122 -64 -200.5t-161 -78.5q-68 0 -156 33q-96 93 -96 229z" />
<glyph unicode="&#x2026;" horiz-adv-x="1605" d="M55 231q0 73 53.5 124t137.5 51q73 0 127.5 -34.5t66.5 -92.5q12 -69 -53 -147.5t-145 -78.5q-87 0 -137 52t-50 126zM608 154q0 71 53.5 121.5t137.5 50.5q73 0 126.5 -33.5t65.5 -91.5q9 -43 -17 -95.5t-76 -90.5t-103 -38q-88 0 -137.5 51.5t-49.5 125.5zM1163 217 q0 72 52.5 122t136.5 50q72 0 126.5 -33t67.5 -92v-2q10 -42 -15.5 -94t-76 -89.5t-104.5 -37.5q-87 0 -137 51t-50 125z" />
<glyph unicode="&#x202f;" horiz-adv-x="436" />
<glyph unicode="&#x2039;" horiz-adv-x="995" d="M90 586l594 493l172 -233l-369 -322q65 -48 207 -147.5t199 -140.5l-164 -236l-629 428z" />
<glyph unicode="&#x203a;" horiz-adv-x="927" d="M63 799l156 225l582 -418l22 -160l-559 -462l-166 225l355 309q-51 36 -189.5 136.5t-200.5 144.5z" />
<glyph unicode="&#x205f;" horiz-adv-x="545" />
<glyph unicode="&#x20ac;" horiz-adv-x="1632" d="M4 342l51 197q142 13 209 14q-4 25 0 63.5t10 64.5l5 26l-220 4l84 219q12 -2 30.5 -4.5t67 -6.5t64.5 3q55 159 193 291.5t336 209.5q87 35 219 45q149 8 281.5 -41t275.5 -167l-226 -228q-151 145 -272 135q-65 -4 -131 -26q-83 -31 -151.5 -86t-100.5 -117 q88 4 204.5 16t189.5 22l73 9l-55 -246q-300 -16 -488 -22q-2 -9 -5 -23.5t-7.5 -57t0.5 -69.5q345 11 524 31q-48 -141 -63 -203q-40 -4 -198.5 -10.5t-211.5 -9.5q14 -39 51.5 -80.5t73.5 -63.5q74 -44 225 -34q119 9 301 200l254 -229q-98 -115 -254 -193.5t-301 -89.5 q-108 -6 -232.5 19.5t-211.5 70.5q-112 60 -194 163t-113 222q-195 -10 -287 -18z" />
<glyph unicode="&#x2122;" horiz-adv-x="1810" d="M57 1448l811 20l2 -135l195 -16q6 -14 30 -74.5t46.5 -104t58.5 -96.5q79 189 135 371l244 80q47 -146 104 -430t78 -451l-307 -37q-2 17 -10 139t-29 208q-30 -61 -123 -355l-104 -24q-11 15 -78 133t-74 129q-14 -92 -32 -342l-312 33q8 115 36 318.5t60 365.5l-217 -2 q2 -67 6.5 -199t7.5 -239t5 -189l-311 -4l-19 618l-199 -4z" />
<glyph unicode="&#xe000;" horiz-adv-x="1177" d="M0 0v1178h1178v-1178h-1178z" />
<glyph unicode="&#xfb01;" horiz-adv-x="1216" d="M27 688q0 3 -2 19.5t-1.5 40t5.5 55.5l143 16q-3 50 -12 157.5t-15 193t-6 139.5q0 87 24.5 161t65.5 125.5t94 88t110 54t114 17.5q103 0 174 -22q45 -15 77 -28.5t81 -38.5t85.5 -58.5t55.5 -73.5q23 -38 45.5 -124t28.5 -159q0 -70 -68 -135l4 2q-57 -57 -156 -57 q-94 0 -155 55q-70 64 -70 135q0 68 64 129q-3 10 -10 21.5t-9 15.5q-33 64 -147 64q-37 0 -54.5 -68.5t-17.5 -144.5q0 -127 21 -400q10 2 33.5 7.5t75.5 17.5t126 27q191 36 332 55l12 -109q6 -30 6 -53q2 -14 8 -61t12.5 -100.5t10.5 -108.5q26 -276 37 -531l-74 -6 q-39 -16 -104 -16q-24 0 -164 12q-6 222 -47 639l-94 -16q-13 -3 -31 -8.5t-43.5 -11.5t-69.5 -15q10 -203 43 -520l8 -115q-150 -65 -331 -29q-7 76 -19.5 194.5t-21 213.5t-15.5 207h-8q-2 0 -66 -9.5t-67 -9.5q-18 53 -18 166z" />
<glyph unicode="&#xfb02;" horiz-adv-x="1310" d="M20 596q-7 65 5 137l151 19q-2 28 -18.5 161.5t-16.5 208.5q0 84 31.5 159t82 127.5t113.5 91t127 57t121 18.5q27 0 75 -10t69 -25q-4 36 10 117q8 14 145 11t193 -15q-3 -72 -3 -148t1.5 -146.5t1.5 -90.5q0 -155 5 -305.5t18 -390t16 -306.5q1 -38 9.5 -71t28 -63 t31 -45t39 -42.5t29.5 -30.5l-215 -204q-54 13 -102.5 61.5t-79 109t-48.5 118.5t-20 98q0 279 -10 385l-115 -23q-18 -5 -155 -33q12 -196 20 -299q14 -211 37 -352l20 -113q-152 -70 -342 -49l-20 115q-26 151 -41 305q-5 36 -20 330l-1 9v-4q-1 -7 -1 0q-1 3 -1 9h-8 q-3 0 -56 -7t-56 -7q-29 37 -37 60.5t-13 72.5zM492 1044q0 -25 3 -62t7 -68t8.5 -65.5t5.5 -49.5q15 4 61 10.5t66 11.5l141 27q-15 169 -22 264q-3 84 -12 160q-56 26 -121 26q-64 1 -100.5 -67t-36.5 -187z" />
</font>
</defs>
</svg>
