<?xml version="1.0" standalone="no"?>
<!DOCTYPE svg PUBLIC "-//W3C//DTD SVG 1.1//EN" "http://www.w3.org/Graphics/SVG/1.1/DTD/svg11.dtd" >
<svg xmlns="http://www.w3.org/2000/svg">
<metadata></metadata>
<defs>
<font id="ChaloopsRegular" horiz-adv-x="833" >
<font-face units-per-em="2048" ascent="1638" descent="-410" />
<missing-glyph horiz-adv-x="530" />
<glyph horiz-adv-x="0" />
<glyph horiz-adv-x="0" />
<glyph horiz-adv-x="2048" />
<glyph unicode=" "  horiz-adv-x="530" />
<glyph unicode="&#x09;" horiz-adv-x="530" />
<glyph unicode="&#xa0;" horiz-adv-x="530" />
<glyph unicode="!" horiz-adv-x="548" d="M66 100q0 53 34.5 90t89.5 37q45 0 79 -33.5t34 -82.5q0 -51 -33.5 -92.5t-87.5 -41.5q-53 0 -84.5 35.5t-31.5 87.5zM141 381q1 11 2.5 30.5t6 76t8.5 108.5t8.5 117.5t7.5 115.5t5 89.5t1 50.5q-1 24 7 171t16 282l8 134l197 -34q-33 -387 -43 -463q-21 -130 -46 -332 l-43 -354z" />
<glyph unicode="&#x22;" horiz-adv-x="620" d="M61 1567l152 2q-4 -19 7 -230.5t16 -265.5h-142q-9 28 -23.5 251t-9.5 243zM336 1567l156 8q8 -241 8 -315q0 -29 3.5 -78.5t6.5 -83.5l4 -35l-141 -23q-21 146 -21 222q0 31 -4 107.5t-8 136.5z" />
<glyph unicode="#" horiz-adv-x="1200" d="M88 557q115 11 240 23l-6 254l-197 -31l-23 135q101 15 220 29l-3 256l146 2q-2 -107 -2 -240q27 3 67 8t69 8t50 5l60 4l6 280l151 17q-4 -133 -10 -285l195 16l20 -127q-102 -8 -219 -18l-10 -262l194 10l-18 -131q-86 -6 -182 -12l-2 -373l-138 -39q0 25 -0.5 65 t-1.5 153.5t0 178.5q-12 -1 -223 -26l21 -439l-138 -2q-12 240 -20 426l-244 -28zM461 854q0 -120 4 -260q54 5 118.5 14.5t112.5 12.5q3 35 11 260l-58 -7q-16 -1 -39.5 -3t-44 -4.5t-51.5 -6.5t-53 -6z" />
<glyph unicode="$" horiz-adv-x="892" d="M70 866q6 130 90 250.5t207 177.5l-62 607q8 2 29 6.5l28 6t23.5 4.5t25.5 3.5t22.5 0.5t25.5 -1q21 -319 39 -594q16 2 49 2q94 -6 169 -75.5t101 -163.5l-119 -52q-85 146 -157 150h-33q1 -19 4.5 -68t5.5 -71l23 -322q126 -29 197.5 -127t64.5 -233 q-5 -103 -64.5 -194t-152.5 -122l41 -598l-117 -6q-18 274 -41 592q-134 14 -354 160l63 104q178 -99 281 -121l-29 406q-24 2 -69 4t-50 2q-119 6 -183 79.5t-58 192.5zM201 872q-3 -55 16 -87.5t50.5 -40t71.5 -10t79 2.5q-11 179 -23 277l-14 149q-82 -32 -128 -107 t-52 -184zM551 571l27 -376q50 22 80.5 67t33.5 100q8 165 -141 209z" />
<glyph unicode="%" horiz-adv-x="1386" d="M92 782q-31 72 -20.5 158.5t49.5 136.5q54 69 141.5 93t169.5 -7q70 -26 100 -89.5t20.5 -131.5t-50 -131t-101.5 -92q-26 -12 -65.5 -19t-87 -7t-91 22.5t-65.5 66.5zM170 49q286 425 401 615q51 84 167.5 250t207.5 290l90 123l113 -84q-342 -465 -457 -653 q-52 -86 -153.5 -241t-176.5 -267l-75 -113zM217 842q28 -11 63 -7.5t60 13.5q26 13 50.5 60.5t17.5 97.5q0 18 -23 26q-38 15 -81.5 3.5t-67.5 -44.5q-16 -22 -23.5 -71t4.5 -78zM829 492q0 28 15 66.5t42 79t73 71t100 36.5q49 5 89 -9.5t64 -38.5t42 -55t25 -52t9 -37 q4 -43 -17 -121t-63 -102q-33 -21 -103 -30t-128 11q-27 11 -58 34t-60.5 64t-29.5 83zM971 494q8 -14 27.5 -30t35.5 -24q20 -9 94 9q6 15 13 45t6 41q-3 27 -23.5 50.5t-48.5 20.5q-39 -5 -70.5 -46.5t-33.5 -65.5z" />
<glyph unicode="&#x26;" horiz-adv-x="1228" d="M66 371q0 62 19.5 127.5t49.5 119.5q32 54 79.5 92.5t129.5 80.5q2 0 4 2q-79 100 -96 131q-24 38 -40.5 107.5t-16.5 119.5q0 58 20 168q7 31 37.5 63t72 56.5t91.5 40.5t94 16q134 0 192 -74q64 -84 64 -256q0 -130 -41 -204q-60 -107 -190 -193q145 -191 321 -371 q12 24 24 49t21.5 46t18 40.5t14 34.5t10 26t6.5 17l2 6l170 -53q-7 -16 -19 -42.5t-51.5 -98t-82.5 -133.5q114 -108 205 -178l-132 -115q-38 32 -170 172q-187 -203 -387 -203q-223 0 -303 72q-58 53 -87 146t-29 188zM207 356q0 -40 9 -78t30 -73.5t51.5 -62t78 -42.5 t105.5 -16q158 0 297 190q-209 241 -354 424q-60 -37 -98 -66t-60 -61q-17 -24 -30.5 -62.5t-21 -79t-7.5 -73.5zM340 1176q0 -39 18 -104.5t31 -90.5q32 -53 78 -119q156 111 156 273q0 20 -1 52t-1 42q0 35 -25.5 64.5t-56.5 43.5t-58 15q-31 -6 -57.5 -23.5t-44.5 -42 t-28.5 -53.5t-10.5 -57zM1122 563z" />
<glyph unicode="'" horiz-adv-x="344" d="M90 1413l166 -4q-8 -221 -10 -287l-8 -315l-134 -8q-6 46 -8.5 168.5t-3.5 266.5t-2 179z" />
<glyph unicode="(" horiz-adv-x="569" d="M74 791q0 105 14 206.5t35 183.5t58 181.5t68.5 171.5t82.5 184q4 8 6 13t5.5 12.5t6.5 13.5l129 -57q-13 -29 -70.5 -137.5t-76.5 -173.5q-4 -12 -22.5 -76t-24.5 -84.5t-21 -76.5t-20.5 -86.5t-14 -77t-11.5 -86.5t-3 -79q0 -237 85 -463.5t239 -416.5l-111 -90 q-354 440 -354 938z" />
<glyph unicode=")" horiz-adv-x="612" d="M66 -102q150 193 230.5 421t76.5 465q-1 46 -8 98.5t-13.5 89t-24 101.5t-24 88t-30 99t-27.5 88q-21 65 -82.5 175.5t-71.5 131.5l129 59q132 -280 172 -382q114 -289 121 -563v-15q4 -254 -84.5 -492.5t-253.5 -449.5z" />
<glyph unicode="*" horiz-adv-x="1095" d="M70 952q201 15 342 33q-202 199 -328 305l100 101q143 -156 254 -275l-53 481l139 17q34 -274 54 -467l219 401l121 -73q-201 -289 -295 -449l356 78l25 -139q-212 -24 -351 -47q75 -58 168 -122t133 -87l-71 -123q-123 73 -289 225q-2 -51 14.5 -130.5t16.5 -82.5 q4 -31 25 -112t39.5 -146t19.5 -68l-138 -39q-80 287 -86 349q-19 125 -16 184q-28 -52 -63.5 -124t-56.5 -118l-21 -45l-119 76q125 174 217 317l-340 -59z" />
<glyph unicode="+" horiz-adv-x="933" d="M86 584v141q191 0 295 4l8 369l141 -2q-6 -236 -8 -367q57 -2 133 -6.5t123 -8.5l47 -3l-10 -142q-170 15 -295 19l-12 -361l-141 6q8 214 12 355z" />
<glyph unicode="," horiz-adv-x="514" d="M92 197q0 48 28 82t77 34q48 0 81 -17.5t49.5 -50.5t23.5 -70.5t7 -86.5q0 -137 -45 -223.5t-159 -145.5l-58 88q50 24 101 87.5t51 115.5q0 46 -15 86l-30 -2q-51 -3 -81 26t-30 77z" />
<glyph unicode="-" d="M66 662q69 7 322.5 14.5t328.5 15.5l14 -141q-73 -7 -325.5 -15.5t-327.5 -15.5z" />
<glyph unicode="." horiz-adv-x="468" d="M74 174q0 53 37.5 91t97.5 38q50 0 87.5 -34.5t37.5 -84.5q0 -55 -36.5 -97t-96.5 -42q-59 0 -93 37t-34 92z" />
<glyph unicode="/" horiz-adv-x="997" d="M-8 -102q389 788 483 1017l336 826q47 -12 73.5 -34t55.5 -73q-240 -543 -334 -772q-42 -103 -163.5 -360t-222.5 -462l-101 -206z" />
<glyph unicode="0" horiz-adv-x="1218" d="M139 268q-46 115 -47.5 290.5t47 346t137.5 252.5q67 62 127 82.5t181 20.5q124 0 229 -101q93 -89 191 -278t98 -303q0 -104 -31 -198t-87 -164.5t-134.5 -117t-172.5 -57t-202 15.5q-139 37 -225.5 93t-110.5 118zM233 686q-12 -99 5 -210.5t38 -139.5q14 -21 23.5 -31 t34 -28.5t68 -34.5t108.5 -33q220 -60 334 67q51 56 84 143t33 159q0 84 -88.5 247t-159.5 232q-67 61 -129 61q-97 0 -132 -12t-79 -53q-37 -33 -81.5 -144t-58.5 -223z" />
<glyph unicode="1" horiz-adv-x="843" d="M88 997q107 99 150 150q145 180 186 225q34 12 100 -4q6 -258 -2 -397q-23 -423 -8 -807l209 8l4 -141l-567 -23l-4 142l217 8q-14 262 -11 395q2 82 11.5 268t9.5 295q-59 -56 -209 -223z" />
<glyph unicode="2" horiz-adv-x="1064" d="M59 1092q27 36 62 79q83 106 151 146q50 28 110.5 35.5t154.5 1.5q118 -8 205.5 -103.5t80.5 -216.5q-8 -172 -116 -366q-76 -145 -228 -330q-48 -61 -162 -193q158 39 215 58q14 5 79 28.5t106 35.5t82 18q118 22 200 2l-34 -174q-16 4 -41 6q-49 4 -123 -5.5t-171 -32 t-165 -40.5t-175.5 -48.5t-133.5 -37.5l-95 113q234 265 289 331q160 186 232 316q90 165 100 327q3 50 -44.5 93t-115.5 61q-59 14 -116 8t-89 -28q-20 -14 -56 -55.5t-58.5 -71.5t-28.5 -39z" />
<glyph unicode="3" horiz-adv-x="1110" d="M23 33l108 92q139 -152 250 -166q50 -4 107 -6.5t120.5 9.5t118.5 32.5t100 62t66 97.5q23 61 29 115.5t0.5 90t-23.5 70t-31.5 50.5t-33.5 36q-24 16 -98 23.5t-137.5 6.5t-100.5 -1l-41 80q133 172 168 223q76 106 86 139q-174 10 -525 10v142q97 4 359.5 -4t343.5 -17 l51 -102q-190 -186 -278 -330q209 -5 274 -70q27 -29 46 -53t44.5 -74t35 -100.5t2.5 -126.5t-38 -158q-45 -120 -157.5 -195t-244 -93t-269 12.5t-232.5 108.5q-56 47 -100 96z" />
<glyph unicode="4" horiz-adv-x="854" d="M47 721q54 184 72 250q9 31 27.5 113.5t37.5 152t37 109.5l35 98q78 -3 131 -21q-25 -108 -37 -137q-15 -32 -33 -99.5t-37 -148t-26 -106.5q-2 -9 -12 -54.5t-21 -81.5t-26 -57l76 -9.5t81.5 -9.5t77.5 -6t94 -3q9 136 6 230t2.5 225t26.5 255q84 -9 139 -22 q-26 -164 -32 -275q-10 -337 -11 -407l99 14v-160q-5 0 -14 0.5t-37 1.5t-50 0q-3 -152 -20 -647l-141 4q1 40 5 172t8.5 255.5t8.5 209.5q-53 1 -102 5.5t-116 13.5t-116 14q-5 0 -41.5 3t-40.5 3q-3 6 -22.5 47t-28.5 68z" />
<glyph unicode="5" horiz-adv-x="974" d="M4 -131l100 113q23 -19 50 -35q83 -56 202.5 -64t200.5 47q49 37 100 131.5t68 208.5q20 123 -1.5 215.5t-57.5 130.5q-30 32 -102 50.5t-157 22.5t-158 2.5t-126 -7.5q-15 185 -27 248q-28 165 -14 270q110 0 137 4q50 8 139 18t163 21.5t141 28.5l38 -148 q-141 -35 -229 -45q-27 -3 -116.5 -13t-137.5 -13q-1 -25 -1 -46t0.5 -34.5t3.5 -34t5 -31.5t8.5 -41t10.5 -49q139 15 261.5 5.5t196.5 -52.5q89 -53 131.5 -178t22.5 -307q-16 -155 -69.5 -284.5t-137.5 -192.5q-139 -97 -327.5 -76t-317.5 135z" />
<glyph unicode="6" horiz-adv-x="813" d="M55 537q0 183 96.5 421.5t225.5 362.5l90 -127q-111 -108 -197 -299t-86 -340q0 -101 39 -170q17 56 43 108t63 100.5t89 77.5t110 29q95 0 147 -60.5t52 -156.5q0 -86 -37.5 -171t-109.5 -144t-160 -59q-81 0 -151.5 38t-116 99.5t-71.5 137.5t-26 153zM328 313 q0 -2 6 -32q56 -31 100 -31q49 0 91 44.5t62.5 101t20.5 104.5q0 75 -55 75q-75 0 -150 -92.5t-75 -169.5z" />
<glyph unicode="7" horiz-adv-x="999" d="M74 1237l24 149l148 -2l555 -47l26 -100q-41 -78 -82 -213q-21 -68 -39.5 -138t-39.5 -153t-33 -129l-12 -55q47 -2 210 -8l-4 -142l-245 11q-36 -134 -85 -311.5t-81 -288.5l-31 -111l-154 20q132 403 218 697l-146 6l6 141l178 -8l13 45q29 114 92.5 333.5t77.5 270.5 l-135 17z" />
<glyph unicode="8" horiz-adv-x="1046" d="M49 373q0 18 -2 50.5t-2.5 51.5t5 46.5t18.5 51.5t33 49t49.5 53.5t49 46.5t57 49.5t48.5 41.5q-32 5 -63 16t-56 25.5t-44 29t-33 29.5q-47 49 -68 104.5t-16.5 112.5t21.5 109t48 109q42 81 116 134t157.5 56.5t158.5 -68.5q66 -24 107.5 -59t60.5 -79t23.5 -99.5 t-2.5 -120.5q-10 -112 -97 -188q145 -34 181 -58q69 -44 103 -85t48 -95q5 -20 7 -61.5t-3.5 -106.5t-21 -129t-54 -128.5t-94.5 -104.5q-62 -43 -139 -76.5t-157.5 -51.5t-156 -8t-124.5 52q-77 65 -117.5 148t-40.5 153zM180 469q6 -87 6 -92q0 -37 28.5 -95t82.5 -104 q27 -22 95.5 -24t161.5 24.5t169 79.5q42 30 68 88.5t32.5 118t6 105.5t-6.5 65q-4 21 -36 59t-87 74q-28 18 -54 28.5t-46.5 15t-44.5 0.5t-40 -8.5t-41.5 -18.5t-40 -23.5t-43.5 -29.5q-2 -2 -3.5 -2.5t-3 -2t-3 -2.5t-3.5 -2q-81 -55 -139.5 -127t-57.5 -127zM203 979 q7 -9 24 -17.5t39.5 -16t51 -13.5t57.5 -8q40 -4 88 32.5t84 81.5q43 50 24 224q-1 20 -30 40.5t-60 34.5q-22 9 -55 33q-25 27 -56.5 27.5t-60.5 -18.5t-52.5 -45.5t-37.5 -53.5q-20 -36 -33 -71t-21.5 -77t1 -82.5t37.5 -70.5z" />
<glyph unicode="9" horiz-adv-x="890" d="M53 682q-40 70 -21 191.5t83 197.5q47 57 109 95.5t129.5 52.5t132.5 5t125 -50t102 -111q96 -161 79.5 -376t-106 -431t-223 -401.5t-270.5 -286.5l-84 115q90 66 185.5 186t174.5 261.5t130.5 302.5t53.5 296q-56 -73 -135 -123t-158 -57q-33 -3 -72.5 2t-84.5 18 t-86 42.5t-64 70.5zM246 1006q-87 -93 -77 -191q8 -80 74 -115q89 -47 216 21q49 25 98 67q21 18 39.5 60t24.5 84q-16 39 -29 57q-37 63 -102.5 84t-131.5 1.5t-112 -68.5z" />
<glyph unicode=":" horiz-adv-x="514" d="M96 238q0 61 43.5 97t106.5 36q51 0 89 -37.5t38 -89.5q0 -73 -70 -129l-27 -2q-59 -5 -119.5 31.5t-60.5 93.5zM135 866q0 46 29.5 79.5t75.5 33.5q39 0 67.5 -30.5t28.5 -74.5q0 -46 -28 -82t-75 -36q-45 0 -71.5 32t-26.5 78z" />
<glyph unicode=";" horiz-adv-x="514" d="M72 215q0 55 27 92t81 37q108 0 158.5 -70.5t50.5 -181.5q0 -149 -51.5 -246t-181.5 -163l-74 75q56 26 119 108t63 140q0 49 -18 98l-35 -4q-139 -7 -139 115zM135 889q0 46 29.5 79t75.5 33q39 0 67.5 -29.5t28.5 -72.5q0 -47 -28 -84t-75 -37q-45 0 -71.5 33t-26.5 78 z" />
<glyph unicode="&#x3c;" horiz-adv-x="890" d="M61 510q103 96 154 145q95 94 268 280t203 218l102 -98q-266 -278 -329 -350q-33 -37 -146 -150l-34 -35q314 -240 499 -323l-41 -160q-80 36 -181 102t-161 110.5t-184.5 143t-149.5 117.5z" />
<glyph unicode="=" horiz-adv-x="937" d="M66 451q75 7 370 14t367 14q0 -11 14 -141q-76 -7 -372 -14t-365 -13zM100 717l2 145q141 -6 711 17l2 -144q-596 -23 -715 -18z" />
<glyph unicode="&#x3e;" horiz-adv-x="890" d="M49 1049l92 106q39 -33 228 -197t293 -247l167 -129q-35 -33 -138.5 -134t-164 -157.5t-152.5 -131t-167 -118.5l-57 154q177 104 462 376l-37 29q-82 63 -161 133q-31 29 -122.5 108t-167.5 143z" />
<glyph unicode="?" horiz-adv-x="827" d="M59 1477q91 57 169.5 85.5t170.5 28.5q155 0 256 -113t101 -272q0 -38 -13.5 -76.5t-28 -64t-50 -63.5t-52 -53.5t-61.5 -55.5q-92 -87 -122 -126q-36 -47 -52 -93q-23 -70 -6 -148l-138 -14q-27 102 5 199q6 20 16 40.5t19 36t25.5 36.5t26 32.5t31 34t29.5 30t33 32 t31 30.5q72 72 109.5 130t37.5 126q0 97 -51.5 154t-145.5 57q-37 0 -74.5 -12.5t-58.5 -25.5t-62 -42t-57 -39zM281 86q0 38 50.5 81.5t88.5 43.5q42 0 68 -23.5t26 -64.5q0 -54 -32 -98.5t-83 -44.5q-41 0 -79.5 33t-38.5 73z" />
<glyph unicode="@" horiz-adv-x="1396" d="M78 268q0 92 12.5 191.5t40 205.5t67 204t99 185.5t130.5 152.5t166 103t202 38q113 0 210.5 -56t160 -145t97.5 -197.5t35 -216.5q0 -56 -13.5 -119t-41.5 -125.5t-66.5 -112.5t-94 -81t-117.5 -31q-57 0 -100 33t-66 88q-35 -62 -105.5 -101.5t-142.5 -39.5 q-98 0 -154.5 78t-56.5 182q0 65 25 133.5t67.5 125.5t104.5 93.5t129 36.5q81 0 156.5 -29t127.5 -86q-78 -108 -78 -276q0 -43 25.5 -67.5t69.5 -24.5q47 0 87 39t63 96t35.5 113t12.5 98q0 77 -22.5 157t-64 149.5t-110 114t-151.5 44.5q-120 0 -220.5 -53.5t-169 -143.5 t-116 -210.5t-68.5 -253.5t-20 -273q1 -53 18 -115.5t47 -120.5t79 -96.5t106 -38.5q117 0 268.5 53.5t223.5 132.5l118 -131q-61 -67 -172.5 -112t-219 -61.5t-212.5 -16.5q-81 0 -157.5 47.5t-128.5 120t-83.5 158t-31.5 161.5zM477 524q0 -51 27.5 -89t77.5 -38 q112 0 178 305l1.5 6t1 5.5t1.5 5.5q-4 2 -21.5 8.5t-25.5 9.5t-22 7.5t-26 6t-24 1.5q-40 0 -80.5 -42t-64 -95t-23.5 -91z" />
<glyph unicode="A" horiz-adv-x="991" d="M-49 451q-15 80 4 141q140 -4 195 -4q83 424 219 954l170 60q271 -938 417 -1569q-47 -33 -137 -33l-117 461q-242 -15 -434 -15q-36 -191 -67 -446q-89 -3 -142 18l9 70q2 15 20 135t35 223q-7 0 -172 5zM297 588q145 2 371 14q-138 525 -201 750q-109 -457 -170 -764z " />
<glyph unicode="B" horiz-adv-x="952" d="M61 1241l140 64q119 55 217 55q105 0 168 -62t63 -165q0 -157 -137 -328q149 -27 247.5 -122.5t98.5 -242.5q0 -179 -156 -323q-176 -156 -452 -168q-16 237 -64 692q-9 91 -15.5 145t-35.5 189.5t-74 265.5zM246 1171q35 -151 78 -360q184 178 184 301q0 98 -105 98 q-69 0 -157 -39zM344 676l2 -4q22 -191 41 -568q59 12 116 41.5t104 72.5t75.5 101.5t28.5 122.5q0 80 -38 128t-118 77q-86 35 -211 29z" />
<glyph unicode="C" horiz-adv-x="1073" d="M55 754q0 75 13 153.5t39 158t69.5 149t99 124t132 86t165.5 31.5q177 0 289 -112.5t121 -286.5l8 -107q-52 -20 -155 -16q3 19 3 45t-1.5 56t-1.5 40q0 104 -75 168t-188 64q-73 0 -134.5 -35t-102 -91t-69.5 -126.5t-41.5 -139.5t-12.5 -133q0 -186 18.5 -327 t73.5 -242q39 -74 106 -114t150 -40q155 0 217 76q36 49 55 122.5t19 150.5l141 -41q-2 -23 -14 -52.5t-14 -56.5q-5 -69 -47 -158q-83 -188 -365 -188q-92 0 -175.5 37t-137.5 100q-185 217 -185 705z" />
<glyph unicode="D" horiz-adv-x="950" d="M33 1352q144 6 198 6q345 0 523 -152q68 -59 108.5 -162.5t40.5 -244.5q0 -226 -102 -428q-135 -261 -600 -344l-29 1173q-51 0 -133 -4q-21 75 -6 156zM309 1204l27 -979q216 11 350 248q38 69 61 165t23 191q0 92 -28 159.5t-70 101.5q-122 99 -363 114z" />
<glyph unicode="E" horiz-adv-x="899" d="M0 590q47 0 127 8l-10 594q41 -2 131 -2q67 0 518 29q18 -59 6 -142l-70 -6q-314 -19 -440 -24l6 -433q335 41 471 66q39 -57 27 -137l-70 -13q-162 -31 -424 -59l9 -348q218 77 524 127q28 -55 22 -139q-351 -59 -684 -193l-12 541q-8 0 -35.5 -3t-58 -7t-35.5 -5z" />
<glyph unicode="F" horiz-adv-x="970" d="M78 -80q16 498 61 1407q133 14 262 14q41 0 490 -18q13 -91 -6 -141l-70 2q-369 13 -545 10q-15 -256 -22 -483q261 -25 360 -27l70 -2q17 -57 -4 -141l-72 2q-204 7 -362 26l-21 -655q-77 -12 -141 6z" />
<glyph unicode="G" horiz-adv-x="1071" d="M61 461q0 132 5.5 228.5t30 221.5t69.5 222q37 81 85 140.5t99.5 93t102 49.5t102.5 16q129 0 214 -62t97 -176l6 -70q-76 -21 -141 -12l-4 72q-8 102 -174 102q-202 0 -291 -256q-12 -35 -22 -70.5t-16.5 -60.5t-11 -65t-6.5 -55t-3.5 -62.5t-1.5 -55v-64v-60.5 q0 -147 9 -195q19 -98 103 -175q18 -16 39 -32q84 -65 142.5 -74t144.5 23q-6 140 10 528q-96 0 -137 -2l-47 -2l-8 131q143 13 198 13q127 0 293 20q9 -24 11 -48t0 -51t-1 -38h-90l-77 -6q-13 -446 -5 -631q-33 -20 -96 -45q-82 -31 -158 -31q-229 0 -401 236 q-70 98 -70 303z" />
<glyph unicode="H" horiz-adv-x="966" d="M27 444v140h139l-14 895q73 16 141 4l14 -899l336 2l10 1063q62 15 142 0l-11 -1063l205 2v-137l-207 -5l-4 -593q-61 -16 -141 2v69l4 522l-332 -2l10 -450q-65 -14 -141 -4l-10 454h-141z" />
<glyph unicode="I" horiz-adv-x="774" d="M49 1288l70 6l241 27q6 1 28.5 1.5t64 2t84.5 4.5l69 6q20 -83 8 -141l-71 -6l-148 -6q9 -85 20.5 -244t27.5 -395t26 -379h180q15 -80 0 -141h-69l-467 6q-20 66 -2 141h69l127 -6q-9 263 -18 430q-20 422 -35 573q-7 0 -191 -20q-36 85 -14 141z" />
<glyph unicode="J" horiz-adv-x="897" d="M-215 -137l98 104l51 -47q3 -5 31 -24q53 -37 141 -37q150 0 285 106q121 92 121 311q0 119 -37 289q-16 84 -35.5 171t-38.5 177.5t-39 194.5l-282 -21q-15 56 -12 142q142 12 405 35t324 28q25 -66 10 -141l-303 -31q26 -167 141 -698q14 -66 14 -135q0 -231 -153 -404 q-152 -168 -381 -168q-51 0 -107 9q-102 20 -180 92z" />
<glyph unicode="K" horiz-adv-x="1009" d="M84 -113l6 70l10 723q0 76 13 299q8 175 8 487q78 17 141 4l6 -604q253 155 525 402l51 47q62 -44 92 -109l-53 -45q-29 -24 -95 -79t-132.5 -110t-131.5 -108q-23 -19 -188 -121l-53 -32l260 -281q167 -167 284 -260l78 -61q-16 -23 -57 -50q-62 -41 -62 -43l-53 47 q-196 179 -350 330q-8 8 -47.5 51t-73.5 78q-2 -29 -7 -154t-11 -241t-13 -184l-6 -70q-77 -19 -141 14z" />
<glyph unicode="L" horiz-adv-x="933" d="M51 -166l8 74q54 438 68 682l31 684q71 17 145 -4q-7 -133 -17.5 -382.5t-13.5 -305.5q-9 -177 -59 -615l668 -35q12 -74 -9 -145q-64 4 -135.5 7t-159 6t-135.5 5q-29 1 -85 3l-84 3t-67 3.5t-67.5 5.5t-52.5 8z" />
<glyph unicode="M" horiz-adv-x="1492" d="M57 70l2 71l109 1387l489 -645l387 622l150 -51l10 -72q2 -17 58 -360q30 -190 64 -488.5t48 -463.5l6 -70q-50 -12 -101 -12t-85 12v70q32 222 -70 917q-2 16 -11.5 63.5t-19.5 109t-18 126.5l-387 -727l-395 571l-47 -1067q-125 -14 -189 7z" />
<glyph unicode="N" horiz-adv-x="1052" d="M59 1358l99 67q309 -653 370 -761q47 -90 220 -357q-25 633 -7 1245q60 18 142 -4q-6 -255 -6 -506q0 -652 45 -1253q-310 463 -519 805q-29 46 -157 313q68 -666 123 -1071q-71 -24 -142 -18l-10 69q-52 381 -158 1471z" />
<glyph unicode="O" horiz-adv-x="1419" d="M72 696q0 564 491 748q77 31 180 31q244 0 420 -197q185 -203 185 -512q0 -50 -11 -129q-53 -384 -258 -586q-177 -180 -415 -180q-185 0 -326 106q-74 54 -128.5 140.5t-83 186.5t-41.5 196.5t-13 195.5zM233 692q0 -195 48.5 -343.5t173.5 -246.5q97 -77 239 -77 q164 0 287 141q135 160 182 469q11 86 11 135q0 240 -111 393q-111 156 -279 156q-64 0 -129 -23q-201 -76 -311.5 -231t-110.5 -373z" />
<glyph unicode="P" horiz-adv-x="1087" d="M92 1466q82 22 273 56q51 8 147 8q371 0 485 -211q39 -74 39 -174q0 -183 -123 -365q-123 -185 -297 -262q-106 -47 -258 -47q-30 0 -88 4l54 -721q-146 -34 -191 -22l-4 69q8 36 8 181q0 131 -45 1484zM238 1356l26 -738q46 -6 92 -6q202 -3 320 97q114 91 172 290 q16 52 16 115q0 95 -56.5 159t-142.5 91t-198 29q-68 0 -229 -37z" />
<glyph unicode="Q" horiz-adv-x="1396" d="M61 641q0 224 91 410q104 212 284 278q159 58 213 66l72 8l2 -27q154 -15 311 -157q152 -143 193 -308q33 -145 33 -254q0 -402 -304 -540q109 -183 283 -381q-42 -53 -106 -94l-48 55q-57 65 -102 127q-89 114 -164 250q-100 -23 -162 -23q-126 0 -270 72 q-277 135 -317 381q-9 67 -9 137zM203 635q0 -41 8 -111q25 -143 168 -239q136 -90 295 -90q26 0 80 8q-56 122 -90 239q-14 59 -109 95l-66 26q3 78 50 131l67 -24q1 0 4 -1.5l9 -4.5t12 -5q138 -68 168 -178q33 -118 92 -239q124 53 172.5 149.5t48.5 286.5q0 105 -22 201 q-27 125 -158 241q-129 117 -232 117q-47 0 -77 -33l-35 -63l-105 53q-139 -50 -215 -225q-65 -154 -65 -334z" />
<glyph unicode="R" horiz-adv-x="1064" d="M14 1417q43 15 110.5 26.5t96.5 18.5q4 70 4 101l142 -4l-2 -70q114 17 178 12q160 -12 237.5 -109t69.5 -268q-12 -200 -129 -338q-111 -134 -307 -176q57 -133 129.5 -245.5t162 -206t180.5 -168t208 -154.5l-64 -133q-85 34 -268.5 196.5t-255.5 268.5 q-59 82 -209 364q-30 -430 -51 -638l-142 14q20 173 70 897l21 248l18 264q-59 -18 -186 -66zM311 743q158 0 265 99.5t118 251.5q6 100 -30.5 167t-108.5 89q-67 19 -199 -2q-1 -32 -18 -275l-23 -278z" />
<glyph unicode="S" horiz-adv-x="954" d="M37 215l4 74q88 27 137 12l-4 -72q-4 -71 9 -136.5t46 -86.5q56 -36 98.5 -52t85 -15t83 25.5t86.5 72.5q67 67 101 141t34 182q0 33 -13.5 84t-25.5 66q-34 43 -86.5 61.5t-163.5 34.5q-106 14 -174.5 40.5t-116.5 88.5q-41 51 -55 139q-4 34 -4 164q0 284 90 385 q102 118 289 105q203 -15 266 -94q64 -77 70 -181v-143l-134 4v127q-6 72 -57 105q-53 38 -153 38q-107 0 -175 -77q-63 -68 -63 -250q0 -78 25 -158q36 -120 208 -145q280 -36 367 -144q66 -82 66 -250q0 -162 -62.5 -290t-167.5 -205q-107 -78 -229 -78q-128 0 -252 86 q-38 26 -86 129.5t-43 212.5z" />
<glyph unicode="T" horiz-adv-x="1349" d="M0 1370l96 2q44 1 214 16t292 15h203h221h139l31 2h10l101 4l-11 -154l-100 -6l-430 4h-39q-18 -232 -29 -481q-4 -118 47 -635l9 -71q-21 -15 -176 -15l-11 72l15 651q1 46 -1 205t-1 276q-275 -22 -476 -28l-96 -2q-6 24 -6 67q0 14 -1 40.5t-1 37.5z" />
<glyph unicode="U" horiz-adv-x="903" d="M37 1245q79 19 164 10l6 -71q3 -42 6 -293t6 -293q15 -254 33 -295q18 -40 82 -67q60 -26 90 -21q35 3 99 33t77 51q68 115 68 219q0 27 -4.5 160.5l-10.5 311.5t-8 255l-2 72q73 16 141 4l2 -70q9 -276 9 -700q0 -162 -78 -297q-32 -57 -119 -111q-91 -60 -154 -69 q-74 -14 -184 41q-107 54 -145 137q-8 18 -16.5 85.5t-17 189t-15 218.5t-16 264t-13.5 236z" />
<glyph unicode="V" horiz-adv-x="1122" d="M6 1309q49 38 135 41q20 -64 41.5 -135.5t42 -141t40 -134.5t42.5 -141t41 -136q6 -19 24.5 -72.5t54 -155t69.5 -203.5l221 539q92 291 117 360q9 27 94 238q82 -6 131 -49q-1 -2 -35 -85.5t-59 -154.5q-14 -40 -50.5 -160.5t-64.5 -199.5q-8 -21 -48.5 -119.5 t-133.5 -322t-185 -449.5l-268 788q-174 573 -209 693z" />
<glyph unicode="W" horiz-adv-x="1226" d="M27 1423q89 57 198 66l8 -72q8 -271 17 -463q25 -185 45 -426q8 -80 47 -276l231 629l234 -506q28 -63 57 -133q26 136 78 557q45 363 86 553q87 12 135 -27q-43 -223 -104 -668q-44 -316 -101 -673l-104 -60l-174 391q-54 113 -92 197l-221 -610l-99 14l-59 291 q-79 382 -90 581q-10 130 -35 283q-42 239 -47 281z" />
<glyph unicode="X" horiz-adv-x="940" d="M2 1163q36 43 70 72q33 23 94 51l51 -104q12 -25 50 -107t83 -176t94 -192l152 417l70 256q82 -9 159 -57l-22 -66q-24 -65 -116 -309t-155 -416q24 -55 96 -222t122 -281l26 -66q-40 -49 -131 -55l-27 63q-41 104 -157 371l-295 -719q-87 9 -146 74l31 65 q146 316 330 760l-12 25q-92 188 -330 557z" />
<glyph unicode="Y" horiz-adv-x="1142" d="M27 1331q63 121 125 146l49 -50q101 -154 248.5 -338.5t232.5 -257.5q36 95 283 592q93 -25 127 -61l-33 -64q-14 -26 -28 -54.5t-30.5 -63.5t-29.5 -62.5t-33 -73t-32 -72.5t-36.5 -82.5t-36 -82t-39.5 -92t-40 -92.5q-175 -413 -353 -811l-30 -66l-127 61l30 64 q108 224 351 809l2 2z" />
<glyph unicode="Z" horiz-adv-x="1044" d="M57 -2q42 74 324 590q140 274 235 422q113 181 150 260l-555 16l-102 -20q-31 96 8 207l856 -78q-54 -127 -113 -250q-44 -69 -184 -318.5t-172 -304.5q-19 -33 -48.5 -89t-75.5 -142.5t-85 -159.5l8 6q300 87 606 78l72 -4q24 -81 -2 -141l-72 4q-172 6 -284 -8 q-167 -17 -506 -136z" />
<glyph unicode="[" horiz-adv-x="712" d="M94 1782q43 2 201.5 17.5t243.5 10.5l-9 -176q-114 6 -288 2q35 -745 41 -995q3 -88 4.5 -295.5t5.5 -314.5l313 16l6 -164q-110 8 -234 7t-222 -7q-3 88 -7.5 221.5t-11.5 385.5t-6 313q1 30 -3 113.5t-11 219.5t-11 218q-4 103 -7 210t-4 162z" />
<glyph unicode="\" horiz-adv-x="997" d="M-8 1737q29 51 55.5 72.5t73.5 33.5q242 -594 336 -825q42 -102 162.5 -356.5t220.5 -457.5l100 -204l-127 -63q-393 797 -487 1028q-42 102 -125.5 295t-146.5 335z" />
<glyph unicode="]" horiz-adv-x="712" d="M98 -143l4 157l316 -14q3 107 2.5 321t1.5 320q3 104 9.5 355t12.5 457.5t13 356.5q-155 3 -289 0l-8 177q84 3 240 -12t206 -17q4 -373 -6 -604q-4 -89 -11 -219.5t-11.5 -216.5t-4.5 -115q1 -61 -4 -305.5t-11 -459.5l-5 -214q-20 1 -202.5 20.5t-252.5 12.5z" />
<glyph unicode="^" horiz-adv-x="989" d="M102 979l398 580l411 -566l-112 -84l-295 406l-285 -416z" />
<glyph unicode="_" horiz-adv-x="1110" d="M-39 -276q47 -2 119.5 -5t215 -7.5t187.5 -2.5l611 15l2 -146q-505 -12 -607 -16q-46 -1 -178 3t-241 9l-109 4v146z" />
<glyph unicode="`" horiz-adv-x="829" d="M133 1577l107 154l446 -471l-80 -80z" />
<glyph unicode="a" horiz-adv-x="944" d="M63 287q0 100 39.5 187t98.5 138q84 72 200 72q130 0 246 -88l-2 170q-3 132 -6 152q-10 77 -40.5 109t-96.5 32q-108 0 -180 -33q-68 -36 -97 -65q-23 18 -39 79q-14 65 -14 95q115 84 285 84q75 0 145 -25q126 -42 166 -180q25 -74 25 -248q0 -29 -3.5 -188t-3.5 -191 q0 -367 84 -436q-135 -87 -213 -82l-2 264q-124 -156 -266 -156q-140 0 -233 87t-93 223zM215 328q0 -112 48 -167t130 -55q73 0 146 78t98 156l20 68l-57 59q-38 40 -89.5 67t-102.5 27q-53 0 -98.5 -38t-70 -91.5t-24.5 -103.5z" />
<glyph unicode="b" horiz-adv-x="1089" d="M66 1501q-7 156 4 275q86 26 153 14l-4 -72q-11 -165 0 -489q1 -63 21 -393q100 71 215 71q176 0 393 -178q153 -125 153 -346q0 -207 -129 -371q-134 -174 -340 -174q-132 0 -274 80q0 -16 4 -78t4 -71q-108 -27 -184 -9q38 84 41 220q0 22 1 160.5t1 254.5 q0 45 -19 357q-20 263 -28 473zM252 655q14 -233 14 -260q0 -50 -6 -311q157 -97 242 -94q142 6 235 125q82 107 82 250q0 163 -106 247q-51 42 -133 88.5t-125 40.5q-116 -9 -203 -86z" />
<glyph unicode="c" horiz-adv-x="862" d="M51 487q0 31 4 105q18 167 133 276t263 109q150 0 260 -96l30 -27l-71 -127l-52 45q-91 79 -143 70q-142 -32 -202 -129t-60 -271q0 -158 63 -196q27 -18 125 -15q96 0 140 21q128 61 235 141l39 -155q-58 -43 -215 -115q-70 -33 -217 -33q-128 0 -180 35 q-152 96 -152 362z" />
<glyph unicode="d" horiz-adv-x="1017" d="M43 360q0 171 92 316q127 198 352 198q110 0 236 -63v188q0 44 -20.5 242.5t-20.5 245.5q0 108 20 192q112 15 168 -24l-16 -68q-16 -63 -16 -168q0 -39 13 -212.5t13 -205.5q0 -356 6 -598q0 -28 17 -350q9 -193 45 -286q-68 -35 -189 -35q0 124 -6 352 q-168 -109 -360 -100q-168 6 -256 120q-78 97 -78 256zM190 328q0 -197 193 -203q169 -6 338 123l14 -17l-6 164q-2 28 -6 254l-2 4q-145 85 -203 76q-133 -12 -229 -137q-99 -126 -99 -264z" />
<glyph unicode="e" horiz-adv-x="946" d="M47 629q0 126 45 241q126 332 373 314q390 -24 381 -592l-639 -119q80 -342 475 -342q49 0 121 10q-11 -105 -84 -229l-70 12q-145 26 -260 86q-168 83 -244 226q-98 186 -98 393zM188 612l478 88q-3 159 -31 226q-47 110 -180 116q-124 9 -203 -153q-67 -137 -64 -277z " />
<glyph unicode="f" horiz-adv-x="806" d="M41 709l33 2l123 14q-3 74 -21 296t-18 312q0 412 231 412q53 0 117 -21q99 -33 166 -165q26 -52 82 -228q-54 -42 -133 -45l-23 68q-25 82 -49 135q-45 88 -86 102q-47 15 -74 15q-50 0 -65 -68q-25 -92 -25 -250q0 -165 35 -545q61 10 239 54l68 16q40 -61 31 -139 q-47 -12 -101.5 -24t-121 -26t-103.5 -22q19 -328 25 -403q14 -224 41 -404l12 -71q-64 -31 -139 -23l-11 70q-20 119 -43 342q-2 10 -26 471q-8 -1 -148 -17q-34 46 -16 142z" />
<glyph unicode="g" horiz-adv-x="1054" d="M43 793q0 89 104 258q78 124 163.5 168.5t215.5 44.5q68 0 127 -15l2 6q42 240 271 271q19 3 38.5 4t29.5 0h10q10 -31 10 -100q0 -39 -13 -93q-4 2 -12.5 5.5t-12 5t-11 4t-12.5 3.5t-13.5 2.5t-17.5 2t-21 0.5q-50 0 -92 -37t-49 -98q85 -56 141.5 -156.5t56.5 -198.5 q0 -203 -115 -323.5t-308 -120.5q-47 0 -99 6q-121 -76 -125 -80q-59 -44 -59 -84q0 -52 123 -137q24 6 59 6q10 0 44 2t64.5 1.5t55.5 -5.5q135 -28 224 -136t89 -282q0 -123 -22.5 -200.5t-91.5 -139.5q-46 -43 -126.5 -71.5t-156.5 -28.5q-47 0 -102.5 18t-113 57.5 t-104.5 94t-76.5 136t-29.5 175.5q0 219 148 314q-132 126 -132 229q0 63 37 99t138 73q-98 61 -167 153.5t-69 166.5zM207 797q0 -46 55 -119q29 -38 43.5 -53.5t44 -31.5t70.5 -20t112 -4q261 0 283 285q5 42 -9 88.5t-44 87t-82 66.5t-115 26q-43 0 -95.5 -10t-86.5 -27 q-49 -25 -112.5 -120t-63.5 -168zM229 -240q0 -148 70 -227q10 -10 39.5 -33.5t81 -52.5t84.5 -29q90 0 196 60q56 30 56 125q0 108 -31 221q-16 64 -91.5 120t-170.5 56q-105 0 -169.5 -58.5t-64.5 -181.5z" />
<glyph unicode="h" horiz-adv-x="970" d="M-14 1714q75 23 168 8l6 -67q9 -80 102 -858q171 238 305 247q48 2 105 -49t96 -143q42 -101 69.5 -314t18.5 -520q-4 -41 6 -86q-3 2 -7.5 4t-20.5 6t-31 -1q-13 -5 -98 -2l4 77q3 160 -19 390q-24 265 -76 362q-47 84 -100 84q-63 3 -131 -96q-50 -70 -82 -158l-14 -45 q6 -65 27.5 -251t33.5 -308l8 -72q-73 -22 -139 -16l-8 71q-7 76 -36.5 334t-45.5 432q-8 105 -46 378.5t-95 592.5z" />
<glyph unicode="i" horiz-adv-x="526" d="M61 1290q0 52 39.5 89.5t92.5 37.5q54 0 92.5 -37.5t38.5 -89.5t-38.5 -89.5t-92.5 -37.5q-53 0 -92.5 37.5t-39.5 89.5zM156 907q78 23 139 15l8 -72q44 -288 72 -860q-55 -16 -142 -4q-17 370 -77 921z" />
<glyph unicode="j" horiz-adv-x="552" d="M-176 -539q0 42 2 62l10 67q83 21 141 -16l-10 -72q-2 -6 -2 -41q-3 -102 66 -174q71 -71 153 -71q123 0 144 153q4 23 4 92q0 108 -1.5 157.5t-15 183.5t-43.5 337q-46 297 -133 832q79 33 140 20q27 -161 74 -462t59 -375q61 -374 61 -719q0 -105 -26 -175.5 t-82 -119.5q-73 -64 -181 -64q-136 0 -245 103q-115 112 -115 282zM31 1430q0 53 38.5 89.5t92.5 36.5q53 0 91 -37t38 -89q0 -51 -38.5 -88t-90.5 -37q-54 0 -92.5 36.5t-38.5 88.5z" />
<glyph unicode="k" horiz-adv-x="1021" d="M16 1827q68 27 162 12l-8 -86l76 -876q6 -79 20.5 -206t16.5 -149l145 148q84 84 184 209l174 217q26 -64 78 -123q62 -69 64 -74l-158 -104q-99 -68 -117 -84q-28 -29 -90 -105q47 -103 96 -219q168 -413 177 -434q100 -234 211 -336l43 -43l-207 -92l-25 65 q-7 17 -30 71.5t-37.5 90t-37 94.5t-40.5 115q-83 262 -260 588q-4 -4 -154 -141q41 -439 49 -682l2 -72q-118 -17 -162 -14l19 77q-17 363 -95 1137t-96 1016z" />
<glyph unicode="l" horiz-adv-x="497" d="M76 1755q53 23 188 14l10 -71q-18 -220 -6 -420q2 -28 25 -289.5t31 -415.5q2 -49 1 -146t1 -146q6 -223 30 -287l-163 -14q-3 144 -7 253v5q0 5 0.5 14t0.5 21.5t0.5 29.5t0.5 37.5t-0.5 46t-1 53t-1.5 62t-3 69.5q-5 93 -26 342.5t-29 356.5q-10 154 -41 416z" />
<glyph unicode="m" horiz-adv-x="1564" d="M76 967q78 44 147 63q41 -116 45 -233q206 293 410 215q136 -50 180 -181q58 87 124.5 137.5t131.5 53.5q144 9 242 -115q11 -14 19.5 -30.5t15 -38t11.5 -37t8 -45t5 -44t3.5 -51t2 -49t1.5 -55t1 -53.5q1 -41 5 -110.5t7 -121t1 -115.5t-11 -114l-145 4q13 69 16 203.5 t-8.5 274t-36.5 198.5q-28 68 -52.5 98.5t-61.5 36.5q-61 13 -109 -10t-75.5 -64.5t-46.5 -103t-26 -113t-10 -106.5q-3 -82 1.5 -207.5t15.5 -202.5l-176 12q0 1 10.5 82.5t11.5 135.5q0 47 -2.5 101t-1.5 81q1 17 4.5 55.5t4.5 64.5t1 64t-6.5 66t-18 57t-34 49.5 t-53.5 32.5q-24 11 -51.5 7t-52.5 -13.5t-52 -29t-51 -40.5t-49 -47.5t-45 -49.5l-40 -46q-11 -13 -16 -19v-127q-1 -30 -5 -91t-5 -111q-2 -42 -2 -94t1 -83l1 -32l-143 -13q-2 136 4 283q1 14 8.5 75.5t7.5 76.5q1 32 -3 85t-11 125t-10 113q-3 45 -12 81.5t-17 50.5z" />
<glyph unicode="n" horiz-adv-x="962" d="M86 1006q73 16 150 8q4 -105 6 -226q204 301 409 222q39 -15 70 -36.5t52.5 -44t36.5 -54t23.5 -57.5t11.5 -65t3 -65.5t-4 -69.5t-7.5 -67t-9.5 -67q-3 -18 -4 -27q-11 -83 -19.5 -246.5t-2.5 -243.5l-174 33q4 24 8.5 105t9.5 126q6 56 22 147.5t17 98.5q2 13 7 47.5 t8 54.5t5.5 55t0.5 57.5t-8 52t-17.5 49t-31.5 38t-48 29.5q-41 16 -88 0t-94.5 -59t-80.5 -79t-75 -88q-11 -14 -16 -20v-129l-13 -278l3 -213l-144 -12q19 375 21 514q2 62 -5 189.5t-14 224.5z" />
<glyph unicode="o" horiz-adv-x="948" d="M59 588q0 175 131 297q128 122 306 110q123 -12 241 -116q117 -99 144 -199q16 -55 16 -125q0 -184 -104 -324q-119 -155 -289 -155q-188 0 -320 166q-125 152 -125 346zM229 625q0 -12 7 -105q11 -95 89 -178t173 -96q70 -10 131 26q55 27 80 72q47 73 47 213 q0 38 -11 84q-25 83 -116 145q-92 68 -191 68t-155 -80q-54 -82 -54 -149z" />
<glyph unicode="p" horiz-adv-x="989" d="M59 1116q94 55 162 55q26 0 53 -6q-7 -37 -16 -164q146 134 303 134q123 0 205 -88q139 -151 139 -361q0 -146 -69 -272q-121 -226 -330 -226q-118 0 -260 95l-2 -93q15 -169 18 -411q0 -89 -26 -420q-74 -6 -142 12q21 260 27 412q3 97 -8 235q-3 46 -5.5 88t-4 61.5 t-1.5 22.5q0 83 2 220v342q0 225 -45 364zM246 455l33 -27q138 -108 227 -102q72 2 133.5 63.5t94 148t32.5 169.5q0 69 -21 112q-44 90 -88 133.5t-86 40.5q-100 -6 -188 -67q-90 -60 -121 -152l-16 -47v-272z" />
<glyph unicode="q" horiz-adv-x="1126" d="M102 690q22 89 56 149t83.5 95t110.5 50t144 15q94 0 196.5 -51t157.5 -114l18 151l11 70q80 6 141 -19l-10 -71q-47 -348 -47 -529q0 -39 -0.5 -139t-0.5 -201t1 -202q2 -85 10 -152.5t25.5 -129.5t49.5 -104.5t78 -62.5q33 -16 76 -16q113 0 256 174q61 -21 109 -90 l-45 -54q-7 -14 -35 -39q-179 -170 -332 -170q-122 0 -225 121q-71 89 -93.5 167t-17.5 222q6 103 2 129q0 27 10.5 143.5t10.5 141.5q0 38 -6 76q-77 -103 -152 -144q-80 -45 -205 -45q-60 0 -106.5 10.5t-87 36t-66 47.5t-69.5 66q-43 41 -64.5 90t-23 110t8 121.5 t31.5 147.5zM188 459q0 -63 27 -113t71 -80t96 -45.5t107 -15.5q90 0 127 26q67 46 111 109q43 54 59.5 96t16.5 109q0 60 -10.5 103.5t-34 75.5t-53.5 53.5t-76 43.5q-89 42 -158 33q-38 -5 -66.5 -13t-51 -22t-38 -28.5t-31 -41t-26.5 -50t-27 -64.5q-43 -101 -43 -176z " />
<glyph unicode="r" d="M45 43l14 70q0 153 7 235q10 88 10 496q0 171 -13 301l183 53l-10 -72q0 -6 -3.5 -34.5t-7 -70t-6.5 -87.5q171 189 299 192q115 3 189 -77q83 -87 81 -177l-2 -198q-84 -2 -139 4v172q0 65 -28.5 100t-69.5 35q-95 0 -254 -178q-9 -9 -36 -39t-40 -43q-10 -168 8 -625 l2 -73z" />
<glyph unicode="s" horiz-adv-x="847" d="M61 324l154 -5q-14 -51 -18.5 -90t2 -76t28 -60.5t63.5 -37.5t105 -14q104 0 175 74.5t71 177.5q0 66 -31.5 115t-82 78t-112 53t-122.5 49.5t-112 58t-83 87t-32 128.5q-1 70 17 123.5t47.5 86t72.5 52.5t87 27.5t97 7.5q29 0 47 -0.5t43 -3.5t41.5 -8.5t36.5 -15 t32.5 -24t26 -35.5t21.5 -48.5t13.5 -64.5t6.5 -82l-145 -13q-9 59 -43 108.5t-82 49.5q-36 0 -64 -6t-57 -22t-43.5 -50.5t-11.5 -85.5q2 -34 22.5 -60.5t54 -45t76 -35t89 -35t93 -40t88.5 -54t74 -73.5t51 -102.5t19 -136.5q0 -162 -114 -267t-279 -105q-87 0 -148 21 t-95.5 55t-53 91t-23 113.5t-2.5 139.5z" />
<glyph unicode="t" horiz-adv-x="823" d="M41 711v141q79 0 178 12q0 177 4 232q5 146 29 477q86 9 141 -12l-4 -70q0 -3 -9 -144t-15 -260q-5 -61 -5 -208q201 19 324 28l70 4q13 -27 15.5 -75t-5.5 -88q-40 -5 -172 -5.5t-227 -7.5q0 -6 0.5 -64.5t1 -164.5t0.5 -227q0 -218 92 -218q88 0 129 160q56 6 98 -39 q-76 -313 -262 -313q-109 0 -156 77t-45 236q0 130 2 271v272q-6 -1 -77 -6t-107 -8z" />
<glyph unicode="u" horiz-adv-x="903" d="M76 459q0 61 7 153.5t18 208.5t14 162q90 0 137 -12q-25 -348 -25 -443q0 -48 2 -80.5t9.5 -66.5t21 -54t37.5 -33t57 -13q64 0 129 45q67 48 90 102q11 33 37.5 169t28.5 179q80 16 137 -4q-6 -177 12 -330q19 -175 58 -381q-44 -23 -135 -26q-5 28 -18.5 105.5 t-21 124.5t-12.5 91q-25 -47 -59 -88t-77 -75.5t-97.5 -55t-112.5 -20.5q-237 0 -237 342z" />
<glyph unicode="v" horiz-adv-x="1060" d="M20 897q76 62 179 74q50 -135 163 -402q77 -180 199 -364q9 20 66.5 150.5t114 250t110.5 217.5l59 111l133 -68l-59 -112q-22 -43 -81 -170.5t-150.5 -322.5t-169.5 -359q-68 108 -181 270q-35 48 -98 168q-33 62 -100 199q-32 64 -94.5 183.5t-90.5 174.5z" />
<glyph unicode="w" horiz-adv-x="1449" d="M-25 1010q68 46 84 55q42 19 95 33l202 -856q74 126 144 299l129 307q110 -182 268 -455q49 -86 98 -147q122 253 242 749l16 70q86 12 138 -31l-15 -69q-40 -192 -129 -484q-38 -130 -235 -547q-34 68 -115 209q-59 73 -131 193l-117 203q-146 -341 -350 -654l-135 568 q-75 312 -189 557z" />
<glyph unicode="x" horiz-adv-x="919" d="M33 799q31 39 51 59q19 19 55 35l47 -51q56 -64 217 -236q58 73 338 441q78 -47 115 -86l-41 -56q-23 -30 -128 -165.5t-183 -239.5q37 -39 123 -137t131 -148l47 -53q-31 -73 -109 -94l-45 55q-49 58 -229 258q-80 -146 -215 -369q-53 14 -121 76q65 114 233 399 q-62 64 -286 312z" />
<glyph unicode="y" horiz-adv-x="1097" d="M37 1001q75 44 164 29q24 -214 119.5 -401t232.5 -281q184 434 342 758q83 -9 127 -59l-31 -64q-243 -507 -561 -1294q-6 -14 -248 -635q-90 6 -129 57q12 28 26.5 59t30 68.5t42.5 114.5q118 319 149 391l197 475q-204 123 -334 356q-124 217 -127 426z" />
<glyph unicode="z" horiz-adv-x="1040" d="M63 807l64 29q86 39 180 67t238 61.5t188 45.5l168 45q-26 -36 -41 -77t-37 -71q-39 -57 -116 -162t-134.5 -186t-80.5 -123q-71 -136 -115 -252q249 97 426 97q49 0 76 -2l69 -7q26 -69 -8 -163l-72 4q-41 3 -88 0q-112 -3 -290 -58.5t-379 -144.5q15 75 73 258 q23 72 93 186t172.5 262.5t136.5 202.5q-50 -10 -108.5 -26.5t-87.5 -25.5t-109 -35.5t-95 -31.5l-63 -22z" />
<glyph unicode="{" horiz-adv-x="681" d="M63 854q248 176 232 334q-14 23 -36.5 46t-45.5 40t-47 37.5t-43.5 40t-33 45.5t-17.5 54.5t5.5 67.5t33.5 85q68 129 131 220t153 183l101 -100q-19 -19 -68.5 -79t-106.5 -135.5t-96.5 -145t-31.5 -95.5q19 -22 51.5 -45.5t62.5 -43.5t59 -43t48.5 -53.5t23.5 -66.5 q9 -85 -28 -170t-101 -149q35 -4 60 -18t39 -30.5t20 -45.5t7 -50t-5 -57.5t-10.5 -56t-14 -57t-12.5 -48.5q-5 -24 -21 -94t-23 -101t-18.5 -92t-17 -101.5t-10 -94t-4.5 -101.5q1 -32 2.5 -51t8.5 -43.5t19 -38t34.5 -23.5t54.5 -11q39 -2 123 75l92 -114 q-93 -79 -190 -94.5t-183 34.5q-97 56 -102 266q0 133 29 277t63 285t41 243q-68 7 -174 -12z" />
<glyph unicode="|" horiz-adv-x="520" d="M147 1030q4 110 6.5 320.5t3.5 365.5l1 156q47 33 79 42t80 3q-20 -641 -28 -891q-4 -111 3 -392.5t16 -507.5l9 -226l-141 -6q-4 99 -10 253t-14.5 463t-4.5 420z" />
<glyph unicode="}" horiz-adv-x="681" d="M102 -289l111 90q23 -30 46.5 -37.5t42 4.5t34.5 33.5t28 50.5t20 54.5t11 46.5q15 95 16.5 180.5t-10.5 165.5t-26 144.5t-36.5 158t-35.5 164.5q-13 78 12.5 127t100.5 96q-34 20 -54.5 46.5t-25 57.5t-2.5 62t14 70t24 71t27.5 75t24.5 73q18 58 3.5 176t-50.5 176 q-27 43 -85.5 53.5t-131.5 -2.5l-21 172q109 13 206.5 -23t152.5 -126q67 -109 75.5 -271.5t-47.5 -279.5q-2 -5 -17.5 -35t-26 -51.5t-19.5 -47t-8 -36.5q1 -16 67.5 -63.5t79.5 -49.5l-20 -123q-111 -33 -144 -94q6 -74 43.5 -211t46.5 -186q14 -79 20.5 -170t3.5 -192.5 t-27 -196t-68 -156.5q-71 -95 -176.5 -91t-178.5 95z" />
<glyph unicode="~" horiz-adv-x="1224" d="M88 815q0 24 10 53q159 434 500 170q31 -25 47 -37t47 -27t56 -16q70 -2 120.5 58t63.5 168q51 0 82 -13t71 -45q-42 -138 -122.5 -220t-184.5 -89.5t-221 74.5q-48 35 -80.5 52t-69.5 23.5t-69.5 -12t-65.5 -61.5q-7 -8 -12.5 -18t-9 -17t-8.5 -21.5t-6.5 -18.5 t-7 -22.5t-5.5 -19.5z" />
<glyph unicode="&#xa1;" horiz-adv-x="495" d="M66 12q31 387 43 463q16 98 45 332l43 354l135 -8q-1 -11 -2.5 -30.5t-6 -75.5t-8.5 -108t-8.5 -117.5t-7.5 -115t-5 -89t-1 -50.5q1 -25 -7 -172.5t-16 -282.5l-8 -135zM168 1423q0 51 34 92t89 41q54 0 85.5 -35t31.5 -87q0 -51 -35 -88t-90 -37q-46 0 -80.5 33 t-34.5 81z" />
<glyph unicode="&#xa2;" horiz-adv-x="958" d="M94 784q0 110 28.5 186t104.5 148q109 103 244 103q15 99 26.5 196t16.5 144l4 47q68 13 139 2q-28 -183 -57 -404q123 -25 182 -76l29 -24l-66 -119l-49 43q-40 35 -112 53q-7 -55 -31.5 -238t-36.5 -272l41 13q119 58 221 133l99 -133q-14 -11 -56.5 -30t-106.5 -46 t-102 -45q-44 -21 -114 -27l-70 -512l-119 6q33 239 68 502q-90 6 -137 33q-73 46 -109.5 120.5t-36.5 196.5zM238 778q0 -73 20.5 -126t52.5 -72q18 -12 82 -15q53 392 66 518q-126 -36 -173.5 -105t-47.5 -200z" />
<glyph unicode="&#xa3;" horiz-adv-x="1122" d="M27 57q0 91 172 176q8 93 8 209q0 56 -4 166l-146 -20l-12 143l143 21q-14 74 -14 200q0 94 48 192.5t133.5 167t179.5 68.5q113 0 204 -149l-123 -74q-1 1 -6 10.5t-7 12t-7 11t-8.5 12t-9 10t-10 9.5t-10.5 6.5t-12.5 5t-13.5 1.5q-57 0 -109.5 -52.5t-80.5 -122 t-27 -126.5q0 -69 15 -168l258 25l12 -144l-254 -24q10 -189 0 -330q84 26 139 26q46 0 89.5 -20.5t77 -50t64 -59t61.5 -50t59 -20.5q45 0 78 38t51 89l135 -49q-30 -88 -105 -156t-161 -68q-49 0 -92.5 20.5t-75.5 50t-61.5 59.5t-62.5 50.5t-65 20.5q-13 0 -27.5 -2 t-25 -4.5t-27 -7.5t-24.5 -8t-27 -10t-24 -9q-8 -37 -18 -65.5t-27.5 -57t-45.5 -44t-65 -15.5q-50 0 -94.5 28.5t-44.5 77.5z" />
<glyph unicode="&#xa4;" horiz-adv-x="1505" d="M27 403l18 148q61 5 240 12q-14 108 -11 193l-211 2l35 151q109 -2 199 -2q82 342 498 500q87 35 198 41q268 18 477 -156l-112 -123q-93 97 -208 122.5t-247 -23.5q-153 -57 -260.5 -147.5t-159.5 -207.5l521 25l-33 -152q-363 -18 -525 -24q-9 -92 11 -193 q425 12 522 21q-6 -28 -18 -148q-79 -8 -461 -20q67 -161 219 -246q109 -63 264 -53q175 12 313 156l119 -107q-108 -100 -242 -153.5t-288 -49.5t-295 76q-197 106 -273 371q-186 -6 -290 -13z" />
<glyph unicode="&#xa5;" horiz-adv-x="1142" d="M14 1444q65 123 125 145l49 -49q101 -153 249 -338t233 -258q44 116 282 592q93 -25 127 -61l-32 -64q-82 -154 -259 -567l308 14v-143q-228 -13 -353 -17l15 -188q190 3 323 18q0 -2 15 -141q-82 -9 -328 -18l29 -480l6 -71l-141 -8l-5 69l-24 486q-274 -4 -402 -15 l-12 142q114 10 408 14l-11 186l-360 -4v143q232 3 324 5z" />
<glyph unicode="&#xa6;" horiz-adv-x="520" d="M129 1012q21 344 25 450q3 62 1 161.5t-6 192.5l-4 93l144 4q8 -351 12 -451q2 -57 1 -153t-4 -187l-3 -92zM141 772l164 23q-10 -302 -14 -433q-3 -54 2 -165.5t11 -196.5l7 -84l-143 -4q-9 123 -21 445.5t-6 414.5z" />
<glyph unicode="&#xa7;" horiz-adv-x="954" d="M63 719q0 244 281 319q-12 6 -42.5 19.5t-46 21.5t-40.5 22t-39 28t-29 33t-21.5 43t-6.5 52q-1 70 22 123.5t59 84t87 49.5t98 25.5t102 6.5q37 0 59.5 -1t54 -7t50 -17t40 -31.5t33.5 -50.5t21 -74.5t11 -102.5l-146 -11q-9 57 -43 106.5t-82 49.5h-25.5h-28.5t-27 -1 t-29 -3.5t-25.5 -7t-24.5 -11t-18.5 -16.5t-16 -22.5t-7.5 -29.5t-2 -38q4 -60 68.5 -101t166.5 -73q12 -4 48.5 -14.5t51 -15.5t48 -17t49 -21t43 -26t41 -33.5t32 -41t27 -52t15 -62.5t6.5 -76q0 -244 -281 -319q77 -16 127 -75.5t51 -155.5q1 -70 -17.5 -121.5t-47 -81 t-73 -46.5t-86.5 -22.5t-97 -5.5q-118 0 -197 55.5t-109 190.5l127 47q8 -51 68.5 -103.5t112.5 -52.5q33 0 51.5 1t47 8.5t43.5 22t25.5 43t8.5 69.5q-3 55 -62 104t-139 74q-24 7 -63 17t-65 16.5t-60.5 19t-57.5 26.5t-48 38t-39.5 53.5t-24 73.5t-9.5 98zM199 702 q0 -19 3.5 -34.5t6.5 -24.5t13 -20.5t15 -16t21.5 -16.5t22.5 -17q65 -22 215 -22q109 0 177 55.5t68 155.5q0 21 -4 38t-8 27t-17 23t-18 17t-26 18l-27 18q-51 10 -197 10q-109 0 -177 -56t-68 -155z" />
<glyph unicode="&#xa8;" horiz-adv-x="913" d="M199 1270q0 47 30 80.5t78 33.5q38 0 62.5 -23t23.5 -58q-4 -62 -31.5 -102.5t-89.5 -33.5q-32 3 -52.5 37.5t-20.5 65.5zM549 1354q21 27 72 30q47 0 67 -28q42 -62 -2 -166q-11 -33 -63 -37q-45 0 -70 25q-27 27 -27 85.5t23 90.5z" />
<glyph unicode="&#xa9;" horiz-adv-x="1271" d="M119 735q0 86 19.5 174.5t61 172t99 148t139.5 103.5t176 39q157 0 286.5 -81t201.5 -215.5t72 -291.5q0 -104 -22 -207t-68.5 -198t-113 -168t-162 -116.5t-208.5 -43.5q-100 0 -183 43.5t-137 113.5t-91.5 161t-53.5 183t-16 183zM233 698q0 -91 26 -181t74.5 -165 t126.5 -121.5t173 -46.5q71 0 133 23t108 64t82.5 94t59 115t34 126.5t11.5 128.5q0 97 -29 187.5t-82 163.5t-136.5 117t-184.5 44q-88 0 -157.5 -33.5t-113 -87t-73 -126.5t-41 -147.5t-11.5 -154.5zM395 682q0 57 14 120.5t41.5 124.5t77 100.5t111.5 39.5 q108 0 223 -119l-86 -86q-26 26 -39 38t-40 28t-50 16q-34 0 -61 -34.5t-42 -84t-22.5 -94.5t-7.5 -76q0 -30 5 -56t16.5 -51t34.5 -39.5t55 -14.5q80 0 206 94l74 -99q-163 -120 -287 -120q-59 0 -104 29t-70 76t-37 99.5t-12 108.5z" />
<glyph unicode="&#xaa;" horiz-adv-x="831" d="M92 950q0 148 92 254.5t238 106.5q71 0 149 -33q0 28 -22 96l153 31v-143q0 -17 -0.5 -88.5t0 -105t2.5 -99.5t7 -107.5t15 -92t24 -87.5q-62 -33 -168 -33l2 49v41q-146 -80 -271 -80q-63 0 -107.5 23.5t-68.5 66t-34.5 92t-10.5 109.5zM227 928q0 -121 131 -121 q102 0 222 82q-1 22 -4 111.5t-3 138.5q-5 2 -26.5 13.5t-33.5 17t-30 11t-32 5.5q-87 0 -155.5 -84t-68.5 -174z" />
<glyph unicode="&#xab;" horiz-adv-x="1234" d="M72 518l485 490l68 -113l-355 -373l385 -336l-65 -114zM569 596l518 446l66 -112l-385 -336l354 -375l-67 -110z" />
<glyph unicode="&#xac;" horiz-adv-x="1189" d="M70 236q0 149 90.5 257.5t238.5 108.5q129 0 215 -93t86 -222q0 -60 -24.5 -107t-65.5 -71l-114 108q6 3 15.5 9.5t25 27t14.5 43.5q0 53 -37.5 107.5t-89.5 54.5q-79 0 -141 -91.5t-62 -177.5q0 -82 41.5 -161t114 -130t153.5 -51q98 0 172 35.5t118 99t65.5 143.5 t21.5 175q0 60 -7.5 110t-24.5 88.5t-36 68.5t-49 53t-55 39.5t-64.5 30.5t-67 22.5t-71.5 19.5q-154 39 -210 64q-136 60 -175 181q-18 56 -18 128q0 76 26.5 162.5t72.5 164t118 128.5t154 51q49 0 87 -4t83.5 -19t80.5 -40.5t69.5 -71.5t58.5 -109l-156 -70 q-10 52 -32 87.5t-53.5 53t-64 24.5t-73.5 7q-47 0 -87 -41t-64 -99.5t-37 -116.5t-13 -99q0 -49 15.5 -86.5t37.5 -59t60.5 -39.5t70 -26.5t82 -21.5t80.5 -23q138 -44 195 -76q146 -82 190 -256q21 -86 21 -198q0 -128 -30.5 -238t-92 -197.5t-164 -137.5t-236.5 -50 q-129 0 -236 80t-164.5 201.5t-57.5 249.5z" />
<glyph unicode="&#xad;" d="M66 662q69 7 322.5 14.5t328.5 15.5l14 -141q-73 -7 -325.5 -15.5t-327.5 -15.5z" />
<glyph unicode="&#xae;" horiz-adv-x="1271" d="M113 733q0 121 49 238t131 205.5t197 143t239 54.5q87 0 160 -33.5t123.5 -89t86 -129t52 -152.5t16.5 -159q0 -79 -14.5 -164t-42 -171t-73 -162t-103 -135.5t-136 -94.5t-167.5 -35q-112 0 -202 40t-148 106t-96.5 156t-55 184.5t-16.5 197.5zM221 682q0 -76 11.5 -145 t39.5 -134t70 -112.5t106.5 -76t145.5 -28.5q100 0 187.5 51.5t144 132.5t89 178.5t32.5 192.5q0 81 -7.5 147.5t-30.5 136t-60 116t-102 76.5t-151 30q-106 0 -197 -50t-151 -130.5t-93.5 -181t-33.5 -203.5zM360 944q8 3 47.5 21t73.5 31.5t84.5 31t93.5 22t86 2t76 -25.5 t51 -65q12 -28 12.5 -56t-8 -52.5t-25.5 -49t-36.5 -44.5t-44 -40t-46 -34.5t-44.5 -27.5l270 -133l-55 -110l-313 164l45 -183l-119 -28zM504 877l41 -160q3 3 15.5 8t25 9t25.5 7.5t14 3.5q44 23 97 76.5t38 89.5q-25 53 -256 -34z" />
<glyph unicode="&#xaf;" horiz-adv-x="808" d="M96 1366l615 16l4 -141l-615 -16z" />
<glyph unicode="&#xb0;" horiz-adv-x="835" d="M90 981q0 54 6.5 102.5t26.5 103.5t52.5 94t90 65t133.5 26q172 0 257 -100.5t85 -272.5q0 -68 -33 -131t-101 -107t-156 -44q-33 0 -63.5 2.5t-67.5 10t-68.5 19.5t-62 32.5t-52 47t-34.5 66t-13 86.5zM227 981q0 -73 56.5 -104t167.5 -31q41 0 72 16t47 40.5t24 49 t8 47.5q0 122 -45.5 183t-157.5 61q-172 0 -172 -262z" />
<glyph unicode="&#xb1;" horiz-adv-x="937" d="M86 246q75 7 370 14t367 14q0 -2 15 -141q-76 -7 -372.5 -14t-365.5 -13zM86 725v141q193 0 297 4l8 369l141 -4q-6 -236 -8 -365l303 -18l-10 -141q-172 14 -295 18l-12 -360l-141 6q8 213 12 352z" />
<glyph unicode="&#xb2;" horiz-adv-x="808" d="M29 606q186 187 227 232q117 113 170 196q63 102 70 205q1 24 -29.5 46.5t-73.5 33.5q-40 8 -57 8q-56 0 -80 -18q-25 -13 -57 -50.5t-52 -68.5l-104 76q18 40 45 67q66 73 117 99q38 20 82.5 25t122.5 3q94 -8 164 -75.5t67 -153.5q-8 -113 -92 -244h2 q-46 -76 -174 -219q-23 -27 -74 -78q10 3 43.5 11t52.5 14v-2q23 6 83.5 24.5t106.5 27.5t97 9q31 0 86 -10l-33 -148q-31 5 -47 7q-106 8 -479 -86l-92 -23z" />
<glyph unicode="&#xb3;" horiz-adv-x="843" d="M0 586l109 84l28 -27v2q32 -32 75.5 -58t82.5 -30q40 -4 76 -4q99 0 178 27.5t104 91.5q25 61 25 94q0 70 -62 115q-42 18 -178 18q-17 0 -42.5 -1t-26.5 -1l-43 74q114 129 139 162q20 20 43 53q-125 4 -377 4v129h272l277 -14l49 -88q-120 -99 -194 -191 q134 -9 182 -47q19 -20 25 -26.5t25 -31.5t27 -44t16.5 -50t8.5 -63q0 -60 -33 -139q-43 -99 -151 -152t-242 -53q-80 0 -161.5 23.5t-139.5 64.5q-37 23 -92 78z" />
<glyph unicode="&#xb4;" horiz-adv-x="829" d="M133 1190l447 471l106 -154l-471 -397z" />
<glyph unicode="&#xb5;" horiz-adv-x="978" d="M63 -465q11 60 12.5 112t-1 158.5t-0.5 217.5q0 13 6 219q0 34 0.5 148.5t2.5 201.5t7 147q1 7 5 48t5 55.5t1.5 46.5t-3 56t-10.5 48q42 23 68.5 26.5t54.5 -1.5q19 0 51 -4q-14 -81 -18 -166q0 -5 -3.5 -45.5t-6 -70.5t-5.5 -80t-4 -90.5t-0.5 -83.5t4.5 -77t11 -55 q27 -84 110 -84q62 0 127 45q186 128 178 707q78 18 142 -4q-16 -456 -13 -588q3 -109 34.5 -149t131.5 -46l-30 -137q-82 -20 -175 63.5t-92 176.5q-5 -10 -16.5 -32.5t-16.5 -31t-15 -25t-18.5 -25.5t-21.5 -21.5t-28 -22.5q-97 -66 -193 -66q-64 0 -135 74l-6 -102 q-6 -103 -6 -201.5t3 -202t3 -153.5q-78 -6 -140 14z" />
<glyph unicode="&#xb6;" horiz-adv-x="1107" d="M43 938q-6 65 20 119q75 153 355 207q70 12 108 12q66 4 257.5 5t217.5 -1q-13 -356 -13.5 -721t13.5 -698l-124 8q6 200 1.5 624t-16.5 664l-121 6q5 -146 6.5 -304t0 -281.5t-3.5 -225.5t-3.5 -164t-1.5 -69q5 -73 15 -113l2 -53q-19 -7 -28 -9.5t-31 -4t-62 -0.5 l2 669l-53 -12q-149 -23 -247 7.5t-183 115.5q-102 102 -111 219zM190 944q3 -34 17 -65q53 -118 143.5 -158.5t227.5 -13.5q45 10 57 14l-19 448q-118 0 -157 -8q-37 -7 -72 -17t-73 -28.5t-65.5 -41.5t-44.5 -57t-14 -73z" />
<glyph unicode="&#xb7;" horiz-adv-x="514" d="M123 537q0 54 37.5 92.5t97.5 38.5q49 0 86 -35t37 -86q0 -54 -35.5 -95.5t-95.5 -41.5q-59 0 -93 36.5t-34 90.5z" />
<glyph unicode="&#xb8;" horiz-adv-x="612" d="M131 -444q4 15 11.5 55t13.5 53q152 -35 186 -16q33 19 46.5 44.5t-1.5 53.5q-11 17 -25 27t-25 15t-30 6t-30.5 0t-37.5 -4.5t-40 -4.5q-11 22 -25 63l150 218l120 -11l-127 -180q61 -2 103 -19t78 -69q44 -63 22 -134.5t-96 -103.5q-85 -40 -293 7z" />
<glyph unicode="&#xb9;" horiz-adv-x="540" d="M47 1282q123 123 191 186q27 7 98 -4q2 -69 2 -135q0 -63 -4 -137q-6 -150 -6 -315q0 -153 2 -187l78 6l2 -129l-301 -20l-5 129l82 6q-9 171 -6 238q0 60 7.5 165t7.5 164l-58 -61z" />
<glyph unicode="&#xba;" horiz-adv-x="802" d="M45 1016q0 136 107 237q115 98 254 86q97 -9 198 -90q69 -57 100 -116t31 -142q0 -140 -86 -252q-91 -123 -237 -123q-157 0 -265 129q-102 117 -102 271zM209 1044q0 -70 16 -118.5t64 -91.5q45 -44 99 -57t114 14q55 29 73.5 79.5t18.5 122.5q0 28 -8 60 q-18 61 -88.5 105t-139.5 44q-72 0 -108 -53q-41 -52 -41 -105z" />
<glyph unicode="&#xbb;" horiz-adv-x="1234" d="M51 195l385 335l-354 373l68 113l485 -490l-518 -446zM549 938l65 113l519 -447l-486 -487l-67 110l354 375z" />
<glyph unicode="&#xbc;" horiz-adv-x="1794" d="M45 1214q103 108 180 179q32 5 94 -4q3 -68 3 -129q0 -42 -5 -130q-8 -128 -8 -301q0 -143 2 -174q42 0 74 4l2 -120l-285 -21l-2 121l76 8q-5 192 -4 225q0 9 6 162q6 92 6 150l-55 -60zM154 41q389 573 534 743q64 76 201.5 233.5t243.5 276.5l106 119q15 -10 43 -25 t43 -28t23 -33q-419 -453 -564 -625q-65 -76 -197.5 -261t-232.5 -331l-100 -147zM969 385q29 123 37 164q4 8 16 78q17 92 63 231q47 2 119 -16q-8 -83 -14 -99q-9 -21 -27 -105t-28 -112h2q0 -6 -4 -30l2 2q0 -1 -6.5 -30t-12.5 -44l49 2q64 -3 242 4q0 18 -10 135 q0 8 -2.5 51.5t-3 60.5t-0.5 53t2 67.5t6 66.5h31l1 1l6 1q17 -2 89 -18q-4 -108 -4 -176q0 -70 8 -230q15 4 64 9.5t90 9.5l42 4v-129q-151 -13 -188 -17q6 -204 6 -206l8 -191l-135 -8q-6 127 -6 195q0 8 -1 38t-1 48q-5 89 -4 110q-102 -4 -240 -4q-18 0 -84 4 q-9 -4 -26 0q-7 0 -22 -1t-17 -1q-8 19 -21 37q-7 5 -26 45z" />
<glyph unicode="&#xbd;" horiz-adv-x="1794" d="M45 1214q103 108 180 179q32 5 94 -4q3 -68 3 -129q0 -42 -5 -130q-8 -128 -8 -301q0 -143 2 -174q42 0 74 4l2 -120l-285 -21l-2 121l76 8q-5 192 -4 225q0 9 6 162q6 92 6 150l-55 -60zM154 41q389 573 534 743q64 76 201.5 233.5t243.5 276.5l106 119q15 -10 43 -25 t43 -28t23 -33q-419 -453 -564 -625q-65 -76 -197.5 -261t-232.5 -331l-100 -147zM997 29q176 176 215 219q119 119 162 186q60 98 66 195q2 31 -48.5 56.5t-103.5 25.5q-56 0 -76 -17q-30 -17 -92 -94l-10 -18l-100 73q18 37 43 62q61 67 110 94q37 19 79.5 24t115.5 3 q89 -8 155.5 -71.5t63.5 -145.5q-8 -108 -88 -232h2q-44 -72 -164 -207l-70 -73q12 4 43 10.5t48 11.5v-2q23 6 79.5 23.5t100.5 26.5t92 9q27 0 82 -10l-33 -139l-43 6q-107 7 -455 -82l-88 -22z" />
<glyph unicode="&#xbe;" horiz-adv-x="2160" d="M27 676l102 80l27 -25v2q80 -76 149 -84q36 -4 74 -4q91 0 166.5 26.5t99.5 86.5q23 61 23 90q0 63 -58 108q-44 17 -170 17q-15 0 -39 -1t-26 -1l-41 71q108 121 133 152l41 51q-119 4 -358 4v123h258l262 -14l47 -84q-117 -96 -185 -180q130 -9 173 -45 q18 -19 24 -25.5t24 -30.5t26 -42t16 -46.5t8 -58.5q0 -57 -33 -133q-40 -93 -142.5 -143t-230.5 -50q-75 0 -152 22t-132 60q-29 17 -86 74zM504 41q389 573 534 743q64 76 201.5 233.5t243.5 276.5l106 119q15 -10 43 -25t43 -28t23 -33q-418 -453 -563 -625 q-65 -76 -198 -261t-233 -331l-100 -147zM1319 385q29 123 37 164q4 8 16 78q21 115 39 159l25 72q46 2 118 -16q-8 -83 -14 -99q-7 -18 -16.5 -60.5t-19.5 -88t-19 -68.5h2q0 -6 -4 -30l2 2q-2 -8 -5 -22.5t-6.5 -27.5t-7.5 -24l50 2q64 -3 241 4q0 23 -1.5 44t-4.5 49.5 t-4 41.5q0 8 -2.5 51.5t-3 60.5t-0.5 53t2 67.5t6 66.5h31l1 1l6 1q17 -2 89 -18q-4 -108 -4 -176q0 -70 8 -230q9 2 33 5.5t51 6.5t53 5.5t43 3.5l17 2v-129q-152 -13 -189 -17q6 -204 6 -206l9 -191l-136 -8q-6 127 -6 195q0 8 -1 38t-1 48q-5 89 -4 110q-102 -4 -239 -4 q-18 0 -84 4q-3 -2 -12 -2t-15 2q-7 0 -22 -1t-17 -1q-9 21 -22 39t-25 43z" />
<glyph unicode="&#xbf;" horiz-adv-x="890" d="M84 362q0 28 7.5 56t14.5 47.5t28.5 48.5t30.5 41.5t41 44t39 38t44 40.5q70 62 112 111t62 106q26 72 6 149l137 15q26 -103 -2 -199q-16 -48 -51.5 -97.5t-66 -81.5t-81.5 -80q-9 -9 -14 -13q-48 -49 -74.5 -81t-49.5 -80t-23 -95q0 -97 51.5 -154t146.5 -57 q37 0 73 12.5t58.5 26t61.5 40t59 38.5l86 -144q-87 -56 -167 -85t-171 -29q-156 0 -257 112t-101 270zM326 1448q0 52 32 97.5t84 45.5q40 0 79.5 -33.5t39.5 -74.5q0 -37 -51.5 -80t-89.5 -43q-42 0 -68 23.5t-26 64.5z" />
<glyph unicode="&#xc0;" horiz-adv-x="1005" d="M-49 451q-15 80 4 141q140 -4 195 -4q83 424 219 954l170 60q271 -938 417 -1569q-47 -33 -137 -33l-117 461q-242 -15 -434 -15q-36 -191 -67 -446q-89 -3 -142 18l9 70q2 15 20 135t35 223q-7 0 -172 5zM164 2036l106 153l447 -471l-80 -80zM297 588q145 2 371 14 q-138 525 -201 750q-109 -457 -170 -764z" />
<glyph unicode="&#xc1;" horiz-adv-x="976" d="M-49 451q-15 80 4 141q140 -4 195 -4q83 424 219 954l170 60q271 -938 417 -1569q-47 -33 -137 -33l-117 461q-242 -15 -434 -15q-36 -191 -67 -446q-89 -3 -142 18l9 70q2 15 20 135t35 223q-7 0 -172 5zM297 588q145 2 371 14q-138 525 -201 750q-109 -457 -170 -764z M319 1733l447 471l106 -154l-471 -397z" />
<glyph unicode="&#xc2;" horiz-adv-x="1005" d="M-49 451q-15 80 4 141q140 -4 195 -4q83 424 219 954l170 60q271 -938 417 -1569q-47 -33 -137 -33l-117 461q-242 -15 -434 -15q-36 -191 -67 -446q-89 -3 -142 18l9 70q2 15 20 135t35 223q-7 0 -172 5zM111 1731l274 290h96l289 -299l-94 -82l-240 248l-198 -237z M297 588q145 2 371 14q-138 525 -201 750q-109 -457 -170 -764z" />
<glyph unicode="&#xc3;" horiz-adv-x="997" d="M-49 451q-15 80 4 141q140 -4 195 -4q83 424 219 954l170 60q271 -938 417 -1569q-47 -33 -137 -33l-117 461q-242 -15 -434 -15q-36 -191 -67 -446q-89 -3 -142 18l9 70q2 15 20 135t35 223q-7 0 -172 5zM29 1645q10 31 15 47t15.5 45.5t18.5 45.5t22 40.5t27 38 t32 29.5t39.5 24.5t46.5 14t56 5.5q67 0 156 -73q60 -48 114 -52q30 -3 67 5.5t64 31.5q66 60 54 166l129 17q7 -85 -23 -161t-88 -126q-62 -54 -154 -62t-169 25q-20 8 -48 32t-51.5 44.5t-49 35t-50.5 6t-47 -43.5q-19 -30 -37 -85.5t-25 -95.5zM297 588q145 2 371 14 q-138 525 -201 750q-109 -457 -170 -764z" />
<glyph unicode="&#xc4;" horiz-adv-x="1009" d="M-49 451q-15 80 4 141q140 -4 195 -4q83 424 219 954l170 60q271 -938 417 -1569q-47 -33 -137 -33l-117 461q-242 -15 -434 -15q-36 -191 -67 -446q-89 -3 -142 18l9 70q2 15 20 135t35 223q-7 0 -172 5zM190 1780q0 47 30.5 80.5t78.5 33.5q38 0 62.5 -23.5t23.5 -58.5 q-4 -62 -31.5 -102t-89.5 -33q-32 3 -53 37.5t-21 65.5zM297 588q145 2 371 14q-138 525 -201 750q-109 -457 -170 -764zM541 1864q21 27 71 30q48 0 68 -28q42 -62 -2 -166q-11 -33 -64 -37q-44 0 -69 25q-27 27 -27 85.5t23 90.5z" />
<glyph unicode="&#xc5;" horiz-adv-x="985" d="M-49 451q-15 80 4 141q140 -4 195 -4q83 424 219 954l170 60q271 -938 417 -1569q-47 -33 -137 -33l-117 461q-242 -15 -434 -15q-36 -191 -67 -446q-89 -3 -142 18l9 70q2 15 20 135t35 223q-7 0 -172 5zM186 1884q0 46 5.5 87.5t22.5 88.5t45 81t76.5 56.5t113.5 22.5 q145 0 216.5 -86t71.5 -233q0 -94 -68 -169t-180 -75q-40 0 -76.5 4.5t-79.5 19t-74 38t-52 66.5t-21 99zM297 588q145 2 371 14q-138 525 -201 750q-109 -457 -170 -764zM303 1884q0 -63 47 -90t139 -27q45 0 76 24.5t42 53.5t11 56q0 104 -37.5 156t-131.5 52 q-146 0 -146 -225z" />
<glyph unicode="&#xc6;" horiz-adv-x="1609" d="M61 571q3 95 33 138l189 -39q166 413 397 895l180 24l17 -196h32q69 0 518 26q19 -58 7 -141l-70 -4q-273 -17 -473 -25q3 -29 15.5 -190.5t23.5 -241.5q322 39 471 66q36 -49 26 -140l-67 -10q-200 -35 -418 -59q27 -331 35 -486q213 74 516 125q28 -64 25 -139 q-294 -46 -574 -149q-3 -3 -11.5 -10t-12.5 -10t-13 -10t-12.5 -9.5t-13 -8.5t-13.5 -6.5t-13 -4.5t-13 -2t-13 1q-3 36 -9.5 149.5t-10.5 182.5l-10 143q-181 20 -426 68q-87 -217 -152 -426q-85 15 -135 45l23 66q46 139 120 344zM428 641q192 -34 367 -55 q-16 260 -56 772q-159 -345 -311 -717z" />
<glyph unicode="&#xc7;" horiz-adv-x="1073" d="M76 754q0 56 7 114t21 118.5t37 117.5t53 110t70.5 97t87.5 76.5t106.5 50.5t125.5 18q116 0 205.5 -52.5t137.5 -142.5t52 -204l4 -133q-24 -8 -52 -12t-43.5 -4.5t-53.5 -0.5q4 41 4 170q0 105 -70.5 169.5t-183.5 64.5q-46 0 -88.5 -14.5t-76.5 -40t-63.5 -59.5 t-51.5 -74.5t-39 -84.5t-28 -89t-16.5 -87.5t-5.5 -81.5q0 -58 1 -98.5t6 -111t15 -125.5t29.5 -120t46.5 -116q40 -75 107.5 -114.5t152.5 -39.5q80 0 134 15.5t84 54.5q63 84 63 281l127 -5q-10 -434 -285 -485q17 -24 29 -45.5t20.5 -45.5t10 -48.5t-2.5 -53t-16 -59.5 q-15 -43 -39.5 -77.5t-61 -62t-82.5 -35t-105 4.5q-56 13 -86.5 46t-12.5 77q15 44 65.5 75.5t104.5 18.5q50 -11 78 -59q82 123 -70 260q-65 8 -146.5 46.5t-121.5 86.5q-184 219 -184 709z" />
<glyph unicode="&#xc8;" horiz-adv-x="899" d="M0 590q47 0 127 8l-10 594q41 -2 131 -2q67 0 518 29q18 -59 6 -142l-70 -6q-314 -19 -440 -24l6 -433q335 41 471 66q39 -57 27 -137l-70 -13q-162 -31 -424 -59l9 -348q218 77 524 127q28 -55 22 -139q-351 -59 -684 -193l-12 541q-8 0 -35.5 -3t-58 -7t-35.5 -5z M137 1753l107 154l446 -471l-80 -80z" />
<glyph unicode="&#xc9;" horiz-adv-x="905" d="M0 590q47 0 127 8l-10 594q41 -2 131 -2q67 0 518 29q18 -59 6 -142l-70 -6q-314 -19 -440 -24l6 -433q335 41 471 66q39 -57 27 -137l-70 -13q-162 -31 -424 -59l9 -348q218 77 524 127q28 -55 22 -139q-351 -59 -684 -193l-12 541q-8 0 -35.5 -3t-58 -7t-35.5 -5z M199 1366l446 471l107 -154l-471 -397z" />
<glyph unicode="&#xca;" horiz-adv-x="913" d="M0 590q47 0 127 8l-10 594q41 -2 131 -2q67 0 518 29q18 -59 6 -142l-70 -6q-314 -19 -440 -24l6 -433q335 41 471 66q39 -57 27 -137l-70 -13q-162 -31 -424 -59l9 -348q218 77 524 127q28 -55 22 -139q-351 -59 -684 -193l-12 541q-8 0 -35.5 -3t-58 -7t-35.5 -5z M121 1462l274 291h97l288 -299l-94 -82l-240 248l-198 -238z" />
<glyph unicode="&#xcb;" horiz-adv-x="905" d="M0 590q47 0 127 8l-10 594q41 -2 131 -2q67 0 518 29q18 -59 6 -142l-70 -6q-314 -19 -440 -24l6 -433q335 41 471 66q39 -57 27 -137l-70 -13q-162 -31 -424 -59l9 -348q218 77 524 127q28 -55 22 -139q-351 -59 -684 -193l-12 541q-8 0 -35.5 -3t-58 -7t-35.5 -5z M182 1475q0 47 30.5 80.5t78.5 33.5q38 0 62.5 -23.5t23.5 -58.5q-4 -62 -31.5 -102t-89.5 -33q-32 3 -53 37.5t-21 65.5zM532 1559q21 27 72 30q48 0 68 -28q42 -62 -2 -166q-11 -33 -64 -37q-45 0 -69 24q-27 27 -27.5 87t22.5 90z" />
<glyph unicode="&#xcc;" horiz-adv-x="763" d="M37 1841l106 154l447 -471l-80 -80zM49 1288l70 6l241 27q6 1 28.5 1.5t64 2t84.5 4.5l69 6q20 -83 8 -141l-71 -6l-148 -6q9 -85 20.5 -244t27.5 -395t26 -379h180q15 -80 0 -141h-69l-467 6q-20 66 -2 141h69l127 -6q-9 263 -18 430q-20 422 -35 573q-7 0 -191 -20 q-36 85 -14 141z" />
<glyph unicode="&#xcd;" horiz-adv-x="757" d="M49 1288l70 6l241 27q6 1 28.5 1.5t64 2t84.5 4.5l69 6q20 -83 8 -141l-71 -6l-148 -6q9 -85 20.5 -244t27.5 -395t26 -379h180q15 -80 0 -141h-69l-467 6q-20 66 -2 141h69l127 -6q-9 263 -18 430q-20 422 -35 573q-7 0 -191 -20q-36 85 -14 141zM82 1460l446 471 l107 -153l-471 -398z" />
<glyph unicode="&#xce;" horiz-adv-x="757" d="M29 1536l274 291h96l289 -299l-94 -82l-240 248l-198 -238zM49 1288l70 6l241 27q6 1 28.5 1.5t64 2t84.5 4.5l69 6q20 -83 8 -141l-71 -6l-148 -6q9 -85 20.5 -244t27.5 -395t26 -379h180q15 -80 0 -141h-69l-467 6q-20 66 -2 141h69l127 -6q-9 263 -18 430 q-20 422 -35 573q-7 0 -191 -20q-36 85 -14 141z" />
<glyph unicode="&#xcf;" horiz-adv-x="763" d="M49 1288l70 6l241 27q6 1 28.5 1.5t64 2t84.5 4.5l69 6q20 -83 8 -141l-71 -6l-148 -6q9 -85 20.5 -244t27.5 -395t26 -379h180q15 -80 0 -141h-69l-467 6q-20 66 -2 141h69l127 -6q-9 263 -18 430q-20 422 -35 573q-7 0 -191 -20q-36 85 -14 141zM90 1526 q0 47 30.5 80.5t78.5 33.5q38 0 62.5 -23t23.5 -58q-4 -62 -31.5 -102.5t-89.5 -33.5q-32 3 -53 37.5t-21 65.5zM440 1610q21 27 72 30q48 0 68 -28q42 -62 -2 -166q-11 -33 -64 -37q-45 0 -70 25q-27 27 -27 85.5t23 90.5z" />
<glyph unicode="&#xd0;" horiz-adv-x="989" d="M35 717q71 9 205 12l-9 352q-2 0 -16.5 -0.5t-45 -1.5t-63.5 -2q-19 70 -4 142q176 4 183 4q319 0 483 -138q64 -55 102.5 -148t38.5 -220q0 -203 -96 -387q-126 -237 -557 -314l-12 562q-122 -3 -199 -13zM373 1079l8 -344q117 7 178 15l12 -152q-50 -7 -186 -14l8 -363 q196 12 297 205q33 62 53.5 147.5t20.5 171.5q0 82 -24.5 141.5t-61.5 90.5q-103 90 -305 102z" />
<glyph unicode="&#xd1;" horiz-adv-x="997" d="M45 1634q13 41 19.5 61t21 57t27.5 56.5t34 45.5t44 39t55.5 22.5t70.5 9.5q66 0 156 -74q59 -47 115 -51q30 -3 67 5.5t64 31.5q65 59 53 166l129 16q7 -85 -22.5 -160.5t-87.5 -125.5q-62 -54 -154.5 -62t-169.5 25q-20 8 -48 32t-51.5 44t-49 34.5t-50.5 6t-47 -43.5 q-19 -30 -36.5 -85t-24.5 -95zM59 1358l99 67q309 -653 370 -761q47 -90 220 -357q-25 633 -7 1245q60 18 142 -4q-6 -255 -6 -506q0 -652 45 -1253q-310 463 -519 805q-29 46 -157 313q68 -666 123 -1071q-71 -24 -142 -18l-10 69q-52 381 -158 1471z" />
<glyph unicode="&#xd2;" horiz-adv-x="1521" d="M72 696q0 564 491 748q77 31 180 31q244 0 420 -197q185 -203 185 -512q0 -50 -11 -129q-53 -384 -258 -586q-177 -180 -415 -180q-185 0 -326 106q-74 54 -128.5 140.5t-83 186.5t-41.5 196.5t-13 195.5zM233 692q0 -195 48.5 -343.5t173.5 -246.5q97 -77 239 -77 q164 0 287 141q135 160 182 469q11 86 11 135q0 240 -111 393q-111 156 -279 156q-64 0 -129 -23q-201 -76 -311.5 -231t-110.5 -373zM436 1972l107 154l446 -471l-80 -80z" />
<glyph unicode="&#xd3;" horiz-adv-x="1515" d="M72 696q0 564 491 748q77 31 180 31q244 0 420 -197q185 -203 185 -512q0 -50 -11 -129q-53 -384 -258 -586q-177 -180 -415 -180q-185 0 -326 106q-74 54 -128.5 140.5t-83 186.5t-41.5 196.5t-13 195.5zM233 692q0 -195 48.5 -343.5t173.5 -246.5q97 -77 239 -77 q164 0 287 141q135 160 182 469q11 86 11 135q0 240 -111 393q-111 156 -279 156q-64 0 -129 -23q-201 -76 -311.5 -231t-110.5 -373zM457 1624l446 471l107 -153l-471 -398z" />
<glyph unicode="&#xd4;" horiz-adv-x="1527" d="M72 696q0 564 491 748q77 31 180 31q244 0 420 -197q185 -203 185 -512q0 -50 -11 -129q-53 -384 -258 -586q-177 -180 -415 -180q-185 0 -326 106q-74 54 -128.5 140.5t-83 186.5t-41.5 196.5t-13 195.5zM233 692q0 -195 48.5 -343.5t173.5 -246.5q97 -77 239 -77 q164 0 287 141q135 160 182 469q11 86 11 135q0 240 -111 393q-111 156 -279 156q-64 0 -129 -23q-201 -76 -311.5 -231t-110.5 -373zM412 1636l274 291h96l289 -299l-94 -82l-240 248l-198 -238z" />
<glyph unicode="&#xd5;" horiz-adv-x="1478" d="M72 696q0 564 491 748q77 31 180 31q244 0 420 -197q185 -203 185 -512q0 -50 -11 -129q-53 -384 -258 -586q-177 -180 -415 -180q-185 0 -326 106q-74 54 -128.5 140.5t-83 186.5t-41.5 196.5t-13 195.5zM233 692q0 -195 48.5 -343.5t173.5 -246.5q97 -77 239 -77 q164 0 287 141q135 160 182 469q11 86 11 135q0 240 -111 393q-111 156 -279 156q-64 0 -129 -23q-201 -76 -311.5 -231t-110.5 -373zM254 1565q10 31 15 47t15.5 45.5t18.5 45.5t22 40.5t27 38t32 29.5t39.5 24.5t46.5 14t56 5.5q67 0 156 -73q59 -47 115 -51 q31 -4 67.5 4.5t63.5 31.5q65 59 53 166l129 17q7 -85 -23 -161t-88 -126q-62 -54 -154 -62t-169 25q-20 8 -48 32t-51.5 44.5t-49 35t-50.5 6t-47 -43.5q-19 -30 -36.5 -85t-24.5 -95z" />
<glyph unicode="&#xd6;" horiz-adv-x="1499" d="M72 696q0 564 491 748q77 31 180 31q244 0 420 -197q185 -203 185 -512q0 -50 -11 -129q-53 -384 -258 -586q-177 -180 -415 -180q-185 0 -326 106q-74 54 -128.5 140.5t-83 186.5t-41.5 196.5t-13 195.5zM233 692q0 -195 48.5 -343.5t173.5 -246.5q97 -77 239 -77 q164 0 287 141q135 160 182 469q11 86 11 135q0 240 -111 393q-111 156 -279 156q-64 0 -129 -23q-201 -76 -311.5 -231t-110.5 -373zM457 1679q0 47 30 81t78 34q38 0 62.5 -23.5t23.5 -58.5q-4 -62 -31.5 -102t-89.5 -33q-32 3 -52.5 37t-20.5 65zM807 1763q22 28 72 31 q46 0 67 -29q42 -62 -2 -166q-10 -32 -63 -36q-46 0 -70 24q-27 27 -27 85.5t23 90.5z" />
<glyph unicode="&#xd7;" horiz-adv-x="933" d="M74 918l96 104q203 -188 283 -256l254 268l102 -96q-162 -170 -252 -266l287 -273l-103 -98q-190 180 -280 266l-250 -258l-100 99l245 256q-37 31 -107.5 94.5t-122.5 111.5z" />
<glyph unicode="&#xd8;" horiz-adv-x="1540" d="M66 772q0 563 514 748q91 30 188 30q117 0 215 -39l152 344q46 -14 72 -35.5t55 -72.5q-64 -135 -146 -311q33 -23 92 -82q191 -203 191 -512q0 -72 -8 -129q-58 -382 -273 -588q-187 -178 -434 -178q-130 0 -233 47l-123 -252l-127 61q53 110 127 260q-73 55 -126 140.5 t-81.5 183.5t-41.5 193t-13 192zM223 768q0 -369 180 -549q240 499 281 602q25 64 244 563q-65 21 -117 21q-64 0 -137 -25q-215 -76 -333 -233t-118 -379zM518 133q85 -43 199 -43q174 0 305 146q145 162 192 473q15 88 15 137q0 240 -119 399q-33 43 -55 60 q-86 -188 -177 -394.5t-168 -373.5t-192 -404z" />
<glyph unicode="&#xd9;" horiz-adv-x="942" d="M37 1245q79 19 164 10l6 -71q3 -42 6 -293t6 -293q15 -254 33 -295q18 -40 82 -67q60 -26 90 -21q35 3 99 33t77 51q68 115 68 219q0 27 -4.5 160.5l-10.5 311.5t-8 255l-2 72q73 16 141 4l2 -70q9 -276 9 -700q0 -162 -78 -297q-32 -57 -119 -111q-91 -60 -154 -69 q-74 -14 -184 41q-107 54 -145 137q-8 18 -16.5 85.5t-17 189t-15 218.5t-16 264t-13.5 236zM111 1792l106 154l447 -471l-80 -80z" />
<glyph unicode="&#xda;" horiz-adv-x="942" d="M37 1245q79 19 164 10l6 -71q3 -42 6 -293t6 -293q15 -254 33 -295q18 -40 82 -67q60 -26 90 -21q35 3 99 33t77 51q68 115 68 219q0 27 -4.5 160.5l-10.5 311.5t-8 255l-2 72q73 16 141 4l2 -70q9 -276 9 -700q0 -162 -78 -297q-32 -57 -119 -111q-91 -60 -154 -69 q-74 -14 -184 41q-107 54 -145 137q-8 18 -16.5 85.5t-17 189t-15 218.5t-16 264t-13.5 236zM172 1464l446 471l107 -153l-471 -398z" />
<glyph unicode="&#xdb;" horiz-adv-x="942" d="M37 1245q79 19 164 10l6 -71q3 -42 6 -293t6 -293q15 -254 33 -295q18 -40 82 -67q60 -26 90 -21q35 3 99 33t77 51q68 115 68 219q0 27 -4.5 160.5l-10.5 311.5t-8 255l-2 72q73 16 141 4l2 -70q9 -276 9 -700q0 -162 -78 -297q-32 -57 -119 -111q-91 -60 -154 -69 q-74 -14 -184 41q-107 54 -145 137q-8 18 -16.5 85.5t-17 189t-15 218.5t-16 264t-13.5 236zM88 1546l274 291h97l289 -299l-95 -82l-239 248l-199 -238z" />
<glyph unicode="&#xdc;" horiz-adv-x="911" d="M37 1245q79 19 164 10l6 -71q3 -42 6 -293t6 -293q15 -254 33 -295q18 -40 82 -67q60 -26 90 -21q35 3 99 33t77 51q68 115 68 219q0 27 -4.5 160.5l-10.5 311.5t-8 255l-2 72q73 16 141 4l2 -70q9 -276 9 -700q0 -162 -78 -297q-32 -57 -119 -111q-91 -60 -154 -69 q-74 -14 -184 41q-107 54 -145 137q-8 18 -16.5 85.5t-17 189t-15 218.5t-16 264t-13.5 236zM164 1528q0 47 30 80.5t78 33.5q38 0 62.5 -23t23.5 -58q-4 -63 -31 -103t-89 -33q-32 3 -53 37.5t-21 65.5zM514 1612q21 27 72 30q47 0 67 -28q42 -62 -2 -166q-11 -33 -63 -37 q-45 0 -70 25q-27 27 -27 85.5t23 90.5z" />
<glyph unicode="&#xdd;" horiz-adv-x="1153" d="M27 1331q63 121 125 146l49 -50q101 -154 248.5 -338.5t232.5 -257.5q36 95 283 592q93 -25 127 -61l-33 -64q-14 -26 -28 -54.5t-30.5 -63.5t-29.5 -62.5t-33 -73t-32 -72.5t-36.5 -82.5t-36 -82t-39.5 -92t-40 -92.5q-175 -413 -353 -811l-30 -66l-127 61l30 64 q108 224 351 809l2 2zM496 1602l446 471l107 -154l-471 -397z" />
<glyph unicode="&#xde;" horiz-adv-x="1087" d="M92 1507q7 3 43 7t69 7l32 3q0 -201 8 -283q16 3 65 17t70 18q49 8 145 8q375 0 486 -211q41 -77 41 -174q0 -184 -125 -367q-125 -185 -295 -260q-100 -47 -258 -47q-59 0 -88 4l39 -475q-146 -34 -191 -22l-4 69q8 36 8 181q0 172 -45 1525zM252 1110l27 -737 q43 -6 90 -6q107 -2 189 24t140 78t97 120.5t67 162.5q17 58 17 116q0 94 -56.5 158t-144 91.5t-199.5 27.5q-62 3 -227 -35z" />
<glyph unicode="&#xdf;" horiz-adv-x="1024" d="M-336 -317l109 116q59 -73 133 -73q45 0 77.5 22.5t50 62.5t26 74.5t14.5 79.5q20 151 21 313.5t-7 270.5q-11 410 27 690q13 98 48.5 168t86 106.5t103 52t112.5 15.5q127 0 234.5 -97.5t119.5 -228.5q5 -54 -15.5 -133t-62.5 -133q-10 -13 -28.5 -27t-32 -22 t-39.5 -21.5t-33 -17.5q37 -15 77.5 -39.5t89.5 -70t85 -100.5t56.5 -136t11.5 -172q-18 -178 -133.5 -288.5t-272.5 -110.5q-94 0 -192 65l-43 29l71 145q37 -39 73 -61.5t83 -22.5q62 0 124 44.5t100.5 112.5t37.5 134q-1 64 -15 116.5t-37 89t-52.5 66t-63.5 45.5 t-69.5 28.5t-70 15t-66 5.5t-56.5 -1l4 149q41 22 86 35l115 41q47 19 85 96t36 111q-1 55 -36.5 104t-87.5 76t-102 27q-150 0 -182 -232q-10 -80 -17 -271.5t-7 -332.5q-1 -45 3.5 -175t2 -250.5t-18.5 -233.5q-2 -22 -15.5 -53t-14.5 -36q-33 -119 -111.5 -195.5 t-198.5 -76.5q-134 0 -223 105z" />
<glyph unicode="&#xe0;" horiz-adv-x="935" d="M63 287q0 100 39.5 187t98.5 138q84 72 200 72q130 0 246 -88l-2 170q-3 132 -6 152q-10 77 -40.5 109t-96.5 32q-108 0 -180 -33q-68 -36 -97 -65q-23 18 -39 79q-14 65 -14 95q115 84 285 84q75 0 145 -25q126 -42 166 -180q25 -74 25 -248q0 -29 -3.5 -188t-3.5 -191 q0 -367 84 -436q-135 -87 -213 -82l-2 264q-124 -156 -266 -156q-140 0 -233 87t-93 223zM170 1731l106 153l447 -471l-80 -80zM215 328q0 -112 48 -167t130 -55q73 0 146 78t98 156l20 68l-57 59q-38 40 -89.5 67t-102.5 27q-53 0 -98.5 -38t-70 -91.5t-24.5 -103.5z" />
<glyph unicode="&#xe1;" horiz-adv-x="948" d="M63 287q0 100 39.5 187t98.5 138q84 72 200 72q130 0 246 -88l-2 170q-3 132 -6 152q-10 77 -40.5 109t-96.5 32q-108 0 -180 -33q-68 -36 -97 -65q-23 18 -39 79q-14 65 -14 95q115 84 285 84q75 0 145 -25q126 -42 166 -180q25 -74 25 -248q0 -29 -3.5 -188t-3.5 -191 q0 -367 84 -436q-135 -87 -213 -82l-2 264q-124 -156 -266 -156q-140 0 -233 87t-93 223zM215 328q0 -112 48 -167t130 -55q73 0 146 78t98 156l20 68l-57 59q-38 40 -89.5 67t-102.5 27q-53 0 -98.5 -38t-70 -91.5t-24.5 -103.5zM221 1438l447 471l106 -154l-471 -397z" />
<glyph unicode="&#xe2;" horiz-adv-x="917" d="M63 287q0 100 39.5 187t98.5 138q84 72 200 72q130 0 246 -88l-2 170q-3 132 -6 152q-10 77 -40.5 109t-96.5 32q-108 0 -180 -33q-68 -36 -97 -65q-23 18 -39 79q-14 65 -14 95q115 84 285 84q75 0 145 -25q126 -42 166 -180q25 -74 25 -248q0 -29 -3.5 -188t-3.5 -191 q0 -367 84 -436q-135 -87 -213 -82l-2 264q-124 -156 -266 -156q-140 0 -233 87t-93 223zM109 1411l274 291h96l289 -299l-94 -82l-240 248l-198 -238zM215 328q0 -112 48 -167t130 -55q73 0 146 78t98 156l20 68l-57 59q-38 40 -89.5 67t-102.5 27q-53 0 -98.5 -38 t-70 -91.5t-24.5 -103.5z" />
<glyph unicode="&#xe3;" horiz-adv-x="942" d="M-4 1440q13 41 19.5 61t21 57t27.5 56.5t34 45.5t44 39t55.5 22.5t70.5 9.5q66 0 156 -74q59 -47 115 -51q31 -4 67.5 4.5t63.5 31.5q65 59 53 166l129 17q7 -85 -23 -161t-88 -126q-62 -54 -154 -62t-169 25q-20 8 -48 32t-51.5 44.5t-49 35t-50.5 6t-47 -43.5 q-19 -30 -36.5 -85t-24.5 -95zM63 287q0 100 39.5 187t98.5 138q84 72 200 72q130 0 246 -88l-2 170q-3 132 -6 152q-10 77 -40.5 109t-96.5 32q-108 0 -180 -33q-68 -36 -97 -65q-23 18 -39 79q-14 65 -14 95q115 84 285 84q75 0 145 -25q126 -42 166 -180q25 -74 25 -248 q0 -29 -3.5 -188t-3.5 -191q0 -367 84 -436q-135 -87 -213 -82l-2 264q-124 -156 -266 -156q-140 0 -233 87t-93 223zM215 328q0 -112 48 -167t130 -55q73 0 146 78t98 156l20 68l-57 59q-38 40 -89.5 67t-102.5 27q-53 0 -98.5 -38t-70 -91.5t-24.5 -103.5z" />
<glyph unicode="&#xe4;" horiz-adv-x="929" d="M63 287q0 100 39.5 187t98.5 138q84 72 200 72q130 0 246 -88l-2 170q-3 132 -6 152q-10 77 -40.5 109t-96.5 32q-108 0 -180 -33q-68 -36 -97 -65q-23 18 -39 79q-14 65 -14 95q115 84 285 84q75 0 145 -25q126 -42 166 -180q25 -74 25 -248q0 -29 -3.5 -188t-3.5 -191 q0 -367 84 -436q-135 -87 -213 -82l-2 264q-124 -156 -266 -156q-140 0 -233 87t-93 223zM199 1477q0 47 30 80.5t78 33.5q38 0 62.5 -23.5t23.5 -58.5q-4 -62 -31.5 -102t-89.5 -33q-32 3 -52.5 37.5t-20.5 65.5zM215 328q0 -112 48 -167t130 -55q73 0 146 78t98 156l20 68 l-57 59q-38 40 -89.5 67t-102.5 27q-53 0 -98.5 -38t-70 -91.5t-24.5 -103.5zM549 1561q21 27 72 30q47 0 67 -28q42 -62 -2 -166q-11 -33 -63 -37q-46 0 -70 24q-27 27 -27 86t23 91z" />
<glyph unicode="&#xe5;" horiz-adv-x="942" d="M63 287q0 100 39.5 187t98.5 138q84 72 200 72q130 0 246 -88l-2 170q-3 132 -6 152q-10 77 -40.5 109t-96.5 32q-108 0 -180 -33q-68 -36 -97 -65q-23 18 -39 79q-14 65 -14 95q115 84 285 84q75 0 145 -25q126 -42 166 -180q25 -74 25 -248q0 -29 -3.5 -188t-3.5 -191 q0 -367 84 -436q-135 -87 -213 -82l-2 264q-124 -156 -266 -156q-140 0 -233 87t-93 223zM172 1604q0 46 5.5 87.5t22.5 88.5t44.5 80.5t76 56t113.5 22.5q145 0 217 -86.5t72 -232.5q0 -94 -68 -169t-180 -75q-51 0 -97 8.5t-96 31t-80 70.5t-30 118zM215 328 q0 -112 48 -167t130 -55q73 0 146 78t98 156l20 68l-57 59q-38 40 -89.5 67t-102.5 27q-53 0 -98.5 -38t-70 -91.5t-24.5 -103.5zM289 1604q0 -63 47 -90t139 -27q35 0 61.5 14t40.5 35.5t20.5 42.5t6.5 41q0 104 -38 156.5t-132 52.5q-145 0 -145 -225z" />
<glyph unicode="&#xe6;" horiz-adv-x="1529" d="M66 336q0 68 19 132.5t49.5 112.5t68.5 81q81 69 196 69q132 0 250 -92l-2 178q0 52 -2 110t-2 64q0 54 -23.5 89t-58.5 48q-31 7 -57 7q-74 0 -185 -54q-66 -35 -96 -65q-19 16 -35 78q-14 65 -14 92q116 84 283 84q63 0 143 -25q65 -21 109 -71t61 -125 q111 147 277 135q195 -12 294 -163t95 -433l-629 -119q39 -168 168.5 -253t331.5 -85q48 0 120 10q-14 -107 -86 -229l-67 12q-144 26 -262 86q-82 41 -144.5 101t-97.5 125q-5 8 -25 53q-21 -49 -75 -107q-60 -65 -135 -110t-146 -45q-138 0 -230.5 87t-92.5 222zM211 377 q0 -114 49 -169.5t133 -55.5q39 0 80 24t73.5 60.5t57 76.5t35.5 74l20 70l-2 12q-3 2 -30 26.5t-41 36.5q-97 82 -178 82q-54 0 -101 -38.5t-71.5 -93t-24.5 -105.5zM793 612l477 88q-6 167 -31 226q-47 110 -180 116q-127 9 -203 -153q-66 -135 -63 -277z" />
<glyph unicode="&#xe7;" horiz-adv-x="862" d="M68 492q3 40 4.5 59t6 56.5t8.5 57.5t11 52.5t15.5 53.5t21.5 49t28.5 49t36.5 44t46 43q128 97 271.5 86t250.5 -118l29 -29l-82 -121l-47 49q-86 86 -138 80q-44 -5 -80.5 -18t-64 -28.5t-50 -42t-37 -48.5t-27 -58.5t-19 -62t-12.5 -69.5t-8.5 -69t-6.5 -73 q-5 -52 2.5 -112.5t24.5 -107.5t37 -62q31 -20 123 -25q97 -6 139 10q135 50 248 119l22 -158q-32 -20 -105.5 -52.5t-135.5 -51.5q-30 -6 -31 -6q22 -38 31.5 -68.5t6 -67.5t-23.5 -79q-16 -35 -39.5 -62t-57 -47.5t-74 -23t-91.5 11.5q-47 16 -69.5 44.5t-6.5 63.5 t62.5 56.5t89.5 7.5q47 -14 65 -60q24 24 33 52t3.5 57t-20 57t-38.5 56h-19q-56 5 -115 19.5t-83 33.5q-70 53 -108.5 185.5t-26.5 267.5z" />
<glyph unicode="&#xe8;" horiz-adv-x="954" d="M47 629q0 126 45 241q126 332 373 314q390 -24 381 -592l-639 -119q80 -342 475 -342q49 0 121 10q-11 -105 -84 -229l-70 12q-145 26 -260 86q-168 83 -244 226q-98 186 -98 393zM170 1632l106 154l447 -471l-80 -80zM188 612l478 88q-3 159 -31 226q-47 110 -180 116 q-124 9 -203 -153q-67 -137 -64 -277z" />
<glyph unicode="&#xe9;" horiz-adv-x="972" d="M47 629q0 126 45 241q126 332 373 314q390 -24 381 -592l-639 -119q80 -342 475 -342q49 0 121 10q-11 -105 -84 -229l-70 12q-145 26 -260 86q-168 83 -244 226q-98 186 -98 393zM188 612l478 88q-3 159 -31 226q-47 110 -180 116q-124 9 -203 -153q-67 -137 -64 -277z M270 1360l447 471l106 -154l-471 -397z" />
<glyph unicode="&#xea;" horiz-adv-x="948" d="M47 629q0 126 45 241q126 332 373 314q390 -24 381 -592l-639 -119q80 -342 475 -342q49 0 121 10q-11 -105 -84 -229l-70 12q-145 26 -260 86q-168 83 -244 226q-98 186 -98 393zM139 1380l275 291h96l289 -299l-94 -82l-240 248l-199 -238zM188 612l478 88 q-3 159 -31 226q-47 110 -180 116q-124 9 -203 -153q-67 -137 -64 -277z" />
<glyph unicode="&#xeb;" horiz-adv-x="960" d="M47 629q0 126 45 241q126 332 373 314q390 -24 381 -592l-639 -119q80 -342 475 -342q49 0 121 10q-11 -105 -84 -229l-70 12q-145 26 -260 86q-168 83 -244 226q-98 186 -98 393zM188 612l478 88q-3 159 -31 226q-47 110 -180 116q-124 9 -203 -153q-67 -137 -64 -277z M207 1401q0 47 30 81t78 34q38 0 62.5 -23.5t23.5 -58.5q-4 -63 -31 -103t-89 -33q-32 3 -53 37.5t-21 65.5zM557 1485q22 28 72 31q46 0 67 -29q42 -62 -2 -166q-11 -33 -63 -37q-45 0 -70 25q-27 27 -27 85.5t23 90.5z" />
<glyph unicode="&#xec;" horiz-adv-x="483" d="M-190 1616l106 153l446 -471l-79 -79zM166 958q37 9 82.5 10t77.5 -7l6 -70q1 -19 10 -461q3 -73 -4 -512q-56 -12 -141 6q0 118 1 154.5t-4.5 191.5t-8 217t-9.5 233t-10 238z" />
<glyph unicode="&#xed;" horiz-adv-x="577" d="M102 1235l447 471l106 -154l-471 -397zM166 958q37 9 82.5 10t77.5 -7l6 -70q1 -19 10 -461q3 -73 -4 -512q-56 -12 -141 6q0 118 1 154.5t-4.5 191.5t-8 217t-9.5 233t-10 238z" />
<glyph unicode="&#xee;" horiz-adv-x="528" d="M-100 1286l274 291h96l289 -299l-94 -82l-240 248l-198 -238zM166 958q37 9 82.5 10t77.5 -7l6 -70q1 -19 10 -461q3 -73 -4 -512q-56 -12 -141 6q0 118 1 154.5t-4.5 191.5t-8 217t-9.5 233t-10 238z" />
<glyph unicode="&#xef;" horiz-adv-x="577" d="M-16 1401q0 47 30 81t78 34q38 0 62.5 -23.5t23.5 -58.5q-4 -62 -31.5 -102.5t-89.5 -33.5q-32 3 -52.5 37.5t-20.5 65.5zM166 958q37 9 82.5 10t77.5 -7l6 -70q1 -19 10 -461q3 -73 -4 -512q-56 -12 -141 6q0 118 1 154.5t-4.5 191.5t-8 217t-9.5 233t-10 238zM334 1485 q22 28 72 31q46 0 67 -29q42 -62 -2 -166q-11 -33 -63 -37q-45 0 -70 25q-27 27 -27 85.5t23 90.5z" />
<glyph unicode="&#xf0;" horiz-adv-x="985" d="M49 535q0 174 131 296q129 123 305 111q118 -9 242 -115q-44 171 -195 310q-70 -70 -122 -131l-121 90q25 29 127 135q-79 57 -191 108l90 127q127 -51 215 -116q142 142 185 194l121 -90q-29 -37 -191 -203q219 -229 250 -546q7 -78 7.5 -138t-7.5 -131t-33.5 -136.5 t-68.5 -123.5q-114 -153 -299 -153q-186 0 -320 165q-125 152 -125 347zM219 571q0 -25 6 -102q12 -107 101 -190q40 -40 84.5 -63t99.5 -26.5t108 29.5q69 37 99.5 105t30.5 180q0 34 -13 84q-24 78 -117 145.5t-190 67.5q-100 0 -156 -80q-53 -77 -53 -150z" />
<glyph unicode="&#xf1;" horiz-adv-x="972" d="M49 1280q12 40 19 61t22 57t27.5 56t34 46t44.5 39.5t55.5 22.5t70.5 9q65 0 155 -74q59 -47 115 -51q30 -3 67 5.5t64 31.5q65 59 53 166l129 16q7 -85 -22.5 -161t-87.5 -126q-62 -54 -154.5 -62t-169.5 25q-20 8 -48 32t-51.5 44.5t-49 35t-50.5 6t-47 -43.5 q-19 -30 -36.5 -85t-24.5 -95zM86 1006q73 16 150 8q4 -105 6 -226q204 301 409 222q39 -15 70 -36.5t52.5 -44t36.5 -54t23.5 -57.5t11.5 -65t3 -65.5t-4 -69.5t-7.5 -67t-9.5 -67q-3 -18 -4 -27q-11 -83 -19.5 -246.5t-2.5 -243.5l-174 33q4 24 8.5 105t9.5 126 q6 56 22 147.5t17 98.5q2 13 7 47.5t8 54.5t5.5 55t0.5 57.5t-8 52t-17.5 49t-31.5 38t-48 29.5q-41 16 -88 0t-94.5 -59t-80.5 -79t-75 -88q-11 -14 -16 -20v-129l-13 -278l3 -213l-144 -12q19 375 21 514q2 62 -5 189.5t-14 224.5z" />
<glyph unicode="&#xf2;" horiz-adv-x="978" d="M59 588q0 175 131 297q128 122 306 110q123 -12 241 -116q117 -99 144 -199q16 -55 16 -125q0 -184 -104 -324q-119 -155 -289 -155q-188 0 -320 166q-125 152 -125 346zM76 1559l106 153l447 -471l-80 -80zM229 625q0 -12 7 -105q11 -95 89 -178t173 -96q70 -10 131 26 q55 27 80 72q47 73 47 213q0 38 -11 84q-25 83 -116 145q-92 68 -191 68t-155 -80q-54 -82 -54 -149z" />
<glyph unicode="&#xf3;" horiz-adv-x="966" d="M59 588q0 175 131 297q128 122 306 110q123 -12 241 -116q117 -99 144 -199q16 -55 16 -125q0 -184 -104 -324q-119 -155 -289 -155q-188 0 -320 166q-125 152 -125 346zM229 625q0 -12 7 -105q11 -95 89 -178t173 -96q70 -10 131 26q55 27 80 72q47 73 47 213 q0 38 -11 84q-25 83 -116 145q-92 68 -191 68t-155 -80q-54 -82 -54 -149zM350 1204l447 471l106 -153l-471 -398z" />
<glyph unicode="&#xf4;" horiz-adv-x="972" d="M59 588q0 175 131 297q128 122 306 110q123 -12 241 -116q117 -99 144 -199q16 -55 16 -125q0 -184 -104 -324q-119 -155 -289 -155q-188 0 -320 166q-125 152 -125 346zM141 1237l275 291h96l289 -299l-94 -82l-240 248l-199 -238zM229 625q0 -12 7 -105q11 -95 89 -178 t173 -96q70 -10 131 26q55 27 80 72q47 73 47 213q0 38 -11 84q-25 83 -116 145q-92 68 -191 68t-155 -80q-54 -82 -54 -149z" />
<glyph unicode="&#xf5;" horiz-adv-x="966" d="M18 1227q12 40 19 61t22 57t27.5 56t34 46t44.5 39.5t55.5 22.5t70.5 9q65 0 155 -74q59 -47 115 -51q30 -3 67 5.5t64 31.5q65 59 53 165l129 17q7 -85 -22.5 -161t-87.5 -126q-62 -54 -154.5 -62t-169.5 25q-23 10 -60 42t-64 55t-60.5 21.5t-60.5 -44.5 q-19 -30 -37 -85.5t-25 -94.5zM59 588q0 175 131 297q128 122 306 110q123 -12 241 -116q117 -99 144 -199q16 -55 16 -125q0 -184 -104 -324q-119 -155 -289 -155q-188 0 -320 166q-125 152 -125 346zM229 625q0 -12 7 -105q11 -95 89 -178t173 -96q70 -10 131 26 q55 27 80 72q47 73 47 213q0 38 -11 84q-25 83 -116 145q-92 68 -191 68t-155 -80q-54 -82 -54 -149z" />
<glyph unicode="&#xf6;" horiz-adv-x="966" d="M59 588q0 175 131 297q128 122 306 110q123 -12 241 -116q117 -99 144 -199q16 -55 16 -125q0 -184 -104 -324q-119 -155 -289 -155q-188 0 -320 166q-125 152 -125 346zM176 1303q0 47 30.5 80.5t78.5 33.5q38 0 62.5 -23.5t23.5 -58.5q-4 -62 -31.5 -102t-89.5 -33 q-32 3 -53 37.5t-21 65.5zM229 625q0 -12 7 -105q11 -95 89 -178t173 -96q70 -10 131 26q55 27 80 72q47 73 47 213q0 38 -11 84q-25 83 -116 145q-92 68 -191 68t-155 -80q-54 -82 -54 -149zM526 1386q22 28 72 31q48 0 68 -28q42 -62 -2 -166q-11 -33 -64 -37 q-46 0 -70 24q-27 27 -27 85.5t23 90.5z" />
<glyph unicode="&#xf7;" d="M45 729q75 7 368.5 15.5t366.5 15.5l15 -142q-76 -7 -371.5 -14.5t-364.5 -13.5zM240 1102q0 53 38 92t99 39q48 0 85.5 -35.5t37.5 -85.5q0 -55 -36.5 -97t-96.5 -42q-58 0 -92.5 38t-34.5 91zM305 268q0 53 38 92t99 39q48 0 85.5 -35t37.5 -85q0 -55 -36.5 -97.5 t-96.5 -42.5q-58 0 -92.5 38t-34.5 91z" />
<glyph unicode="&#xf8;" horiz-adv-x="985" d="M-33 -225q119 241 242 495q-74 74 -117 177t-43 210q0 175 131 297q126 123 305 111q40 -3 70 -14l231 567q47 -12 73.5 -34t55.5 -73q-127 -282 -231 -528q67 -48 119 -112t67 -121q17 -55 17 -125q0 -180 -105 -324q-119 -156 -288 -156q-91 0 -168 41l-232 -475z M219 694q0 -26 6 -102q9 -84 64 -154q120 252 162 355l49 120q-42 11 -72 11q-100 0 -156 -80q-53 -77 -53 -150zM401 344q117 -60 217 -2q56 30 80 74q47 70 47 211q0 46 -10 84q-21 77 -106 141l-47 -113q-26 -65 -181 -395z" />
<glyph unicode="&#xf9;" horiz-adv-x="899" d="M76 459q0 61 7 153.5t18 208.5t14 162q90 0 137 -12q-25 -348 -25 -443q0 -48 2 -80.5t9.5 -66.5t21 -54t37.5 -33t57 -13q64 0 129 45q67 48 90 102q11 33 37.5 169t28.5 179q80 16 137 -4q-6 -177 12 -330q19 -175 58 -381q-44 -23 -135 -26q-5 28 -18.5 105.5 t-21 124.5t-12.5 91q-25 -47 -59 -88t-77 -75.5t-97.5 -55t-112.5 -20.5q-237 0 -237 342zM133 1489l107 153l446 -471l-80 -79z" />
<glyph unicode="&#xfa;" horiz-adv-x="899" d="M76 459q0 61 7 153.5t18 208.5t14 162q90 0 137 -12q-25 -348 -25 -443q0 -48 2 -80.5t9.5 -66.5t21 -54t37.5 -33t57 -13q64 0 129 45q67 48 90 102q11 33 37.5 169t28.5 179q80 16 137 -4q-6 -177 12 -330q19 -175 58 -381q-44 -23 -135 -26q-5 28 -18.5 105.5 t-21 124.5t-12.5 91q-25 -47 -59 -88t-77 -75.5t-97.5 -55t-112.5 -20.5q-237 0 -237 342zM289 1141l446 471l107 -154l-471 -397z" />
<glyph unicode="&#xfb;" horiz-adv-x="905" d="M76 459q0 61 7 153.5t18 208.5t14 162q90 0 137 -12q-25 -348 -25 -443q0 -48 2 -80.5t9.5 -66.5t21 -54t37.5 -33t57 -13q64 0 129 45q67 48 90 102q11 33 37.5 169t28.5 179q80 16 137 -4q-6 -177 12 -330q19 -175 58 -381q-44 -23 -135 -26q-5 28 -18.5 105.5 t-21 124.5t-12.5 91q-25 -47 -59 -88t-77 -75.5t-97.5 -55t-112.5 -20.5q-237 0 -237 342zM94 1214l275 291h96l289 -299l-95 -82l-239 248l-199 -237z" />
<glyph unicode="&#xfc;" horiz-adv-x="905" d="M76 459q0 61 7 153.5t18 208.5t14 162q90 0 137 -12q-25 -348 -25 -443q0 -48 2 -80.5t9.5 -66.5t21 -54t37.5 -33t57 -13q64 0 129 45q67 48 90 102q11 33 37.5 169t28.5 179q80 16 137 -4q-6 -177 12 -330q19 -175 58 -381q-44 -23 -135 -26q-5 28 -18.5 105.5 t-21 124.5t-12.5 91q-25 -47 -59 -88t-77 -75.5t-97.5 -55t-112.5 -20.5q-237 0 -237 342zM184 1272q0 47 30.5 80.5t78.5 33.5q38 0 62.5 -23t23.5 -58q-2 -28 -8 -51.5t-19 -45t-37 -32.5t-57 -7q-32 3 -53 37.5t-21 65.5zM535 1356q21 27 71 30q24 0 40 -5.5t28 -22.5 q10 -14 14.5 -31.5t5 -34.5t-2.5 -35.5t-8 -34t-11 -30.5q-11 -33 -64 -37q-44 0 -69 25q-27 27 -27 85.5t23 90.5z" />
<glyph unicode="&#xfd;" horiz-adv-x="1091" d="M37 1001q75 44 164 29q24 -214 119.5 -401t232.5 -281q184 434 342 758q83 -9 127 -59l-31 -64q-243 -507 -561 -1294q-6 -14 -248 -635q-90 6 -129 57q12 28 26.5 59t30 68.5t42.5 114.5q118 319 149 391l197 475q-204 123 -334 356q-124 217 -127 426zM430 1194 l447 471l106 -154l-471 -397z" />
<glyph unicode="&#xfe;" horiz-adv-x="989" d="M74 1436l194 39q-2 -9 -3 -108.5t-2.5 -214t-4.5 -151.5q146 134 303 134q123 0 205 -88q139 -151 139 -361q0 -146 -69 -272q-121 -226 -330 -226q-118 0 -260 95l-2 -93q15 -169 18 -411q0 -89 -26 -420q-74 -6 -142 12q21 260 27 412q3 97 -8 235q-3 46 -5.5 88 t-4 61.5t-1.5 22.5q0 83 2 220v342q0 589 -30 684zM246 455l33 -27q138 -108 227 -102q72 2 133.5 63.5t94 148t32.5 169.5q0 69 -21 112q-44 90 -88 133.5t-86 40.5q-100 -6 -188 -67q-90 -60 -121 -152l-16 -47v-272z" />
<glyph unicode="&#xff;" horiz-adv-x="1069" d="M37 1001q75 44 164 29q24 -214 119.5 -401t232.5 -281q184 434 342 758q83 -9 127 -59l-31 -64q-243 -507 -561 -1294q-6 -14 -248 -635q-90 6 -129 57q12 28 26.5 59t30 68.5t42.5 114.5q118 319 149 391l197 475q-204 123 -334 356q-124 217 -127 426zM244 1237 q0 47 30 81t78 34q38 0 62.5 -23.5t23.5 -58.5q-4 -62 -31.5 -102t-89.5 -33q-32 3 -52.5 37t-20.5 65zM594 1321q22 28 72 31q46 0 67 -29q42 -62 -2 -166q-11 -33 -63 -37q-45 0 -70 25q-27 27 -27 85.5t23 90.5z" />
<glyph unicode="&#x152;" horiz-adv-x="1771" d="M68 621q0 527 452 700q77 29 166 29q146 0 264 -78q42 -6 129 -10q141 -8 623 -5q13 -66 -4 -141l-70 -2q-24 0 -125 -0.5t-204 -0.5t-187 1q126 -168 129 -420q264 12 399 27q36 -61 19 -139l-70 -7q-108 -14 -360 -26q-35 -250 -139 -412q217 50 639 90q24 -52 14 -139 q-205 -22 -445.5 -63.5t-402.5 -90.5q-130 -86 -281 -86q-170 0 -301 101q-67 51 -117 131t-76.5 173.5t-39 184.5t-12.5 183zM217 616q0 -87 9 -159t30.5 -145t63 -135.5t102.5 -110.5q90 -72 219 -72q151 0 264 131q125 152 168 438q8 57 8 127q0 229 -102 369 q-103 145 -256 145q-53 0 -117 -22q-186 -72 -287.5 -217t-101.5 -349z" />
<glyph unicode="&#x153;" horiz-adv-x="1576" d="M49 575q0 175 131 297q116 111 305 111q107 0 242 -115l47 -45q130 321 369 303q392 -24 383 -594l-639 -116q80 -342 475 -342q49 0 121 10q-15 -112 -84 -229l-70 12q-151 27 -260 84q-104 53 -168.5 121.5t-103.5 167.5q-9 -9 -15 -21q-116 -156 -288 -156 q-185 0 -320 166q-125 152 -125 346zM219 612q0 -26 6 -102q12 -108 101 -191q24 -24 49 -41.5t55 -30t60 -16t63 3t65 25.5q69 37 99.5 105t30.5 180q0 34 -13 84q-24 78 -117 145.5t-190 67.5q-100 0 -156 -80q-53 -77 -53 -150zM868 555l478 86q-3 160 -31 227 q-46 108 -180 117q-123 9 -203 -156q-67 -134 -64 -274z" />
<glyph unicode="&#x178;" horiz-adv-x="1089" d="M27 1331q63 121 125 146l49 -50q101 -154 248.5 -338.5t232.5 -257.5q36 95 283 592q93 -25 127 -61l-33 -64q-14 -26 -28 -54.5t-30.5 -63.5t-29.5 -62.5t-33 -73t-32 -72.5t-36.5 -82.5t-36 -82t-39.5 -92t-40 -92.5q-175 -413 -353 -811l-30 -66l-127 61l30 64 q108 224 351 809l2 2zM326 1655q0 47 30 80.5t78 33.5q38 0 62.5 -23t23.5 -58q-4 -62 -31.5 -102.5t-89.5 -33.5q-32 3 -52.5 37.5t-20.5 65.5zM676 1739q21 27 72 30q47 0 67 -28q42 -62 -2 -166q-11 -33 -63 -37q-45 0 -70 25q-27 27 -27 85.5t23 90.5z" />
<glyph unicode="&#x2c6;" horiz-adv-x="1003" d="M160 1294l274 291h96l289 -299l-94 -82l-240 248l-198 -238z" />
<glyph unicode="&#x2dc;" horiz-adv-x="1095" d="M104 1180q12 40 19 61t21.5 57t27.5 56t34.5 45.5t44.5 39t55.5 22.5t70.5 9q66 0 155 -73q59 -47 115 -51q31 -4 67.5 4.5t63.5 31.5q65 59 53 166l130 17q7 -85 -23 -161t-88 -126q-62 -54 -154.5 -62t-169.5 25q-23 10 -60 42t-64 55t-60.5 21.5t-60.5 -44.5 q-19 -30 -37 -85.5t-25 -94.5z" />
<glyph unicode="&#x2000;" horiz-adv-x="1110" />
<glyph unicode="&#x2001;" horiz-adv-x="2220" />
<glyph unicode="&#x2002;" horiz-adv-x="1110" />
<glyph unicode="&#x2003;" horiz-adv-x="2220" />
<glyph unicode="&#x2004;" horiz-adv-x="740" />
<glyph unicode="&#x2005;" horiz-adv-x="555" />
<glyph unicode="&#x2006;" horiz-adv-x="370" />
<glyph unicode="&#x2007;" horiz-adv-x="370" />
<glyph unicode="&#x2008;" horiz-adv-x="277" />
<glyph unicode="&#x2009;" horiz-adv-x="444" />
<glyph unicode="&#x200a;" horiz-adv-x="123" />
<glyph unicode="&#x2010;" d="M66 662q69 7 322.5 14.5t328.5 15.5l14 -141q-73 -7 -325.5 -15.5t-327.5 -15.5z" />
<glyph unicode="&#x2011;" d="M66 662q69 7 322.5 14.5t328.5 15.5l14 -141q-73 -7 -325.5 -15.5t-327.5 -15.5z" />
<glyph unicode="&#x2012;" d="M66 662q69 7 322.5 14.5t328.5 15.5l14 -141q-73 -7 -325.5 -15.5t-327.5 -15.5z" />
<glyph unicode="&#x2013;" horiz-adv-x="1218" d="M63 573l3 142q93 -3 296 0t473.5 10.5t282.5 7.5l2 -141q-31 -1 -216 -6t-305.5 -8t-308.5 -6t-227 1z" />
<glyph unicode="&#x2014;" horiz-adv-x="1548" d="M63 573l3 146q235 -4 714.5 2t716.5 16v-145q-235 -10 -715 -16.5t-719 -2.5z" />
<glyph unicode="&#x2018;" horiz-adv-x="514" d="M92 1262q21 148 86 236t203 136l61 -84q-58 -19 -132 -90.5t-83 -128.5q-6 -50 6 -100l35 -2q63 -5 97.5 -37t25.5 -94q-8 -55 -40.5 -88.5t-86.5 -26.5q-73 11 -115.5 53.5t-54.5 98.5t-2 127z" />
<glyph unicode="&#x2019;" horiz-adv-x="440" d="M74 1559q0 57 27 94t81 37q108 0 158.5 -70.5t50.5 -181.5q0 -151 -51.5 -247t-181.5 -163l-74 76q56 26 119 108t63 140q0 50 -18 96l-35 -2q-63 -3 -101 24t-38 89z" />
<glyph unicode="&#x201a;" horiz-adv-x="458" d="M51 440q0 57 27.5 94t81.5 37q108 0 158.5 -70.5t50.5 -181.5q0 -151 -52 -247.5t-182 -161.5l-74 76q56 27 119.5 108t63.5 139q0 48 -19 97l-35 -2q-139 -7 -139 112z" />
<glyph unicode="&#x201c;" horiz-adv-x="921" d="M92 1282q21 148 86 236.5t203 136.5l61 -84q-58 -19 -132 -90.5t-83 -128.5q-6 -51 6 -101l35 -2q63 -5 97.5 -37t25.5 -94q-8 -55 -40.5 -88t-86.5 -26q-73 11 -115.5 53t-54.5 98t-2 127zM504 1223q22 152 86.5 245t202.5 140l61 -97q-59 -18 -132.5 -90t-82.5 -129 q-6 -47 4 -100l35 -2q64 -5 98 -36.5t25 -94.5q-8 -55 -40.5 -88.5t-86.5 -26.5q-73 11 -115 53.5t-53.5 98.5t-1.5 127z" />
<glyph unicode="&#x201d;" horiz-adv-x="927" d="M82 1446q-7 56 15.5 96t76.5 47q107 13 166 -51.5t72 -173.5q18 -151 -21.5 -258t-159.5 -188l-84 77q52 32 105 121t47 146q-4 37 -31 96l-35 -8q-137 -25 -151 96zM494 1495q-7 56 15.5 95.5t76.5 45.5q107 13 165.5 -50.5t71.5 -172.5q20 -149 -20 -251.5t-162 -184.5 l-82 67q52 31 105.5 120.5t46.5 146.5q-6 48 -31 94l-35 -6q-137 -25 -151 96z" />
<glyph unicode="&#x201e;" horiz-adv-x="929" d="M86 397q-7 56 15.5 96.5t76.5 47.5q73 9 125.5 -21.5t78.5 -82.5t34 -122q18 -151 -21 -258t-159 -188l-84 78q53 33 104.5 121t44.5 147q-5 41 -29 94l-34 -6q-138 -25 -152 94zM498 446q-7 56 15.5 96.5t76.5 47.5q73 9 125 -21t78 -82t34 -122q18 -150 -21.5 -252.5 t-160.5 -182.5l-82 66q52 33 105 121t47 145q-4 39 -31 94l-35 -6q-137 -25 -151 96z" />
<glyph unicode="&#x2022;" horiz-adv-x="532" d="M96 516q0 31 8 62q18 46 68 92.5t98 46.5q37 0 82.5 -23t73.5 -55q12 -14 17 -37t5.5 -34.5t0.5 -43.5q0 -105 -66 -168q-41 -14 -94 -14q-66 0 -127 20q-66 54 -66 154z" />
<glyph unicode="&#x2026;" horiz-adv-x="1445" d="M113 227q0 52 32.5 87.5t85.5 35.5q44 0 78 -22.5t43 -61.5q9 -49 -33 -105.5t-94 -56.5q-53 0 -82.5 36t-29.5 87zM563 145q0 48 33 82.5t84 34.5q44 0 79 -22.5t42 -59.5q11 -46 -30.5 -103t-94.5 -57t-83 36.5t-30 88.5zM1042 215q0 49 32.5 83t84.5 34q43 0 78 -21.5 t45 -58.5q8 -48 -34 -105t-95 -57q-50 0 -80.5 37.5t-30.5 87.5z" />
<glyph unicode="&#x202f;" horiz-adv-x="444" />
<glyph unicode="&#x2039;" horiz-adv-x="825" d="M68 502l594 499l83 -114l-432 -383l471 -344l-79 -117z" />
<glyph unicode="&#x203a;" horiz-adv-x="825" d="M68 885l79 116l637 -458l-594 -500l-84 115l435 383z" />
<glyph unicode="&#x205f;" horiz-adv-x="555" />
<glyph unicode="&#x20ac;" horiz-adv-x="1425" d="M29 379l18 151q78 7 221 13q-13 105 -10 196l-195 2l33 154q101 -2 183 -2q76 350 460 510q84 37 183 43q246 18 442 -160l-104 -125q-125 143 -291 131q-65 -3 -129 -30q-289 -120 -389 -363l481 27l-31 -156q-333 -19 -483 -25q-8 -93 8 -196q406 12 483 20 q-11 -54 -16 -149q-86 -10 -426 -21q60 -162 203 -252q101 -63 243 -53q164 12 289 158l111 -109q-186 -189 -426 -204q-187 -12 -338 75q-180 108 -252 379q-145 -5 -268 -14z" />
<glyph unicode="&#x2122;" horiz-adv-x="1685" d="M25 1360l649 16l4 -123l-244 -6l21 -622l-123 -4l-21 622l-282 -6zM700 559q12 136 46 356t63 326l102 -10q37 -80 102.5 -198t121.5 -197q54 93 119 248t100 262l102 30q35 -105 81.5 -332.5t66.5 -369.5l-123 -15q-21 167 -88 428q-141 -337 -213 -442l-88 45 q-102 125 -199 293q-53 -257 -70 -436z" />
<glyph unicode="&#xe000;" horiz-adv-x="1044" d="M0 0v1044h1044v-1044h-1044z" />
<glyph unicode="&#xfb01;" horiz-adv-x="1144" d="M41 709l33 2l121 14q-3 70 -20 294t-17 314q0 66 14 125t38.5 103.5t57 80t69.5 58t76.5 34t78.5 11.5q31 0 79.5 -5.5t77.5 -15.5t58.5 -23.5t63 -34t62 -48.5t44.5 -59q1 -2 19 -35.5t30 -59.5t26.5 -70t20.5 -85q6 -18 6 -37q0 -25 -10.5 -49t-28 -41.5t-41.5 -28 t-49 -10.5q-53 0 -93 38.5t-40 90.5q0 37 24 69.5t58 47.5q-6 19 -45 100q-33 64 -150 102q-43 15 -112 15q-51 0 -90.5 -33t-60.5 -84t-31.5 -102.5t-10.5 -98.5q0 -165 35 -545q65 11 237 54l70 16q40 -61 31 -139l-70 -17q-75 -17 -256 -55q16 -273 51 -645l9 -72 q-68 -28 -142 -14l-6 72q-42 419 -53 641q-8 0 -148 -17q-34 46 -16 142zM811 887q20 0 67 8.5t72 5.5l11 -70q1 -12 7 -60.5t14.5 -126t16.5 -163.5q14 -169 31 -510q-46 -16 -141 -6q-11 311 -78 922z" />
<glyph unicode="&#xfb02;" horiz-adv-x="1118" d="M41 709l33 2l121 14q-3 58 -6.5 107t-9 108.5t-7.5 87.5q-3 39 -6 72.5t-4.5 47t-2.5 29t-1 33.5q0 79 26.5 147.5t69 115.5t95.5 81t105.5 50t100.5 16q131 0 221 -53l-6 51l-10 70q53 23 188 14l10 -70q-18 -224 -6 -422q2 -30 25 -290t31 -414q2 -49 1 -146.5 t1 -146.5q6 -223 30 -287l-161 -14q-5 145 -9 254l0.5 8.5t0.5 22.5t0.5 34.5t0.5 49t-0.5 61t-2 75t-3.5 87.5q-5 93 -26 341.5t-29 356.5q-6 107 -18 217q-38 32 -111 52t-125 20q-52 1 -94 -14t-76.5 -49t-56 -95.5t-27.5 -148.5q-1 -47 -2 -65.5t3 -67t7 -78t10 -99.5 t13 -131q65 11 237 54l70 16q40 -61 31 -139l-70 -17q-75 -17 -256 -55q20 -333 25 -403q14 -224 41 -404l12 -71q-65 -32 -139 -23l-13 70q-7 50 -11.5 84t-9 66t-8 64t-6 54t-5 62t-4.5 62t-5 79.5t-4.5 88.5t-6 116t-7.5 137q-8 0 -148 -17q-34 46 -16 142z" />
</font>
</defs>
</svg>
