<?xml version="1.0" standalone="no"?>
<!DOCTYPE svg PUBLIC "-//W3C//DTD SVG 1.1//EN" "http://www.w3.org/Graphics/SVG/1.1/DTD/svg11.dtd" >
<svg xmlns="http://www.w3.org/2000/svg">
<metadata></metadata>
<defs>
<font id="EarwigFactoryRegular" horiz-adv-x="1394" >
<font-face units-per-em="2048" ascent="1638" descent="-410" />
<missing-glyph horiz-adv-x="882" />
<glyph unicode="&#x28;C&#x29;" horiz-adv-x="1939" d="M35 1493l1392 391l480 -1499l-1424 -399zM313 1208q0 -131 93 -424q52 -159 94 -257.5t93.5 -168.5t111 -98.5t139.5 -28.5q93 0 297 58q105 29 172.5 52t126 53t90 64.5t48.5 81.5t17 109q0 146 -98 447q-42 130 -75.5 215.5t-70 153.5t-76 104.5t-86.5 54.5t-108 18 q-109 0 -333 -65q-98 -29 -162.5 -52.5t-120.5 -54.5t-87 -67t-48 -84t-17 -111zM444 1186q0 97 72.5 147.5t274.5 110.5q151 45 253 45q39 0 70 -9t55.5 -23t47.5 -44t39.5 -58.5t37 -81.5t35.5 -98t39 -122q35 -113 48.5 -159.5t26.5 -106.5t13 -99q0 -97 -73 -150.5 t-269 -107.5q-178 -51 -266 -51q-53 0 -92 18t-65 42.5t-55 90.5t-46.5 118t-54.5 169q-37 118 -49.5 160.5t-27 106t-14.5 102.5zM678 975q0 -165 87.5 -282.5t219.5 -117.5q123 0 189 71.5t71 203.5l-90 4q-14 -174 -168 -174q-84 0 -144.5 86.5t-60.5 202.5q0 82 41 141 t123 59q72 0 125 -86l86 50q-35 66 -91 102.5t-122 36.5q-116 0 -191 -85t-75 -212z" />
<glyph unicode="&#x28;R&#x29;" horiz-adv-x="1140" d="M-96 1440l1138 159l177 -1282l-1137 -159zM147 1038q0 -72 19 -215q23 -169 54 -255.5t84 -123t147 -36.5q73 0 161 14q68 10 113.5 20t85.5 25t63.5 33.5t41 46.5t24 64t6.5 85q0 76 -20 236q-14 103 -28 167.5t-34 116.5t-48.5 78t-66.5 39t-94 13t-172 -17 q-81 -11 -131 -23t-93.5 -32.5t-65.5 -51t-34 -75t-12 -109.5zM238 1049q0 40 8 66t23.5 44.5t49 31.5t72.5 22t107 20q54 10 114 10q40 0 69.5 -7t51.5 -26t36 -41.5t26 -64t19.5 -83t16.5 -108.5q19 -160 19 -198q0 -74 -34 -118.5t-120.5 -67.5t-236.5 -23q-28 0 -48.5 3 t-38 13t-29.5 20t-23 33.5t-18 43t-15 58.5t-13 70.5t-14 88.5q-22 138 -22 213zM362 1135l76 -537l94 14l-30 228l37 4l90 -217l98 12l-109 227q28 20 42 43.5t14 67.5q0 86 -32.5 133t-94.5 47q-17 0 -49 -4zM471 1051l72 8q45 0 45 -70q0 -42 -39 -45l-62 -6z" />
<glyph horiz-adv-x="0" />
<glyph horiz-adv-x="2048" />
<glyph horiz-adv-x="882" />
<glyph unicode=" "  horiz-adv-x="882" />
<glyph unicode="&#x09;" horiz-adv-x="882" />
<glyph unicode="&#xa0;" horiz-adv-x="882" />
<glyph unicode="!" horiz-adv-x="843" d="M117 -197v1635h567v-1635h-567zM309 -27h172v226h-172v-226zM309 274h172v891h-172v-891z" />
<glyph unicode="&#x22;" horiz-adv-x="651" d="M76 1741l428 16l53 -1460l-432 -14zM223 1487l10 -363l150 4l-14 363z" />
<glyph unicode="#" horiz-adv-x="1120" d="M104 1716l857 60l96 -1391l-860 -55zM354 928l131 10l-18 -240l119 11l20 235l72 6l-21 -237l119 6l19 239l88 5l10 120l-88 -6l4 43l88 6l8 119l-86 -4l15 227l-117 -8l-19 -229l-71 -4l16 229l-115 -10l-18 -227l-131 -9l-8 -118l129 6l-4 -41l-131 -10zM616 1065l2 43 l70 4l-2 -41z" />
<glyph unicode="$" horiz-adv-x="514" d="M-238 612l27 1084l823 -21l-24 -1081zM63 1139q6 -69 36.5 -112.5t82.5 -55.5l-6 -76l78 -6l2 80q55 6 91 40.5t36 88.5q0 98 -111 131l2 92q19 -23 19 -66l96 -2q-6 135 -110 156l2 72l-84 2l-2 -74q-50 -11 -82.5 -45t-32.5 -86q0 -93 106 -125l-2 -82q-29 13 -32 66z M172 1284q0 28 18 37l-2 -68q-16 6 -16 31zM264 1061l2 74q23 -10 23 -35q0 -30 -25 -39z" />
<glyph unicode="%" horiz-adv-x="966" d="M-90 1671l809 148l192 -1065l-809 -148zM102 1274q0 -69 39.5 -126.5t94.5 -57.5q62 0 95.5 38.5t33.5 106.5q0 73 -37 126.5t-99 53.5q-59 0 -93 -38.5t-34 -102.5zM160 1286q0 72 69 72q36 0 56 -36t20 -81q0 -41 -21 -65.5t-51 -24.5q-32 0 -52.5 35t-20.5 100z M279 838l69 12l209 631l-65 -13zM465 1079q0 -71 39 -126.5t96 -55.5q127 0 127 147q0 73 -40.5 125t-102.5 52q-58 0 -88.5 -39.5t-30.5 -102.5zM520 1094q0 71 72 71q36 0 56 -36.5t20 -81.5q0 -36 -18.5 -63.5t-53.5 -27.5q-31 0 -53.5 37t-22.5 101z" />
<glyph unicode="&#x26;" horiz-adv-x="1067" d="M-141 1143l1083 114l141 -1349l-1083 -115zM68 317q0 -123 95.5 -203.5t227.5 -80.5q201 0 324 160q30 -24 121 -99l196 19q-111 101 -250 209q37 98 37 241q0 76 -16 207l-144 -12q11 -121 11 -178q0 -90 -15 -158q-115 86 -204 168q127 109 127 225q0 81 -63.5 133.5 t-160.5 52.5q-114 0 -175.5 -51t-61.5 -131q0 -109 119 -225q-168 -137 -168 -277zM217 322q0 47 26.5 85t94.5 87q97 -84 260 -209q-70 -109 -203 -109q-71 0 -124.5 41.5t-53.5 104.5zM262 807q0 29 30.5 48t72.5 19q61 0 61 -36q0 -79 -78 -152q-86 80 -86 121z" />
<glyph unicode="'" horiz-adv-x="970" d="M106 1761l703 49l61 -909l-702 -47zM338 1075l240 17l135 407l-254 -16z" />
<glyph unicode="(" horiz-adv-x="776" d="M90 1004l406 71l223 -1251l-404 -72zM301 512q0 -60 7 -110t28 -118.5t67 -153.5t117 -187l96 16q-54 75 -87.5 127t-72.5 126.5t-58 149t-19 150.5q0 96 47 342l-86 -16q-39 -207 -39 -326z" />
<glyph unicode=")" horiz-adv-x="870" d="M104 1092l601 43l100 -1442l-598 -41zM430 821q95 -200 122.5 -283.5t27.5 -175.5q0 -73 -20.5 -163.5t-92.5 -290.5l94 6q54 167 75 257t21 185q0 72 -23 159t-47.5 146t-72.5 164z" />
<glyph unicode="*" horiz-adv-x="864" d="M-94 1047l837 73l80 -907l-839 -74zM164 791l139 -119l-125 -150l68 -57l86 100l12 -149l92 8l-14 149l100 -86l58 72l-150 125l117 139l-72 60l-72 -90l-12 145l-92 -8l14 -144l-90 74z" />
<glyph unicode="+" horiz-adv-x="989" d="M-258 731l1132 207l168 -932l-1134 -203zM104 381l17 -90l268 47l49 -275l90 15l-49 276l275 52l-17 90l-272 -52l-51 265l-86 -15l47 -266z" />
<glyph unicode="," horiz-adv-x="905" d="M106 748l652 47l76 -1098l-652 -45zM373 227l22 -217l117 6q0 -83 -18.5 -119t-81.5 -57l8 -84q104 26 146 83.5t42 162.5q0 28 -4 74l-14 166z" />
<glyph unicode="-" horiz-adv-x="1071" d="M111 743h843l9 -581h-840zM354 383h420v106h-420v-106z" />
<glyph unicode="." horiz-adv-x="729" d="M94 711l408 69l164 -911l-406 -72zM344 170l31 -176l135 22l-35 179z" />
<glyph unicode="/" horiz-adv-x="897" d="M117 -193l28 1221l617 -14l-29 -1221zM285 -78l75 -2l281 799l-80 4z" />
<glyph unicode="0" d="M72 1239l1036 147l215 -1478l-1038 -150zM305 705q0 -191 53 -344.5t148 -240.5t213 -87q175 0 264.5 117t89.5 335q0 76 -12.5 160.5t-43.5 179t-76.5 169t-119 123t-164.5 48.5q-173 0 -262.5 -119.5t-89.5 -340.5zM420 713q0 338 235 338q70 0 124.5 -41.5t86.5 -103 t52.5 -142.5t28 -150t7.5 -135q0 -332 -235 -332q-125 0 -212 149t-87 417z" />
<glyph unicode="1" d="M293 -180v1530h809v-1530h-809zM526 891l54 -100q37 19 75 41.5t86.5 52t67.5 41.5v-924h115v1153q-167 -138 -398 -264z" />
<glyph unicode="2" d="M199 1122l944 33l53 -1493l-944 -33zM262 -31l762 27l-4 145l-381 -10q344 335 344 559q0 112 -77 184t-193 72q-294 0 -324 -338l150 8q0 191 163 191q60 0 99 -26.5t39 -75.5q0 -80 -55.5 -184t-176.5 -212q-1 -1 -41.5 -40.5t-123.5 -121t-181 -178.5z" />
<glyph unicode="3" d="M223 844l760 133l188 -1047l-761 -137zM395 598l115 -39q24 42 71 63t105 21q56 0 86.5 -21.5t30.5 -62.5q0 -91 -205 -129l23 -115q114 19 141 19q60 0 94.5 -30.5t34.5 -86.5q0 -41 -48.5 -76t-146.5 -35q-73 0 -141 23l-61 -102q77 -35 188 -35q93 0 159.5 19.5 t101 53.5t50 72t15.5 84q0 78 -45.5 138t-114.5 69q72 46 72 133q0 95 -64 145t-178 50q-120 0 -184.5 -40.5t-98.5 -117.5z" />
<glyph unicode="4" d="M88 -199l105 1491l1114 -78l-105 -1490zM270 262l564 -39l-19 -258l113 -8l18 258l125 -8l6 112l-123 11l54 760l-154 12zM485 362l398 570l-43 -596z" />
<glyph unicode="5" d="M164 -162v1237h1065v-1237h-1065zM451 252q9 -133 87.5 -205t215.5 -72q144 0 233.5 88.5t89.5 219.5q0 77 -27 135.5t-73 91t-101 48t-118 15.5q-81 0 -146 -32l15 258h405v131h-532l-33 -582h121q58 98 166 98q81 0 133.5 -42t52.5 -125q0 -73 -49 -124t-137 -51 q-77 0 -118.5 36t-55.5 112h-129z" />
<glyph unicode="6" d="M127 1350l975 106l164 -1522l-973 -104zM348 678q0 -283 114.5 -458t305.5 -175q155 0 256.5 102.5t101.5 260.5q0 155 -97.5 262.5t-250.5 107.5q-234 0 -311 -160v31q0 422 281 422q157 0 204 -176l111 12q-71 275 -315 275q-201 0 -300.5 -132.5t-99.5 -371.5z M504 424q0 107 76 174.5t194 67.5q103 0 171.5 -75t68.5 -181q0 -108 -68 -179t-182 -71q-107 0 -183.5 77.5t-76.5 186.5z" />
<glyph unicode="7" d="M260 844l823 41l52 -944l-826 -43zM446 750l7 -117l360 18l-242 -667l127 4l252 690l-6 98z" />
<glyph unicode="8" d="M223 -147v1286h928l18 -1286h-946zM453 242q0 -124 81 -193t218 -69q313 0 313 274q0 76 -29.5 133t-83.5 86q99 79 99 205q0 116 -81.5 190t-201.5 74q-139 0 -226 -74.5t-87 -193.5q0 -141 104 -213q-51 -36 -78.5 -94t-27.5 -125zM602 244q0 64 42 104.5t110 40.5 q70 0 115.5 -37t45.5 -102q0 -131 -161 -131q-61 0 -106.5 34t-45.5 91zM608 674q0 57 39 93t111 36q62 0 102.5 -37t40.5 -98q0 -64 -36.5 -100t-110.5 -36t-110 34.5t-36 107.5z" />
<glyph unicode="9" d="M285 932l788 29l37 -1065l-791 -29zM492 502q0 -101 61.5 -167.5t161.5 -66.5q136 0 186 86q-5 -133 -47.5 -203.5t-120.5 -70.5q-130 0 -153 123l-70 -2q30 -191 211 -191q256 0 256 383q0 178 -69 261t-191 83q-100 0 -162.5 -67.5t-62.5 -167.5zM563 496 q0 73 44 120.5t116 47.5q69 0 115 -47t51 -117q0 -73 -44.5 -116.5t-119.5 -43.5q-72 0 -117 42t-45 114z" />
<glyph unicode=":" horiz-adv-x="849" d="M111 -121l47 1168l585 -25l-47 -1167zM381 -4l115 -6l6 168l-113 6zM408 627l112 -4l8 168l-114 4z" />
<glyph unicode=";" horiz-adv-x="522" d="M6 -184l70 915l430 -33l-70 -913zM158 -115q77 3 110.5 42.5t42.5 129.5l13 105l-136 18l-12 -135l74 -10q-9 -51 -27 -72t-59 -24zM209 354l131 -16l14 135l-131 14z" />
<glyph unicode="&#x3c;" horiz-adv-x="989" d="M-301 1034l1221 86l88 -1288l-1219 -86zM12 319l793 -305l51 140l-487 186l456 242l-67 131z" />
<glyph unicode="=" horiz-adv-x="1189" d="M-268 870l1403 148l110 -1061l-1401 -145zM109 641l16 -156l833 88l-14 156zM139 346l17 -153l833 86l-14 155z" />
<glyph unicode="&#x3e;" horiz-adv-x="989" d="M-94 -293l28 1288l1219 -28l-29 -1289zM45 231l57 -137l779 322l-762 379l-64 -131l467 -236z" />
<glyph unicode="?" horiz-adv-x="835" d="M-35 1448l686 49l113 -1647l-684 -47zM102 936l33 -145q123 28 187 28q63 0 99 -25t36 -71q0 -74 -95 -172q-62 -65 -84 -120t-22 -144q0 -7 1 -23t1 -24l150 10q-2 14 -2 37q0 60 19 101.5t73 94.5q108 105 108 236q0 124 -71 185t-203 61q-112 0 -230 -29zM262 176 l12 -190l150 10l-14 190z" />
<glyph unicode="@" horiz-adv-x="1458" d="M102 1096l1201 86l83 -1237l-1200 -82zM309 481q0 -104 28 -188t87 -149.5t158.5 -101.5t234.5 -36q174 0 320 103l-76 112q-42 -35 -118.5 -56.5t-129.5 -21.5q-96 0 -166.5 27t-111 75t-59.5 108.5t-19 133.5q0 145 113.5 248t265.5 103q133 0 207.5 -65.5t74.5 -192.5 q0 -98 -52 -174.5t-128 -77.5l109 385l-125 35l-13 -43q-23 55 -92 55q-56 0 -114.5 -51.5t-98 -139.5t-39.5 -182q0 -64 36.5 -110t105.5 -46q71 0 108 29q45 -29 92 -29q155 0 251.5 107.5t96.5 259.5q0 74 -31 144t-85.5 125t-136.5 88.5t-177 33.5q-145 0 -265 -73.5 t-185.5 -189.5t-65.5 -245zM696 434q0 65 45 131t90 66q30 0 33 -39q0 -44 -20 -99t-51 -94t-58 -39q-39 0 -39 74z" />
<glyph unicode="A" horiz-adv-x="1456" d="M121 -145v1271l1184 -2v-1269h-1184zM305 10l125 -51l107 270h409l111 -272l123 49l-365 924h-430v-135h233zM590 362l153 383l152 -383h-305z" />
<glyph unicode="B" horiz-adv-x="1306" d="M94 1032l1026 111l125 -1159l-1024 -115zM270 901l13 -92l127 14l88 -811l350 37q108 11 177 77t69 165q0 95 -59.5 160t-162.5 75q70 23 106 76.5t36 114.5q0 112 -78 168.5t-227 56.5q-54 0 -152 -10zM500 836q137 20 211 20q108 0 159.5 -31.5t51.5 -99.5 q0 -155 -213 -176l-177 -19zM543 440l184 19q20 2 57 2q99 0 158 -40t59 -130q0 -132 -165 -150l-258 -28z" />
<glyph unicode="C" horiz-adv-x="1429" d="M113 -193l32 1289l1149 -25l-28 -1288zM362 451q0 -243 113 -377.5t309 -134.5q127 0 221 73.5t130 212.5l-121 45q-30 -95 -93 -138.5t-143 -43.5q-124 0 -198 98.5t-74 251.5q0 162 78.5 261.5t208.5 99.5q83 0 135.5 -48.5t58.5 -134.5l146 25q-13 143 -108.5 224 t-229.5 81q-192 0 -312.5 -137.5t-120.5 -357.5z" />
<glyph unicode="D" horiz-adv-x="997" d="M111 -123l20 789l774 -17l-20 -790zM244 522l78 -2l-13 -520q61 -8 176 -8q126 0 208.5 76t82.5 211q0 155 -79 228t-275 73q-137 0 -176 2zM369 55l10 465h82q258 0 258 -237q0 -112 -60 -173t-174 -61q-59 0 -116 6z" />
<glyph unicode="E" horiz-adv-x="1275" d="M104 -135l64 1253l1014 -53l-68 -1253zM287 799l121 -8l-46 -816l613 -32l8 133l-479 26l14 293l445 -24l8 133l-445 24l15 256l458 -24l7 133l-713 37z" />
<glyph unicode="F" horiz-adv-x="1492" d="M74 1061l1151 209l223 -1254l-1149 -204zM330 913l24 -143l117 21l145 -805l144 30l-76 424l412 74l-25 148l-414 -76l-41 231l428 76l-26 145z" />
<glyph unicode="G" horiz-adv-x="1273" d="M-2 -385v1479h1135v-1479h-1135zM154 451q0 -211 125 -343.5t311 -132.5q148 0 209 45q0 -76 -20.5 -100t-94.5 -24h-365v-91h365q61 0 97 9.5t62.5 37.5t37 78t10.5 133v277q0 170 -172 170h-289v-90h289q80 0 80 -80v-225q-72 -43 -221 -43q-154 0 -243 103t-89 276 q0 165 85.5 275t215.5 110q101 0 165 -45.5t79 -137.5l86 21q-21 121 -107 187.5t-207 66.5q-173 0 -291 -139.5t-118 -337.5z" />
<glyph unicode="H" horiz-adv-x="1110" d="M106 -221l52 979l841 -45l-53 -977zM309 504l70 -2l-29 -520l94 -9l15 279l272 -14l-14 -279l96 -4l33 618l-96 5l-11 -246l-272 14l12 246l-162 6z" />
<glyph unicode="I" horiz-adv-x="1056" d="M88 1331l682 96l227 -1581l-680 -98zM293 1133l14 -115l135 20l148 -1018l112 17l-161 1130z" />
<glyph unicode="J" horiz-adv-x="1314" d="M113 -199v1598h1034l24 -1598h-1058zM326 317q17 -175 114 -270.5t234 -95.5q152 0 251.5 120.5t96.5 301.5l-14 805l-312 -9v-168h144l12 -636q1 -112 -47.5 -178t-130.5 -66q-79 0 -130 57t-61 180z" />
<glyph unicode="K" horiz-adv-x="1630" d="M111 -391v1466h1392l21 -1466h-1413zM414 803h114v-815h119v428l115 2q46 0 74 -17t45 -57q12 -28 19.5 -68t14 -92.5t9.5 -72.5q32 -176 92.5 -242t185.5 -66l223 9l-4 116l-221 -4q-58 -1 -101.5 55.5t-56.5 129.5q-5 28 -16 113.5t-24.5 144t-34.5 90.5 q-50 75 -168 75h-35l369 336l-86 93l-410 -371v336h-223v-123z" />
<glyph unicode="L" horiz-adv-x="1253" d="M119 -197v1360h979v-1360h-979zM354 633h80v-653h486v116h-369v654h-197v-117z" />
<glyph unicode="M" horiz-adv-x="1415" d="M113 -166v1104h1187l19 -1104h-1206zM362 727l3 -74l81 2v-653l64 2v651l313 -696l305 703v-648l60 2v723h-115l-252 -598l-264 592z" />
<glyph unicode="N" horiz-adv-x="1359" d="M119 -180v1376h1081v-1376h-1081zM276 795h84v-815h136v718l446 -718h145v950h-133v-715l-448 715h-230v-135z" />
<glyph unicode="O" horiz-adv-x="1316" d="M-18 -168l114 1247l1131 -104l-117 -1249zM178 395q0 -139 50.5 -248.5t148.5 -174t229 -64.5q181 0 305.5 152.5t124.5 375.5q0 208 -117.5 340.5t-304.5 132.5t-311.5 -146t-124.5 -368zM313 393q0 160 84 270.5t209 110.5q126 0 210.5 -94t84.5 -246q0 -52 -12 -105 t-37.5 -104t-61.5 -90.5t-88 -63.5t-112 -24q-127 0 -202 98.5t-75 247.5z" />
<glyph unicode="P" horiz-adv-x="1359" d="M92 1018l1075 117l133 -1213l-1075 -119zM268 930l17 -146l77 9l89 -811l145 16l-39 377q264 20 373.5 92t109.5 217q0 138 -92 214.5t-243 76.5q-131 0 -437 -45zM510 813q120 18 199 18q184 0 184 -139q0 -91 -73 -125.5t-279 -46.5z" />
<glyph unicode="Q" horiz-adv-x="1875" d="M12 -379l168 1780l1624 -154l-166 -1777zM225 483q0 -251 138 -409t362 -158q74 0 154 25q12 -59 31.5 -103.5t42.5 -76.5t59.5 -54t72 -35.5t92 -21.5t105.5 -11.5t127 -5.5l8 113q-99 -6 -174.5 4t-122 30.5t-77 55t-44.5 69t-22 81.5q128 79 198 227.5t70 333.5 q0 117 -36 219.5t-100.5 177.5t-160.5 118.5t-209 43.5q-148 0 -266.5 -83.5t-183 -225.5t-64.5 -314zM338 492q0 135 50 249t142.5 183t208.5 69q176 0 285 -129.5t109 -320.5q0 -263 -160 -408q0 14 1 38.5t1 35.5q0 82 -6 135.5t-21.5 96.5t-45 68.5t-72 42.5t-107.5 28 q-59 8 -182 20l-6 -115q188 -16 237 -30q25 -8 42.5 -32t25.5 -54t12.5 -73.5t5 -79.5t0.5 -83t2 -74q-74 -30 -151 -30q-112 0 -197.5 63.5t-129.5 168t-44 231.5z" />
<glyph unicode="R" horiz-adv-x="1945" d="M119 -403v1787h1667v-1787h-1667zM287 1022h121v-1020h112v520h301q101 0 150 -76q24 -39 34.5 -92t16 -140.5t8.5 -113.5q20 -165 111 -256.5t231 -91.5q172 0 238 4v113q-57 -4 -228 -4q-106 0 -168.5 66.5t-74.5 189.5q-3 27 -10 112.5t-11 128.5q-15 154 -127 216 q89 31 134.5 102t45.5 166q0 293 -380 293q-387 0 -504 -2v-115zM520 637v383q100 2 299 2q240 0 240 -176q0 -211 -314 -211q-159 0 -225 2z" />
<glyph unicode="S" horiz-adv-x="980" d="M-29 -272l105 1128l821 -76l-104 -1128zM156 197q6 -113 73.5 -178.5t186.5 -65.5q106 0 176 58t70 155q0 52 -23 89t-62.5 59t-80 37t-89.5 33.5t-77 37.5q-54 39 -54 94t42 90t122 34q171 0 174 -142l70 12q-6 115 -70 161t-188 46q-100 0 -160.5 -56t-60.5 -151 q0 -91 86 -148q37 -24 130.5 -56t129.5 -60q37 -27 37 -84q0 -61 -49 -99t-113 -38q-85 0 -142 49t-57 127z" />
<glyph unicode="T" horiz-adv-x="1490" d="M90 1409l1198 109l144 -1575l-1199 -109zM336 952l18 -192l295 26l74 -815l192 19l-75 813l284 26l-16 193z" />
<glyph unicode="U" horiz-adv-x="1568" d="M119 -27v1395h1306v-1395h-1306zM334 1057h115v-613q0 -118 50 -217t145 -159t216 -60q175 0 299.5 123t124.5 307v733h-115v-733q0 -140 -86.5 -228.5t-222.5 -88.5q-135 0 -217 91t-82 232v727h-227v-114z" />
<glyph unicode="V" horiz-adv-x="1699" d="M119 -127v1511h1425v-1511h-1425zM307 1022h121l373 -1020h137l410 1112l-113 39l-365 -1008l-360 992h-203v-115z" />
<glyph unicode="W" horiz-adv-x="1560" d="M109 946l1321 49l45 -1255l-1323 -45zM246 723l4 -74l82 4l194 -647l109 6l170 617l221 -604l102 4l166 721l-73 18l-148 -659l-225 620l-92 -4l-178 -639l-193 643z" />
<glyph unicode="X" horiz-adv-x="1437" d="M90 -233l150 1347l1110 -123l-150 -1349zM319 27l115 -103l260 285l189 -334l133 74l-215 379l280 305l-112 104l-246 -272l-164 285l-174 20l-16 -152l98 -10l145 -262z" />
<glyph unicode="Y" horiz-adv-x="1454" d="M104 1094l1201 69l67 -1237l-1200 -67zM303 905l4 -92l105 6l301 -409l20 -392l90 7l-20 387l305 501l-78 48l-276 -455l-297 405z" />
<glyph unicode="Z" horiz-adv-x="1398" d="M111 1430l1132 40l57 -1615l-1134 -39zM291 1171l8 -184l594 19l-565 -875l6 -164l833 29l-4 184l-598 -22l568 878l-7 164z" />
<glyph unicode="[" horiz-adv-x="610" d="M-37 -283v1600h737v-1600h-737zM168 -180h319v184h-135v983h135v184h-319v-1351z" />
<glyph unicode="\" horiz-adv-x="1390" d="M88 1329l1061 115l174 -1606l-1061 -114zM287 1110l622 -1130l162 90l-625 1128z" />
<glyph unicode="]" horiz-adv-x="1042" d="M-4 -430l231 1581l731 -107l-231 -1581zM229 -319l316 -46l196 1338l-317 45l-27 -182l133 -19l-141 -973l-133 21z" />
<glyph unicode="^" horiz-adv-x="1189" d="M-324 1497l1377 197l200 -1377l-1378 -198zM37 453l223 -95l215 506l354 -426l185 154l-604 733z" />
<glyph unicode="_" horiz-adv-x="835" d="M0 -125h836v-160h-836v160z" />
<glyph unicode="`" horiz-adv-x="446" d="M72 1169h198l101 -254h-142z" />
<glyph unicode="a" horiz-adv-x="677" d="M-27 1051h713l-4 -965q-48 3 -55 70q-15 197 -23 266q-18 147 -69 199.5t-154 52.5q-98 0 -159.5 -48.5t-90.5 -152.5l86 -22q42 135 160 135q68 0 95.5 -33.5t37.5 -138.5q-67 0 -121 -5.5t-107 -21t-89 -41t-58 -68t-22 -100.5q0 -34 10 -63t34 -55t70.5 -41t112.5 -15 q163 0 219 80q7 -40 44 -64t79 -24v-367h-672zM207 180q0 83 76 119q70 32 235 35q7 -49 14 -166q-25 -45 -66.5 -66.5t-117.5 -21.5q-70 0 -105.5 27.5t-35.5 72.5z" />
<glyph unicode="b" horiz-adv-x="1376" d="M96 1456l1100 76l113 -1645l-1096 -75zM264 1133l10 -115l109 8q59 -724 59 -1014h115v101q92 -95 215 -95q144 0 242 117t98 279q0 206 -95 322t-243 116q-158 0 -256 -137l-31 434zM553 467q0 123 59.5 194.5t153.5 71.5q101 0 168 -84.5t67 -234.5q0 -119 -65 -200 t-164 -81q-94 0 -156.5 93.5t-62.5 240.5z" />
<glyph unicode="c" horiz-adv-x="1079" d="M31 -193l121 1303l854 -80l-121 -1300zM182 354q0 -210 93.5 -318t256.5 -108q112 0 193.5 73t114.5 192l-107 36q-62 -188 -198 -188q-106 0 -172 76.5t-66 230.5q0 79 29.5 153t89 124.5t133.5 50.5q189 0 207 -217l112 12q-18 145 -100.5 231t-220.5 86 q-102 0 -186.5 -60.5t-131.5 -160t-47 -213.5z" />
<glyph unicode="d" horiz-adv-x="1552" d="M119 -350v1700h1272v-1700h-1272zM299 338q0 -176 75 -278.5t206 -102.5q51 0 103 23t89 61q14 -118 88.5 -191t192.5 -73h233v147h-199q-104 0 -142 54.5t-40 193.5l-4 766h-221v-150h74v-155q-77 53 -160 53q-127 0 -211 -103.5t-84 -244.5zM444 338q0 87 40 143 t108 56q67 0 107 -59t40 -144q0 -225 -153 -225q-142 0 -142 229z" />
<glyph unicode="e" horiz-adv-x="1583" d="M88 -287l160 1452l1253 -139l-162 -1452zM403 317q0 -207 116 -343t304 -136q303 0 443 289l-293 37q-30 -49 -111 -49q-71 0 -123.5 43.5t-52.5 122.5l608 -68q15 107 15 172q0 102 -26.5 187t-79.5 152t-140.5 104.5t-202.5 37.5q-197 0 -327 -157t-130 -392zM750 520 q16 37 47 55.5t67 18.5q46 0 84 -27t47 -71z" />
<glyph unicode="f" horiz-adv-x="1017" d="M113 -158v1309h739l25 -1309h-764zM293 522h106v-547h142v553h145v150l-149 -6v76q0 57 51 57q50 0 86 -12l24 145q-56 16 -139 16q-170 0 -170 -184v-100h-96v-148z" />
<glyph unicode="g" horiz-adv-x="1224" d="M96 1151l934 84l137 -1507l-934 -86zM285 444q0 -82 19 -151.5t57.5 -125.5t102.5 -88t148 -32q101 0 174 45.5t95 106.5q0 -62 -12.5 -109.5t-32 -80.5t-54 -56t-68 -35.5t-84 -19.5t-93 -9t-103.5 -2l10 -114q51 0 85 1t84 5t84.5 11.5t77.5 22.5t72.5 35t59.5 51.5 t47.5 71t29 93t11.5 118.5q0 81 -21.5 313.5t-29.5 368.5l-113 -4l5 -100q-98 92 -220 92q-147 0 -239 -111.5t-92 -296.5zM397 442q0 136 59.5 215.5t159.5 79.5q107 0 170.5 -80t63.5 -215q0 -52 -11.5 -99t-36 -89.5t-70 -68t-107.5 -25.5q-98 0 -163 78.5t-65 203.5z " />
<glyph unicode="h" horiz-adv-x="919" d="M25 -137v1245l735 -14v-1231h-735zM102 637h39v-655h111l2 376q34 70 117 70q107 0 104 -106l-6 -347h106l7 347q2 100 -47.5 157.5t-143.5 57.5q-75 0 -135 -50v256h-154v-106z" />
<glyph unicode="i" horiz-adv-x="974" d="M106 -231l91 1708l700 -35l-90 -1710zM406 651l83 -4l-36 -684l184 -10l47 868l-270 15zM504 944l184 -8l12 221l-184 10z" />
<glyph unicode="j" horiz-adv-x="1277" d="M102 -469l101 1944l993 -52l-102 -1943zM264 -258q123 -14 248 -14q93 0 164 17t131 57t94.5 115t40.5 183l39 721l-270 15l-11 -185l86 -4l-28 -536q-6 -114 -69.5 -156.5t-176.5 -42.5q-98 0 -238 14zM801 942l184 -10l12 223l-184 10z" />
<glyph unicode="k" horiz-adv-x="1392" d="M139 -152v1334l1094 -19v-1315h-1094zM350 788h62v-819h151v240l289 -248l240 -2l-451 381l309 233l-94 119l-289 -241l11 481h-226z" />
<glyph unicode="l" horiz-adv-x="931" d="M102 1188l646 55l122 -1454l-645 -57zM365 928l12 -137l67 8l72 -815l135 12l-80 948z" />
<glyph unicode="m" horiz-adv-x="1867" d="M111 -131l24 1081l1606 -37l-27 -1081zM389 500l76 -4l-14 -500l190 -8l18 424q8 40 42 66t81 26q57 0 78 -30.5t21 -92.5l-13 -399h193l10 403q1 50 32 80.5t79 30.5q46 0 70 -28.5t22 -76.5l-10 -461l192 -4l12 459q0 142 -70.5 222.5t-191.5 80.5q-137 0 -225 -104 q-59 114 -176 114q-98 0 -164 -75v63l-252 8v-194z" />
<glyph unicode="n" horiz-adv-x="1492" d="M100 -154l80 1170l1225 -86l-84 -1170zM424 651l102 -12l-59 -621l182 -16l58 543q27 92 165 92q66 0 104.5 -36.5t31.5 -106.5l-52 -568l191 -14l47 553q15 170 -70 263t-239 93q-59 0 -119.5 -18.5t-99.5 -48.5l4 61l-232 21z" />
<glyph unicode="o" horiz-adv-x="1619" d="M92 1274l1329 112l138 -1615l-1330 -115zM459 449q0 -96 27 -183.5t78 -158t134.5 -112.5t188.5 -42q207 0 322.5 132t115.5 378q0 218 -114.5 339.5t-311.5 121.5q-204 0 -322 -128t-118 -347zM692 446q0 113 57 178.5t154 65.5q42 0 76 -17.5t55.5 -45.5t36.5 -65 t21 -75.5t6 -78.5q0 -111 -52 -167.5t-149 -56.5q-88 0 -146.5 73.5t-58.5 188.5z" />
<glyph unicode="p" horiz-adv-x="1269" d="M135 -422v1243l1006 -16v-1227h-1006zM338 500l68 -2l-5 -783l195 -2v287q69 -66 178 -66q124 0 208.5 111.5t84.5 269.5q0 178 -82 280.5t-229 102.5q-114 0 -187 -80v72l-231 4v-194zM618 307q0 84 37.5 141.5t98.5 57.5q58 0 89 -50.5t31 -133.5q0 -87 -34 -142 t-86 -55q-64 0 -100 48.5t-36 133.5z" />
<glyph unicode="q" horiz-adv-x="1134" d="M109 793l903 36l45 -1214l-901 -37zM285 356q0 -190 70.5 -285.5t183.5 -95.5q140 0 204 107l19 -315l135 4l-29 780l74 4l-4 133l-201 -6l2 -59q-71 65 -170 65q-131 0 -207.5 -91t-76.5 -241zM420 348q0 107 38.5 155t116.5 48q148 0 160 -205q6 -113 -40 -175 t-132 -60q-71 1 -107 63t-36 174z" />
<glyph unicode="r" horiz-adv-x="663" d="M49 -57v831l481 -10v-821h-481zM121 549h65l-6 -500h101l8 387q3 115 168 115q33 0 41 -2l8 90q-50 4 -66 4q-121 0 -176 -70v66h-141z" />
<glyph unicode="s" horiz-adv-x="806" d="M106 -18v1026h556l12 -1026h-568zM217 223q4 -83 56.5 -132.5t129.5 -49.5t122.5 49t45.5 141q0 58 -33.5 97.5t-93.5 54.5q-75 19 -77 20q-19 8 -19 27q0 13 11 23t34 10q26 0 39.5 -10t16.5 -37l114 -4q3 93 -43 138.5t-133 45.5q-69 0 -113.5 -45t-44.5 -117 q0 -38 11.5 -67.5t26.5 -46.5t42 -30.5t45.5 -19t48.5 -12.5q58 -14 58 -47q0 -43 -55 -43q-32 0 -50 14t-30 47z" />
<glyph unicode="t" horiz-adv-x="905" d="M109 -283l61 1190l629 -33l-66 -1189zM246 516l135 -6l-23 -404q-6 -89 40.5 -132.5t129.5 -43.5q48 0 107 15l-8 147q-16 -12 -49 -12q-29 0 -49 12t-19 37l18 373l166 -10l6 147l-165 10l8 146l-148 8l-6 -148l-135 9z" />
<glyph unicode="u" horiz-adv-x="1472" d="M106 997l1225 62l60 -1170l-1225 -61zM289 866l28 -551q17 -321 316 -321q75 0 141.5 28t99.5 76l5 -73l233 10l-8 186l-86 -4l-31 627l-190 -15l20 -434q5 -97 -37.5 -156t-132.5 -59q-70 0 -106.5 39t-40.5 123l-27 535z" />
<glyph unicode="v" horiz-adv-x="1042" d="M119 -258v1132h790v-1132h-790zM195 532h88l223 -548h127l256 645l-123 43l-188 -527l-205 512h-178v-125z" />
<glyph unicode="w" horiz-adv-x="1853" d="M100 -156l78 1432l1594 -88l-78 -1432zM262 655l121 -6l213 -696l172 -10l229 546l166 -569l162 -8l363 815l-175 74l-245 -580l-162 547l-184 10l-220 -538l-178 581l-252 19z" />
<glyph unicode="x" horiz-adv-x="1183" d="M80 788l842 183l206 -961l-839 -182zM199 627l18 -90l98 22l209 -172l-157 -332l82 -41l149 314l276 -236l58 70l-283 237l152 320l-82 39l-144 -299l-235 198z" />
<glyph unicode="y" horiz-adv-x="1406" d="M113 -426v1470h1163l27 -1470h-1190zM270 823l6 -174l123 8l287 -655l-106 -276l161 -62l433 1141l-160 61l-240 -645l-264 610z" />
<glyph unicode="z" horiz-adv-x="839" d="M47 -242v1073h680v-1073h-680zM104 -20h519v137h-332l332 428v119h-519v-136h332l-332 -432v-116z" />
<glyph unicode="{" horiz-adv-x="577" d="M-80 -199l131 1596l553 -47l-135 -1596zM88 502q115 -32 115 -170q0 -43 -12.5 -149t-12.5 -156q0 -95 52.5 -139.5t185.5 -41.5l10 103q-18 -2 -47 -2q-50 0 -71 23t-21 89q0 14 7 95t7 151q0 190 -125 266q157 65 172 254l10 136q7 91 18.5 131t26.5 48.5t50 8.5 q49 0 73 -6l9 98q-41 6 -84 6q-170 0 -191 -239l-12 -142q-19 -217 -148 -217z" />
<glyph unicode="|" horiz-adv-x="303" d="M78 -358v1790h139v-1790h-139z" />
<glyph unicode="}" horiz-adv-x="575" d="M-172 1520l799 49l118 -1983l-800 -47zM-6 1413l6 -127q54 6 55 6q37 0 63 -14.5t48 -52.5t34.5 -112.5t14.5 -186.5q3 -149 58.5 -246t156.5 -139q-172 -105 -172 -326q0 -45 7 -143.5t7 -157.5q0 -101 -40 -133.5t-142 -32.5l10 -125q94 0 155.5 19t94 60t44.5 91.5 t12 126.5q0 43 -7.5 137.5t-7.5 149.5q0 221 150 248l-13 186q-82 3 -128 66.5t-54 220.5l-10 176q-18 317 -242 317q-59 0 -100 -8z" />
<glyph unicode="~" horiz-adv-x="1210" d="M43 926l1016 129l94 -742l-1016 -129zM180 586l25 -185q91 156 241 156q46 0 146 -24.5t153 -24.5q174 0 271 145l-23 183q-83 -156 -252 -156q-39 0 -139 23.5t-164 23.5q-67 0 -119 -20.5t-81.5 -49t-57.5 -71.5z" />
<glyph unicode="&#xa1;" horiz-adv-x="843" d="M117 -197v1635h567v-1635h-567zM319 76h173v891h-173v-891zM319 1042h173v226h-173v-226z" />
<glyph unicode="&#xa2;" horiz-adv-x="718" d="M-57 1368l657 66l90 -924l-657 -66zM51 987q0 -165 68.5 -245t191.5 -80l8 -80l62 6l-8 80q92 17 145.5 79.5t56.5 151.5l-169 -16q0 -23 -14 -40.5t-34 -23.5l-26 271q23 0 40 -15.5t19 -36.5l170 17q-15 91 -77.5 138.5t-166.5 47.5l-8 82l-61 -4l8 -84 q-205 -35 -205 -248zM215 985q0 84 55 100l27 -272q-82 20 -82 172z" />
<glyph unicode="&#xa3;" horiz-adv-x="765" d="M-82 475l76 1108l803 -55l-76 -1106zM2 569q20 -2 61 -2q102 0 166 47q52 -4 142.5 -43t150.5 -39q71 0 121 50l8 157q-37 -51 -106 -51q-29 0 -92 18.5t-93 18.5q-21 0 -45 -4q39 44 39 117q0 38 -8 65l158 -10l10 125l-219 12q-49 108 -49 166q0 100 96 100 q69 0 96 -28t27 -101l164 -10q0 8 1 24.5t1 24.5q0 131 -69 194.5t-224 63.5q-117 0 -190.5 -66t-73.5 -192q0 -69 45 -164l-80 7l-8 -123l141 -11q8 -24 8 -55q0 -59 -35.5 -91t-91.5 -32q-29 0 -39 2z" />
<glyph unicode="&#xa5;" horiz-adv-x="851" d="M-82 430l123 1063l848 -98l-123 -1063zM70 575l204 -24l-12 -111l174 -20l13 110l204 -24l15 125l-205 22l10 76l203 -24l14 120l-205 25l11 88l327 414l-186 22l-213 -284l-139 325l-189 23l226 -480l-11 -88l-207 23l-12 -119l207 -24l-10 -76l-205 24z" />
<glyph unicode="&#xa6;" horiz-adv-x="303" d="M78 291h139v-649h-139v649zM78 801v631h139v-631h-139z" />
<glyph unicode="&#xa7;" horiz-adv-x="796" d="M-113 1434l840 61l96 -1296l-839 -62zM43 1171q0 -60 18 -96.5t54 -64.5q-58 -55 -58 -146q0 -49 12 -86.5t36.5 -62t53.5 -41t70.5 -27t80.5 -17t90 -13.5h3t3 -0.5t4 -0.5q135 -18 135 -98q0 -46 -40.5 -74t-117.5 -28q-64 0 -104 26t-43 74l-172 -12q23 -232 299 -232 q100 0 177 23t127 78.5t50 136.5q0 67 -18 107t-52 69q56 47 56 133q0 70 -27.5 118.5t-71.5 72t-97.5 37.5t-107 21t-97.5 16t-71.5 29t-27.5 54q0 43 38 66.5t111 23.5q58 0 89 -22t40 -72l170 13q-11 112 -86 174.5t-207 62.5q-155 0 -237 -69.5t-82 -172.5zM221 856 q0 63 51 84q25 -5 70 -13q119 -22 157 -37.5t42 -55.5q0 -64 -45 -82q-167 29 -197 38q-72 21 -78 63v3z" />
<glyph unicode="&#xa8;" horiz-adv-x="729" d="M94 973v162h182v-162h-182zM455 973v162h182v-162h-182z" />
<glyph unicode="&#xaa;" horiz-adv-x="616" d="M-23 262l115 1057l518 -55l-114 -1057zM104 872q0 -120 172 -120q73 0 95 34q0 -2 -1 -5.5t-1 -4.5q0 -10 8 -26l117 -15l30 277q2 12 2 32q0 160 -221 160q-79 0 -117 -34t-49 -99l127 -14q10 41 56 41q27 0 45 -9.5t18 -27.5q0 -20 -12 -26.5t-45 -8.5 q-112 -5 -168 -37t-56 -117zM242 883q0 22 17.5 34.5t59.5 16.5q41 5 56 12l-2 -26q-3 -30 -24 -50t-58 -20q-49 0 -49 33z" />
<glyph unicode="&#xab;" horiz-adv-x="806" d="M33 131v1192h792v-1192h-792zM55 647l351 -239v196l-181 115l181 117v202l-351 -247v-144zM410 647l350 -239v196l-180 115l180 117v202l-350 -247v-144z" />
<glyph unicode="&#xad;" horiz-adv-x="1071" d="M111 743h843l9 -581h-840zM354 383h420v106h-420v-106z" />
<glyph unicode="&#xaf;" horiz-adv-x="593" d="M78 1038v111h436v-111h-436z" />
<glyph unicode="&#xb0;" horiz-adv-x="634" d="M-100 1520l671 55l125 -1550l-669 -56zM47 1057q0 -137 83 -223t194 -86q99 0 167 90t68 206q0 134 -73.5 220t-186.5 86q-106 0 -179 -84.5t-73 -208.5zM201 1063q0 55 29.5 97t66.5 44q39 0 74 -44.5t35 -108.5q0 -60 -27.5 -102t-63.5 -42q-43 0 -78.5 46t-35.5 110z " />
<glyph unicode="&#xb4;" horiz-adv-x="403" d="M55 924l107 254h198l-157 -254h-148z" />
<glyph unicode="&#xb6;" horiz-adv-x="942" d="M6 -10l53 1239l863 -37l-54 -1239zM94 1004q0 -124 137 -156l-32 -793l186 -8l39 946l147 -6l-39 -946l185 -6l39 944l78 154l-496 20q-119 0 -181.5 -39.5t-62.5 -109.5z" />
<glyph unicode="&#xb7;" horiz-adv-x="569" d="M-10 -84l88 1178l471 -37l-88 -1178zM129 406l270 -21l19 242l-271 20z" />
<glyph unicode="&#xb8;" horiz-adv-x="436" d="M61 -238q55 -61 111 -61q74 0 74 59q0 72 -99 72h-22v205h68v-94q190 -6 190 -172q0 -97 -47.5 -142t-140.5 -45q-75 0 -134 41v137z" />
<glyph unicode="&#xba;" horiz-adv-x="669" d="M-49 1294l559 74l143 -1089l-559 -74zM63 1006q0 -108 57.5 -173t155.5 -65q96 0 165 57.5t69 157.5q0 109 -58 172.5t-153 63.5q-109 0 -172.5 -59t-63.5 -154zM205 1018q0 84 84 84q82 0 82 -131q0 -39 -21.5 -62.5t-64.5 -23.5q-80 0 -80 133z" />
<glyph unicode="&#xbb;" horiz-adv-x="823" d="M33 131v1192h792v-1192h-792zM66 406l350 247v146l-350 237v-196l180 -115l-180 -117v-202zM422 406l350 247v146l-350 237v-196l180 -115l-180 -117v-202z" />
<glyph unicode="&#xbf;" horiz-adv-x="835" d="M-35 1446l684 47l115 -1645l-686 -47zM133 541q0 -123 71.5 -184.5t203.5 -61.5q111 0 229 29l-33 145q-128 -29 -186 -29q-63 0 -99 25t-36 72q0 75 94 172q62 65 84 120t22 144q0 7 -1 23t-1 24l-149 -10q2 -14 2 -37q0 -60 -19 -102t-73 -95q-109 -106 -109 -235z M315 1264l15 -191l147 10l-12 191z" />
<glyph unicode="&#xc0;" horiz-adv-x="1456" d="M59 -100l121 1532l1184 -93l-123 -1532zM258 41l121 -59l127 260l407 -31l88 -281l127 39l-292 946l-426 37l-13 -135l232 -16zM567 369l183 372l124 -395zM598 1278l100 -188l103 -9l-60 189z" />
<glyph unicode="&#xc1;" horiz-adv-x="1456" d="M104 -152v1424h635l-73 -174h112l105 172h489v-1422h-1268zM305 20l133 -53l113 301h438l117 -303l133 53l-391 1031h-457v-150h248zM608 416l164 430l164 -430h-328z" />
<glyph unicode="&#xc2;" horiz-adv-x="1456" d="M66 -90l116 1384l1184 -98l-119 -1384zM264 47l121 -59l129 260l410 -33l84 -281l127 39l-287 949l-426 36l-12 -135l231 -18zM578 377l184 368l119 -395zM625 1028l90 -8l63 104l51 -112l91 -8l-84 163l-105 11z" />
<glyph unicode="&#xc3;" horiz-adv-x="1456" d="M86 -147v1318h430l-12 -16v-117q27 68 78 68q22 0 98 -32t100 -32q40 0 76 48v79h451v-1316h-1221zM279 14l129 -51l108 279h422l111 -283l129 53l-375 955h-441v-138h236zM571 379l158 397l156 -397h-314zM647 1169h187q-27 -41 -64 -41q-25 0 -123 41z" />
<glyph unicode="&#xc4;" horiz-adv-x="1456" d="M121 -145v1409l1184 -2v-1407h-1184zM305 10l125 -51l107 270h409l111 -272l123 49l-365 924h-430v-135h233zM463 1038h160v142h-160v-142zM590 362l153 383l152 -383h-305zM780 1038h160v142h-160v-142z" />
<glyph unicode="&#xc5;" horiz-adv-x="1353" d="M29 -70l182 1461l1180 -150l-181 -1456zM233 63l119 -63l140 254l405 -51l76 -283l129 35l-250 956q38 19 62 60t24 90q0 69 -44.5 118.5t-109.5 49.5q-63 0 -109 -51t-46 -129q0 -73 49 -113l-252 31l-14 -133l229 -29zM559 379l201 362l102 -401zM705 1051q0 34 22 63 t53 29q35 0 55.5 -23t20.5 -57q0 -42 -20.5 -66t-57.5 -24q-32 0 -52.5 22.5t-20.5 55.5z" />
<glyph unicode="&#xc6;" horiz-adv-x="1533" d="M121 -145v1271l1331 -2v-1269h-1331zM238 10l124 -51l142 332h297v-307h530v135h-381v250h346v135h-344v297h363v129h-998v-135h232zM547 416l137 375h123v-375h-260z" />
<glyph unicode="&#xc7;" horiz-adv-x="1429" d="M104 -385l54 1481l1151 -25l-52 -1483zM362 451q0 -186 85.5 -325t230.5 -175l-14 -127q44 -9 60.5 -20.5t16.5 -41.5q-9 -34 -41 -34q-45 0 -90 51l-12 -94q43 -43 117 -43q58 0 90.5 33.5t32.5 103.5q0 96 -121 117l8 47q32 -4 55 -4q247 0 355 286l-138 51 q-73 -188 -223 -188q-126 0 -197 99t-71 266q0 162 81 254t214 92q79 0 129.5 -47.5t56.5 -135.5l146 25q-14 147 -110 226t-237 79q-188 0 -306 -140.5t-118 -354.5z" />
<glyph unicode="&#xc8;" horiz-adv-x="1224" d="M66 1030l432 47l104 -123l98 17l-75 121l450 51l137 -1249l-1005 -109zM221 866l12 -133l121 15l88 -811l611 65l-15 133l-475 -53l-33 293l443 49l-15 131l-442 -49l-29 256l457 51l-14 131z" />
<glyph unicode="&#xc9;" horiz-adv-x="1275" d="M104 -135l64 1253l530 -28l-55 -132h121l74 123l344 -16l-68 -1253zM287 799l121 -8l-46 -816l613 -32l8 133l-479 26l14 293l445 -24l8 133l-445 24l15 256l458 -24l7 133l-713 37z" />
<glyph unicode="&#xca;" horiz-adv-x="1275" d="M94 1036l467 39l-76 -123l101 4l57 115l72 -108l104 6l-100 121l389 32l100 -1253l-1009 -80zM244 868l12 -131l121 8l63 -811l613 48l-11 131l-479 -37l-22 293l442 37l-10 131l-445 -35l-18 256l457 37l-11 133z" />
<glyph unicode="&#xcb;" horiz-adv-x="958" d="M29 0l65 1141l832 -43l-70 -1143zM178 764l98 -6l-36 -668l503 -27l5 107l-394 25l13 239l364 -20l8 108l-364 21l10 211l377 -23l6 109l-586 34zM313 942l140 -8l6 123l-140 8zM588 928l139 -8l6 122l-139 9z" />
<glyph unicode="&#xcc;" horiz-adv-x="878" d="M-10 1468l682 97l243 -1719l-677 -98zM195 1415l135 -213l90 23l-80 211zM213 1133l14 -115l135 20l148 -1018l113 17l-164 1130z" />
<glyph unicode="&#xcd;" horiz-adv-x="808" d="M61 -217v1755h635l17 -1755h-652zM209 969h125v-971h125v1081h-250v-110zM279 1180h149l158 252h-152z" />
<glyph unicode="&#xce;" horiz-adv-x="1056" d="M76 -166l182 1749l682 -82l-182 -1749zM352 1276l127 -14l101 149l69 -168l135 -16l-120 243l-150 19zM393 1063l135 -14l-118 -1022l112 -13l133 1133l-247 31z" />
<glyph unicode="&#xcf;" horiz-adv-x="1056" d="M88 1493l682 98l227 -1745l-680 -98zM236 1370l10 -123l139 13l-10 120zM293 1133l14 -115l135 20l148 -1018l112 17l-161 1130zM510 1395l10 -123l139 10l-10 123z" />
<glyph unicode="&#xd0;" horiz-adv-x="1103" d="M-14 -209l26 1243l1075 -26l-28 -1246zM168 813l102 -6v-342l-71 4l-6 -94l75 -4l-8 -385q124 -11 225 -11q204 0 314 120.5t110 330.5q0 119 -25 204t-81.5 147t-153 92t-235.5 30h-99q-61 0 -143 6zM344 76l2 295l201 -4v90l-193 8v342h117q358 0 358 -377 q0 -180 -85 -272t-246 -92q-83 0 -154 10z" />
<glyph unicode="&#xd1;" horiz-adv-x="1359" d="M119 -180v1376h409q-12 -12 -24 -33v-174q37 98 90 98q25 0 112.5 -46t114.5 -46q53 0 88 68v133h291v-1376h-1081zM276 795h84v-815h136v718l446 -718h145v950h-133v-715l-448 715h-230v-135zM643 1196h248q-38 -72 -82 -72q-29 0 -166 72z" />
<glyph unicode="&#xd2;" horiz-adv-x="1316" d="M-18 -168l120 1425l1129 -104l-121 -1427zM178 395q0 -139 50.5 -248.5t148.5 -174t229 -64.5q181 0 305.5 152.5t124.5 375.5q0 208 -117.5 340.5t-304.5 132.5t-311.5 -146t-124.5 -368zM313 393q0 160 84 270.5t209 110.5q126 0 210.5 -94t84.5 -246q0 -52 -12 -105 t-37.5 -104t-61.5 -90.5t-88 -63.5t-112 -24q-127 0 -202 98.5t-75 247.5zM537 1165l86 -198l104 -15l-47 191z" />
<glyph unicode="&#xd3;" horiz-adv-x="1232" d="M49 -225v1439l1120 -6v-1433h-1120zM178 395q0 -139 50.5 -248.5t148.5 -174t229 -64.5q181 0 305.5 152.5t124.5 375.5q0 208 -117.5 340.5t-304.5 132.5t-311.5 -146t-124.5 -368zM313 393q0 160 84 270.5t209 110.5q126 0 210.5 -94t84.5 -246q0 -52 -12 -105 t-37.5 -104t-61.5 -90.5t-88 -63.5t-112 -24q-127 0 -202 98.5t-75 247.5zM532 952l103 4l119 181h-136z" />
<glyph unicode="&#xd4;" horiz-adv-x="1316" d="M-18 -168l131 1413l1130 -104l-133 -1415zM178 395q0 -139 50.5 -248.5t148.5 -174t229 -64.5q181 0 305.5 152.5t124.5 375.5q0 208 -117.5 340.5t-304.5 132.5t-311.5 -146t-124.5 -368zM313 393q0 160 84 270.5t209 110.5q126 0 210.5 -94t84.5 -246q0 -52 -12 -105 t-37.5 -104t-61.5 -90.5t-88 -63.5t-112 -24q-127 0 -202 98.5t-75 247.5zM498 999l100 -12l84 119l51 -135l111 -15l-94 197l-121 14z" />
<glyph unicode="&#xd5;" horiz-adv-x="1316" d="M-2 989l369 25l18 -125q24 108 84 108q28 0 110.5 -27.5t108.5 -27.5q65 0 84 102l356 27l91 -1253l-1131 -78zM180 438q0 -233 122.5 -381.5t305.5 -148.5q188 0 309 135t121 348q0 147 -54 265t-153 185.5t-225 67.5q-188 0 -307 -134.5t-119 -336.5zM315 426 q0 155 79.5 250.5t209.5 95.5q58 0 109 -21t94 -63.5t68.5 -117t25.5 -171.5q0 -156 -82 -255t-213 -99q-123 0 -207 110t-84 271z" />
<glyph unicode="&#xd6;" horiz-adv-x="1316" d="M-18 -168l141 1387l1130 -105l-143 -1388zM178 395q0 -139 50.5 -248.5t148.5 -174t229 -64.5q181 0 305.5 152.5t124.5 375.5q0 208 -117.5 340.5t-304.5 132.5t-311.5 -146t-124.5 -368zM313 393q0 160 84 270.5t209 110.5q126 0 210.5 -94t84.5 -246q0 -52 -12 -105 t-37.5 -104t-61.5 -90.5t-88 -63.5t-112 -24q-127 0 -202 98.5t-75 247.5zM477 997l137 -16l15 123l-140 16zM750 967l139 -17l12 123l-137 17z" />
<glyph unicode="&#xd7;" horiz-adv-x="1007" d="M-12 985l889 123l127 -932l-889 -123zM129 764l248 -189l-189 -247l140 -103l186 246l250 -188l104 137l-250 190l189 248l-137 105l-189 -248l-248 188z" />
<glyph unicode="&#xd8;" horiz-adv-x="1316" d="M-18 -168l114 1247l1131 -104l-117 -1249zM131 10l80 -96l104 104q110 -110 293 -110q120 0 218.5 71t154 192t55.5 265q0 143 -59 252l113 115l-86 80l-97 -97q-114 123 -297 123q-122 0 -221.5 -69.5t-155 -187t-55.5 -257.5q0 -158 64 -274zM313 393q0 175 89.5 277 t234.5 102q95 0 172 -84l-465 -465q-31 73 -31 170zM412 117l462 469q12 -31 17.5 -66t6.5 -59t1 -70q0 -147 -91 -246.5t-214 -99.5q-110 0 -182 72z" />
<glyph unicode="&#xd9;" horiz-adv-x="1568" d="M55 1307l615 53l137 -180l119 8l-97 184l527 43l117 -1388l-535 -45q106 19 190 72.5t132 141.5t40 195l-61 783l-115 -9l62 -768q11 -128 -81.5 -218.5t-234.5 -90.5q-121 0 -201 84.5t-91 216.5l-60 723l-227 -18l10 -111l113 8l51 -612q15 -184 128.5 -294t289.5 -110 l-713 -57z" />
<glyph unicode="&#xda;" horiz-adv-x="1323" d="M51 51v1260h651l-55 -137h86l84 137h397v-1260h-477q157 9 255 118.5t98 268.5v664h-101v-664q0 -124 -77 -205t-199 -81q-119 0 -193 82.5t-74 209.5v658h-200v-103h102v-555q0 -166 92.5 -275t247.5 -118h-637z" />
<glyph unicode="&#xdb;" horiz-adv-x="1568" d="M12 168l244 1374l637 -115l-107 -122l105 -17l86 113l49 -139l109 -19l-68 154l475 -82l-246 -1374l-473 77q156 0 269.5 101.5t142.5 265.5l129 723l-111 20l-131 -720q-22 -122 -101.5 -194.5t-191.5 -72.5q-145 0 -228 88t-83 222q0 23 8 69l127 715l-225 41l-18 -113 l110 -20l-106 -602q-8 -44 -8 -101q0 -150 83.5 -257.5t225.5 -139.5z" />
<glyph unicode="&#xdc;" horiz-adv-x="1568" d="M119 -27v1395h1306v-1395h-544q180 9 292.5 128.5t112.5 301.5v734h-115v-734q0 -140 -86.5 -228.5t-222.5 -88.5q-135 0 -217 91t-82 233v727h-227v-115h115v-612q0 -185 106 -306.5t287 -130.5h-725zM672 1194h139v125h-139v-125zM948 1194h142v125h-142v-125z" />
<glyph unicode="&#xdd;" horiz-adv-x="1454" d="M104 1094l1201 69l67 -1237l-1200 -67zM303 905l4 -92l105 6l301 -409l20 -392l90 7l-20 387l305 501l-78 48l-276 -455l-297 405zM621 928h108l117 186h-148z" />
<glyph unicode="&#xde;" horiz-adv-x="1359" d="M92 1018l1075 117l133 -1213l-1075 -119zM344 940l107 -958l145 16l-18 182q270 24 377.5 95t107.5 214q0 291 -336 291q-82 0 -209 -16l-20 197zM530 618q114 19 199 19q184 0 184 -123q0 -99 -79.5 -136t-272.5 -50z" />
<glyph unicode="&#xdf;" horiz-adv-x="1056" d="M-47 141l203 1442l917 -127l-205 -1442zM125 313l172 -24l100 719q9 64 40.5 89t105.5 25q64 0 95.5 -29.5t31.5 -80.5q0 -79 -24 -117.5t-97 -38.5q-35 0 -76 8l-22 -166q91 -13 134.5 -42t43.5 -93q0 -73 -32.5 -110t-74.5 -37q-71 0 -108 37l-21 -160q20 -21 60.5 -35 t89.5 -14q46 0 89 19.5t78 56.5t56.5 97t21.5 134q0 119 -96 197q148 71 148 288q0 120 -80.5 185t-241.5 65q-135 0 -203.5 -60t-87.5 -192z" />
<glyph unicode="&#xe0;" horiz-adv-x="677" d="M-27 1051h713l-4 -965q-48 3 -55 70q-15 197 -23 266q-18 147 -69 199.5t-154 52.5q-98 0 -159.5 -48.5t-90.5 -152.5l86 -22q42 135 160 135q68 0 95.5 -33.5t37.5 -138.5q-67 0 -121 -5.5t-107 -21t-89 -41t-58 -68t-22 -100.5q0 -34 10 -63t34 -55t70.5 -41t112.5 -15 q163 0 219 80q7 -40 44 -64t79 -24v-367h-672zM207 180q0 83 76 119q70 32 235 35q7 -49 14 -166q-25 -45 -66.5 -66.5t-117.5 -21.5q-70 0 -105.5 27.5t-35.5 72.5zM238 918l100 -160h88l-64 160h-124z" />
<glyph unicode="&#xe1;" horiz-adv-x="677" d="M-39 -346l64 1393l708 -50l-71 -944q-23 3 -37.5 23t-14.5 49q0 117 -2.5 190t-11.5 137.5t-24 98.5t-42 59t-63 33t-90 8q-86 0 -144.5 -43t-91.5 -137l84 -29q48 121 152 121q75 0 103.5 -35t31.5 -141q-31 2 -88 2q-72 0 -127.5 -10.5t-101 -35t-69.5 -68.5t-24 -107 q0 -33 11 -61.5t36.5 -55t76 -42t120.5 -15.5q138 0 193 65q4 -40 39 -65.5t77 -28.5l-26 -358zM197 170q0 72 52.5 106.5t188.5 34.5q49 0 78 -2q2 -41 2 -166q-25 -37 -59.5 -55t-93.5 -18q-168 0 -168 100zM375 748l82 -9l102 138l-110 8z" />
<glyph unicode="&#xe2;" horiz-adv-x="677" d="M12 -162l43 1159l670 -28l-63 -906q-52 19 -52 76q0 29 1 77.5t1 68.5q0 207 -51 298t-172 91q-94 0 -155.5 -43.5t-96.5 -141.5l86 -30q50 127 160 127q73 0 102 -37.5t29 -134.5h-31q-381 0 -381 -211q0 -88 64.5 -144.5t193.5 -56.5q113 0 185 55q29 -75 110 -84 l-8 -166zM195 193q0 131 231 131h90q2 -18 2 -70v-98q-52 -76 -139 -76q-75 0 -129.5 33t-54.5 80zM260 772l76 -4l55 88l43 -96l78 -4l-74 137l-88 6z" />
<glyph unicode="&#xe3;" horiz-adv-x="677" d="M-27 1051h713l-4 -965q-48 3 -55 70q-15 197 -23 266q-18 147 -69 199.5t-154 52.5q-98 0 -159.5 -48.5t-90.5 -152.5l86 -22q42 135 160 135q68 0 95.5 -33.5t37.5 -138.5q-67 0 -121 -5.5t-107 -21t-89 -41t-58 -68t-22 -100.5q0 -34 10 -63t34 -55t70.5 -41t112.5 -15 q163 0 219 80q7 -40 44 -64t79 -24v-367h-672zM207 180q0 83 76 119q70 32 235 35q7 -49 14 -166q-25 -45 -66.5 -66.5t-117.5 -21.5q-70 0 -105.5 27.5t-35.5 72.5zM240 803q21 59 53 59q15 0 66.5 -28.5t68.5 -28.5q32 0 53 43v106q-27 -71 -59 -71q-17 0 -70.5 27.5 t-68.5 27.5q-27 0 -43 -31v-104z" />
<glyph unicode="&#xe4;" horiz-adv-x="677" d="M-51 -340l80 1411l712 -49l-86 -961q-47 15 -47 74q0 35 1 93.5t1 80.5q0 193 -55.5 279t-183.5 86q-163 0 -234 -182l86 -31q47 121 158 121q76 0 104.5 -36t28.5 -134q-76 0 -134.5 -5t-113 -18.5t-89.5 -36t-56 -59t-21 -86.5q0 -57 21.5 -99t59 -64t80.5 -32t93 -10 q67 0 108 11.5t79 41.5q29 -75 108 -84l-28 -352zM188 195q0 63 57 96t163 33h28q23 0 33 -2h45q0 -8 1 -31.5t1 -38.5q0 -12 -1 -45t-1 -51q-52 -76 -156 -76q-61 0 -115.5 36t-54.5 79zM211 776l127 -6l8 115l-127 6zM467 762l127 -8l8 114l-127 9z" />
<glyph unicode="&#xe5;" horiz-adv-x="677" d="M-27 1051h713l-4 -965q-48 3 -55 70q-15 197 -23 266q-18 147 -69 199.5t-154 52.5q-98 0 -159.5 -48.5t-90.5 -152.5l86 -22q42 135 160 135q68 0 95.5 -33.5t37.5 -138.5q-67 0 -121 -5.5t-107 -21t-89 -41t-58 -68t-22 -100.5q0 -34 10 -63t34 -55t70.5 -41t112.5 -15 q163 0 219 80q7 -40 44 -64t79 -24v-367h-672zM207 180q0 83 76 119q70 32 235 35q7 -49 14 -166q-25 -45 -66.5 -66.5t-117.5 -21.5q-70 0 -105.5 27.5t-35.5 72.5zM260 817q0 -47 29.5 -77.5t72.5 -30.5t73 30.5t30 77.5t-30 81t-73 34t-72.5 -33t-29.5 -82zM313 817 q0 27 12.5 43.5t36.5 16.5q23 0 36.5 -16.5t13.5 -43.5q0 -25 -13.5 -41t-36.5 -16q-24 0 -36.5 15.5t-12.5 41.5z" />
<glyph unicode="&#xe6;" horiz-adv-x="1353" d="M-27 -371v1180l1379 12l22 -1169zM135 82q0 -94 57 -146.5t173 -52.5q195 0 280 115q76 -115 268 -115q116 0 197 58t113 165h-209q-7 -28 -38.5 -45.5t-70.5 -17.5q-59 0 -96.5 43t-42.5 113h465v26q0 389 -328 389q-138 0 -213 -69q-69 69 -223 69q-302 0 -309 -245 h184q13 88 115 88q46 0 74 -16t28 -46q0 -32 -20 -46t-80 -23q-66 -10 -106.5 -19t-86.5 -27t-71.5 -42t-42.5 -63.5t-17 -92.5zM336 94q0 38 27.5 59.5t97.5 36.5q85 17 100 37v-59q0 -58 -40 -98.5t-111 -40.5q-74 0 -74 65zM770 319q6 66 40.5 100t88.5 34q55 0 89.5 -34 t35.5 -100h-254z" />
<glyph unicode="&#xe7;" horiz-adv-x="1079" d="M4 1018l856 92l139 -1589l-852 -94zM178 340q0 -169 90 -280.5t252 -129.5l21 -110q16 2 37 2q20 0 34.5 -10.5t14.5 -28.5q0 -43 -49 -43q-37 0 -68 31l12 -90q24 -15 76 -15q54 0 85.5 33.5t31.5 75.5q0 60 -29.5 91.5t-81.5 31.5q-31 0 -33 -2l-8 34l27 4 q121 29 190 111t84 211l-110 16q-4 -108 -57.5 -169.5t-139.5 -61.5q-104 0 -185 80.5t-81 189.5q0 171 64.5 267t185.5 96q137 0 186 -174l109 35q-36 121 -116.5 187t-187.5 66q-164 0 -259 -125t-95 -323z" />
<glyph unicode="&#xe8;" horiz-adv-x="1583" d="M88 -287l182 1575l1254 -139l-185 -1575zM403 317q0 -207 116 -343t304 -136q303 0 443 289l-293 37q-30 -49 -111 -49q-71 0 -123.5 43.5t-52.5 122.5l608 -68q15 107 15 172q0 102 -26.5 187t-79.5 152t-140.5 104.5t-202.5 37.5q-197 0 -327 -157t-130 -392zM737 1200 l131 -266l140 -16l-74 260zM750 520q16 37 47 55.5t67 18.5q46 0 84 -27t47 -71z" />
<glyph unicode="&#xe9;" horiz-adv-x="1583" d="M113 1219l1259 71l92 -1614l-1257 -71zM408 375q0 -230 122 -380.5t308 -150.5q94 0 172 28.5t133.5 79.5t93.5 115t61 142l-294 -12q-13 -33 -51 -52.5t-85 -19.5q-60 0 -107.5 35.5t-58.5 103.5l611 35q0 94 -15.5 178t-49.5 158.5t-84 128t-123.5 84.5t-163.5 31 q-211 0 -340 -140.5t-129 -363.5zM725 510q11 46 47 70t78 24q40 0 73 -20.5t48 -57.5zM780 936h113l94 235h-153z" />
<glyph unicode="&#xea;" horiz-adv-x="1359" d="M-6 854l489 102l-69 -178l121 15l65 151l100 -131l127 21l-127 170l400 83l250 -1392l-1106 -234zM324 311q0 -231 118.5 -386.5t282.5 -155.5q59 0 115 20q259 88 299 397l-260 -53q-9 -37 -49 -60.5t-87 -23.5t-85 27.5t-56 83.5l539 114q-16 109 -47 198t-79 159 t-118.5 108.5t-157.5 38.5q-188 0 -301.5 -132.5t-113.5 -334.5zM594 401q6 52 41 79.5t76 27.5q30 0 56.5 -15.5t41.5 -43.5z" />
<glyph unicode="&#xeb;" horiz-adv-x="1083" d="M55 -219v1411l967 12v-1423h-967zM211 338q0 -172 90 -282.5t231 -110.5q135 0 222 69t129 191h-226q-21 -49 -98 -49q-48 0 -85.5 28t-43.5 82l467 6q0 95 -16.5 173t-53 143t-102.5 101t-158 36q-160 0 -258 -107t-98 -280zM262 856h182v162h-182v-162zM457 455 q9 29 36 47t56 18q32 0 59 -16.5t37 -46.5zM623 856h182v162h-182v-162z" />
<glyph unicode="&#xec;" horiz-adv-x="974" d="M176 1456l701 33l79 -1710l-700 -33zM383 1227l160 -254h141l-102 254h-199zM457 838l8 -185l86 4l29 -684l184 9l-37 870z" />
<glyph unicode="&#xed;" horiz-adv-x="974" d="M176 1456l701 33l79 -1710l-700 -33zM457 838l8 -185l86 4l29 -684l184 9l-37 870zM483 1016h150l155 254h-198z" />
<glyph unicode="&#xee;" horiz-adv-x="974" d="M176 1456l701 33l79 -1710l-700 -33zM344 1008h141l93 176l94 -176h147l-157 252h-166zM457 838l8 -185l86 4l29 -684l184 9l-37 870z" />
<glyph unicode="&#xef;" horiz-adv-x="974" d="M176 1456l701 33l79 -1710l-700 -33zM250 1112l8 -174l197 10l-9 174zM430 653l94 4l29 -684h184l-37 879l-270 -14v-185zM637 1130l8 -174l197 11l-8 174z" />
<glyph unicode="&#xf0;" d="M125 -72l166 1524l973 -106l-166 -1522zM264 403q0 -160 103 -261t258 -101q190 0 304.5 175.5t114.5 455.5q0 175 -49 291l80 55l-61 80l-68 -51q-101 131 -303 131q-96 0 -170 -45l62 -97q50 29 108 29q137 0 207 -94l-78 -60l45 -71l76 53q33 -98 33 -281 q-76 162 -314 162q-152 0 -250 -107t-98 -264zM379 403q0 112 66.5 185.5t166.5 73.5q121 0 199 -67t78 -171q0 -113 -76.5 -191.5t-189.5 -78.5q-110 0 -177 71t-67 178z" />
<glyph unicode="&#xf1;" horiz-adv-x="1492" d="M100 -154l80 1170l490 -35v-131q35 96 90 96q25 0 112.5 -46t114.5 -46q29 0 53.5 17.5t34.5 52.5v28l330 -22l-84 -1170zM424 651l102 -12l-59 -621l182 -16l58 543q27 92 165 92q66 0 104.5 -36.5t31.5 -106.5l-52 -568l191 -14l47 553q15 170 -70 263t-239 93 q-59 0 -119.5 -18.5t-99.5 -48.5l4 61l-232 21z" />
<glyph unicode="&#xf2;" horiz-adv-x="1619" d="M92 1274l1329 112l138 -1615l-1330 -115zM459 449q0 -96 27 -183.5t78 -158t134.5 -112.5t188.5 -42q207 0 322.5 132t115.5 378q0 218 -114.5 339.5t-311.5 121.5q-204 0 -322 -128t-118 -347zM602 1249l158 -252h141l-100 252h-199zM692 446q0 113 57 178.5t154 65.5 q42 0 76 -17.5t55.5 -45.5t36.5 -65t21 -75.5t6 -78.5q0 -111 -52 -167.5t-149 -56.5q-88 0 -146.5 73.5t-58.5 188.5z" />
<glyph unicode="&#xf3;" horiz-adv-x="1619" d="M125 -262l68 1622l1333 -55l-68 -1620zM446 414q0 -93 26.5 -175t78 -149t137 -106t195.5 -39q92 0 167 30.5t124.5 82t83 121.5t48.5 147t15 161q0 196 -119.5 312t-324.5 116q-190 0 -310.5 -136t-120.5 -365zM680 414q0 125 60 196.5t155 71.5q91 0 140.5 -72 t49.5 -174q0 -129 -51 -194.5t-143 -65.5t-151.5 64t-59.5 174zM801 1057l145 -21l189 230l-197 26z" />
<glyph unicode="&#xf4;" horiz-adv-x="1619" d="M92 1274l1329 112l138 -1615l-1330 -115zM459 449q0 -96 27 -183.5t78 -158t134.5 -112.5t188.5 -42q207 0 322.5 132t115.5 378q0 218 -114.5 339.5t-311.5 121.5q-204 0 -322 -128t-118 -347zM592 1004h141l92 176l97 -176h145l-158 251h-166zM692 446q0 113 57 178.5 t154 65.5q42 0 76 -17.5t55.5 -45.5t36.5 -65t21 -75.5t6 -78.5q0 -111 -52 -167.5t-149 -56.5q-88 0 -146.5 73.5t-58.5 188.5z" />
<glyph unicode="&#xf5;" horiz-adv-x="1619" d="M47 -184l238 1605l1319 -194l-238 -1604zM434 385q0 -86 26 -163.5t78 -142t139.5 -102.5t199.5 -38q136 0 238 73.5t152 190t50 256.5q0 205 -120.5 327.5t-328.5 122.5q-183 0 -308.5 -143.5t-125.5 -380.5zM668 397q0 126 63.5 201.5t153.5 75.5t141 -61.5t51 -159.5 q0 -136 -56 -210.5t-144 -74.5q-93 0 -151 62t-58 167zM715 1030q49 76 100 76q27 0 112.5 -72.5t116.5 -72.5q38 0 82 47l41 176q-58 -94 -114 -94q-25 0 -113 74.5t-117 74.5q-38 0 -67 -39z" />
<glyph unicode="&#xf6;" horiz-adv-x="1619" d="M92 1274l1329 112l138 -1615l-1330 -115zM459 449q0 -96 27 -183.5t78 -158t134.5 -112.5t188.5 -42q207 0 322.5 132t115.5 378q0 218 -114.5 339.5t-311.5 121.5q-204 0 -322 -128t-118 -347zM537 1124l18 -161l186 16l-18 166zM692 446q0 113 57 178.5t154 65.5 q42 0 76 -17.5t55.5 -45.5t36.5 -65t21 -75.5t6 -78.5q0 -111 -52 -167.5t-149 -56.5q-88 0 -146.5 73.5t-58.5 188.5zM901 1165l19 -166l186 21l-19 162z" />
<glyph unicode="&#xf7;" horiz-adv-x="905" d="M-94 762l882 149l168 -931l-884 -146zM104 381l17 -90l633 115l-17 90zM328 694l20 -119l88 11l-22 123zM420 184l18 -92l90 14l-16 91z" />
<glyph unicode="&#xf8;" horiz-adv-x="1619" d="M92 1274l1329 112l138 -1615l-1330 -115zM416 -66l94 -79l145 182q110 -84 252 -84q174 0 296 131t122 313q0 181 -111 328l117 143l-121 95l-102 -132q-129 97 -260 97q-167 0 -278 -141.5t-111 -344.5q0 -186 104 -317zM686 442q0 103 51 171.5t137 78.5q62 0 107 -26 l-268 -349q-27 59 -27 125zM801 213l272 338q18 -48 23 -98q0 -123 -46.5 -199t-138.5 -76q-60 0 -110 35z" />
<glyph unicode="&#xf9;" horiz-adv-x="1472" d="M106 -176l13 1450l1259 -14l-10 -1450zM295 309q-3 -329 301 -346q76 -5 146 20t108 70v-76l240 -4l4 191l-88 2l8 637l-195 -2l-10 -441q-2 -99 -47.5 -155.5t-138.5 -52.5q-145 9 -142 174l6 544l-188 2zM535 1196l118 -233l121 -9l-69 228z" />
<glyph unicode="&#xfa;" horiz-adv-x="1472" d="M98 1188l1225 61l68 -1360l-1225 -61zM289 866l28 -551q17 -321 316 -321q75 0 141.5 28t99.5 76l5 -73l233 10l-8 186l-86 -4l-31 627l-190 -15l20 -434q5 -97 -37.5 -156t-132.5 -59q-70 0 -106.5 39t-40.5 123l-27 535zM545 952h119l127 203h-162z" />
<glyph unicode="&#xfb;" horiz-adv-x="1472" d="M94 1219l1225 61l72 -1391l-1225 -61zM289 866l28 -551q17 -321 316 -321q75 0 141.5 28t99.5 76l5 -73l233 10l-8 186l-86 -4l-31 627l-190 -15l20 -434q5 -97 -37.5 -156t-132.5 -59q-70 0 -106.5 39t-40.5 123l-27 535zM459 963h116l76 145l78 -145h121l-131 206h-137 z" />
<glyph unicode="&#xfc;" horiz-adv-x="1472" d="M104 1229l1225 61l62 -1401l-1225 -61zM289 866l28 -551q17 -321 316 -321q75 0 141.5 28t99.5 76l5 -73l233 10l-8 186l-86 -4l-31 627l-190 -15l20 -434q5 -97 -37.5 -156t-132.5 -59q-70 0 -106.5 39t-40.5 123l-27 535zM289 1169l14 -200l225 16l-16 201zM733 1202 l15 -201l225 17l-15 201z" />
<glyph unicode="&#xfd;" horiz-adv-x="1406" d="M113 -426v1458h573l-65 -155h149l98 159l408 8l27 -1470h-1190zM274 825l5 -168h120l287 -655l-106 -276l161 -62l433 1141l-160 61l-240 -637l-264 602z" />
<glyph unicode="&#xfe;" horiz-adv-x="1153" d="M-2 -27l149 1514l990 -103l-150 -1509l-680 68l62 491q83 -127 227 -127q138 0 228.5 119t90.5 287q0 157 -79.5 259.5t-208.5 102.5q-109 0 -201 -92l39 399l-201 19l-8 -105l98 -10l-151 -1331zM412 672q0 62 11.5 113t36.5 93t69.5 65.5t105.5 23.5q81 0 131.5 -74.5 t50.5 -190.5q0 -114 -61 -202t-158 -88q-86 0 -136 69.5t-50 190.5z" />
<glyph unicode="&#xff;" horiz-adv-x="1406" d="M113 -426v1612l1163 22l27 -1634h-1190zM274 825l5 -168h120l287 -655l-106 -276l161 -62l433 1141l-160 61l-240 -637l-264 602zM401 1110l7 -192l217 4l-7 190zM829 1122l7 -192l221 4l-6 190z" />
<glyph unicode="&#x152;" horiz-adv-x="1699" d="M-18 -168l114 1247l1665 -110l-65 -1256zM178 395q0 -216 116 -351.5t312 -135.5q164 0 273 112l-5 -110l613 -33l6 133l-477 25l14 295l445 -25l8 133l-447 23l15 256l460 -23l7 131l-603 31l-6 -70q-120 123 -299 123q-122 0 -221.5 -69.5t-155 -187t-55.5 -257.5z M313 393q0 158 83 268.5t210 110.5q134 0 213.5 -96.5t79.5 -253.5q0 -93 -25 -166.5t-68.5 -118.5t-97 -68.5t-114.5 -23.5q-128 0 -204.5 96.5t-76.5 251.5z" />
<glyph unicode="&#x153;" horiz-adv-x="1978" d="M-102 -164l243 1417l1755 -227l-161 -1452zM168 383q0 -132 54 -239t163.5 -172.5t257.5 -65.5q124 0 227 65q54 -78 155 -129t228 -51q119 0 214 63t153 183l-268 51q-13 -30 -45.5 -46.5t-73.5 -16.5q-81 0 -127.5 55t-46.5 143q0 15 4 51l592 -112q26 125 26 233 q0 206 -111 323.5t-321 117.5q-123 0 -227 -68q-59 85 -158 133.5t-227 48.5q-96 0 -181.5 -40t-149 -112t-101 -179.5t-37.5 -235.5zM438 358q0 170 59 257t148 87q99 0 150 -52.5t51 -151.5q0 -170 -60 -258t-149 -88q-90 0 -144.5 55t-54.5 151zM1100 446q42 156 162 156 q75 0 120 -44t45 -122q0 -15 -4 -51z" />
<glyph unicode="&#x178;" horiz-adv-x="1454" d="M104 1094l1201 69l67 -1237l-1200 -67zM303 905l4 -92l105 6l301 -409l20 -392l90 7l-20 387l305 501l-78 48l-276 -455l-297 405zM518 1024l6 -123l140 8l-7 123zM791 1042l8 -122l139 8l-8 123z" />
<glyph unicode="&#x2c6;" horiz-adv-x="585" d="M55 920l152 249h164l159 -249h-147l-94 174l-92 -174h-142z" />
<glyph unicode="&#x2dc;" horiz-adv-x="534" d="M59 942v172q27 55 74 55q25 0 117 -46t115 -46q60 0 100 119v-180q-37 -70 -88 -70q-30 0 -115.5 46t-111.5 46q-56 0 -91 -96z" />
<glyph unicode="&#x2000;" horiz-adv-x="942" />
<glyph unicode="&#x2001;" horiz-adv-x="1884" />
<glyph unicode="&#x2002;" horiz-adv-x="942" />
<glyph unicode="&#x2003;" horiz-adv-x="1884" />
<glyph unicode="&#x2004;" horiz-adv-x="628" />
<glyph unicode="&#x2005;" horiz-adv-x="471" />
<glyph unicode="&#x2006;" horiz-adv-x="314" />
<glyph unicode="&#x2007;" horiz-adv-x="314" />
<glyph unicode="&#x2008;" horiz-adv-x="235" />
<glyph unicode="&#x2009;" horiz-adv-x="376" />
<glyph unicode="&#x200a;" horiz-adv-x="104" />
<glyph unicode="&#x2010;" horiz-adv-x="1071" d="M111 743h843l9 -581h-840zM354 383h420v106h-420v-106z" />
<glyph unicode="&#x2011;" horiz-adv-x="1071" d="M111 743h843l9 -581h-840zM354 383h420v106h-420v-106z" />
<glyph unicode="&#x2012;" horiz-adv-x="1071" d="M111 743h843l9 -581h-840zM354 383h420v106h-420v-106z" />
<glyph unicode="&#x2013;" horiz-adv-x="1087" d="M33 774l1071 12l8 -897l-1071 -12zM84 455l2 -168l946 10l-2 168z" />
<glyph unicode="&#x2014;" horiz-adv-x="1988" d="M16 55l35 1102l1923 -61l-35 -1102zM100 485l1782 -57l6 227l-1779 58z" />
<glyph unicode="&#x2018;" horiz-adv-x="970" d="M-147 1597l669 220l281 -871l-670 -215zM61 1526l70 -211q51 -157 131 -225t217 -68q20 0 78 4l-35 102q-96 0 -150 33.5t-89 130.5l168 56l-93 272z" />
<glyph unicode="&#x2019;" horiz-adv-x="970" d="M225 961l267 872l673 -209l-268 -868zM463 1004q50 -5 59 -5q137 0 216.5 77t127.5 249l62 219l-285 98l-84 -292l160 -56q-32 -94 -79 -135t-122 -41q-4 0 -12 1t-12 1z" />
<glyph unicode="&#x201a;" horiz-adv-x="575" d="M-47 -18l104 1458l471 -41l-106 -1456zM98 49q134 13 188.5 85.5t63.5 232.5l10 182l-237 20l-10 -239l129 -13q-11 -87 -40.5 -125.5t-99.5 -50.5z" />
<glyph unicode="&#x201c;" horiz-adv-x="651" d="M-86 1704l750 92l202 -1446l-747 -92zM61 1499l21 -168q19 -143 79.5 -206t196.5 -76l-10 84q-70 9 -106.5 44.5t-48.5 112.5l135 17l-29 219zM348 1534l21 -168q17 -141 79 -206t197 -77l-10 84q-70 8 -107.5 44.5t-46.5 111.5l131 18l-24 220z" />
<glyph unicode="&#x201d;" horiz-adv-x="651" d="M-193 420l357 1417l700 -174l-354 -1417zM72 1063q133 -6 200.5 58t100.5 216l39 176l-230 62l-51 -236l127 -32q-20 -82 -59 -116t-109 -36zM360 985q133 -4 201 60t101 217l36 176l-229 61l-51 -235l129 -35q-22 -82 -60.5 -116t-107.5 -34z" />
<glyph unicode="&#x201e;" horiz-adv-x="651" d="M-25 1411h756l49 -1472h-751zM102 535l21 -240l131 6q0 -88 -23.5 -130t-91.5 -65l8 -92q114 29 162.5 94t48.5 183q0 20 -4 74l-14 180zM399 547l21 -240l133 4q0 -86 -24.5 -127.5t-92.5 -64.5l10 -94q113 31 162 95.5t49 182.5q0 20 -4 74l-16 180z" />
<glyph unicode="&#x2022;" horiz-adv-x="1132" d="M-61 436l213 1172l1048 -193l-213 -1171zM197 942q0 -154 108.5 -265.5t269.5 -111.5q152 0 264.5 109t112.5 266q0 156 -110 269.5t-269 113.5q-152 0 -264 -112t-112 -269z" />
<glyph unicode="&#x2026;" horiz-adv-x="1146" d="M49 20l238 900l895 -201l-238 -897zM238 152l131 -35l45 174l-129 37zM473 102l133 -36l45 176l-131 34zM713 57l131 -32l47 172l-133 34z" />
<glyph unicode="&#x202f;" horiz-adv-x="376" />
<glyph unicode="&#x2039;" horiz-adv-x="452" d="M-96 238l71 954l562 -45l-76 -954zM31 647l350 -239v196l-180 115l180 117v202l-350 -247v-144z" />
<glyph unicode="&#x203a;" horiz-adv-x="503" d="M-96 1188l561 45l72 -954l-557 -46zM51 1026l19 -201l188 -100l-172 -131l16 -199l328 273l-8 145z" />
<glyph unicode="&#x205f;" horiz-adv-x="471" />
<glyph unicode="&#x20ac;" horiz-adv-x="1079" d="M51 -209l66 1305l858 -45l-68 -1305zM125 229l82 -4q24 -133 123 -210.5t221 -77.5q121 0 199 75l-68 90q-55 -55 -121 -55q-54 0 -100.5 16t-85.5 56.5t-53 101.5l215 -12l57 78l-293 14q-6 27 -6 72q0 27 2 37l344 -19l41 84l-369 14q69 193 230 193q70 0 117.5 -27 t80.5 -90l68 101q-80 127 -252 127q-137 0 -230.5 -75.5t-129.5 -221.5l-52 2l-14 -78l55 -4q-2 -18 -2 -62q0 -33 2 -47l-45 2z" />
<glyph unicode="&#x2122;" horiz-adv-x="1347" d="M-31 711l273 925l1124 -329l-272 -928zM217 801l119 -37l153 522l115 -33l33 113l-348 104l-33 -114l113 -35zM571 698l99 -28l104 383l-18 -410l51 -16l197 358l-115 -379l96 -31l186 637l-120 35l-197 -356l14 405l-110 39z" />
</font>
</defs>
</svg>
